<svg xmlns="http://www.w3.org/2000/svg" width="592" height="450.631" viewBox="0 0 592 450.631">
  <g id="accounting2" transform="translate(0 -0.021)" style="isolation: isolate">
    <g id="Layer_2" data-name="Layer 2" transform="translate(0 0.022)">
      <g id="Layer_1" data-name="Layer 1" transform="translate(0 0)">
        <path id="Path_1006" data-name="Path 1006" d="M565.681,442.784c21.578-35.949,54.594-106.416,57.161-150.853,3.8-65.688-37.335-54.463-67.357-88.561-13.095-14.871,24.663-63.4-31.161-102.266-34.634-24.111-83.373,23.974-112.113-36.16C382.766,3.313,269.459-18.237,177.348,16.86c-140.372,53.516,3.629,105.9-87.691,148.246-54.63,25.333-28.7,80.468-23.244,98.4,4.755,15.618,31.62,34.1-7.508,74.508-32.575,33.643-7.047,87.631,2.416,104.766Z" transform="translate(-31.087 -0.022)" fill="#b0cff4" opacity="0.5"/>
        <path id="Path_1007" data-name="Path 1007" d="M2.29,1603.1H581.617c1.266,0,2.29,1.686,2.29,3.764s-1.024,3.761-2.29,3.761H2.29c-1.263,0-2.29-1.686-2.29-3.761S1.027,1603.1,2.29,1603.1Z" transform="translate(0 -1163.017)" fill="#f7cc7f"/>
        <path id="Path_1008" data-name="Path 1008" d="M999.234,256.224l-1.85-1.848a.857.857,0,0,0-1.211,0l-1.848,1.848a.854.854,0,0,1-1.211,0l-1.85-1.848a.857.857,0,0,0-1.211,0l-1.848,1.848a.854.854,0,0,1-1.211,0l-1.85-1.848a.857.857,0,0,0-1.211,0l-1.848,1.848a.859.859,0,0,1-1.213,0l-1.848-1.848a.862.862,0,0,0-1.213,0l-1.848,1.848a.854.854,0,0,1-1.211,0l-1.842-1.842a.856.856,0,0,0-1.211,0l-1.848,1.85a.854.854,0,0,1-1.211,0l-1.85-1.848a.854.854,0,0,0-1.211,0l-1.848,1.85a.859.859,0,0,1-1.213,0l-1.848-1.848a.859.859,0,0,0-1.213,0l-1.845,1.85a.859.859,0,0,1-1.213,0l-1.848-1.848a.859.859,0,0,0-1.213,0l-1.848,1.85a.854.854,0,0,1-1.211,0l-1.85-1.848a.854.854,0,0,0-1.211,0l-1.848,1.85a.854.854,0,0,1-1.211,0l-1.85-1.848a.854.854,0,0,0-1.211,0l-1.848,1.85a.859.859,0,0,1-1.213,0L936.2,254.4a.859.859,0,0,0-1.213,0l-1.848,1.85a.854.854,0,0,1-1.211,0l-1.85-1.848a.854.854,0,0,0-1.211,0l-1.848,1.85a.854.854,0,0,1-1.211,0l-1.85-1.848a.854.854,0,0,0-1.211,0l-1.848,1.85a.856.856,0,0,1-1.211,0l-1.85-1.848a.854.854,0,0,0-1.211,0l-1.848,1.85a.862.862,0,0,1-1.213,0l-1.848-1.848a.859.859,0,0,0-1.213,0l-1.848,1.848a.854.854,0,0,1-1.211,0l-1.85-1.848a.854.854,0,0,0-1.211,0l-1.848,1.848a.857.857,0,0,1-1.211,0l-1.85-1.848a.854.854,0,0,0-1.211,0l-1.848,1.848a.862.862,0,0,1-1.213,0l-1.848-1.848a.854.854,0,0,0-1.211,0l-1.864,1.861a.862.862,0,0,1-1.213,0l-1.848-1.848a.859.859,0,0,0-1.213,0h0a.851.851,0,0,0-.25.6l-.667,149,117.3.357.513-150.612h0l-2.454,2.454a.854.854,0,0,1-1.211,0Z" transform="translate(-642.112 -184.11)" fill="#f7f7f7"/>
        <rect id="Rectangle_111" data-name="Rectangle 111" width="117.296" height="5.628" transform="translate(360.294 222.893) rotate(179.98)" fill="#e3e3e3" style="mix-blend-mode: multiply;isolation: isolate"/>
        <path id="Path_1009" data-name="Path 1009" d="M967.073,728.3l68.194-.027a3.473,3.473,0,0,1,3.473,3.473h0a3.473,3.473,0,0,1-3.47,3.475l-68.194.027a3.473,3.473,0,0,1-3.475-3.481h0A3.478,3.478,0,0,1,967.073,728.3Z" transform="translate(-699.069 -528.349)" fill="#d4d4d4"/>
        <path id="Path_1010" data-name="Path 1010" d="M1098.02,676.589l46.09-.019a2.413,2.413,0,0,1,2.413,2.41h0a2.411,2.411,0,0,1-2.41,2.413l-46.09.019a2.408,2.408,0,0,1-2.413-2.41h0A2.413,2.413,0,0,1,1098.02,676.589Z" transform="translate(-794.839 -490.841)" fill="#e0e0e0"/>
        <path id="Path_1011" data-name="Path 1011" d="M1098,628.2l46.09-.019a2.411,2.411,0,0,1,2.413,2.41h0a2.413,2.413,0,0,1-2.41,2.413l-46.09.019a2.413,2.413,0,0,1-2.413-2.41h0A2.41,2.41,0,0,1,1098,628.2Z" transform="translate(-794.825 -455.736)" fill="#e0e0e0"/>
        <path id="Path_1012" data-name="Path 1012" d="M1097.98,584.8l46.09-.022a2.413,2.413,0,0,1,2.413,2.413h0a2.41,2.41,0,0,1-2.41,2.41l-46.09.022a2.413,2.413,0,0,1-2.413-2.413h0A2.41,2.41,0,0,1,1097.98,584.8Z" transform="translate(-794.81 -424.25)" fill="#e0e0e0"/>
        <path id="Path_1013" data-name="Path 1013" d="M996.213,518.532l54.268-.022a1.746,1.746,0,0,1,1.743,1.74h0a1.743,1.743,0,0,1-1.743,1.743l-54.268.025a1.746,1.746,0,0,1-1.743-1.743h0A1.743,1.743,0,0,1,996.213,518.532Z" transform="translate(-721.464 -376.173)" fill="#e0e0e0"/>
        <path id="Path_1014" data-name="Path 1014" d="M954.01,493.2l77.435-.033a1.743,1.743,0,0,1,1.743,1.743h0a1.743,1.743,0,0,1-1.74,1.743l-77.435.036a1.743,1.743,0,0,1-1.743-1.743h0a1.746,1.746,0,0,1,1.741-1.746Z" transform="translate(-690.849 -357.789)" fill="#e0e0e0"/>
        <path id="Path_1015" data-name="Path 1015" d="M922.21,676.72h12.628a2.41,2.41,0,0,1,2.413,2.41h0a2.413,2.413,0,0,1-2.41,2.413H922.213a2.41,2.41,0,0,1-2.413-2.41h0a2.41,2.41,0,0,1,2.41-2.413Z" transform="translate(-667.293 -490.95)" fill="#e0e0e0"/>
        <path id="Path_1016" data-name="Path 1016" d="M922.19,628.32h12.628a2.413,2.413,0,0,1,2.413,2.41h0a2.41,2.41,0,0,1-2.41,2.413H922.193a2.41,2.41,0,0,1-2.413-2.41h0a2.41,2.41,0,0,1,2.41-2.413Z" transform="translate(-667.279 -455.837)" fill="#e0e0e0"/>
        <path id="Path_1017" data-name="Path 1017" d="M922.17,584.93H934.8a2.41,2.41,0,0,1,2.413,2.41h0a2.41,2.41,0,0,1-2.41,2.413H922.173a2.41,2.41,0,0,1-2.413-2.41h0A2.413,2.413,0,0,1,922.17,584.93Z" transform="translate(-667.264 -424.359)" fill="#e0e0e0"/>
        <path id="Path_1018" data-name="Path 1018" d="M924.082,431.328l90.384-.038a4.392,4.392,0,0,1,4.392,4.392h0a4.392,4.392,0,0,1-4.392,4.392l-90.384.038a4.392,4.392,0,0,1-4.392-4.392h0A4.392,4.392,0,0,1,924.082,431.328Z" transform="translate(-667.213 -312.897)" fill="#d4d4d4"/>
        <path id="Path_1019" data-name="Path 1019" d="M1006.161,380.019l47.729-.019a2.721,2.721,0,0,1,2.723,2.721h0a2.718,2.718,0,0,1-2.721,2.723l-47.729.022a2.723,2.723,0,0,1-2.723-2.723h0A2.723,2.723,0,0,1,1006.161,380.019Z" transform="translate(-727.972 -275.687)" fill="#d4d4d4"/>
        <path id="Path_1020" data-name="Path 1020" d="M947.386,995.8l-136.878.058a15.058,15.058,0,0,1-15.063-15.049l-.085-203.381a15.055,15.055,0,0,1,15.049-15.06l136.877-.06a15.055,15.055,0,0,1,15.06,15.049l.1,203.386A15.058,15.058,0,0,1,947.386,995.8Z" transform="translate(-577.015 -553.044)" fill="#9bc1f9"/>
        <path id="Path_1021" data-name="Path 1021" d="M967.125,775.81a14.909,14.909,0,0,1,3.714,9.8l.088,203.378a15.058,15.058,0,0,1-15.049,15.063L819,1004.107a14.915,14.915,0,0,1-9.8-3.706,14.953,14.953,0,0,0,11.349,5.254l136.878-.058a15.058,15.058,0,0,0,15.06-15.06L972.4,787.159a14.948,14.948,0,0,0-5.274-11.349Z" transform="translate(-587.056 -562.838)" fill="#ababab" style="mix-blend-mode: multiply;isolation: isolate"/>
        <path id="Path_1022" data-name="Path 1022" d="M985.667,903.955H860.344a4.181,4.181,0,0,1-4.184-4.181v-69.18a4.181,4.181,0,0,1,4.181-4.184H985.667a4.181,4.181,0,0,1,4.181,4.184v69.18A4.181,4.181,0,0,1,985.667,903.955Z" transform="translate(-621.124 -599.547)" fill="#82a2d1"/>
        <path id="Path_1023" data-name="Path 1023" d="M857.077,900.616v-69.18a4.181,4.181,0,0,1,4.181-4.181H986.581a4.147,4.147,0,0,1,2.292.686,4.17,4.17,0,0,0-3.206-1.5H860.341a4.181,4.181,0,0,0-4.181,4.184V899.8a4.17,4.17,0,0,0,1.891,3.495A4.167,4.167,0,0,1,857.077,900.616Z" transform="translate(-621.124 -599.569)" fill="#638ac2"/>
        <path id="Path_1024" data-name="Path 1024" d="M1008.349,887.261H913.41a5.04,5.04,0,0,1-5.04-5.04v-16.2A5.037,5.037,0,0,1,913.41,861h94.936a5.046,5.046,0,0,1,5.043,5.043v16.2a5.04,5.04,0,0,1-5.04,5.021Z" transform="translate(-659.001 -624.641)" fill="#3f7885"/>
        <path id="Path_1025" data-name="Path 1025" d="M909.226,883.074v-16.2a5.04,5.04,0,0,1,5.04-5.04H1009.2a5.035,5.035,0,0,1,3.119,1.084,5.037,5.037,0,0,0-3.964-1.922H913.42a5.04,5.04,0,0,0-5.04,5.04v16.2A5.029,5.029,0,0,0,910.3,886.2,5.012,5.012,0,0,1,909.226,883.074Z" transform="translate(-659.008 -624.641)" fill="#33464a"/>
        <path id="Path_1026" data-name="Path 1026" d="M900.177,1161.444H872.409a4.049,4.049,0,0,1-4.049-4.044v-12.194a4.046,4.046,0,0,1,4.046-4.047h27.768a4.044,4.044,0,0,1,4.049,4.047V1157.4a4.044,4.044,0,0,1-4.047,4.047Z" transform="translate(-629.975 -827.891)" fill="#c2c2c2" style="mix-blend-mode: multiply;isolation: isolate"/>
        <path id="Path_1027" data-name="Path 1027" d="M894.917,1155.935H867.149a4.052,4.052,0,0,1-4.049-4.047V1139.7a4.046,4.046,0,0,1,4.046-4.047h27.768a4.044,4.044,0,0,1,4.047,4.044v12.194A4.046,4.046,0,0,1,894.917,1155.935Z" transform="translate(-626.159 -823.893)" fill="#5a818c"/>
        <path id="Path_1028" data-name="Path 1028" d="M864.549,1153.32v-11.98a4.055,4.055,0,0,1,3.942-4.153h27.974a3.713,3.713,0,0,1,1.941.612,3.871,3.871,0,0,0-3.363-2.108H867.069a4.047,4.047,0,0,0-3.939,4.154v11.98a4.134,4.134,0,0,0,2,3.536,4.211,4.211,0,0,1-.585-2.04Z" transform="translate(-626.18 -823.922)" fill="#3b3b3b" style="mix-blend-mode: screen;isolation: isolate"/>
        <path id="Path_1029" data-name="Path 1029" d="M900.217,1266.6H872.449a4.049,4.049,0,0,1-4.049-4.044v-12.192a4.046,4.046,0,0,1,4.044-4.049h27.768a4.044,4.044,0,0,1,4.041,4.044v12.192A4.046,4.046,0,0,1,900.217,1266.6Z" transform="translate(-630.004 -904.182)" fill="#c2c2c2" style="mix-blend-mode: multiply;isolation: isolate"/>
        <path id="Path_1030" data-name="Path 1030" d="M894.977,1261.113H867.209a4.049,4.049,0,0,1-4.049-4.033v-12.194a4.044,4.044,0,0,1,4.044-4.047h27.768a4.046,4.046,0,0,1,4.046,4.046v12.192A4.044,4.044,0,0,1,894.977,1261.113Z" transform="translate(-626.202 -900.206)" fill="#5a818c"/>
        <path id="Path_1031" data-name="Path 1031" d="M864.589,1258.48V1246.5a4.051,4.051,0,0,1,3.942-4.151h27.974a3.714,3.714,0,0,1,1.941.612,3.868,3.868,0,0,0-3.36-2.108H867.109A4.049,4.049,0,0,0,863.17,1245v11.98a4.118,4.118,0,0,0,2,3.536A4.173,4.173,0,0,1,864.589,1258.48Z" transform="translate(-626.209 -900.213)" fill="#3b3b3b" style="mix-blend-mode: screen;isolation: isolate"/>
        <path id="Path_1032" data-name="Path 1032" d="M900.265,1371.755H872.5a4.044,4.044,0,0,1-4.047-4.044v-12.192a4.049,4.049,0,0,1,4.044-4.049h27.768a4.049,4.049,0,0,1,4.049,4.044v12.192A4.047,4.047,0,0,1,900.265,1371.755Z" transform="translate(-630.04 -980.465)" fill="#c2c2c2" style="mix-blend-mode: multiply;isolation: isolate"/>
        <path id="Path_1033" data-name="Path 1033" d="M895.025,1366.271l-27.768.014a4.044,4.044,0,0,1-4.046-4.044v-12.192a4.049,4.049,0,0,1,4.038-4.049h27.768a4.046,4.046,0,0,1,4.049,4.044v12.192a4.044,4.044,0,0,1-4.041,4.035Z" transform="translate(-626.238 -976.497)" fill="#5a818c"/>
        <path id="Path_1034" data-name="Path 1034" d="M864.622,1363.637v-11.98a4.049,4.049,0,0,1,3.939-4.154h27.974a3.707,3.707,0,0,1,1.941.612,3.863,3.863,0,0,0-3.36-2.106H867.142a4.051,4.051,0,0,0-3.942,4.154v11.98a4.137,4.137,0,0,0,2,3.539A4.192,4.192,0,0,1,864.622,1363.637Z" transform="translate(-626.231 -976.504)" fill="#3b3b3b" style="mix-blend-mode: screen;isolation: isolate"/>
        <path id="Path_1035" data-name="Path 1035" d="M1067.924,1161.365h-27.768a4.044,4.044,0,0,1-4.047-4.044V1145.13a4.044,4.044,0,0,1,4.044-4.046l27.768-.014a4.049,4.049,0,0,1,4.049,4.044v12.192a4.047,4.047,0,0,1-4.047,4.06Z" transform="translate(-751.673 -827.825)" fill="#c2c2c2" style="mix-blend-mode: multiply;isolation: isolate"/>
        <path id="Path_1036" data-name="Path 1036" d="M1062.634,1155.854h-27.768a4.044,4.044,0,0,1-4.047-4.044v-12.192a4.046,4.046,0,0,1,4.044-4.049h27.768a4.044,4.044,0,0,1,4.047,4.044v12.192a4.044,4.044,0,0,1-4.044,4.049Z" transform="translate(-747.835 -823.835)" fill="#5a818c"/>
        <path id="Path_1037" data-name="Path 1037" d="M1032.249,1153.257v-11.98a4.051,4.051,0,0,1,3.942-4.154h27.974a3.705,3.705,0,0,1,1.941.612,3.863,3.863,0,0,0-3.36-2.106h-27.974a4.051,4.051,0,0,0-3.942,4.154v11.98a4.118,4.118,0,0,0,2,3.539A4.193,4.193,0,0,1,1032.249,1153.257Z" transform="translate(-747.843 -823.879)" fill="#3b3b3b" style="mix-blend-mode: screen;isolation: isolate"/>
        <path id="Path_1038" data-name="Path 1038" d="M1067.924,1266.525h-27.768a4.047,4.047,0,0,1-4.047-4.047v-12.192a4.044,4.044,0,0,1,4.044-4.046h27.768a4.049,4.049,0,0,1,4.049,4.044v12.194A4.047,4.047,0,0,1,1067.924,1266.525Z" transform="translate(-751.673 -904.124)" fill="#c2c2c2" style="mix-blend-mode: multiply;isolation: isolate"/>
        <path id="Path_1039" data-name="Path 1039" d="M1062.674,1261.015h-27.768a4.044,4.044,0,0,1-4.047-4.044v-12.192a4.049,4.049,0,0,1,4.044-4.049h27.768a4.046,4.046,0,0,1,4.049,4.044v12.192A4.052,4.052,0,0,1,1062.674,1261.015Z" transform="translate(-747.864 -900.126)" fill="#5a818c"/>
        <path id="Path_1040" data-name="Path 1040" d="M1032.242,1258.417v-11.98a4.051,4.051,0,0,1,3.939-4.154h27.977a3.681,3.681,0,0,1,1.938.615,3.865,3.865,0,0,0-3.36-2.108h-27.974a4.051,4.051,0,0,0-3.942,4.154v11.98a4.137,4.137,0,0,0,2,3.539A4.222,4.222,0,0,1,1032.242,1258.417Z" transform="translate(-747.836 -900.17)" fill="#3b3b3b" style="mix-blend-mode: screen;isolation: isolate"/>
        <path id="Path_1041" data-name="Path 1041" d="M1067.917,1371.675h-27.771a4.047,4.047,0,0,1-4.047-4.044v-12.194a4.044,4.044,0,0,1,4.044-4.047h27.771a4.047,4.047,0,0,1,4.047,4.047v12.192a4.044,4.044,0,0,1-4.044,4.046Z" transform="translate(-751.666 -980.407)" fill="#c2c2c2" style="mix-blend-mode: multiply;isolation: isolate"/>
        <path id="Path_1042" data-name="Path 1042" d="M1062.717,1366.172h-27.768a4.044,4.044,0,0,1-4.049-4.044v-12.192a4.044,4.044,0,0,1,4.044-4.047h27.771a4.044,4.044,0,0,1,4.047,4.044v12.192A4.049,4.049,0,0,1,1062.717,1366.172Z" transform="translate(-747.894 -976.417)" fill="#5a818c"/>
        <path id="Path_1043" data-name="Path 1043" d="M1032.322,1363.55v-11.98a4.053,4.053,0,0,1,3.939-4.154h27.977a3.7,3.7,0,0,1,1.938.612,3.862,3.862,0,0,0-3.36-2.108h-27.974a4.051,4.051,0,0,0-3.942,4.154v11.98a4.118,4.118,0,0,0,2,3.536A4.193,4.193,0,0,1,1032.322,1363.55Z" transform="translate(-747.894 -976.439)" fill="#3b3b3b" style="mix-blend-mode: screen;isolation: isolate"/>
        <path id="Path_1044" data-name="Path 1044" d="M1068,1476.825h-27.768a4.049,4.049,0,0,1-4.049-4.044v-12.192a4.046,4.046,0,0,1,4.044-4.049h27.768a4.044,4.044,0,0,1,4.047,4.044v12.192a4.044,4.044,0,0,1-4.041,4.049Z" transform="translate(-751.724 -1056.691)" fill="#c2c2c2" style="mix-blend-mode: multiply;isolation: isolate"/>
        <path id="Path_1045" data-name="Path 1045" d="M1062.757,1471.314h-27.768a4.052,4.052,0,0,1-4.049-4.046v-12.192a4.046,4.046,0,0,1,4.047-4.047h27.768a4.046,4.046,0,0,1,4.047,4.044v12.194A4.044,4.044,0,0,1,1062.757,1471.314Z" transform="translate(-747.923 -1052.694)" fill="#f7cc7f"/>
        <path id="Path_1046" data-name="Path 1046" d="M1032.369,1468.7v-11.98a4.055,4.055,0,0,1,3.942-4.153h27.974a3.714,3.714,0,0,1,1.941.612,3.871,3.871,0,0,0-3.363-2.108h-27.974a4.049,4.049,0,0,0-3.939,4.154v11.98a4.118,4.118,0,0,0,2.007,3.536A4.175,4.175,0,0,1,1032.369,1468.7Z" transform="translate(-747.93 -1052.723)" fill="#3b3b3b" style="mix-blend-mode: screen;isolation: isolate"/>
        <path id="Path_1047" data-name="Path 1047" d="M1235.567,1161.294H1207.8a4.044,4.044,0,0,1-4.047-4.044v-12.194a4.044,4.044,0,0,1,4.044-4.047h27.768a4.049,4.049,0,0,1,4.049,4.047v12.192A4.044,4.044,0,0,1,1235.567,1161.294Z" transform="translate(-873.292 -827.782)" fill="#c2c2c2" style="mix-blend-mode: multiply;isolation: isolate"/>
        <path id="Path_1048" data-name="Path 1048" d="M1230.327,1155.792h-27.771a4.044,4.044,0,0,1-4.047-4.044v-12.192a4.044,4.044,0,0,1,4.044-4.047h27.768a4.047,4.047,0,0,1,4.049,4.044v12.192A4.047,4.047,0,0,1,1230.327,1155.792Z" transform="translate(-869.491 -823.792)" fill="#5a818c"/>
        <path id="Path_1049" data-name="Path 1049" d="M1199.922,1153.17v-11.98a4.053,4.053,0,0,1,3.939-4.154h27.977a3.694,3.694,0,0,1,1.938.612,3.865,3.865,0,0,0-3.36-2.108h-27.974a4.051,4.051,0,0,0-3.942,4.154v11.98a4.118,4.118,0,0,0,2,3.536,4.223,4.223,0,0,1-.582-2.04Z" transform="translate(-869.484 -823.813)" fill="#3b3b3b" style="mix-blend-mode: screen;isolation: isolate"/>
        <path id="Path_1050" data-name="Path 1050" d="M916.868,1049.2H888.96a2.569,2.569,0,0,1-2.57-2.567V1042.9a2.567,2.567,0,0,1,2.567-2.569l27.908-.014a2.57,2.57,0,0,1,2.57,2.567v3.734a2.57,2.57,0,0,1-2.567,2.583Z" transform="translate(-643.055 -754.734)" fill="#d4d4d4" style="mix-blend-mode: multiply;isolation: isolate"/>
        <path id="Path_1051" data-name="Path 1051" d="M912.038,1046.83H884.13a2.57,2.57,0,0,1-2.57-2.567v-3.734a2.57,2.57,0,0,1,2.567-2.57h27.911a2.567,2.567,0,0,1,2.567,2.567v3.734a2.567,2.567,0,0,1-2.567,2.57Z" transform="translate(-639.551 -753.021)" fill="#486670"/>
        <path id="Path_1052" data-name="Path 1052" d="M1071.388,1049.18H1043.48a2.57,2.57,0,0,1-2.57-2.567v-3.733a2.567,2.567,0,0,1,2.567-2.57h27.908a2.564,2.564,0,0,1,2.57,2.567v3.734A2.57,2.57,0,0,1,1071.388,1049.18Z" transform="translate(-755.156 -754.726)" fill="#d4d4d4" style="mix-blend-mode: multiply;isolation: isolate"/>
        <path id="Path_1053" data-name="Path 1053" d="M1066.568,1046.77h-27.908a2.567,2.567,0,0,1-2.569-2.567v-3.734a2.569,2.569,0,0,1,2.567-2.57h27.908a2.564,2.564,0,0,1,2.569,2.567v3.734a2.57,2.57,0,0,1-2.567,2.569Z" transform="translate(-751.659 -752.978)" fill="#486670"/>
        <path id="Path_1054" data-name="Path 1054" d="M1225.918,1049.11H1198.01a2.564,2.564,0,0,1-2.57-2.567v-3.734a2.57,2.57,0,0,1,2.567-2.57h27.908a2.57,2.57,0,0,1,2.57,2.567v3.734a2.564,2.564,0,0,1-2.567,2.569Z" transform="translate(-867.263 -754.676)" fill="#d4d4d4" style="mix-blend-mode: multiply;isolation: isolate"/>
        <path id="Path_1055" data-name="Path 1055" d="M1221.09,1046.7H1193.18a2.57,2.57,0,0,1-2.57-2.567V1040.4a2.57,2.57,0,0,1,2.567-2.57h27.908a2.57,2.57,0,0,1,2.57,2.567v3.734A2.57,2.57,0,0,1,1221.09,1046.7Z" transform="translate(-863.759 -752.927)" fill="#486670"/>
        <path id="Path_1056" data-name="Path 1056" d="M1235.607,1266.445h-27.768a4.049,4.049,0,0,1-4.049-4.044v-12.192a4.049,4.049,0,0,1,4.044-4.049H1235.6a4.044,4.044,0,0,1,4.046,4.044V1262.4a4.044,4.044,0,0,1-4.044,4.049Z" transform="translate(-873.321 -904.066)" fill="#c2c2c2" style="mix-blend-mode: multiply;isolation: isolate"/>
        <path id="Path_1057" data-name="Path 1057" d="M1230.367,1260.935H1202.6a4.049,4.049,0,0,1-4.049-4.047V1244.7a4.046,4.046,0,0,1,4.044-4.047h27.771a4.046,4.046,0,0,1,4.046,4.047v12.192A4.044,4.044,0,0,1,1230.367,1260.935Z" transform="translate(-869.52 -900.068)" fill="#5a818c"/>
        <path id="Path_1058" data-name="Path 1058" d="M1199.972,1258.32v-11.98a4.053,4.053,0,0,1,3.939-4.154h27.977a3.714,3.714,0,0,1,1.941.612,3.87,3.87,0,0,0-3.363-2.108h-27.974a4.053,4.053,0,0,0-3.942,4.154v11.98a4.118,4.118,0,0,0,2,3.536A4.173,4.173,0,0,1,1199.972,1258.32Z" transform="translate(-869.52 -900.097)" fill="#3b3b3b" style="mix-blend-mode: screen;isolation: isolate"/>
        <path id="Path_1059" data-name="Path 1059" d="M1235.647,1371.6h-27.768a4.047,4.047,0,0,1-4.049-4.044v-12.192a4.047,4.047,0,0,1,4.044-4.049h27.768a4.044,4.044,0,0,1,4.047,4.044v12.192A4.049,4.049,0,0,1,1235.647,1371.6Z" transform="translate(-873.35 -980.357)" fill="#c2c2c2" style="mix-blend-mode: multiply;isolation: isolate"/>
        <path id="Path_1060" data-name="Path 1060" d="M1230.407,1366.084h-27.768a4.049,4.049,0,0,1-4.049-4.044v-12.194a4.044,4.044,0,0,1,4.044-4.047H1230.4a4.044,4.044,0,0,1,4.047,4.044v12.192A4.044,4.044,0,0,1,1230.407,1366.084Z" transform="translate(-869.549 -976.352)" fill="#5a818c"/>
        <path id="Path_1061" data-name="Path 1061" d="M1200.019,1363.48V1351.5a4.051,4.051,0,0,1,3.942-4.154h27.974a3.714,3.714,0,0,1,1.941.612,3.868,3.868,0,0,0-3.36-2.108h-27.977A4.049,4.049,0,0,0,1198.6,1350v11.98a4.137,4.137,0,0,0,2.007,3.539,4.192,4.192,0,0,1-.587-2.042Z" transform="translate(-869.556 -976.388)" fill="#3b3b3b" style="mix-blend-mode: screen;isolation: isolate"/>
        <path id="Path_1062" data-name="Path 1062" d="M900.307,1476.868H872.536a4.046,4.046,0,0,1-4.047-4.046V1460.63a4.044,4.044,0,0,1,4.044-4.047l27.768-.014a4.046,4.046,0,0,1,4.049,4.044v12.194a4.046,4.046,0,0,1-4.044,4.06Z" transform="translate(-630.069 -1056.713)" fill="#c2c2c2" style="mix-blend-mode: multiply;isolation: isolate"/>
        <path id="Path_1063" data-name="Path 1063" d="M895.075,1471.424H867.306a4.044,4.044,0,0,1-4.046-4.044v-12.192a4.049,4.049,0,0,1,4.046-4.038h27.768a4.044,4.044,0,0,1,4.049,4.044v12.192a4.049,4.049,0,0,1-4.049,4.038Z" transform="translate(-626.275 -1052.781)" fill="#f47458"/>
        <path id="Path_1064" data-name="Path 1064" d="M864.672,1468.787v-11.98a4.051,4.051,0,0,1,3.939-4.154h27.977a3.682,3.682,0,0,1,1.938.615,3.863,3.863,0,0,0-3.36-2.108H867.192a4.053,4.053,0,0,0-3.942,4.154v11.98a4.137,4.137,0,0,0,2,3.539A4.192,4.192,0,0,1,864.672,1468.787Z" transform="translate(-626.267 -1052.788)" fill="#3b3b3b" style="mix-blend-mode: screen;isolation: isolate"/>
        <path id="Path_1065" data-name="Path 1065" d="M1235.695,1476.762h-27.768a4.044,4.044,0,0,1-4.047-4.044v-12.192a4.044,4.044,0,0,1,4.044-4.047h27.768a4.049,4.049,0,0,1,4.049,4.044v12.194A4.044,4.044,0,0,1,1235.695,1476.762Z" transform="translate(-873.386 -1056.648)" fill="#c2c2c2" style="mix-blend-mode: multiply;isolation: isolate"/>
        <path id="Path_1066" data-name="Path 1066" d="M1230.454,1471.244h-27.768a4.044,4.044,0,0,1-4.047-4.044v-12.192a4.049,4.049,0,0,1,4.044-4.049h27.768A4.046,4.046,0,0,1,1234.5,1455V1467.2A4.047,4.047,0,0,1,1230.454,1471.244Z" transform="translate(-869.585 -1052.643)" fill="#50bfa5"/>
        <path id="Path_1067" data-name="Path 1067" d="M1200.059,1468.637v-11.98A4.053,4.053,0,0,1,1204,1452.5h27.974a3.684,3.684,0,0,1,1.941.615,3.865,3.865,0,0,0-3.36-2.108h-27.974a4.051,4.051,0,0,0-3.942,4.154v11.98a4.118,4.118,0,0,0,2,3.539A4.193,4.193,0,0,1,1200.059,1468.637Z" transform="translate(-869.585 -1052.679)" fill="#3b3b3b" style="mix-blend-mode: screen;isolation: isolate"/>
        <path id="Path_1068" data-name="Path 1068" d="M652.086,855.571l.76.681a.931.931,0,0,0,1.309-.033l13.452-14.844a.922.922,0,0,0-.1-1.3l-.758-.681a.931.931,0,0,0-1.309.033l-13.452,14.843a.922.922,0,0,0,.1,1.3Z" transform="translate(-472.839 -608.78)" fill="#13375b"/>
        <path id="Path_1069" data-name="Path 1069" d="M483.161,854.487c1.8-1.469,15.708,4.667,15.533,6.789s9.707,22.8,9.707,22.8l17.078-13.663h0c.151-.494,1.771-5.806,1.85-6.759.082-1,2.968-2.745,4.307-2.484s-1.145,1.944-1.31,2.254c-.445.843,1.274,1.159,1.274,1.159s4.941-2.718,5.04-4.315,1.123-4.941,2.2-4.247c.549.362.549,2.745.373,3.865.318-1.279.766-2.723,1.205-2.869.8-.261,1.194.758,1.049,1.26s-1.433,5.932-1.826,6.545-8.351,7.039-9.5,8.439c0,0-22.091,25.339-23.664,26-1.373.582-6.3-8.151-10.948-13.946S477.542,859.071,483.161,854.487Z" transform="translate(-349.537 -619.753)" fill="#f7a491"/>
        <path id="Path_1070" data-name="Path 1070" d="M281.629,1511.778s-3.036,2.973-3.1,4.063-.275,12.776.972,13.866,4.878,1.864,3.709,3.091c-.884.928-7.687.73-12.2.48-1.315-.071-2.968-10.61-3.489-12.161-.755-2.248-2.6-7.316-1.922-8.884a13.143,13.143,0,0,1,4.2-3.8,20.681,20.681,0,0,0,4.653-4.974Z" transform="translate(-192.576 -1090.731)" fill="#f48c7f"/>
        <path id="Path_1071" data-name="Path 1071" d="M429.107,1558.565s-2.715,7.687-2.718,7.72c-.2,1.222-1,4.236-1,5.345,0,4.164,18.725-3.539,14.531-5.383a4.439,4.439,0,0,1-1.7-2.921c-.195-2.2,1.576-4.925,1.576-4.925Z" transform="translate(-308.61 -1130.588)" fill="#f7a491"/>
        <path id="Path_1072" data-name="Path 1072" d="M463.918,1036.68s1.373,13.8,1.373,14c0,22.33,4.412,65.946,3.569,70.143-2.045,10.24-24.073,62.473-24.073,62.473l-11.906-1.427,15.513-62.539-5.707-25.171-8.079-49.76Z" transform="translate(-314.044 -752.093)" fill="#355389"/>
        <path id="Path_1073" data-name="Path 1073" d="M316.764,1054.053l-2.259,13.084-6.111,53.842-23.274,52.626s3.272,7.656,8.1,8.733l37.044-54.029,23.011-69.136-.807-15.373Z" transform="translate(-206.848 -757.258)" fill="#13375b"/>
        <path id="Path_1074" data-name="Path 1074" d="M517.6,821.518,501.1,823.209s-.758-13.578-.758-20.057c0-7.857.667-17.981,1.614-17.762,2.655.609,6.229,2.081,8.357,5.016C517.676,800.547,517.6,821.518,517.6,821.518Z" transform="translate(-362.985 -569.786)" fill="#86b1f2"/>
        <path id="Path_1075" data-name="Path 1075" d="M425.382,800.326c.346,2.4,6.693,67.533,6.693,67.533-30.06,14.566-46.644,2.594-46.644,2.594s.983-45.744-.195-51.97c-.782-4.118-1.754-31.491.906-32.257a66.336,66.336,0,0,1,11.6-2.471c3.643-.379,17.789-.6,20.315.255A32.375,32.375,0,0,1,425.382,800.326Z" transform="translate(-278.871 -568.359)" fill="#9bc1f9"/>
        <path id="Path_1076" data-name="Path 1076" d="M266,1521.31s6.995,19.766,9.735,20.718c.725.255,4.217.9,4.873,2.446a6.644,6.644,0,0,1,0,2.023H266.039s-1.845-8.708-2.575-12.535c0,0-3.86-9.35-3.432-10.2S266,1521.31,266,1521.31Z" transform="translate(-188.623 -1103.68)" fill="#184655"/>
        <path id="Path_1077" data-name="Path 1077" d="M421.51,1593.6l2.144-6.8s4.5,1.922,6.756,1.595,6.649-1.595,6.649-1.595c8.988,2.97,16.351,4.409,15.011,6.8Z" transform="translate(-305.796 -1151.192)" fill="#184655"/>
        <path id="Path_1078" data-name="Path 1078" d="M566.382,973.28a3.476,3.476,0,0,0,.453-.338c-.533-6.383-.437-12.565,1.559-14.657-.049-.1-.486-1.029-.942-2-2.312,1.8-3.412,6.567-2.979,14.308a12.671,12.671,0,0,0,.3,1.6C565.449,972.94,566.056,973.417,566.382,973.28Z" transform="translate(-409.446 -693.772)" fill="#f7a491"/>
        <path id="Path_1079" data-name="Path 1079" d="M276.378,908.8a1.794,1.794,0,0,1,0-.42c.442-4.51,4.176-42.392,4.8-44,.568-1.455,17.309-25.481,17.309-25.481l8.236,11.255-16.1,21.55c-.36,1.373-6.169,26.939-6.169,26.939s-1.191,4.667-1.724,7.453c.244.673.48,1.309.695,1.831a17.022,17.022,0,0,0,1.732,2.8,18.368,18.368,0,0,1,2.056,3.646c.173.659.48,2.026.653,2.852s.412,1.784.453,2.232a4.364,4.364,0,0,0,.519,1.2.719.719,0,0,1-.848,1.038c-.585-.195-1.04-.953-1.32-1.427-.791-1.337-1.213-3.775-1.411-3.646s-.892,4.269-1,4.735a51.3,51.3,0,0,1-1.411,6.155c-.469.878-1.1.73-1.257.181-.143-.475.519-7.2.519-7.2s.082-.857-.294-.59-.986,6.374-1.246,7.267-.854,1.373-1.356.651c-.615-.873.439-7.349.439-7.349s.118-.823-.228-.738-.78,5.279-1.051,5.729a.681.681,0,0,1-1.274-.14c-.384-.884.607-6.657.607-6.657s-.049-.458-.275-.3-.9,4.56-1.351,4.969a.475.475,0,0,1-.689,0c-.824-.549.439-4.758.426-6.841s.953-4.431.664-6.913C276.455,909.425,276.408,909.044,276.378,908.8Z" transform="translate(-199.588 -608.608)" fill="#f8a492"/>
        <path id="Path_1080" data-name="Path 1080" d="M312.6,821.385l14.3,9.636s8.06-12.035,12.387-16.32c5.419-5.367-1.974-21.811-5.466-20.88C326.008,795.9,312.6,821.385,312.6,821.385Z" transform="translate(-226.784 -575.876)" fill="#9bc1f9"/>
        <path id="Path_1081" data-name="Path 1081" d="M431.147,731.119,429,745.265s7.81,16.845,12.474,15.373c3.912-1.227,1.5-16.131,1.5-16.131s-2.133-8-1.493-12.008S431.147,731.119,431.147,731.119Z" transform="translate(-311.229 -529.803)" fill="#f7a491"/>
        <path id="Path_1082" data-name="Path 1082" d="M446.7,732.528c.64-4.005-10.347-1.392-10.347-1.392l-.178,1.175a6.512,6.512,0,0,0,1.191,1.971,14.455,14.455,0,0,0,9.608,4.362A21.964,21.964,0,0,1,446.7,732.528Z" transform="translate(-316.431 -529.82)" fill="#f47458"/>
        <path id="Path_1083" data-name="Path 1083" d="M428,648.771c-.31-.113-2.49,16.112,1.647,20.576s12.192,5.927,15.08,2.41c3.2-3.89,3.036-21.328-3.39-25.921S428,648.771,428,648.771Z" transform="translate(-309.89 -467.467)" fill="#f7a491"/>
        <path id="Path_1084" data-name="Path 1084" d="M417.88,617.884a17.844,17.844,0,0,0-9.37,5.361c-2.257.275-5.323,1.518-8.488,6.778-3.893,6.468-1.018,13.636,3.514,17.152s4.469,7.577,4.469,7.577l.717-2.1a11.8,11.8,0,0,0,.568-4.941,9.743,9.743,0,0,0-.733-2.973c-1.1-2.35,2.342-3.909,3.294-5.864.741-1.5.777-4.941,1.944-7.431l1.395-1.9s3.217-2.509,6.363-1.8S424.255,616.578,417.88,617.884Z" transform="translate(-288.882 -448.193)" fill="#184655"/>
        <path id="Path_1085" data-name="Path 1085" d="M436.3,695.719c.033,1.979-.862,3.6-2,3.621s-2.086-1.57-2.119-3.55.862-3.6,2-3.621S436.268,693.74,436.3,695.719Z" transform="translate(-313.534 -502.158)" fill="#f7a491"/>
        <path id="Path_1086" data-name="Path 1086" d="M471.66,720.9l6.232-.324a2.731,2.731,0,0,1-2.745,2.605C471.8,723.454,471.66,720.9,471.66,720.9Z" transform="translate(-342.178 -522.77)" fill="#fff"/>
        <path id="Path_1087" data-name="Path 1087" d="M1849.1,1422.939h3.665l-13.66-70.989-3.047.579Z" transform="translate(-1332.018 -980.814)" fill="#0e2e35"/>
        <path id="Path_1088" data-name="Path 1088" d="M1507.307,1422.621l-3.047-.579,13.169-70.091,3.047.579Z" transform="translate(-1091.305 -980.814)" fill="#0e2e35"/>
        <path id="Path_1089" data-name="Path 1089" d="M1604.615,1422.939h3.665l-13.663-70.989-3.047.579Z" transform="translate(-1154.646 -980.814)" fill="#0e2e35"/>
        <path id="Path_1090" data-name="Path 1090" d="M1754.029,1423.781l-2.979.036,13.1-70.706,3.047.579Z" transform="translate(-1270.345 -981.655)" fill="#0e2e35"/>
        <path id="Path_1091" data-name="Path 1091" d="M1525.644,1002.9c12.079,1.3,27.688,2.666,43.375,29.374,17.136,29.179,8.115,72.768-5.411,84.88s-57.7,27.068-94.834,4.667c0,0-22.423-13.567-10.915-36.086,17.707-34.653,15.206-41.881,23.123-55.454S1500.025,1000.146,1525.644,1002.9Z" transform="translate(-1055.259 -727.366)" fill="#fae0b2"/>
        <path id="Path_1092" data-name="Path 1092" d="M1588.24,1038.519c-10.706-18.223-21.374-24.644-30.911-27.3a80.418,80.418,0,0,1,11.17,15.132c17.139,29.179,8.118,72.768-5.408,84.88-12,10.742-48.094,23.713-82.011,10.9a34.391,34.391,0,0,0,6.915,5.946c37.135,22.39,81.308,7.434,94.834-4.667S1605.376,1067.711,1588.24,1038.519Z" transform="translate(-1074.489 -733.622)" fill="#f7cc7f"/>
        <path id="Path_1093" data-name="Path 1093" d="M1536.57,1356.572c4.392,7.667,9.946,10.627,9.946,10.627h23.046S1533.21,1350.725,1536.57,1356.572Z" transform="translate(-1114.586 -983.256)" fill="#233862"/>
        <path id="Path_1094" data-name="Path 1094" d="M1550.861,1525.478a2.127,2.127,0,0,1,.379,2.281c-.549,1.518-2.364,3.215-4.475,4.908-.275.22-.508.417-.717.6-.055.049-.113.1-.162.146l-.126.113c-1.966,1.812-1.224,2.229-4.76,5.908-4.03,4.192-6.8,4.269-7.593,3.887-.667-.327.689-2.55,2.2-5.048.071-.121.143-.244.217-.365.2-.332.4-.67.6-1,1.762-3.006,1.309-4.42.892-8.895-.34-3.64-5.661-20.315-5.661-20.315l7.722-1.331s2.328,13.29,4.889,15.335c1.373,1.1,2.9,1.1,4.222,1.922q.14.082.275.173A10.13,10.13,0,0,1,1550.861,1525.478Z" transform="translate(-1111.176 -1092.835)" fill="#ffb27d"/>
        <path id="Path_1095" data-name="Path 1095" d="M1555.043,1571.031a2.128,2.128,0,0,1,.379,2.281c-.673,1.518-2.443,3.2-4.483,4.895-.275.22-.5.423-.708.612-.055.049-.113.1-.162.146l-.126.113c-1.966,1.812-1.224,2.229-4.76,5.908-4.03,4.192-6.8,4.269-7.593,3.887-.667-.327.689-2.55,2.2-5.048a17.188,17.188,0,0,0,7.182-5.293c2.427-3.1,4.047-7.077,5.7-9.38q.14.082.275.173A10.137,10.137,0,0,1,1555.043,1571.031Z" transform="translate(-1115.358 -1138.387)" fill="#233862"/>
        <path id="Path_1096" data-name="Path 1096" d="M1313.537,1514.4c-.475,2.385-3.874,1.988-7.67,1.06s-2.894.176-8.3-.423-7.042-2.613-7.206-3.415c-.148-.714,2.523-.966,5.386-1.3.36-.038.722-.085,1.1-.129,3.231-.406,5.6-2.493,8.538-4.206,2.781-1.622,6.932-8.236,6.932-8.236l7.412.588s-3.887,5.905-5.392,8.475a8.958,8.958,0,0,0-.727,5.048A9.447,9.447,0,0,1,1313.537,1514.4Z" transform="translate(-936.125 -1086.595)" fill="#ffb27d"/>
        <path id="Path_1097" data-name="Path 1097" d="M1305.867,1548.684c-3.8-.928-2.893.176-8.3-.423s-7.042-2.613-7.206-3.415c-.148-.714,2.523-.966,5.386-1.3l.027.055a15.22,15.22,0,0,0,7.736,2.4c3.668.091,7.549-.961,10.08-.92a9.446,9.446,0,0,1-.058,2.534C1313.062,1550.01,1309.663,1549.612,1305.867,1548.684Z" transform="translate(-936.125 -1119.815)" fill="#233862"/>
        <path id="Path_1098" data-name="Path 1098" d="M1478.23,1354.417l6.926,18.637,9.059,24.337a14.628,14.628,0,0,0,4.8-.437,20.832,20.832,0,0,0,4.645-2.262s-2.512-26.132-7.2-41.132c-1.2-3.843-2.545-6.965-4.03-8.719C1485.164,1336.26,1478.23,1354.417,1478.23,1354.417Z" transform="translate(-1072.421 -973.986)" fill="#233862"/>
        <path id="Path_1099" data-name="Path 1099" d="M1395.656,1268.155c4.538-1.466,17.479.415,30.472,2.959l2.723-4.489,28.084-2.2s9.268,20.551,4.195,33.646a4.755,4.755,0,0,1-4.755,3.2h-22.552c-13.965,0-29.558-9.608-31.57-10-3.294-.659-4.623,5.943-7.923,12.875s-31.021,30.7-31.021,30.7-4.263.041-6.023-.618a5.866,5.866,0,0,1-2.586-1.647S1385.422,1271.45,1395.656,1268.155Z" transform="translate(-982.803 -917.32)" fill="#2b478b"/>
        <path id="Path_1100" data-name="Path 1100" d="M1602.156,1011.37c10,5.49,30.288,16.919,30.393,16.848,0,0,7.459,2.808,11.689,0,7.05-4.683,10.83-17.3-2.064-28.13-6.429-5.408-11-6.726-11.692-15.373-.379-4.686-6.783-20.15-17.424-18.72-.889.121-6.364.376-9.96,2.265C1593.928,973.085,1587.164,1009.237,1602.156,1011.37Z" transform="translate(-1155.934 -700.744)" fill="#b5453c"/>
        <path id="Path_1101" data-name="Path 1101" d="M1652.619,1072.9c-.047.03,4.92,1.724,8.236.255,3.124-1.373,5.49-6.52,5.441-6.523-1.419-.066-2.979-1.307-4.181-9.455l-.6.217-10.171,3.659s.736,3.261,1.213,6.369C1652.951,1070.033,1653.168,1072.534,1652.619,1072.9Z" transform="translate(-1198.008 -766.965)" fill="#ffb27d"/>
        <path id="Path_1102" data-name="Path 1102" d="M1651.33,1061.629s.736,3.261,1.214,6.369c5.842-1.051,8.134-6.863,8.958-10.028Z" transform="translate(-1198.001 -767.538)" fill="#ed975d"/>
        <path id="Path_1103" data-name="Path 1103" d="M1626.961,1018.412s13.916-1.87,12.628-10.517-.373-14.714-9.315-13.885-10.157,4.392-10.432,7.376S1623.31,1018.673,1626.961,1018.412Z" transform="translate(-1175.147 -721.082)" fill="#ffb27d"/>
        <path id="Path_1104" data-name="Path 1104" d="M1621.69,994.632s8.906,7.687,14.967,8.3,8.351-1.326,8.351-1.326a23.623,23.623,0,0,1-5.718-7.742,4.272,4.272,0,0,0-3.514-2.512C1631.449,990.964,1623.246,990.794,1621.69,994.632Z" transform="translate(-1176.498 -719.068)" fill="#b5453c"/>
        <path id="Path_1105" data-name="Path 1105" d="M1622.986,996.908s-2.981,2.88-3.917,5.018c-.906,2.062-1.178,6.995-.458,8.952,0,0-4.642-9.026-2.012-13.413C1619.376,992.812,1622.986,996.908,1622.986,996.908Z" transform="translate(-1172.218 -722.03)" fill="#b5453c"/>
        <path id="Path_1106" data-name="Path 1106" d="M1613.283,1117.52c.42,28.169.115,22.283,3.2,24.957.741.642,2.828,1.027,5.576,1.208,8.637.574,23.82-.848,24.4-2.446,1.99-5.523.585-7.239,2.246-15.695.176-.9.39-1.872.64-2.932,1.373-5.809,2.745-7.786-2.18-17.114-4.461-8.453-9.092-15.313-9.51-15.066-11.763,6.984-12.713,1.115-12.713,1.115S1613.077,1103.783,1613.283,1117.52Z" transform="translate(-1170.397 -791.085)" fill="#8c9df4"/>
        <path id="Path_1107" data-name="Path 1107" d="M1503.46,1402.184l9.059,24.337a14.628,14.628,0,0,0,4.8-.437,20.835,20.835,0,0,0,4.645-2.262s-2.512-26.132-7.2-41.132Z" transform="translate(-1090.725 -1003.115)" fill="#2b478b"/>
        <path id="Path_1108" data-name="Path 1108" d="M1594.143,1094.5s-12.1,2.053-13.526,7.264-9.787,35.853-9.787,35.853,6.155,1.1,9-1.738,9.883-26.376,9.883-26.376Z" transform="translate(-1139.6 -794.04)" fill="#8c9df4"/>
        <path id="Path_1109" data-name="Path 1109" d="M1645.25,1205.491c8.636.574,23.82-.848,24.4-2.446,1.99-5.523.585-7.239,2.246-15.695l-4.165-11.73s.689,13.062-3.165,16.5-15.771,6.632-17.644,9.5A10.514,10.514,0,0,0,1645.25,1205.491Z" transform="translate(-1193.59 -852.89)" fill="#6980e2"/>
        <path id="Path_1110" data-name="Path 1110" d="M1641.466,1260.933s-8.51-1.9-9.883-1.142-4.736,3.511-5.156,4.469,3.061-.727,4.192-1.032c.736-.2,2.666.475,3.621.793,4.022,1.34,6.487.651,6.487.651Z" transform="translate(-1179.909 -913.826)" fill="#ffb27d"/>
        <path id="Path_1111" data-name="Path 1111" d="M1683.368,1090.43s11.442.706,15.4,6.229c5.576,7.777,16.636,40.921,10.3,45.34-7.138,4.977-32.493,1.3-32.493,1.3s-.843-3.942.332-5.85,20.249-4.988,21.138-5.869-11-17.169-11-19.81S1683.368,1090.43,1683.368,1090.43Z" transform="translate(-1216.104 -791.087)" fill="#8c9df4"/>
        <path id="Path_1112" data-name="Path 1112" d="M1634.936,1268.9a16.51,16.51,0,0,1-2.372,2.578,1.748,1.748,0,0,1-.964.206l1.205-2.166Z" transform="translate(-1183.687 -920.563)" fill="#ffb27d"/>
        <path id="Path_1113" data-name="Path 1113" d="M1631.531,1260.26l-5.191,2.52a.92.92,0,0,0,.859.332,12.24,12.24,0,0,0,2.251-.618Z" transform="translate(-1179.871 -914.295)" fill="#ffb27d"/>
        <path id="Path_1114" data-name="Path 1114" d="M1491.4,1209.966H1447.6l-13.174-30.716h43.726Z" transform="translate(-1040.645 -855.524)" fill="#f77d48"/>
        <path id="Path_1115" data-name="Path 1115" d="M1480.55,1283.89h57.831v1.941h-57.318Z" transform="translate(-1074.104 -931.438)" fill="#f77d48"/>
        <path id="Path_1116" data-name="Path 1116" d="M1522.467,1230.027a1.442,1.442,0,0,1,1.488-1.957,2.962,2.962,0,0,1,2.682,1.957,1.441,1.441,0,0,1-1.488,1.955A2.962,2.962,0,0,1,1522.467,1230.027Z" transform="translate(-1104.453 -890.942)" fill="#ebf3fa"/>
      </g>
    </g>
  </g>
</svg>
