<svg xmlns="http://www.w3.org/2000/svg" width="638.572" height="414.5" viewBox="0 0 638.572 414.5">
  <g id="Layer_2" data-name="Layer 2" transform="translate(-62.375 -0.001)">
    <g id="_ÎÓÈ_1" data-name="‘ÎÓÈ_1" transform="translate(0 0.001)">
      <g id="Group_55" data-name="Group 55" transform="translate(206.947 10.403)" opacity="0.5">
        <path id="Path_880" data-name="Path 880" d="M736.052,139.347S727.922,71.227,693.024,30.6a7.617,7.617,0,0,0-13.367,5.156v.372C680.119,48.259,719.193,99.506,736.052,139.347Z" transform="translate(-633.604 -27.949)" fill="#7fe1d3"/>
        <path id="Path_881" data-name="Path 881" d="M662.635,170.369S627.856,85.24,568.456,47.591a8.079,8.079,0,0,0-10.955,2.07c-1.582,2.3-2.293,5.9-.517,11.514C561.715,76.146,627.964,126.548,662.635,170.369Z" transform="translate(-555.942 -39.472)" fill="#7fe1d3"/>
      </g>
      <g id="Group_56" data-name="Group 56" transform="translate(319.699 218.986)" opacity="0.5">
        <path id="Path_882" data-name="Path 882" d="M865.84,656.649s4.988-41.8,26.407-66.74a4.664,4.664,0,0,1,8.189,3.164v.22C900.165,600.749,876.185,632.2,865.84,656.649Z" transform="translate(-863.234 -588.284)" fill="#7fe1d3"/>
        <path id="Path_883" data-name="Path 883" d="M858.84,675.674s21.345-52.241,57.8-75.346a4.962,4.962,0,0,1,6.726,1.273c.968,1.411,1.407,3.618.316,7.073C920.774,617.853,880.118,648.783,858.84,675.674Z" transform="translate(-858.84 -595.344)" fill="#7fe1d3"/>
      </g>
      <path id="Path_884" data-name="Path 884" d="M332.4,633.884s19.3,52.974,9.217,55.956-17.246-60.579-17.246-60.579-54.836-16.066-74.449-10.855c0,0,40.31,48.191,29.809,48.6s-54.783-47.789-54.783-47.789S171.267,618.153,168,650.4s12.757,45.458,20.8,46.117,57.471-8.145,57.225-1.489-31.972,22.443-51.578,19.729c0,0,28.95,47.417,55.539,40.4s32.2-25.134,48.7-29.177,29.474-1.541,21.855,4.329-36.417,7.516-48.02,21.218-21.389,22.874,4.549,23.6c71,1.977,82.073-51.176,82.073-51.176s43.787-34.958,15.236-67.909C374.368,656.04,352.651,636.493,332.4,633.884Z" transform="translate(-105.19 -387.554)" fill="#7fe1d3" opacity="0.5"/>
      <path id="Path_885" data-name="Path 885" d="M1339.126,470.1c18.24-14.555-3.35-46.624-3.35-46.624s-46.426-8-50.253-14.518,41.029-.912,41.029-.912c-4.5-13.9-35.6-40.82-35.6-40.82s-41.271,20.447-43.385,13.189,37.452-16.237,37.452-16.237c-9.474-11.234-29.779-16.751-29.779-16.751-31.068-4.426-35.151,35.7-35.151,35.7s-14.447,6.775-35.155,5.014h0a54.419,54.419,0,0,0-10.155-.488l1.526,3.521c1.068-.119,2.118-.2,3.149-.227h.063c.648,0,1.571.019,2.7.041h0c2.572.164,4.441.216,5.762.19h0c8.007.372,18.631,1.266,21.78,3.581a7.44,7.44,0,0,1,1.288-1.455l-1.288,1.455c-10.3,11.625.61,42.693,11.335,57.988s12.284,5.922,16.051-6.447-6.473-30.435-5.885-37.34,7.143-.03,11.137,11.54-4.776,22.015,1.34,40.843,46.1,17.868,46.1,17.868c-9.306-10.8-12.105-36.175-8.189-38.9s17.868,30.606,21.4,35.211S1320.89,484.653,1339.126,470.1Z" transform="translate(-737.473 -217.884)" fill="#7fe1d3" opacity="0.5"/>
      <path id="Path_886" data-name="Path 886" d="M1302.08,19.144c-5.647-18.281-36.592-11.42-36.592-11.42s-20.012,33.041-26.139,34.027,11.6-31.592,11.6-31.592c-11.96-.744-41.822,14.946-41.822,14.946s3.246,37.615-2.933,37.061-1.157-33.454-1.157-33.454c-11.413,3.868-21.709,17.7-21.709,17.7C1170.637,68.8,1200.04,83.94,1200.04,83.94s.845,13.058-6.7,28.339h0a44.732,44.732,0,0,0-3.414,7.6l3.145-.112c.227-.852.484-1.679.767-2.472h0v-.033c.2-.491.484-1.195.841-2.051h0c.894-1.913,1.489-3.328,1.861-4.344,2.673-6,6.548-13.84,9.257-15.552a6.066,6.066,0,0,1-.722-1.418l.722,1.418c5.789,11.346,32.758,12.325,47.648,8.722s8.189-7.6-.112-14.183-25.171-4.18-30.264-6.7,2.118-5.465,12.142-5.044,15.374,10.24,31.578,11.208,27.442-29.835,27.442-29.835c-11.03,3.853-31.239-1.6-32.144-5.416s28.715-4.467,33.29-5.788S1307.727,37.425,1302.08,19.144Z" transform="translate(-740.842 -4.057)" fill="#7fe1d3" opacity="0.5"/>
      <path id="Path_887" data-name="Path 887" d="M583.146,392.435H535V336.792h57.776L608.291,243.7h-53.5V188.057h63.133l14.443-84h57.248l-14.443,84h87.742l13.911-84H834.07l-14.447,84H867.24V243.7H809.993l-15.515,93.091h53.5v55.643H784.847l-14.96,86.138H712.621L727.6,392.435H639.858l-14.447,86.138H568.163ZM737.23,336.792,753.281,243.7H665.539l-16.051,93.091Z" transform="translate(-335.849 -65.325)" fill="#e1558b"/>
      <path id="Path_888" data-name="Path 888" d="M356.016,578.031c0-.175,2.546-5.438,1.738-5.844s-2.263-.346-2.431.577A32.382,32.382,0,0,0,356.016,578.031Z" transform="translate(-223.042 -359.043)" fill="#e2b097"/>
      <path id="Path_889" data-name="Path 889" d="M342.6,573.634c0-.514-.6-8.4-1.924-9.965s-4.043-3.8-4.9-3.722-4.191,4.508-3.186,7.907,5.245,7.988,5.245,7.988Z" transform="translate(-208.67 -351.508)" fill="#e2b097"/>
      <path id="Path_890" data-name="Path 890" d="M351.852,544.577l-7.739,2.319a.488.488,0,0,1-.607-.324l-4.422-14.76a.48.48,0,0,1,.324-.6l7.743-2.323a.488.488,0,0,1,.6.328l4.422,14.76A.484.484,0,0,1,351.852,544.577Z" transform="translate(-212.848 -331.999)" fill="#292f45"/>
      <path id="Path_891" data-name="Path 891" d="M347.224,546.169l-7.021,2.1a.856.856,0,0,1-1.072-.577l-4.192-14.037a.864.864,0,0,1,.577-1.072l7.021-2.107a.86.86,0,0,1,1.072.581l4.21,14.038a.864.864,0,0,1-.6,1.072Z" transform="translate(-210.237 -332.988)" fill="#373c52"/>
      <path id="Path_892" data-name="Path 892" d="M339.33,553.544s3.224-4.958,4.009-4.683c1.117.395-2.922,6.7-2.922,6.7s3-4.705,3.466-4.352c1.068.808-.629,3.763-2.315,6.027,0,0,3.015-2.762,3.116-2.263.342,1.742-3.313,5.956-3.313,5.956l-2.04-4.668Z" transform="translate(-213.016 -344.544)" fill="#e2b097"/>
      <path id="Path_893" data-name="Path 893" d="M332.83,554.607c.156-.607.945-12.448,1.281-11.324s1.139,7.333,1.139,7.333Z" transform="translate(-208.936 -341.002)" fill="#e2b097"/>
      <path id="Path_894" data-name="Path 894" d="M392.606,536.394s-.339,12.876-4.054,23.269c-2.933,8.189-7.973,14.864-16.617,12.407q-1.325-.372-2.569-.815h0c-17.563-6.116-23.247-20.12-23.247-20.12,1.307-2.159,5.1-2.952,5.1-2.952,3.536.19,19.081,6.79,20.071,6.991,3.6.722,6.5-19.033,8.837-25.879s11.912-9.905,11.912-9.905Z" transform="translate(-217.278 -326.05)" fill="#e77d3b"/>
      <path id="Path_895" data-name="Path 895" d="M428.074,602.638l-.339,9.276c-2.933,8.189-7.973,14.864-16.617,12.407q-1.325-.372-2.569-.815c.275.037,5.584.745,7.78-1.463,2.278-2.278,2.04-9.827,6.231-14.86S428.074,602.638,428.074,602.638Z" transform="translate(-256.469 -378.301)" fill="#d87131"/>
      <path id="Path_896" data-name="Path 896" d="M435.906,1055.335s4.322,3.946,3.481,6.749-4.746,4.672-5.271,8.1-2.635,5.3-4.534,5.3h-9.064s-1.4-2.412,1.977-3.138,4.646-4.754,4.437-8.491a66.272,66.272,0,0,1,.316-8.718l7.169-1.66Z" transform="translate(-263.802 -661.321)" fill="#e77d3b"/>
      <path id="Path_897" data-name="Path 897" d="M334.4,1076.115h26.653a1.928,1.928,0,0,0,1.928-1.861,13.551,13.551,0,0,0-.953-5.747c-1.422-3.153-2.319-3.723,3.685-12.876-1.805,1.861-6.674,1.009-10.8.454-.5.819-8.126,12.593-9.8,13.8C343.256,1071.212,334.973,1070.736,334.4,1076.115Z" transform="translate(-209.921 -662.677)" fill="#e77d3b"/>
      <path id="Path_898" data-name="Path 898" d="M403.718,708.948S384.4,745.391,379.15,765.459c-4.072,15.578,20.79,75.849,20.79,75.849a19.875,19.875,0,0,0,5.345-1.437,8.506,8.506,0,0,0,4.5-4.713s-1.489-43.095-6.507-63.941c-1.117-4.679,5.472-19.777,16.613-28.045s15.783-34.864,9.15-36.662S403.718,708.948,403.718,708.948Z" transform="translate(-237.73 -443.236)" fill="#e8b241"/>
      <path id="Path_899" data-name="Path 899" d="M418.841,686s-20.306,74.449-26.463,91.148-15.928,52.189-15.928,52.189a25.747,25.747,0,0,0,14.082,1.526s29.676-43.489,30.982-62.716c.6-8.885,30.465-44.111,27.137-67.082Z" transform="translate(-236.318 -430.64)" fill="#f8d451"/>
      <path id="Path_900" data-name="Path 900" d="M483.489,600.406s-4.322,2.178-11.96,2.818h0c-8.748.745-21.843-.551-37.8-9.433,0,0-4.448-3.667,1.016-19.26,4.139-11.808,6.157-36.7,11.2-59.377,0,0,16.379-5.141,29.53-.7,10.051,3.395,9.046,18.81,10.9,34.857.171,1.489.372,3,.6,4.5C489.713,571.389,483.489,600.406,483.489,600.406Z" transform="translate(-271.205 -321.818)" fill="#e77d3b"/>
      <path id="Path_901" data-name="Path 901" d="M453.9,409.753s11.186-18.2,19.844-8.833c0,0,5.662,1.444,8.9,10.259,3.309,8.993-1.861,16.933-5.286,15.653-2.207-.823-3.239,2.978-3.239,2.978Z" transform="translate(-284.938 -249.997)" fill="#412013"/>
      <path id="Path_902" data-name="Path 902" d="M502.6,390.026s.771-7.534,11.782-6.8c0,0-5.211.093-6.328,2.263,0,0,3.786-2.442,6.548-1.254s3.935,6.358,3.786,8-2.271,6.786-4.128,7.073-4.288-1.046-4.288-1.046Z" transform="translate(-315.509 -240.54)" fill="#412013"/>
      <path id="Path_903" data-name="Path 903" d="M491.22,491.894a50.753,50.753,0,0,1-3.812-14.454l-.663.231-11.115,3.916s.778,3.562,1.277,6.954c.2,1.389.35,3.86.443,6.023s2.271,2.416,4.467,2.315C487.706,496.607,490.944,494.4,491.22,491.894Z" transform="translate(-298.579 -299.716)" fill="#e2b097"/>
      <path id="Path_904" data-name="Path 904" d="M475.63,481.976s.778,3.562,1.277,6.953c6.377-1.117,8.934-7.445,9.839-10.87Z" transform="translate(-298.579 -300.105)" fill="#da9f84"/>
      <path id="Path_905" data-name="Path 905" d="M471.388,436.031s2.606-5.788,2.74-10.423c.112-3.32-3.268-15.08-15.076-11.614a16.587,16.587,0,0,0-6.421,3.547c-2.364,2.148-5.584,6.507.141,16.379l1.608,3.38Z" transform="translate(-282.217 -259.49)" fill="#412013"/>
      <path id="Path_906" data-name="Path 906" d="M458.2,453.058s15.184-1.932,13.836-11.372-.3-16.044-10.051-15.206-11.119,4.705-11.435,7.966S454.217,453.329,458.2,453.058Z" transform="translate(-282.824 -267.68)" fill="#e2b097"/>
      <path id="Path_907" data-name="Path 907" d="M462.67,424.39s5.744,10.471,12.347,11.193,9.116-1.4,9.116-1.4a18.241,18.241,0,0,1-7.445-9.8S465.026,418.669,462.67,424.39Z" transform="translate(-290.443 -264.816)" fill="#412013"/>
      <path id="Path_908" data-name="Path 908" d="M454.03,428.264s-2.74,2.915-3.149,5.427-.037,7.508-1.489,7.549c0,0-4.21-7.073-1.31-11.837C451.134,424.351,454.03,428.264,454.03,428.264Z" transform="translate(-280.645 -267.938)" fill="#412013"/>
      <path id="Path_909" data-name="Path 909" d="M464.38,426.505s4.627,11.167,13.192,13.725c0,0-9.057-5.956-10.844-13.52S464.38,426.505,464.38,426.505Z" transform="translate(-291.517 -265.725)" fill="#412013"/>
      <path id="Path_910" data-name="Path 910" d="M545.757,660.135s-4.322,2.178-11.96,2.818h0s-6.276-7.866.744-16.684-.547-25.086,4.839-33.938c3.752-6.157,7.4-4.724,9.28-3.287.171,1.489.372,3,.6,4.5C551.981,631.119,545.757,660.135,545.757,660.135Z" transform="translate(-333.473 -381.547)" fill="#d87131"/>
      <path id="Path_911" data-name="Path 911" d="M636.527,713.27s.931,2.166,2.233,2.312a27.32,27.32,0,0,1,6.8,2.393c1.72,1.024,1.6,5.584-.115,6.023s-2.583-3.406-7.959-4.433c-1.824-.346-4.467.912-5.558-3.458Z" transform="translate(-396.697 -447.759)" fill="#e2b097"/>
      <path id="Path_912" data-name="Path 912" d="M543.308,517.3c15.634,5.751,16.215,33.45,23.187,45.648,7.188,12.582,14.19,29.143,14.19,29.143s-.127.5-2.807,1.262a11.258,11.258,0,0,1-3.86.313s-14.774-13.364-18.787-18.635S541.756,545.3,541.756,545.3,537.1,515.017,543.308,517.3Z" transform="translate(-339.038 -324.662)" fill="#e77d3b"/>
      <path id="Path_913" data-name="Path 913" d="M633,723.8a5.883,5.883,0,0,0,2.684,3.369c2.312,1.508,4.154,3.012,4.378,2.077s-1.281-1.936-1.642-3.655S633,723.8,633,723.8Z" transform="translate(-397.369 -454.369)" fill="#e2b097"/>
      <g id="girl_2" data-name="girl 2" transform="translate(380.042 250.167)">
        <path id="Path_914" data-name="Path 914" d="M1242.94,672.526a22.276,22.276,0,0,0-19.986,5.707,59.116,59.116,0,0,0-7.281,8.316c-5.856,8.189,5.36,16.271,3.867,19.044s-4.947,4.958-3.436,10.743,11.488,13.289,14.737,13.624c32.951,3.384,47.249-14.782,36.234-24.568s-6.518-24-15.463-29.515a27.406,27.406,0,0,0-8.673-3.35Z" transform="translate(-1142.115 -672.049)" fill="#412013"/>
        <path id="Path_915" data-name="Path 915" d="M1116.455,812.16s-30.074,14.566-35.706,14.32-40.839-12.656-40.839-12.656l.882,5.956s26.8,15.4,36.149,16.278c9.221.86,40.746-8.275,43.791-10.2S1125.3,814.111,1116.455,812.16Z" transform="translate(-1032.85 -760.004)" fill="#da9f84"/>
        <path id="Path_916" data-name="Path 916" d="M1236.64,794.179a29.829,29.829,0,0,0,10.423,4.441c16.081,3.722,22.242-9.876,24.568-19.2a13.81,13.81,0,0,0-5.45-1.675c-1.162-.138-2.383-.227-3.4-.279-1.805-1.381-4.5-7.043-5.092-15.832l-.745.2-12.675,3.469s.581,4.028.867,7.817c.22,2.978.253,5.826-.309,6.522-.99.216-1.586.372-1.586.372h0a81.423,81.423,0,0,0-6.607,14.164Z" transform="translate(-1156.348 -728.284)" fill="#e2b097"/>
        <path id="Path_917" data-name="Path 917" d="M1257.12,765.624s.584,4.028.867,7.817c7.177-.719,10.512-7.553,11.808-11.3Z" transform="translate(-1169.204 -728.604)" fill="#da9f84"/>
        <path id="Path_918" data-name="Path 918" d="M1239.394,732.321s17.045-.938,16.293-11.54.949-17.868-9.965-17.715-12.738,4.348-13.349,7.947S1234.942,732.295,1239.394,732.321Z" transform="translate(-1153.622 -691.518)" fill="#e2b097"/>
        <path id="Path_919" data-name="Path 919" d="M1230.173,701.383c2.4-3.376,4.441-2.818,5.625-1.939a11.927,11.927,0,0,1,15.474,1.348,20.317,20.317,0,0,0,7.482,11.491s-3.019,2.416-10.248.815a18.1,18.1,0,0,1-12.857-11.3c-.972,1-2.233,1.645-3.19,3.834a16.846,16.846,0,0,0-1.883,8.368S1226.555,706.45,1230.173,701.383Z" transform="translate(-1151.34 -687.826)" fill="#412013"/>
        <path id="Path_920" data-name="Path 920" d="M1259.448,852.524c1.541-7.869,6.559-39.3,1.541-49.416-1.805-3.633-8.874-3.961-16.636-3.644-2.412,1.56-11.614,7.445-15.392,6.7l-.212-.052c-1.779-.443-2.449-1.694-.964-2.773a79.643,79.643,0,0,0-8.189,1.139c-2.695.51-10.1,5.051-10.1,5.051a22.076,22.076,0,0,0,8.755,7.5c-.92,8.212.447,11.834,8.967,30.8,7.2,16.033-.972,30.468-.972,30.468s42.384,34.09,42.622,16.736C1269.048,881.983,1257.483,862.578,1259.448,852.524Z" transform="translate(-1139.311 -751.976)" fill="#7fe1d3"/>
        <path id="Path_921" data-name="Path 921" d="M1182.017,953.815a7.876,7.876,0,0,1-5.665-3.451c-.2-.305-.424-.633-.655-.987-4.839-7.3-6.7-29.664-17.552-53.488-2.643-5.8-12.131-6.842-14.715-13.4,0,0-6.369-21.251,12.183-21.877s49.687,59.131,50.179,65.4C1206.261,932.072,1218.058,957.876,1182.017,953.815Z" transform="translate(-1097.172 -790.417)" fill="#d87131"/>
        <path id="Path_922" data-name="Path 922" d="M1050.78,1086.933h26.407s.987-4.322-.744-7.266c-1.534-2.606-.946-4.095.19-6.243a9.963,9.963,0,0,1-4.445.86,9.093,9.093,0,0,1-3.927-1.415c-1.139,1.329-6,6.991-7.527,8.111C1059.007,1082.258,1051.312,1081.8,1050.78,1086.933Z" transform="translate(-1039.674 -923.666)" fill="#e8b241"/>
        <path id="Path_923" data-name="Path 923" d="M1110.895,865.315c-1.59,11.912-7.8,49.546-18.75,67.9-3.532,5.919,8.9,9.236,8.964,9.221,1.667-.439,4.445-3.1,5.725-4.247,8.889-8.015,26.943-30.71,26.943-48.9,0-8.871.156-25.815-6.295-30.122C1123.51,856.516,1111.527,860.58,1110.895,865.315Z" transform="translate(-1065.243 -788.986)" fill="#d87131"/>
        <path id="Path_924" data-name="Path 924" d="M1221.507,951.546a19.565,19.565,0,0,1-2.185-4.988c-1.422-4.981-1.925-8.606-4.653-16.379-2.863-8.145-6.261-18.166-10.508-28.592-1.311-3.22-2.7-6.477-4.181-9.731-2.643-5.8-9.913-5-12.5-11.54,0,0-10.092-22.729,8.461-23.355s53.8,60.8,55.837,66.751C1253.989,930.224,1261.959,957.785,1221.507,951.546Z" transform="translate(-1123.767 -788.126)" fill="#e77d3b"/>
        <path id="Path_925" data-name="Path 925" d="M1102.85,1086.933h26.407s.987-4.322-.745-7.266c-1.537-2.606-.949-4.095.19-6.243a9.981,9.981,0,0,1-4.467.86,9.111,9.111,0,0,1-3.927-1.415c-1.117,1.329-6,6.991-7.523,8.111C1111.1,1082.258,1103.382,1081.8,1102.85,1086.933Z" transform="translate(-1072.361 -923.666)" fill="#f8d451"/>
        <path id="Path_926" data-name="Path 926" d="M1247.418,975.8c-2.862-8.145-6.261-18.166-10.508-28.592,1.117-7.9,3.5-14.812,7.527-17.6C1244.437,929.61,1254.193,959.84,1247.418,975.8Z" transform="translate(-1156.517 -833.734)" fill="#e27234"/>
        <path id="Path_927" data-name="Path 927" d="M1159.006,865.269c-1.589,11.912-3.827,50.391-14.782,68.746-3.533,5.919,8.9,9.235,8.964,9.221,1.668-.439,4.445-3.1,5.725-4.247,8.893-8.015,26.943-30.71,26.943-48.9,0-8.871-10.423-25.1-16.859-29.407A6.488,6.488,0,0,0,1159.006,865.269Z" transform="translate(-1097.937 -789.785)" fill="#e77d3b"/>
        <path id="Path_928" data-name="Path 928" d="M1028.812,770.538l27.04-2.874a1.749,1.749,0,0,1,1.817,1.117l9.678,25.424a1.746,1.746,0,0,1-1.56,2.364l-26.835,1.083a1.746,1.746,0,0,1-1.679-1.072l-9.883-23.634a1.742,1.742,0,0,1,1.422-2.408Z" transform="translate(-1024.904 -732.066)" fill="#292f45"/>
        <path id="Path_929" data-name="Path 929" d="M1022.5,771.2l27.04-2.874a1.75,1.75,0,0,1,1.817,1.117l9.678,25.424a1.746,1.746,0,0,1-1.56,2.364l-26.835,1.083a1.742,1.742,0,0,1-1.679-1.072l-9.883-23.634a1.742,1.742,0,0,1,1.422-2.408Z" transform="translate(-1020.943 -732.48)" fill="#373c52"/>
        <path id="Path_930" data-name="Path 930" d="M1065.213,805.225a1.114,1.114,0,0,1,1.046-1.645,2.606,2.606,0,0,1,2.234,1.645,1.111,1.111,0,0,1-1.046,1.642,2.605,2.605,0,0,1-2.234-1.642Z" transform="translate(-1048.668 -754.618)" fill="#ebf3fa"/>
        <path id="Path_931" data-name="Path 931" d="M1027.188,781.146a.547.547,0,0,1,.514-.808,1.277,1.277,0,0,1,1.117.808.547.547,0,0,1-.514.808A1.277,1.277,0,0,1,1027.188,781.146Z" transform="translate(-1024.822 -740.027)" fill="#ebf3fa"/>
        <path id="Path_932" data-name="Path 932" d="M1196.2,809.41s-37.463,13.8-43.11,13.52c-3.641-.182-33.9-10.817-33.9-10.817l-2.714,5.137s29.445,18.925,37.541,18.832c15.984-.182,42.953-9.995,45.995-11.912S1205.045,811.361,1196.2,809.41Z" transform="translate(-1080.917 -758.278)" fill="#e2b097"/>
        <path id="Path_933" data-name="Path 933" d="M1090.992,809.4s-2.714-4.18-5.42-4.3-7.374,1.843-8.975,2.152-6.146,1.783-4.795,3.994,7.624,2.7,10.326,2.211,6.15,1.083,6.15,1.083Z" transform="translate(-1052.715 -755.569)" fill="#e2b097"/>
        <path id="Path_934" data-name="Path 934" d="M1100.32,801.27s-4.3-1.973-5.532-2.341-.983,0-.614,1.173,2.58,2.278,2.58,2.643S1100.32,801.27,1100.32,801.27Z" transform="translate(-1066.726 -751.612)" fill="#e2b097"/>
        <path id="Path_935" data-name="Path 935" d="M1032.42,803.6s1.716-5.651,3.6-3.875c1.962,1.861.771,3.7.529,6.053-.458,4.508-1.37,4.311-1.947,4.095S1031.784,805.87,1032.42,803.6Z" transform="translate(-1028.077 -751.983)" fill="#e2b097"/>
        <path id="Path_936" data-name="Path 936" d="M1032.22,813a7.175,7.175,0,0,0,3.722,7.326l-1.351-3.313Z" transform="translate(-1027.981 -760.531)" fill="#e2b097"/>
        <path id="Path_937" data-name="Path 937" d="M1242.79,764.632s1.612-.637,6.146-.272c0,0-.242,1.772-3.585,1.947A2.691,2.691,0,0,1,1242.79,764.632Z" transform="translate(-1160.209 -729.927)" fill="#fff"/>
        <path id="Path_938" data-name="Path 938" d="M1278.77,814.746s3.35,10.613,14.864,13.029c0,0,19.01-5.859,9.544-18.81C1303.178,808.965,1293.82,802.011,1278.77,814.746Z" transform="translate(-1182.795 -756.809)" fill="#7fe1d3"/>
        <path id="Path_939" data-name="Path 939" d="M1030.9,808.743s-.789-2.647-.834-3.108,0-.689.417-.372a2.2,2.2,0,0,1,.845,1.973,15.044,15.044,0,0,1-.428,1.508Z" transform="translate(-1026.662 -755.582)" fill="#e2b097"/>
      </g>
      <path id="Path_940" data-name="Path 940" d="M1001.272,431.619a2.2,2.2,0,0,0-.395,2.353h0c.57,1.571,2.446,3.324,4.627,5.077.275.223.525.428.745.618l.167.149.127.115c2.032,1.861,1.269,2.3,4.921,6.1,4.165,4.337,7.032,4.411,7.847,4.02.692-.339-.711-2.635-2.263-5.211-.074-.127-.149-.253-.227-.372-.208-.346-.413-.692-.618-1.039-1.82-3.108-1.355-4.567-.923-9.194.354-3.76,5.852-21.006,5.852-21.006l-7.981-1.374s-2.4,13.732-5.051,15.847c-1.418,1.117-3,1.143-4.363,1.977l-.283.179a10.423,10.423,0,0,0-2.181,1.757Z" transform="translate(-628.192 -258.547)" fill="#e2b097"/>
      <path id="Path_941" data-name="Path 941" d="M1001.272,461.971a2.2,2.2,0,0,0-.395,2.353h0c.7,1.571,2.528,3.313,4.635,5.059.275.231.517.439.744.637l.168.149.126.115c2.032,1.861,1.27,2.3,4.921,6.1,4.166,4.337,7.032,4.411,7.847,4.02.692-.339-.711-2.635-2.263-5.211a17.76,17.76,0,0,1-7.445-5.472c-2.416-3.082-4.057-7.013-5.7-9.425l-.469-.089a10.422,10.422,0,0,0-2.17,1.761Z" transform="translate(-628.192 -288.899)" fill="#373c52"/>
      <path id="Path_942" data-name="Path 942" d="M1164.377,422.531c.491,2.464,4,2.055,7.929,1.094s2.978.182,8.562-.436,7.278-2.7,7.445-3.533c.153-.745-2.606-.994-5.584-1.336l-1.117-.134c-3.35-.417-5.788-2.576-8.822-4.344-2.874-1.679-7.166-8.513-7.166-8.513l-7.624.622s4.016,6.1,5.584,8.759a9.144,9.144,0,0,1,.744,5.211A9.79,9.79,0,0,0,1164.377,422.531Z" transform="translate(-726.94 -254.448)" fill="#e2b097"/>
      <path id="Path_943" data-name="Path 943" d="M1182.795,445.535c3.923-.957,2.978.182,8.562-.436s7.278-2.7,7.445-3.533c.152-.745-2.606-.994-5.584-1.336l-.026.056a15.754,15.754,0,0,1-8,2.487c-3.786.093-7.817-.994-10.423-.949a9.794,9.794,0,0,0,.059,2.606C1175.357,446.9,1178.868,446.495,1182.795,445.535Z" transform="translate(-737.429 -276.357)" fill="#373c52"/>
      <path id="Path_944" data-name="Path 944" d="M1052.014,299.3l-7.158,19.264-9.328,25.153a15.113,15.113,0,0,1-4.966-.454,21.658,21.658,0,0,1-4.8-2.338s2.606-27.006,7.445-42.507c1.24-3.979,2.632-7.2,4.166-9.012C1044.834,280.539,1052.014,299.3,1052.014,299.3Z" transform="translate(-643.925 -180.182)" fill="#6fd2cc"/>
      <path id="Path_945" data-name="Path 945" d="M959.948,231.329c-4.095-1.314-14.707-.022-26.24,2.066a7.817,7.817,0,0,1-8.078-3.648h0L896.6,227.48s-9.578,21.24-4.333,34.771a5.085,5.085,0,0,0,5.07,3.272h0s17.54.026,23.15.026c14.432,0,30.547-9.92,32.631-10.337,3.41-.685,4.776,6.138,8.189,13.3s32.08,31.745,32.08,31.745,4.4.045,6.224-.64a6.276,6.276,0,0,0,2.673-1.686S970.523,234.746,959.948,231.329Z" transform="translate(-559.136 -142.802)" fill="#7fe1d3"/>
      <path id="Path_946" data-name="Path 946" d="M896.579,1.72A10.326,10.326,0,0,0,891.032.276a15.337,15.337,0,0,1-2.676-.16c-11.074-1.627-17.745,14.465-18.136,19.327-.718,8.934-5.442,10.285-12.087,15.876C844.807,46.531,848.715,59.56,856,64.4c4.374,2.9,12.079,0,12.079,0,.108.078,21.077-11.718,31.41-17.41C914.982,44.774,902.806,5.424,896.579,1.72Z" transform="translate(-533.166 -0.001)" fill="#412013"/>
      <path id="Path_947" data-name="Path 947" d="M936.971,85.782c.045.03-5.085,1.779-8.517.261-3.227-1.426-5.669-6.738-5.625-6.738,1.47-.067,3.082-1.351,4.322-9.775l.625.223,10.512,3.786s-.763,3.373-1.251,6.589C936.621,82.815,936.4,85.4,936.971,85.782Z" transform="translate(-579.31 -43.648)" fill="#e2b097"/>
      <path id="Path_948" data-name="Path 948" d="M946.632,73.9s-.421,1.817-1.031,5.211a11.876,11.876,0,0,1-9.481-9Z" transform="translate(-587.653 -44.012)" fill="#da9f84"/>
      <path id="Path_949" data-name="Path 949" d="M946.447,46.628s-14.384-1.932-13.029-10.87.372-15.206,9.626-14.35,10.5,4.53,10.8,7.624S950.221,46.892,946.447,46.628Z" transform="translate(-585.901 -13.39)" fill="#e2b097"/>
      <path id="Path_950" data-name="Path 950" d="M946.359,22.787s-9.206,7.933-15.467,8.562-8.632-1.37-8.632-1.37a24.461,24.461,0,0,0,5.911-8.011,4.411,4.411,0,0,1,3.629-2.606C936.256,19,944.732,18.822,946.359,22.787Z" transform="translate(-578.953 -12.044)" fill="#412013"/>
      <path id="Path_951" data-name="Path 951" d="M971.49,24.086s3.082,2.978,4.05,5.185c.938,2.133,1.217,7.229.473,9.254,0,0,4.8-9.328,2.081-13.862C975.212,19.839,971.49,24.086,971.49,24.086Z" transform="translate(-609.857 -14.036)" fill="#412013"/>
      <path id="Path_952" data-name="Path 952" d="M928.269,122.876c-.436,29.11-.119,23.027-3.3,25.789-.767.666-2.926,1.061-5.766,1.251-8.934.592-24.617-.878-25.212-2.528-2.059-5.71-.607-7.482-2.323-16.222q-.276-1.392-.663-3.03c-1.433-6-2.825-8.044,2.256-17.685,4.608-8.737,9.4-15.824,9.824-15.571,12.161,7.218,13.144,1.158,13.144,1.158S928.485,108.693,928.269,122.876Z" transform="translate(-558.499 -59.557)" fill="#f8d451"/>
      <path id="Path_953" data-name="Path 953" d="M1044.856,337.776l-9.328,25.153a15.115,15.115,0,0,1-4.966-.454,21.659,21.659,0,0,1-4.8-2.338s2.606-27.006,7.445-42.507Z" transform="translate(-643.925 -199.394)" fill="#7fe1d3"/>
      <path id="Path_954" data-name="Path 954" d="M961,98s12.511,2.122,13.978,7.508,6.306,38.081,6.306,38.081-3.529,3.443-6.466.506-9.247-30.591-9.247-30.591Z" transform="translate(-603.272 -61.52)" fill="#f8d451"/>
      <path id="Path_955" data-name="Path 955" d="M922.565,190.674c-8.934.592-24.617-.879-25.212-2.528-2.058-5.71-.607-7.482-2.323-16.222l4.3-12.124s-.711,13.5,3.272,17.053,16.3,6.857,18.24,9.824A10.88,10.88,0,0,1,922.565,190.674Z" transform="translate(-561.859 -100.316)" fill="#e8b241"/>
      <path id="Path_956" data-name="Path 956" d="M941.52,225.185s8.807-1.958,10.226-1.176,4.9,3.626,5.331,4.616-3.164-.745-4.333-1.065c-.744-.2-2.755.491-3.722.819-4.158,1.385-6.7.674-6.7.674Z" transform="translate(-591.043 -140.508)" fill="#e2b097"/>
      <path id="Path_957" data-name="Path 957" d="M877.566,94.88s-11.826.744-15.921,6.436c-5.762,8.037-17.194,42.291-10.642,46.858,7.378,5.144,33.58,1.344,33.58,1.344s.871-4.072-.342-6.045-20.928-5.156-21.817-6.064,11.372-17.745,11.372-20.474S877.566,94.88,877.566,94.88Z" transform="translate(-532.985 -59.562)" fill="#f8d451"/>
      <path id="Path_958" data-name="Path 958" d="M970.14,230.9a18.021,18.021,0,0,0,2.449,2.665,1.82,1.82,0,0,0,1,.212l-1.243-2.233Z" transform="translate(-609.01 -144.949)" fill="#e2b097"/>
      <path id="Path_959" data-name="Path 959" d="M969,224.32l5.368,2.606a.961.961,0,0,1-.89.346,12.691,12.691,0,0,1-2.327-.64Z" transform="translate(-608.294 -140.818)" fill="#e2b097"/>
      <path id="Path_960" data-name="Path 960" d="M997.558,240.77H941.52v1.236h55.543Z" transform="translate(-591.043 -151.145)" fill="#e77d3b"/>
      <path id="Path_961" data-name="Path 961" d="M976.72,190.555h42.44l12.764-31.745H989.551Z" transform="translate(-613.14 -99.694)" fill="#e77d3b"/>
      <path id="Path_962" data-name="Path 962" d="M1055.038,198.041a1.471,1.471,0,0,0-1.441-2.021,2.9,2.9,0,0,0-2.606,2.021,1.471,1.471,0,0,0,1.441,2.021,2.9,2.9,0,0,0,2.606-2.021Z" transform="translate(-659.714 -123.053)" fill="#fff"/>
      <g id="man" transform="translate(537.168 118.307)">
        <path id="Path_963" data-name="Path 963" d="M1842.95,482.7c-1.243,3.35-3.4,7.225-5.662,8.189a8.756,8.756,0,0,0-3.633,2.639l-2.073-1.2-2.472-1.437s.059-.275.179-.722.305-1.065.554-1.753a2.39,2.39,0,0,0,.294-2.2,5.1,5.1,0,0,1,.424-4.27c.8-1.154,1.556-3.994,2.036-3.909,1.154.2-.57,4.095-.074,4.839a.852.852,0,0,0,1.117.372h.022c3.242-1.426,7.181-9.12,8.934-8.081C1843.214,475.544,1843.479,481.276,1842.95,482.7Z" transform="translate(-1685.4 -416.536)" fill="#e2b097"/>
        <path id="Path_964" data-name="Path 964" d="M1835.679,481.137l4.065,2.859a.644.644,0,0,0,.89-.156l10.423-14.819a.633.633,0,0,0-.153-.886l-4.065-2.859a.64.64,0,0,0-.89.156l-10.423,14.815A.644.644,0,0,0,1835.679,481.137Z" transform="translate(-1689.356 -410.314)" fill="#373c52"/>
        <path id="Path_965" data-name="Path 965" d="M1845.781,488.212l2.383,1.675a.487.487,0,0,0,.677-.119l10.587-15.069a.484.484,0,0,0-.119-.674l-2.382-1.675a.484.484,0,0,0-.674.115l-10.59,15.069A.488.488,0,0,0,1845.781,488.212Z" transform="translate(-1695.736 -414.772)" fill="#292f45"/>
        <path id="Path_966" data-name="Path 966" d="M1660.487,451s20.686,36.078,28.186,42.715L1716.19,473.2a10.048,10.048,0,0,1,5.74,5.211s-16.706,34.042-33.16,35.486-39.54-40.8-39.54-40.8Z" transform="translate(-1572.48 -401.425)" fill="#e8b241"/>
        <path id="Path_967" data-name="Path 967" d="M1518.016,1069.246h-11.949a7.275,7.275,0,0,1-3.268-5.476c-.584-3.849-4.9-5.956-5.833-9.1s3.849-7.583,3.849-7.583l.8-1.031.83-1.068,7.933,1.861s.2,1.887.316,4.3a54.273,54.273,0,0,1,.033,5.5c-.231,4.2,1.176,8.721,4.906,9.537C1518.392,1066.8,1518.27,1068.445,1518.016,1069.246Z" transform="translate(-1476.819 -774.305)" fill="#412013"/>
        <path id="Path_968" data-name="Path 968" d="M1692.469,1086.594h-27.33c-1.314-1.6-.83-7.523-.633-9.455.041-.372.071-.618.071-.618s9.332-7.445,10.613-1.749c.041.182.089.372.141.528,1.612,5.349,8.859,7.776,13.029,8.454C1691.091,1084.2,1692.1,1085.608,1692.469,1086.594Z" transform="translate(-1581.911 -791.654)" fill="#412013"/>
        <path id="Path_969" data-name="Path 969" d="M1659.286,696.179s-1.418,17.682-3.082,38.937c-2.263,28.871-4.988,64.335-5.256,71.054-.465,11.666-2.334,30.327-2.334,30.327s-4.43,4.433-13.3,2.565c0,0-7.9-26.638-10.158-54.824-.033-.462-.071-.927-.1-1.392-2.1-28.693-5.364-89.116-5.364-89.116Z" transform="translate(-1553.936 -553.8)" fill="#e1558b"/>
        <path id="Path_970" data-name="Path 970" d="M1659.286,696.2s-1.418,17.682-3.082,38.937l-31.045,49.137c-.033-.462-.071-.927-.1-1.392-2.1-28.693-5.364-89.116-5.364-89.116Z" transform="translate(-1553.936 -553.825)" fill="#d23e7d"/>
        <path id="Path_971" data-name="Path 971" d="M1582.395,686.527s-25.547,64.026-42.343,94.13-22.045,38.49-22.045,38.49-9.622-3.849-10.5-6.473c0,0,6.421-58.1,17.671-72.257,6.354-8,13.821-32.013,14.171-40.418s2.275-25.019,2.275-25.019Z" transform="translate(-1483.515 -542.029)" fill="#e1558b"/>
        <path id="Path_972" data-name="Path 972" d="M1646.982,410.283c-9.98,3.149-26.452-5.733-26.452-5.733s8.4-6.525,7.921-20.89l7.717,6.22,5.241,4.225a62.148,62.148,0,0,1-.592,6.857c-.153,1.147-.428,2.941.432,3.856A59.321,59.321,0,0,0,1646.982,410.283Z" transform="translate(-1554.463 -359.152)" fill="#e2b097"/>
        <path id="Path_973" data-name="Path 973" d="M1654.711,404.362a62.239,62.239,0,0,1-.592,6.857c-5.811-1-12.4-10.386-12.4-10.386a18.49,18.49,0,0,1,7.75-.7Z" transform="translate(-1567.766 -369.408)" fill="#da9f84"/>
        <path id="Path_974" data-name="Path 974" d="M1651.573,365.084s-16.49,2.736-18.035-7.557-4.72-16.874,5.74-19.059,13.1,1.437,14.458,4.746S1655.82,364.1,1651.573,365.084Z" transform="translate(-1561.57 -330.365)" fill="#e2b097"/>
        <path id="Path_975" data-name="Path 975" d="M1644.2,532.176a1.611,1.611,0,0,1-1.05.4c-3.749-.048-14.678,2.032-23.928,1.083-7.817-.745-14.7-3.06-22.111-6.38-.983-.443-3.246-1.653-3.2-2.751.033-1.206.153-2.952.305-5.152a275.794,275.794,0,0,0,.547-35.989c-.16-2.825-.246-5.628-.257-8.39-.074-20.574,4.005-38.669,12.2-44.792.7-.5,5,1.6,8.934,3.547a14.152,14.152,0,0,0,9.957,1.3l4.236,3.052c4.2,3.9,8.8,9.2,10.8,17.246,1.7,6.849,2.7,19.2,3.25,31.991.249,5.8.451,11.648.5,17.2v.2c.049.551.049,1.154.049,1.7C1644.653,520.677,1644.452,531.975,1644.2,532.176Z" transform="translate(-1537.751 -388.322)" fill="#f8d451"/>
        <path id="Path_976" data-name="Path 976" d="M1594.75,570.94a275.809,275.809,0,0,0,.547-35.989c-.16-2.825-.246-5.628-.257-8.39,3.418-8.283,6.206-14.291,6.206-14.291h8.61S1616.165,555.372,1594.75,570.94Z" transform="translate(-1538.28 -439.887)" fill="#e8b241"/>
        <path id="Path_977" data-name="Path 977" d="M1463.6,744.845l36.711,5.211a8.8,8.8,0,0,0,9.924-7.445l2.267-15.91a8.8,8.8,0,0,0-7.445-9.924l-36.711-5.211a8.8,8.8,0,0,0-9.924,7.445l-2.267,15.91a8.8,8.8,0,0,0,7.445,9.924Z" transform="translate(-1451.224 -564.943)" fill="#292f45"/>
        <path id="Path_978" data-name="Path 978" d="M1498.953,713.5h0a8.834,8.834,0,0,0-6.082-5.312h0c-.279-.067-.558-.123-.849-.164l-7.3-1.039.491-3.432a2.907,2.907,0,0,0-2.468-3.287l-1.906-.272-7.676-1.094-1.385-.2a2.911,2.911,0,0,0-3.287,2.468L1468,704.6l-12.615-1.8a8.837,8.837,0,0,0-9.965,7.475l-2.289,16.092a8.83,8.83,0,0,0,7.475,9.961l36.644,5.211a8.672,8.672,0,0,0,1.91.063h0a8.72,8.72,0,0,0,2.859-.722,8.826,8.826,0,0,0,5.185-6.82l2.293-16.089A8.721,8.721,0,0,0,1498.953,713.5Zm-28.663-12.079a1.087,1.087,0,0,1,.9-.919,1.2,1.2,0,0,1,.328,0l1.63.231,6.038.864,3.294.469a1.083,1.083,0,0,1,.92,1.225l-.488,3.436-13.111-1.861Z" transform="translate(-1443.048 -556.903)" fill="#373c52"/>
        <path id="Path_979" data-name="Path 979" d="M1532.47,669.008a5.964,5.964,0,0,0-1.545,4.206c.443,6.079-.279,8.83-4.188,9.459,0,0-4.638.871-4.7-1.861,0,0,2.181.022,1.727-3.8-.529-4.4-.473-4.445,2.416-6.745l1.913-3.16Z" transform="translate(-1492.636 -537.089)" fill="#e2b097"/>
        <path id="Path_980" data-name="Path 980" d="M1530.939,525.256a28.249,28.249,0,0,0,6.462.372s9.2-28.425,10.386-31.023,27.33-33.327,27.33-33.327L1564.225,434s-28.291,47.238-31.153,53.875c-4.746,10.97-6.391,35.564-6.391,35.564a11.849,11.849,0,0,0,4.259,1.817Z" transform="translate(-1495.549 -390.753)" fill="#f8d451"/>
        <path id="Path_981" data-name="Path 981" d="M1629.6,343.994s1.69-.283,1.418-2.606-.268-5.379,1.627-4.809,1.988,2.085,2.766,1.2.793-4.62,6.432-4.876,7.929,1.7,10.549.547,2.766-5.137,2.766-5.137a4.5,4.5,0,0,1-1.861,1.861s4.374-5.982-.692-10.084-10.226-1.418-13.159-1.24c-6.455.391-10.628.778-12.735,5.022S1625.453,339.91,1629.6,343.994Z" transform="translate(-1557.644 -317.822)" fill="#412013"/>
        <path id="Path_982" data-name="Path 982" d="M1542.85,682.07s1.861,1.936,1.977,2.743c.372,2.583,1.239,3.7.8,3.979-.9.584-2.088-1.329-2.658-3.045A7.9,7.9,0,0,1,1542.85,682.07Z" transform="translate(-1505.599 -546.48)" fill="#e2b097"/>
      </g>
      <path id="Path_983" data-name="Path 983" d="M1629.161,104.551c-1.8-29.407-22.435-34.328-41.4-34.321s-37.508,9.842-36.607,31.968c.372,9.548,3.056,17.838,9.38,23.716l-7.129,17.842,14.518-12.913c5.833,2.755,13.449,4.3,23.25,4.3C1620.231,135.127,1630.319,123.476,1629.161,104.551Z" transform="translate(-973.726 -44.088)" fill="#7fe1d3"/>
      <path id="Path_984" data-name="Path 984" d="M1618.181,136.971h-4.571v-5.278h5.487l1.489-8.841H1615.5v-5.3h6l1.37-7.977h5.438l-1.388,7.977h8.335l1.321-7.977h5.439l-1.374,7.977h4.523v5.286h-5.439l-1.489,8.841h5.081v5.282h-6l-1.422,8.189h-5.439l1.422-8.189h-8.334l-1.37,8.189h-5.439Zm14.637-5.278,1.522-8.841h-8.331l-1.526,8.841Z" transform="translate(-1012.951 -68.783)" fill="#fdf4df"/>
      <path id="Path_985" data-name="Path 985" d="M228.439,354.537c1.217-19.956,15.214-23.28,28.075-23.277s25.439,6.674,24.829,21.683c-.264,6.473-2.073,12.1-6.365,16.081l4.839,12.1-9.85-8.755c-3.957,1.861-9.12,2.915-15.768,2.911C234.5,375.274,227.653,367.375,228.439,354.537Z" transform="translate(-143.366 -207.95)" fill="#7fe1d3"/>
      <path id="Path_986" data-name="Path 986" d="M753.968,1013.514l-.6-.093c-2.341-30.293-11.592-52.029-11.722-52.326l.543-.235C742.324,961.162,751.641,983.042,753.968,1013.514Z" transform="translate(-465.574 -603.185)" fill="#7fe1d3"/>
      <path id="Path_987" data-name="Path 987" d="M723.59,944.686c1.143,1.292,6.485,3.372,6.853,3.045s-1.031-5.881-2.17-7.173a3.123,3.123,0,0,0-4.683,4.128Z" transform="translate(-453.79 -589.825)" fill="#f8d451"/>
      <path id="Path_988" data-name="Path 988" d="M743.979,938.961c-1.031,1.381-1.969,7.035-1.575,7.33s5.546-2.233,6.578-3.6a3.119,3.119,0,1,0-5-3.723Z" transform="translate(-465.99 -588.604)" fill="#f8d451"/>
      <path id="Path_989" data-name="Path 989" d="M750.811,957.18c-1.664-.454-7.266.744-7.4,1.221s4.095,4.348,5.755,4.8a3.123,3.123,0,1,0,1.642-6.023Z" transform="translate(-466.68 -600.811)" fill="#f8d451"/>
      <path id="Path_990" data-name="Path 990" d="M742.629,966.554c-.167-1.716-3.272-6.533-3.763-6.484s-2.606,5.371-2.449,7.073a3.121,3.121,0,0,0,6.213-.6Z" transform="translate(-462.283 -602.688)" fill="#f8d451"/>
      <path id="Path_991" data-name="Path 991" d="M722.569,966.033c1.526-.8,4.813-5.494,4.582-5.93s-5.956-.4-7.486.406a3.12,3.12,0,1,0,2.9,5.524Z" transform="translate(-450.725 -602.535)" fill="#f8d451"/>
      <path id="Path_992" data-name="Path 992" d="M739.848,958.67a1.024,1.024,0,1,1,.181.766A1.027,1.027,0,0,1,739.848,958.67Z" transform="translate(-464.434 -601.266)" fill="#f78248"/>
      <path id="Path_993" data-name="Path 993" d="M762.081,981.184c-1.7,2.085-3.525,10.836-2.933,11.32s8.789-3.093,10.486-5.178a4.869,4.869,0,0,0-7.553-6.142Z" transform="translate(-476.487 -614.872)" fill="#7fe1d3"/>
      <path id="Path_994" data-name="Path 994" d="M747.4,1050.963c1.764.86,5.658,6.082,5.412,6.585s-6.76.651-8.521-.208a3.547,3.547,0,1,1,3.109-6.377Z" transform="translate(-465.978 -659.521)" fill="#7fe1d3"/>
      <path id="Path_995" data-name="Path 995" d="M820.34,1000.363l.681-.108c2.688-34.779,13.308-59.738,13.457-60.077l-.622-.268C833.711,940.256,823.013,965.375,820.34,1000.363Z" transform="translate(-514.972 -590.033)" fill="#7fe1d3"/>
      <path id="Path_996" data-name="Path 996" d="M864.3,921.189c-1.31,1.489-7.445,3.871-7.865,3.5s1.184-6.753,2.494-8.238a3.583,3.583,0,0,1,5.372,4.742Z" transform="translate(-537.588 -574.543)" fill="#f8d451"/>
      <path id="Path_997" data-name="Path 997" d="M841.647,915.043c1.184,1.586,2.256,8.078,1.805,8.416s-6.369-2.55-7.549-4.135a3.585,3.585,0,0,1,5.747-4.281Z" transform="translate(-524.334 -573.567)" fill="#f8d451"/>
      <path id="Path_998" data-name="Path 998" d="M829.021,935.685c1.91-.521,8.346.856,8.495,1.4s-4.7,5-6.611,5.517a3.584,3.584,0,1,1-1.884-6.917Z" transform="translate(-518.762 -587.308)" fill="#f8d451"/>
      <path id="Path_999" data-name="Path 999" d="M845.147,946.444c.19-1.969,3.76-7.5,4.322-7.445s3,6.164,2.81,8.137a3.585,3.585,0,0,1-7.132-.692Z" transform="translate(-530.54 -589.461)" fill="#f8d451"/>
      <path id="Path_1000" data-name="Path 1000" d="M862.486,945.859c-1.753-.919-5.528-6.328-5.267-6.812s6.846-.454,8.6.465a3.585,3.585,0,0,1-3.328,6.328Z" transform="translate(-538.114 -589.297)" fill="#f8d451"/>
      <path id="Path_1001" data-name="Path 1001" d="M856.415,937.393a1.176,1.176,0,1,0-.208.879A1.18,1.18,0,0,0,856.415,937.393Z" transform="translate(-536.146 -587.829)" fill="#f78248"/>
      <path id="Path_1002" data-name="Path 1002" d="M811.053,1013.066c1.381,1.694,2.87,8.807,2.386,9.2s-7.147-2.513-8.524-4.21a3.957,3.957,0,1,1,6.138-4.992Z" transform="translate(-504.695 -634.995)" fill="#7fe1d3"/>
      <path id="Path_1003" data-name="Path 1003" d="M831.341,1043.354c-2.025.986-6.5,6.983-6.213,7.56s7.758.744,9.783-.238a4.073,4.073,0,0,0-3.57-7.322Z" transform="translate(-517.97 -654.711)" fill="#7fe1d3"/>
      <path id="Path_1004" data-name="Path 1004" d="M733.93,1102.574s5.751-6.265,18.125-4,19.171-4.378,21.438,4Z" transform="translate(-460.728 -689.326)" fill="#7fe1d3"/>
    </g>
  </g>
</svg>
