<svg id="Layer_2" data-name="Layer 2" xmlns="http://www.w3.org/2000/svg" width="732.882" height="622.682" viewBox="0 0 732.882 622.682">
  <g id="_лой_1" data-name="‘лой_1" transform="translate(0 0)">
    <path id="Path_1271" data-name="Path 1271" d="M37.423,17.177V621.46c269.056-.043,654.006-.263,671.682-1.209a2.233,2.233,0,0,0,.631-.067l.086-.186a1.037,1.037,0,0,0,.081-.277c.335-.741,133.661-209.3-73.608-354.489-81.1-56.812-27.436-66.835-91.929-130.076C470.252,62.5,421.876,115.4,339.459,82.444,324.9,76.627,310.3,67.263,295.658,52.9A163.468,163.468,0,0,0,260.9,26.975q-4.273-2.39-8.68-4.555C226.217,9.648,196.965,2.9,167.145.753,124.323-2.306,79.021,4.056,37.423,17.177Z" transform="translate(-37.423 0.003)" fill="#fff"/>
    <g id="Group_61" data-name="Group 61" transform="translate(457.808 215.733)" opacity="0.5">
      <g id="Group_59" data-name="Group 59" transform="translate(2.853)" opacity="0.5">
        <path id="Path_1272" data-name="Path 1272" d="M490.178,526.3s5.468-45.828,28.932-73.178a5.128,5.128,0,0,1,9,3.47v.244C527.814,465.014,501.52,499.495,490.178,526.3Z" transform="translate(-490.178 -451.347)" fill="#f3ad4c"/>
      </g>
      <g id="Group_60" data-name="Group 60" transform="translate(0 4.592)" opacity="0.5">
        <path id="Path_1273" data-name="Path 1273" d="M425.314,544.435s23.421-57.276,63.365-82.608a5.435,5.435,0,0,1,7.37,1.4c1.066,1.549,1.544,3.967.349,7.743C493.215,481.051,448.639,514.953,425.314,544.435Z" transform="translate(-425.314 -460.953)" fill="#f3ad4c"/>
      </g>
    </g>
    <path id="Path_1274" data-name="Path 1274" d="M1237.723,547.07s20.95-12.905,10.267-28.784c0,0-8.422-9.679-17.107-11.9,0,0,5.583,24.119,1.028,24.879s-4.3-27.326-4.3-27.326-23.043-9.932-31.871-8.7c0,0,14.994,23.153,10.4,22.771s-21.322-23.755-21.322-23.755-23.344-3.346-26.494,10.554,3.14,20.5,6.61,21.213,25.476-.478,25.022,2.39-15.137,8.078-23.536,5.846c0,0,10.085,22.216,22.049,20.553s15.376-9.23,22.785-10.109,12.929.9,9.3,3.054-16.251,1.329-22.068,6.692-10.515,8.7.722,10.515,31.207-.43,34.854-9.177Z" transform="translate(-1071.379 -257.828)" fill="#f9ddc2"/>
    <path id="Path_1275" data-name="Path 1275" d="M1171.15,524.78s60.865,16.958,68.627,38.41a45.665,45.665,0,0,0,6.582,20.644l.177,4.3s-6.892-14.339-10.41-16.184C1236.126,571.937,1248.787,552.507,1171.15,524.78Z" transform="translate(-1073.433 -273.947)" fill="#f9ddc2"/>
    <path id="Path_1276" data-name="Path 1276" d="M1160.937,645.537s9.846,13.68,5.258,31.021l-2.39-.545s1.534-18.952-3.7-28.234S1160.937,645.537,1160.937,645.537Z" transform="translate(-988.01 -335.651)" fill="#81b178"/>
    <path id="Path_1277" data-name="Path 1277" d="M1004.458,472.18s35.184,3.112,36.5-24.343c0,0-1.4-18.364-9.5-28.368,0,0-14.253,32.56-20.147,29.534s18.5-35.136,18.5-35.136-18.015-31.193-29.233-37.354c0,0-2.586,39.519-7.557,35.136s-4.182-45.637-4.182-45.637-24.023-23.851-39.552-10.568-13.957,26.289-10.578,30.112,29.744,21.289,26.767,24.219-24.377-3.68-32.11-13.45c0,0-7.433,34.228,7.748,42.6s25.615,2.552,34.892,7.9,14.115,12.117,8.083,11.471-19.879-12.427-31.145-11.223-19.6.994-8.192,12.743,36.3,26.26,48,19.32Z" transform="translate(-753.336 -183.449)" fill="#f9ddc2"/>
    <path id="Path_1278" data-name="Path 1278" d="M1005.654,388.42s55.536,71.72,46.081,103.075c0,0-8.212,11.309-10.119,29.41l-3.475,5.09s4.345-22.407,1.912-27.56C1040.034,498.435,1071.294,486.916,1005.654,388.42Z" transform="translate(-800.612 -202.764)" fill="#f9ddc2"/>
    <path id="Path_1279" data-name="Path 1279" d="M1051.928,659.7s-.4,24.2-20.524,40.236l-2.313-2.686s18.015-20.51,19.946-35.69S1051.928,659.7,1051.928,659.7Z" transform="translate(-810.924 -341.555)" fill="#a6d09d"/>
    <path id="Path_1280" data-name="Path 1280" d="M361.136,1143.961s9.856-11.5.607-18.8c0,0-6.754-4.087-12.26-3.757,0,0,7.8,13.087,5.258,14.387s-7.648-15.209-7.648-15.209-15.372-1.486-20.319.889c0,0,13.14,10.754,10.372,11.395s-16.935-9.932-16.935-9.932-14.306,2.438-13.546,11.166,5.693,11.419,7.858,11.189,14.817-5.071,15.118-3.293-7.351,7.576-12.695,7.848c0,0,10.085,11.122,16.791,7.91s7.275-8.3,11.471-10.209,7.748-1.912,6.022.043-9.287,3.824-11.677,8.068-4.536,7.079,2.39,6.032,18.211-6.118,18.7-11.949Z" transform="translate(220.615 -584.73)" fill="#f6c9a4"/>
    <path id="Path_1281" data-name="Path 1281" d="M298.1,1149.776s38.859-1.5,47.439,9.617a28.3,28.3,0,0,0,7.738,10.86l.908,2.48s-6.735-7.1-9.144-7.533C345.042,1165.2,348.813,1151.435,298.1,1149.776Z" transform="translate(236.212 -600.177)" fill="#f6c9a4"/>
    <path id="Path_1282" data-name="Path 1282" d="M283.532,1191.635a24.4,24.4,0,0,1,8.919,17.207l-1.515.134s-2.662-11.395-7.476-15.85S283.532,1191.635,283.532,1191.635Z" transform="translate(305.957 -621.559)" fill="#f6c9a4"/>
    <path id="Path_1283" data-name="Path 1283" d="M134.1,1095.348s-15.678-8.78-8.36-20.7c0,0,5.85-7.318,12.121-9.2,0,0-3.346,17.766,0,18.163s2.3-20.075,2.3-20.075,16.514-7.944,23-7.313c0,0-10.243,17.346-6.9,16.93s14.841-17.977,14.841-17.977,16.93-3.135,19.645,6.9-1.673,15.052-4.177,15.678-18.6.416-18.163,2.509,11.285,5.435,17.35,3.551c0,0-6.692,16.514-15.467,15.678s-11.5-6.271-16.935-6.692-9.407,1.042-6.692,2.509,11.916.478,16.3,4.211,7.944,6.027-.21,7.7-22.785.626-25.71-5.645Z" transform="translate(482.104 -550.59)" fill="#f9ddc2"/>
    <path id="Path_1284" data-name="Path 1284" d="M194.863,1076.74s-43.9,14.215-48.911,30.112a33.317,33.317,0,0,1-4.182,15.257v3.135s4.6-10.659,7.107-12.126C148.868,1113.109,139.055,1099.329,194.863,1076.74Z" transform="translate(470.256 -562.085)" fill="#f9ddc2"/>
    <path id="Path_1285" data-name="Path 1285" d="M252.56,1169.5s-6.768,10.281-2.911,22.794l1.745-.478s-1.692-13.785,1.85-20.715S252.56,1169.5,252.56,1169.5Z" transform="translate(359.466 -609.488)" fill="#f9ddc2"/>
    <path id="Path_1286" data-name="Path 1286" d="M343.665,1055.933s20.663-11.572,11.022-27.278c0,0-7.715-9.641-15.983-12.121,0,0,4.412,23.421,0,23.97s-3.03-26.451-3.03-26.451-21.767-10.472-30.308-9.646c0,0,13.5,22.871,9.081,22.321s-19.563-23.7-19.563-23.7-22.317-4.135-25.9,9.081,2.213,19.85,5.506,20.7,24.525.55,23.975,3.308-14.879,7.17-22.871,4.684c0,0,8.819,21.767,20.39,20.663s15.152-8.264,22.317-8.814,12.4,1.377,8.819,3.3-15.706.636-21.509,5.554-10.472,7.949.272,10.152,30.036.827,33.893-7.437Z" transform="translate(247.603 -523.288)" fill="#f9ddc2"/>
    <path id="Path_1287" data-name="Path 1287" d="M284.75,1031.37s57.863,18.737,64.479,39.672a43.948,43.948,0,0,0,5.511,20.118v4.13s-6.061-14.052-9.368-15.979C345.371,1079.316,358.32,1061.129,284.75,1031.37Z" transform="translate(242.039 -538.401)" fill="#f9ddc2"/>
    <path id="Path_1288" data-name="Path 1288" d="M276.226,1153.657s8.924,13.551,3.824,30.045l-2.294-.617s2.227-18.163-2.438-27.307S276.226,1153.657,276.226,1153.657Z" transform="translate(320.553 -600.893)" fill="#f9ddc2"/>
    <path id="Path_1289" data-name="Path 1289" d="M250.614,1249.944a40.481,40.481,0,0,1-40.484-40.484l80.964,0a40.48,40.48,0,0,1-40.48,40.48Z" transform="translate(341.351 -631.369)" fill="#f9ddc2"/>
    <path id="Path_1290" data-name="Path 1290" d="M209,1293h82.063a5,5,0,0,0-4.976-5H213.995a5,5,0,0,0-4.995,4.995Z" transform="translate(341.922 -672.368)" fill="#f9ddc2"/>
    <rect id="Rectangle_242" data-name="Rectangle 242" width="83.21" height="1.243" transform="translate(550.563 578.096)" fill="#f6c9a4"/>
    <path id="Path_1291" data-name="Path 1291" d="M912.775,817.486l18.115,215.385s1.912,13.058-7.815,13.082c-15.964.038-79.473,0-79.473,0s12.016-2.72,11.868-8.833c-.172-7.208-21.169-221.67-21.169-221.67Z" transform="translate(-596.935 -425.685)" fill="#df8531"/>
    <path id="Path_1292" data-name="Path 1292" d="M853.826,1037.669c3.14,0,64.622.11,80.175-.086,6.778-.086,7.963-6.027,8.02-9.875a19.17,19.17,0,0,0-.205-3.2l-.478-5.6-1.2-14.267-1.061-12.6-1.362-16.2-1.147-13.675L923.7,809.116l-78.474-2.036s8.843,89.749,15.1,155.078c.7,7.28,1.362,14.263,1.979,20.777l.573,6.094c.583,6.18,1.114,11.854,1.573,16.868.244,2.643.478,5.1.674,7.342.8,8.814,1.262,14.44,1.271,15.51a9.466,9.466,0,0,1-.153,1.74C864.953,1037.358,855,1037.669,853.826,1037.669Z" transform="translate(-613.137 -421.316)" fill="#f3ad4c"/>
    <path id="Path_1293" data-name="Path 1293" d="M926.292,574.31,882.165,751.543l-6.042,24.272L855.576,858.37H473.78l75.744-284.06Z" transform="translate(-419.865 -299.803)" fill="#f3ad4c"/>
    <path id="Path_1294" data-name="Path 1294" d="M531.706,574.31l6.113,2.036-68.7,288.19-8.13-6.166Z" transform="translate(-25.279 -299.803)" fill="#df8531"/>
    <path id="Path_1295" data-name="Path 1295" d="M994.646,1174.776H615.2l-10.477-6.166h381.8Z" transform="translate(-550.805 -610.044)" fill="#eb9235"/>
    <rect id="Rectangle_243" data-name="Rectangle 243" width="82.154" height="3.905" transform="translate(228.433 616.349)" fill="#f3ad4c"/>
    <path id="Path_1296" data-name="Path 1296" d="M849.16,1181.5l.421,2.983,77.264,15.611-1.061-12.6-.5-5.989Z" transform="translate(-599.839 -616.773)" fill="#f3ad4c"/>
    <g id="Group_62" data-name="Group 62" transform="translate(240.688 591.924)" opacity="0.5">
      <path id="Path_1297" data-name="Path 1297" d="M845.23,1262.829c3.14,0,64.622.11,80.175-.086,6.778-.086,7.963-6.027,8.02-9.875l-76.9-14.468c.8,8.814,1.262,14.44,1.271,15.51a9.472,9.472,0,0,1-.153,1.74C856.357,1262.519,846.406,1262.829,845.23,1262.829Z" transform="translate(-845.23 -1238.4)" fill="#eb9235"/>
    </g>
    <path id="Path_1298" data-name="Path 1298" d="M911.675,574.31H534.908L473.78,802.6H854.84Z" transform="translate(-405.248 -299.803)" fill="#eb9235"/>
    <path id="Path_1299" data-name="Path 1299" d="M506.43,806.069H859.2l12.6-50.221,4.88-19.43,1.988-7.925,12.958-51.607.669-2.686,6.849-27.278,3.064-12.207,2.615-10.415,2.132-8.489,4-15.912H563.271l-4.388,15.912-2.342,8.489-2.868,10.415-3.365,12.207-22.168,80.41v0l-1.878,6.811-.875,3.164-15.3,55.512Z" transform="translate(-420.132 -313.162)" fill="#0b1a3b"/>
    <path id="Path_1300" data-name="Path 1300" d="M594.84,824.077H776.346l9.975-48.878,3.857-15.372,1.573-6.266L802,712.734l.531-2.122,5.42-21.58,2.423-9.655,2.065-8.235,1.687-6.72,3.164-12.59H639.684Z" transform="translate(-368.725 -340.271)" fill="#f9ddc2"/>
    <path id="Path_1301" data-name="Path 1301" d="M592.69,1051.93l129.134,56.434,14.009-56.434Z" transform="translate(-286.242 -549.134)" fill="#eb9235"/>
    <path id="Path_1302" data-name="Path 1302" d="M1158.764,895.063l-5.678,25.333c-.9,4.034,2.146,7.3,6.821,7.3H1296.3c4.675,0,9.191-3.265,10.095-7.3l5.683-25.333a4.722,4.722,0,0,0,.081-.478c.583-3.824-2.39-6.835-6.9-6.835h-136.38c-4.488,0-8.842,3.021-9.966,6.835C1158.855,894.757,1158.817,894.905,1158.764,895.063Z" transform="translate(-1130.416 -463.427)" fill="#c62e45"/>
    <path id="Path_1303" data-name="Path 1303" d="M1176.7,930.2h1.338l3.532-15.749h-1.338Z" transform="translate(-1011.12 -477.366)" fill="#fff"/>
    <path id="Path_1304" data-name="Path 1304" d="M1184.03,923.185h9.578l1-4.455h-9.583Z" transform="translate(-1027.666 -479.6)" fill="#fff"/>
    <path id="Path_1305" data-name="Path 1305" d="M1187.03,936.55h12.618l1-4.459h-12.619Z" transform="translate(-1035.135 -486.574)" fill="#fff"/>
    <path id="Path_1306" data-name="Path 1306" d="M1240.84,930.2h1.338l3.532-15.749h-1.338Z" transform="translate(-1105.918 -477.366)" fill="#fff"/>
    <path id="Path_1307" data-name="Path 1307" d="M1233.17,923.185h9.588l1-4.455h-9.583Z" transform="translate(-1100.298 -479.6)" fill="#fff"/>
    <path id="Path_1308" data-name="Path 1308" d="M1233,936.55h12.619l1-4.459H1234Z" transform="translate(-1103.077 -486.574)" fill="#fff"/>
    <path id="Path_1309" data-name="Path 1309" d="M1304.98,930.2h1.333l3.537-15.749h-1.339Z" transform="translate(-1200.715 -477.366)" fill="#fff"/>
    <path id="Path_1310" data-name="Path 1310" d="M1282.3,923.185h9.583l1-4.455H1283.3Z" transform="translate(-1172.911 -479.6)" fill="#fff"/>
    <path id="Path_1311" data-name="Path 1311" d="M1278.96,936.55h12.618l1-4.459h-12.614Z" transform="translate(-1171.005 -486.574)" fill="#fff"/>
    <path id="Path_1312" data-name="Path 1312" d="M1322.64,915.658h15.754l.3-1.338h-15.749Z" transform="translate(-1237.996 -477.298)" fill="#fff"/>
    <path id="Path_1313" data-name="Path 1313" d="M1330.281,919.74l-2.151,9.583h4.455l2.151-9.583Z" transform="translate(-1236.665 -480.127)" fill="#fff"/>
    <path id="Path_1314" data-name="Path 1314" d="M1344.33,919.74l-2.83,12.619h4.455l2.83-12.619Z" transform="translate(-1257.104 -480.127)" fill="#fff"/>
    <path id="Path_1315" data-name="Path 1315" d="M1374.5,930.868h15.749l.3-1.338H1374.8Z" transform="translate(-1314.644 -485.238)" fill="#fff"/>
    <path id="Path_1316" data-name="Path 1316" d="M1378.991,920.9l-2.151,9.583h4.46l2.151-9.583Z" transform="translate(-1308.662 -480.733)" fill="#fff"/>
    <path id="Path_1317" data-name="Path 1317" d="M1392.334,917.73l-2.834,12.619h4.459l2.83-12.619Z" transform="translate(-1328.052 -479.078)" fill="#fff"/>
    <path id="Path_1318" data-name="Path 1318" d="M1426.39,946.2h15.749l.3-1.338h-15.754Z" transform="translate(-1391.335 -493.24)" fill="#fff"/>
    <path id="Path_1319" data-name="Path 1319" d="M1427.911,921.95l-2.151,9.583h4.459l2.151-9.583Z" transform="translate(-1380.965 -481.281)" fill="#fff"/>
    <path id="Path_1320" data-name="Path 1320" d="M1440.53,915.6l-2.83,12.619h4.455l2.834-12.619Z" transform="translate(-1399.29 -477.966)" fill="#fff"/>
    <path id="Path_1321" data-name="Path 1321" d="M506.43,615.812H854.5l4-15.912H510.818Z" transform="translate(-367.679 -313.162)" fill="#56130f"/>
    <path id="Path_1322" data-name="Path 1322" d="M539.674,614.042a1.928,1.928,0,0,0,2.017,2.6,4.005,4.005,0,0,0,3.657-2.562,1.92,1.92,0,0,0-2.017-2.6A4.006,4.006,0,0,0,539.674,614.042Z" transform="translate(-70.485 -319.207)" fill="#fff"/>
    <path id="Path_1323" data-name="Path 1323" d="M564.232,613.872a1.93,1.93,0,0,0,2.017,2.605,4,4,0,0,0,3.656-2.567,1.916,1.916,0,0,0-2.017-2.6,4.01,4.01,0,0,0-3.657,2.562Z" transform="translate(-106.783 -319.118)" fill="#fff"/>
    <path id="Path_1324" data-name="Path 1324" d="M588.8,613.7a1.919,1.919,0,0,0,2.012,2.6,4,4,0,0,0,3.656-2.567,1.915,1.915,0,0,0-2.012-2.6A4,4,0,0,0,588.8,613.7Z" transform="translate(-143.087 -319.03)" fill="#fff"/>
    <path id="Path_1325" data-name="Path 1325" d="M824.862,709.46s-40.972.153-70.683,22.943-25.428,43.2-50.1,48.323c-40.4,8.393-15.324-34.72-67.781-30.237L609.31,854.162H790.835l13.833-64.249Z" transform="translate(-383.214 -370.355)" fill="#c62e45"/>
    <path id="Path_1326" data-name="Path 1326" d="M667.781,781.786a46.835,46.835,0,0,0,9.426-1.1c13.608-2.83,18.641-10.463,24.979-20.127,5.258-8.006,11.811-17.972,25.256-28.277,8.441-6.472,23.33-15.185,46.33-19.941a133.239,133.239,0,0,1,24.123-2.916v-.746a136.741,136.741,0,0,0-24.276,2.93c-12.771,2.643-31.231,8.269-46.631,20.075-13.546,10.386-20.137,20.41-25.428,28.463-6.5,9.894-11.2,17.04-24.5,19.807-18.947,3.934-23.229-3.508-28.2-12.131-5.53-9.6-11.8-20.491-39.547-18.115l.067.746c27.278-2.333,33.415,8.331,38.831,17.742,2.514,4.364,4.885,8.479,9.082,11.027A19.854,19.854,0,0,0,667.781,781.786Z" transform="translate(-356.247 -369.948)" fill="#fff"/>
    <path id="Path_1327" data-name="Path 1327" d="M835.294,787.186l-10.415,41.507-14.043,65.315H629.33l9.153-33.936s26.867-14.975,63.3-1.912,76.786,1.018,79.372-28.339C784.084,796.716,814.5,780.771,835.294,787.186Z" transform="translate(-403.215 -410.201)" fill="#b0243b"/>
    <path id="Path_1328" data-name="Path 1328" d="M629.726,806.363c10.434-16.132,29.673-24.243,45.747-19.281l.22-.7c-16.39-5.057-35.982,3.179-46.593,19.6Z" transform="translate(-243.504 -409.739)" fill="#fff"/>
    <rect id="Rectangle_244" data-name="Rectangle 244" width="5.927" height="5.927" transform="translate(324.537 413.047) rotate(174.1)" fill="#fff"/>
    <rect id="Rectangle_245" data-name="Rectangle 245" width="0.985" height="101.488" transform="translate(268.171 421.823) rotate(-101.73)" fill="#fff"/>
    <path id="Path_1329" data-name="Path 1329" d="M764.424,836.334a1.7,1.7,0,1,0-.371,1.251A1.7,1.7,0,0,0,764.424,836.334Z" transform="translate(-395.304 -435.79)" fill="#fff"/>
    <path id="Path_1330" data-name="Path 1330" d="M972.316,879.534a1.7,1.7,0,1,0-1.52,1.869A1.7,1.7,0,0,0,972.316,879.534Z" transform="translate(-702.562 -458.342)" fill="#fff"/>
    <rect id="Rectangle_246" data-name="Rectangle 246" width="5.927" height="5.927" transform="translate(395.306 349.887) rotate(136.68)" fill="#fff"/>
    <rect id="Rectangle_247" data-name="Rectangle 247" width="0.985" height="47.563" transform="translate(375.212 366.126) rotate(-134.89)" fill="#fff"/>
    <path id="Path_1331" data-name="Path 1331" d="M678,692.08a1.7,1.7,0,1,0-.249,2.39A1.7,1.7,0,0,0,678,692.08Z" transform="translate(-268.11 -360.953)" fill="#fff"/>
    <path id="Path_1332" data-name="Path 1332" d="M748.492,762.31a1.7,1.7,0,1,0-.249,2.39A1.7,1.7,0,0,0,748.492,762.31Z" transform="translate(-372.303 -397.615)" fill="#fff"/>
    <rect id="Rectangle_248" data-name="Rectangle 248" width="5.927" height="5.927" transform="translate(275.892 386.692) rotate(-113)" fill="#fff"/>
    <rect id="Rectangle_249" data-name="Rectangle 249" width="30.337" height="0.985" transform="matrix(-0.416, -0.909, 0.909, -0.416, 283.198, 396.769)" fill="#fff"/>
    <path id="Path_1333" data-name="Path 1333" d="M938.582,829.432a1.7,1.7,0,1,0-2.16-1.061,1.7,1.7,0,0,0,2.16,1.061Z" transform="translate(-654.393 -431.255)" fill="#fff"/>
    <path id="Path_1334" data-name="Path 1334" d="M964.977,771.722a1.7,1.7,0,1,0-2.16-1.066A1.7,1.7,0,0,0,964.977,771.722Z" transform="translate(-693.407 -401.128)" fill="#fff"/>
    <path id="Path_1335" data-name="Path 1335" d="M809.927,668.624,800.7,706.747c-.4,1.635,1.142,2.954,3.437,2.954h94.892c2.294,0,4.474-1.319,4.87-2.954l9.225-38.123c.4-1.635-1.147-2.954-3.441-2.954H814.793C812.5,665.67,810.319,666.989,809.927,668.624Z" transform="translate(-562.992 -347.496)" fill="#eeeced"/>
    <path id="Path_1336" data-name="Path 1336" d="M824.85,707.48h10.1l2.447-10.1H827.3Z" transform="translate(-498.772 -364.049)" fill="#0b1a3b"/>
    <path id="Path_1337" data-name="Path 1337" d="M837.97,718.04h10.1l2.447-10.1h-10.1Z" transform="translate(-518.163 -369.562)" fill="#0b1a3b"/>
    <path id="Path_1338" data-name="Path 1338" d="M874.18,707.48h10.1l2.442-10.1h-10.1Z" transform="translate(-571.675 -364.049)" fill="#0b1a3b"/>
    <path id="Path_1339" data-name="Path 1339" d="M887.3,718.04h10.1l2.442-10.1h-10.1Z" transform="translate(-591.066 -369.562)" fill="#6fa9c9"/>
    <path id="Path_1340" data-name="Path 1340" d="M888.828,707h10.965l-1.348,5.5-1.3,5.5H886.18Zm.655.86-2.232,9.239h9.234l1.119-4.622,1.118-4.617Z" transform="translate(-590.482 -369.071)" fill="#0b1a3b"/>
    <path id="Path_1341" data-name="Path 1341" d="M923.51,707.48h10.1l2.443-10.1h-10.1Z" transform="translate(-644.584 -364.049)" fill="#6fa9c9"/>
    <path id="Path_1342" data-name="Path 1342" d="M922.395,707.416l1.219-5.028.1-.43.105-.43h0l1.219-5.047H936l-2.653,10.965H922.39Zm10.3-.841,2.237-9.234h-9.258l-1.013,4.182h0l-.105.43-.1.43-1.013,4.187Z" transform="translate(-643.999 -363.579)" fill="#0b1a3b"/>
    <path id="Path_1343" data-name="Path 1343" d="M936.63,718.04h10.1l2.443-10.1h-10.1Z" transform="translate(-663.975 -369.562)" fill="#6fa9c9"/>
    <path id="Path_1344" data-name="Path 1344" d="M938.168,707h10.96l-1.224,5.047-.1.43-.1.411h0l-1.228,5.1H935.51Zm8.671,5.908.1-.411.105-.43,1.013-4.187h-9.239l-2.232,9.239h9.234l1.013-4.187Z" transform="translate(-663.395 -369.071)" fill="#0b1a3b"/>
    <path id="Path_1345" data-name="Path 1345" d="M935.44,712.928h5.951l1.424-5.9h-5.946Z" transform="translate(-657.049 -369.087)" fill="#0b1a3b"/>
    <path id="Path_1346" data-name="Path 1346" d="M972.84,707.48h10.1l2.442-10.1h-10.1Z" transform="translate(-717.492 -364.049)" fill="#0b1a3b"/>
    <path id="Path_1347" data-name="Path 1347" d="M985.96,718.04h10.1l2.442-10.1H988.4Z" transform="translate(-736.883 -369.562)" fill="#0b1a3b"/>
    <path id="Path_1348" data-name="Path 1348" d="M986.48,712.989h4.627l1.109-4.589h-4.627Z" transform="translate(-730.845 -369.802)" fill="#6fa9c9"/>
    <path id="Path_1349" data-name="Path 1349" d="M323.965,775.552h34.969a11.13,11.13,0,0,0,10.315-8.446L395.56,648.316c1.032-4.665-1.912-8.446-6.577-8.446H354.015a11.13,11.13,0,0,0-10.315,8.446L317.412,767.107C316.36,771.772,319.3,775.552,323.965,775.552Z" transform="translate(185.503 -334.027)" fill="#0b1a3b"/>
    <rect id="Rectangle_250" data-name="Rectangle 250" width="51.855" height="0.225" transform="translate(525.135 332.557)" fill="#f3ad4c"/>
    <rect id="Rectangle_251" data-name="Rectangle 251" width="51.855" height="0.225" transform="translate(518.936 360.547)" fill="#f3ad4c"/>
    <rect id="Rectangle_252" data-name="Rectangle 252" width="51.855" height="0.225" transform="translate(512.737 388.537)" fill="#f3ad4c"/>
    <path id="Path_1350" data-name="Path 1350" d="M393.942,666.583c-.067-.6,2.615-10.9,2.615-10.9l-9.507,7.7,4.67-.167Z" transform="translate(151.325 -342.281)" fill="#fff"/>
    <path id="Path_1351" data-name="Path 1351" d="M409.472,859.79h18.416l-1.759,7.934-2.313,10.458H405.4Zm13.522,17.37.21-.956,1.878-8.484,1.53-6.911H410.294l-.21.956-3.408,15.391Z" transform="translate(111.223 -448.832)" fill="#eeeced"/>
    <path id="Path_1352" data-name="Path 1352" d="M380.38,857.42h17.37l3.848-17.37h-17.37Z" transform="translate(149.473 -438.527)" fill="#c62e45"/>
    <rect id="Rectangle_253" data-name="Rectangle 253" width="22.011" height="1.482" transform="matrix(-0.614, -0.789, 0.789, -0.614, 534.05, 429.324)" fill="#c62e45"/>
    <path id="Path_1353" data-name="Path 1353" d="M345.013,666.583c-.067-.6,2.615-10.9,2.615-10.9l-9.5,7.7,4.67-.167Z" transform="translate(223.637 -342.281)" fill="#eeeced"/>
    <path id="Path_1354" data-name="Path 1354" d="M355.288,718.45h1.4l.554-2.5h-9.5l-.531,2.4h1.4l.22-1h6.7Z" transform="translate(209.682 -373.743)" fill="#eeeced"/>
    <path id="Path_1355" data-name="Path 1355" d="M356.01,725.311h1.4l1.749-7.9h-1.4Z" transform="translate(203.558 -374.505)" fill="#eeeced"/>
    <path id="Path_1356" data-name="Path 1356" d="M356.85,733.46h3.7l.311-1.4h-3.7Z" transform="translate(201.457 -382.153)" fill="#eeeced"/>
    <path id="Path_1357" data-name="Path 1357" d="M408.9,724.349l1.267-.908-6.672-10.5-1.267.913Z" transform="translate(130.457 -372.172)" fill="#eeeced"/>
    <path id="Path_1358" data-name="Path 1358" d="M358.816,772.572a6.4,6.4,0,0,1,5.922-4.842,3.768,3.768,0,0,1,3.771,4.842,6.4,6.4,0,0,1-5.922,4.847,3.9,3.9,0,0,1-2.739-1.023,3.283,3.283,0,0,1-.7-.908A4.211,4.211,0,0,1,358.816,772.572Zm4.058,3.566a4.7,4.7,0,0,0,4.354-3.566,2.775,2.775,0,0,0-2.777-3.566,4.708,4.708,0,0,0-4.354,3.566A2.771,2.771,0,0,0,362.874,776.138Z" transform="translate(192.808 -400.774)" fill="#eeeced"/>
    <path id="Path_1359" data-name="Path 1359" d="M375.989,789.468a.807.807,0,0,0,.507-.191l6.443-5.425a.674.674,0,0,0,.182-.908.64.64,0,0,0-.908,0l-6.443,5.42a.674.674,0,0,0-.182.908A.5.5,0,0,0,375.989,789.468Z" transform="translate(170.187 -408.617)" fill="#eeeced"/>
    <path id="Path_1360" data-name="Path 1360" d="M416.222,766.8l-2.4,4.388H409.21l3.131,2.715-2.4,4.388,4.335-2.715,3.136,2.715-.454-4.388,4.335-2.715h-4.617Z" transform="translate(115.997 -400.288)" fill="#eeeced"/>
    <path id="Path_1361" data-name="Path 1361" d="M1326.466,684.856s-.124,6.916.913,6.787,2.447-5.8,2.457-5.736-.478,5.965.837,6.257,2.629-6.214,2.629-6.214-.875,5.592.043,5.736,2.361-5.258,2.739-5.291-1.214,4.651-.1,4.89,3.614-6.328,2.768-7.17-2.16.062-2.16.062-1.625-1.209-2.868-.526c0,0-2.93-.583-3.824.717a2.313,2.313,0,0,0-3.432.488Z" transform="translate(-1240.053 -356.773)" fill="#eb8f7e"/>
    <path id="Path_1362" data-name="Path 1362" d="M1051.038,623.759l-23.731,85.557c-1.013,3.661,1.3,6.63,5.177,6.63h160.164a9.644,9.644,0,0,0,8.847-6.63l23.731-85.557c1.018-3.661-1.3-6.629-5.172-6.629H1059.88A9.584,9.584,0,0,0,1051.038,623.759Z" transform="translate(-983.495 -322.157)" fill="#eeeced"/>
    <path id="Path_1363" data-name="Path 1363" d="M1076.12,689.137h20.687l5.736-20.687h-20.687Z" transform="translate(-884.018 -348.947)" fill="#6fa9c9"/>
    <path id="Path_1364" data-name="Path 1364" d="M1089.66,689.6h10.554l2.925-10.554h-10.554Z" transform="translate(-891.086 -354.48)" fill="#0b1a3b"/>
    <rect id="Rectangle_254" data-name="Rectangle 254" width="25.577" height="1.629" transform="matrix(-0.589, -0.808, 0.808, -0.589, 210.115, 342.296)" fill="#ee7c47"/>
    <path id="Path_1365" data-name="Path 1365" d="M1045.32,665.677h20.687l5.736-20.687h-20.687Z" transform="translate(-838.496 -336.7)" fill="#eb9235"/>
    <path id="Path_1366" data-name="Path 1366" d="M1080.74,744.633h16.629L1101.981,728h-16.629Z" transform="translate(-885.665 -380.034)" fill="#f9ddc2"/>
    <path id="Path_1367" data-name="Path 1367" d="M1115.21,744.633h16.629L1136.451,728h-16.633Z" transform="translate(-936.61 -380.034)" fill="#c62e45"/>
    <path id="Path_1368" data-name="Path 1368" d="M1150.01,744.633h16.633L1171.251,728h-16.629Z" transform="translate(-988.044 -380.034)" fill="#eb9235"/>
    <path id="Path_1369" data-name="Path 1369" d="M1184.8,744.633h16.629L1206.041,728h-16.628Z" transform="translate(-1039.463 -380.034)" fill="#c62e45"/>
    <path id="Path_1370" data-name="Path 1370" d="M1219.59,744.633h16.633L1240.836,728H1224.2Z" transform="translate(-1090.886 -380.034)" fill="#b0243b"/>
    <path id="Path_1371" data-name="Path 1371" d="M1254.39,744.633h16.629L1275.631,728H1259Z" transform="translate(-1142.315 -380.034)" fill="#6fa9c9"/>
    <path id="Path_1372" data-name="Path 1372" d="M1289.18,744.633h16.629L1310.421,728h-16.629Z" transform="translate(-1193.734 -380.034)" fill="#5692c1"/>
    <path id="Path_1373" data-name="Path 1373" d="M1323.97,744.633H1340.6L1345.216,728h-16.634Z" transform="translate(-1245.157 -380.034)" fill="#0b1a3b"/>
    <path id="Path_1374" data-name="Path 1374" d="M1090.39,779.429h16.629l4.612-16.629H1095Z" transform="translate(-899.927 -398.2)" fill="#6fa9c9"/>
    <path id="Path_1375" data-name="Path 1375" d="M1124.86,779.429h16.629L1146.1,762.8h-16.629Z" transform="translate(-950.873 -398.2)" fill="#eb9235"/>
    <path id="Path_1376" data-name="Path 1376" d="M1159.65,779.429h16.634L1180.9,762.8h-16.634Z" transform="translate(-1002.296 -398.2)" fill="#6fa9c9"/>
    <path id="Path_1377" data-name="Path 1377" d="M1194.45,779.429h16.629l4.613-16.629h-16.629Z" transform="translate(-1053.725 -398.2)" fill="#eb9235"/>
    <path id="Path_1378" data-name="Path 1378" d="M1183.539,655.164h87.111a3.087,3.087,0,0,0,2.782-2.179h0a1.6,1.6,0,0,0-1.572-2.175h-87.115a3.1,3.1,0,0,0-2.782,2.175h0A1.606,1.606,0,0,0,1183.539,655.164Z" transform="translate(-1105.539 -339.738)" fill="#eb9235"/>
    <path id="Path_1379" data-name="Path 1379" d="M1189.917,678.16h87.115a3.088,3.088,0,0,0,2.777-2.175h0a1.6,1.6,0,0,0-1.573-2.175h-87.125a3.088,3.088,0,0,0-2.777,2.175h0A1.61,1.61,0,0,0,1189.917,678.16Z" transform="translate(-1114.966 -351.745)" fill="#c62e45"/>
    <path id="Path_1380" data-name="Path 1380" d="M1196.29,701.154h87.115a3.087,3.087,0,0,0,2.777-2.175h0a1.6,1.6,0,0,0-1.572-2.18H1197.5a3.088,3.088,0,0,0-2.782,2.18h0A1.6,1.6,0,0,0,1196.29,701.154Z" transform="translate(-1124.388 -363.746)" fill="#6fa9c9"/>
    <path id="Path_1381" data-name="Path 1381" d="M1157.166,654.222l1.639-1.659.253-.253a1.546,1.546,0,0,1-.5-.249,1.114,1.114,0,0,1-.478-.932,1.849,1.849,0,0,1,.077-.6,2.634,2.634,0,0,1,2.705-1.878h2.624l-1.63,5.884h-1.037l.569-2.05h-1.276l-.9.913-1.128,1.138h-1.219Zm2.954-2.648h1.51l.55-1.979h-1.506a1.391,1.391,0,0,0-1.486.956C1159.016,651.206,1159.379,651.574,1160.12,651.574Z" transform="translate(-983.552 -338.609)" fill="#0b1a3b"/>
    <path id="Path_1382" data-name="Path 1382" d="M1163.7,674.426h2.5l-.249.9h-1.525l-.306,1.1a1.913,1.913,0,0,0,1.3.445,2.672,2.672,0,0,0,2.29-1.4,2.953,2.953,0,0,0,.292-.7,1.5,1.5,0,0,0-.645-1.912h0a1.487,1.487,0,0,0-.684-.153,2.991,2.991,0,0,0-1.821.631l-.44-.779a4.048,4.048,0,0,1,2.485-.8h.277a2.2,2.2,0,0,1,1.912,3.03,4.211,4.211,0,0,1-1.243,2.008,3.972,3.972,0,0,1-2.653,1.037,2.834,2.834,0,0,1-2.2-.918Z" transform="translate(-992.212 -350.674)" fill="#0b1a3b"/>
    <path id="Path_1383" data-name="Path 1383" d="M1170.167,700.577a2.079,2.079,0,0,1,1.568-1.434,1.047,1.047,0,0,1-.478-1.31,1.83,1.83,0,0,1,.669-.994,2.705,2.705,0,0,1,1.682-.521h2.638l-1.63,5.884h-2.724C1170.558,702.188,1169.875,701.624,1170.167,700.577Zm4.813-3.346h-1.486a1.161,1.161,0,0,0-1.243.746c-.153.554.22.817.884.817h1.41Zm-2.839,4.053h1.716l.449-1.616h-1.64c-.817,0-1.3.292-1.434.789s.206.817.908.817Z" transform="translate(-1002.641 -363.494)" fill="#0b1a3b"/>
    <path id="Path_1384" data-name="Path 1384" d="M711.3,636.679a1.635,1.635,0,0,1,.292,1.749h0c-.421,1.166-1.816,2.466-3.437,3.771a6.457,6.457,0,0,0-.554.478l-.124.11-.1.086c-1.51,1.391-.956,1.711-3.656,4.541-3.092,3.217-5.224,3.279-5.831,2.983-.516-.249.531-1.955,1.682-3.876l.167-.282.478-.77c1.353-2.309,1.009-3.394.688-6.835-.263-2.791-4.35-15.611-4.35-15.611L702.467,622s1.788,10.209,3.757,11.777c1.052.841,2.227.851,3.241,1.472.072.043.143.086.21.134A7.728,7.728,0,0,1,711.3,636.679Z" transform="translate(-311.781 -324.699)" fill="#ef8f6a"/>
    <path id="Path_1385" data-name="Path 1385" d="M710.1,651.28a1.635,1.635,0,0,1,.292,1.749h0a12.61,12.61,0,0,1-3.446,3.757c-.2.172-.382.325-.545.478l-.124.11-.1.086c-1.51,1.391-.956,1.711-3.656,4.541-3.092,3.217-5.224,3.279-5.831,2.982-.516-.249.531-1.955,1.683-3.876a13.184,13.184,0,0,0,5.521-4.068c1.792-2.289,3.011-5.215,4.235-7.007l.349-.062A7.732,7.732,0,0,1,710.1,651.28Z" transform="translate(-310.583 -339.3)" fill="#fff"/>
    <path id="Path_1386" data-name="Path 1386" d="M805.406,631.041c-.363,1.835-2.973,1.53-5.893.813s-2.223.139-6.371-.32-5.406-2.007-5.535-2.624,1.941-.741,4.139-.994l.832-.1c2.485-.311,4.3-1.912,6.558-3.231,2.137-1.247,5.325-6.324,5.325-6.324l5.693.449s-2.987,4.536-4.144,6.51a6.9,6.9,0,0,0-.559,3.876A7.169,7.169,0,0,1,805.406,631.041Z" transform="translate(-453.722 -322.746)" fill="#ef8f6a"/>
    <path id="Path_1387" data-name="Path 1387" d="M809.295,642.349c-2.916-.712-2.223.139-6.371-.32s-5.406-2.008-5.535-2.624,1.941-.741,4.139-.994v.038a11.683,11.683,0,0,0,5.946,1.85c2.815.067,5.8-.741,7.738-.707a7.172,7.172,0,0,1-.043,1.945C814.825,643.371,812.215,643.065,809.295,642.349Z" transform="translate(-463.505 -333.265)" fill="#fff"/>
    <path id="Path_1388" data-name="Path 1388" d="M711.04,558.862l5.32,14.339,6.945,18.694a11.225,11.225,0,0,0,3.69-.339,15.915,15.915,0,0,0,3.57-1.735s-1.912-20.075-5.525-31.594a20.456,20.456,0,0,0-3.1-6.692C716.365,544.92,711.04,558.862,711.04,558.862Z" transform="translate(-337.542 -286.984)" fill="#b0243b"/>
    <path id="Path_1389" data-name="Path 1389" d="M664.366,518.118c3.03-.956,10.931,0,19.506,1.539a5.822,5.822,0,0,0,6-2.715h0l21.571-1.682s7.117,15.773,3.221,25.844a3.8,3.8,0,0,1-3.771,2.433H693.69c-10.73,0-22.7-7.37-24.252-7.681-2.538-.507-3.551,4.565-6.089,9.889s-23.837,23.583-23.837,23.583a18.779,18.779,0,0,1-4.622-.478A4.546,4.546,0,0,1,632.9,567.6S656.518,520.656,664.366,518.118Z" transform="translate(-285.462 -268.978)" fill="#c62e45"/>
    <path id="Path_1390" data-name="Path 1390" d="M616.7,384.852a7.648,7.648,0,0,1,4.12-1.075,11.511,11.511,0,0,0,1.988-.12c8.235-1.209,13.192,10.75,13.484,14.363.53,6.634,4.044,7.648,8.981,11.8,8.537,7.17,7.557,15.367,3.656,19.788a10.711,10.711,0,0,1-2.07,1.816c-1.912,1.257-4.622,1.052-6.577.66a17.173,17.173,0,0,1-2.39-.66s-.287-.139-.741-.382l-1.128-.617-.669-.368c-3.891-2.151-11.471-6.4-17.288-9.626l-2.868-1.6-.636-.349a5.416,5.416,0,0,1-3.915-2.476C605.673,408.564,612.776,387.189,616.7,384.852Z" transform="translate(-209.997 -200.233)" fill="#56130f"/>
    <path id="Path_1391" data-name="Path 1391" d="M652.483,435.908c-.033,0,3.781,1.324,6.328.2,2.39-1.061,4.216-5.009,4.182-5.009-1.09-.053-2.289-1-3.212-7.265L659.3,424l-7.815,2.811s.569,2.509.932,4.894C652.746,433.7,652.909,435.626,652.483,435.908Z" transform="translate(-241.507 -221.249)" fill="#ef8f6a"/>
    <path id="Path_1392" data-name="Path 1392" d="M659.18,426.991s.311,1.353.77,3.881a8.817,8.817,0,0,0,7.045-6.692Z" transform="translate(-249.184 -221.432)" fill="#e27452"/>
    <path id="Path_1393" data-name="Path 1393" d="M663.086,414.733s10.687-1.434,9.693-8.078-.287-11.3-7.17-10.668-7.81,3.37-8.016,5.669S660.3,414.934,663.086,414.733Z" transform="translate(-254.27 -206.684)" fill="#ef8f6a"/>
    <path id="Path_1394" data-name="Path 1394" d="M651.13,397.374s6.845,5.893,11.5,6.371,6.414-1.018,6.414-1.018a18.163,18.163,0,0,1-4.393-5.97,3.274,3.274,0,0,0-2.7-1.912C658.629,394.559,652.33,394.425,651.13,397.374Z" transform="translate(-247.386 -206.045)" fill="#56130f"/>
    <path id="Path_1395" data-name="Path 1395" d="M685.184,397.784a16.728,16.728,0,0,0-3.006,3.857,12.753,12.753,0,0,0-.354,6.878s-3.566-6.935-1.544-10.305C682.422,394.639,685.184,397.784,685.184,397.784Z" transform="translate(-277.162 -206.985)" fill="#56130f"/>
    <path id="Path_1396" data-name="Path 1396" d="M632.291,459.271c.325,21.638.091,17.116,2.457,19.172.569.478,2.175.789,4.3.927,6.634.44,18.3-.655,18.741-1.878,1.53-4.244.449-5.559,1.725-12.054.134-.693.3-1.434.478-2.256,1.066-4.46,2.1-5.979-1.678-13.144-3.422-6.491-6.983-11.763-7.3-11.572-9.034,5.363-9.765.856-9.765.856S632.133,448.755,632.291,459.271Z" transform="translate(-230.315 -228.886)" fill="#6fa9c9"/>
    <path id="Path_1397" data-name="Path 1397" d="M711.04,582.415l6.945,18.694a11.226,11.226,0,0,0,3.69-.339,15.915,15.915,0,0,0,3.57-1.735s-1.912-20.075-5.525-31.594Z" transform="translate(-332.222 -296.217)" fill="#c62e45"/>
    <path id="Path_1398" data-name="Path 1398" d="M688.655,440.3s-9.282,1.577-10.386,5.592-4.689,28.3-4.689,28.3,2.624,2.562,4.808.378,6.868-22.732,6.868-22.732Z" transform="translate(-277.727 -229.847)" fill="#6fa9c9"/>
    <path id="Path_1399" data-name="Path 1399" d="M635.39,499.028c6.634.44,18.3-.655,18.741-1.878,1.53-4.244.449-5.559,1.725-12.055l-3.2-9.015s.526,10.037-2.433,12.676-12.117,5.1-13.551,7.3A8.063,8.063,0,0,0,635.39,499.028Z" transform="translate(-226.675 -248.525)" fill="#5692c1"/>
    <path id="Path_1400" data-name="Path 1400" d="M673.9,514.163s-6.543-1.434-7.6-.875a15.012,15.012,0,0,0-3.962,3.432c-.325.736,2.352-.559,3.221-.793a7.734,7.734,0,0,1,2.782.607,9.03,9.03,0,0,0,4.98.478Z" transform="translate(-257.584 -267.881)" fill="#ef8f6a"/>
    <path id="Path_1401" data-name="Path 1401" d="M614.213,438.5s8.785.54,11.83,4.78c4.3,5.975,12.776,31.432,7.91,34.825-5.487,3.824-24.96,1-24.96,1s-.645-3.03.253-4.5S624.8,470.787,625.5,470.1s-8.474-13.2-8.474-15.209S614.213,438.5,614.213,438.5Z" transform="translate(-193.511 -228.907)" fill="#6fa9c9"/>
    <path id="Path_1402" data-name="Path 1402" d="M681.432,517.24a12.638,12.638,0,0,1-1.821,1.979,1.348,1.348,0,0,1-.741.158l.922-1.663Z" transform="translate(-273.032 -270.011)" fill="#ef8f6a"/>
    <path id="Path_1403" data-name="Path 1403" d="M682.2,513.43l-3.986,1.936a.7.7,0,0,0,.66.253,9.655,9.655,0,0,0,1.73-.478Z" transform="translate(-273.481 -268.022)" fill="#ef8f6a"/>
    <path id="Path_1404" data-name="Path 1404" d="M662.31,522.95h41.651v.918H662.683Z" transform="translate(-287.646 -272.992)" fill="#152949"/>
    <path id="Path_1405" data-name="Path 1405" d="M723.709,499.1H692.168L682.68,475.51h31.494Z" transform="translate(-317.131 -248.227)" fill="#152949"/>
    <path id="Path_1406" data-name="Path 1406" d="M725.671,498.549a1.09,1.09,0,0,1,1.071-1.5,2.156,2.156,0,0,1,1.912,1.5,1.09,1.09,0,0,1-1.071,1.5A2.141,2.141,0,0,1,725.671,498.549Z" transform="translate(-342.666 -259.47)" fill="#fff"/>
    <rect id="Rectangle_255" data-name="Rectangle 255" width="4.287" height="4.287" transform="translate(388.946 398.156) rotate(138.97)" fill="#fff"/>
    <path id="Path_1407" data-name="Path 1407" d="M502.68,936.9c.645-2.146.956-2.337.956-2.337s20.075,2.5,23.459,2.28c2.017-.129,26.107-8.164,26.107-8.164l14.631,14.014s-36.269,5.975-41.378,5.583c-8.446-.645-21.342-8.125-21.342-8.125S502.168,938.584,502.68,936.9Z" transform="translate(-75.19 -484.794)" fill="#5692c1"/>
    <path id="Path_1408" data-name="Path 1408" d="M544,1277.676s-.282,6.8-1.587,8.451l-18.163.105a2.84,2.84,0,0,1,2.715-2.758,12.193,12.193,0,0,0,8.819-6.959C537.815,1272.1,544,1277.676,544,1277.676Z" transform="translate(-61.696 -665.486)" fill="#0b1a3b"/>
    <path id="Path_1409" data-name="Path 1409" d="M470.152,1275.73s1.267,9.024-.449,9.182c-.229,0-7.318.139-10.386.187-3.609.062-9.559-.067-9.559-.067a.956.956,0,0,1-.851-1.434,3.823,3.823,0,0,1,2.724-1.749c3.164-.607,8.431-2.93,10.276-7.17C463.872,1270.262,470.152,1275.73,470.152,1275.73Z" transform="translate(47.775 -664.515)" fill="#0b1a3b"/>
    <path id="Path_1410" data-name="Path 1410" d="M449.72,1066.308s5.047,17.685,19.516,48.338S484.33,1160.1,484.33,1160.1a12.7,12.7,0,0,0,5.1.478,13.7,13.7,0,0,0,5.358-1.735s-.956-36.513-7.767-51.989-8.226-57.835-8.226-57.835Z" transform="translate(23.144 -547.615)" fill="#b0243b"/>
    <path id="Path_1411" data-name="Path 1411" d="M492.17,1053.39a440.623,440.623,0,0,0,4.33,60.937c4.732,33.582,2.519,49.2,2.519,49.2s1.252.913,5.11.9c4.517,0,6.83-1.883,6.83-1.883s6.773-33.6,4.832-50.4,9.277-57.677,9.277-57.677Z" transform="translate(-27.432 -549.896)" fill="#c62e45"/>
    <path id="Path_1412" data-name="Path 1412" d="M514.25,900.544c.048,2.146.335,4.483,1.195,5.626l4.813,2.529,5.344-3.958a23.889,23.889,0,0,1-1.482-10.683c.048-.382.239-2.815.239-2.868l-2.653,1.343-7.246,3.628a1.473,1.473,0,0,1-.048.33C514.365,897.2,514.25,898.776,514.25,900.544Z" transform="translate(-38.518 -465.223)" fill="#ef8f6a"/>
    <path id="Path_1413" data-name="Path 1413" d="M519.9,984.306c-1.749,8-39.156,4.488-38.668-.392,0-.162.115-2.423.249-5.468.287-6.587.717-16.877.774-17.685v-.038c.674-6.8,1.319-13.445,1.362-17.786a61.365,61.365,0,0,1,1.243-11.108c.636-3.226,1.434-6.151,2.1-8.436a9.344,9.344,0,0,1,5.463-5.989,8.183,8.183,0,0,1,.908-.315c4.4-1.276,8.843-2.906,10.515-2.423,4.469,1.319,9.445,9.239,11.8,19.272C520.021,952.722,521.039,979.1,519.9,984.306Z" transform="translate(-17.461 -477.432)" fill="#6fa9c9"/>
    <path id="Path_1414" data-name="Path 1414" d="M518.043,902.006c2.72-1.1,7.915-3.58,9.349-6.391.617-1.243-.335-1.625-1.912-1.625l-7.246,3.628a1.471,1.471,0,0,1-.048.33C518.158,898.665,518.043,900.237,518.043,902.006Z" transform="translate(-42.311 -466.685)" fill="#e27452"/>
    <path id="Path_1415" data-name="Path 1415" d="M508.508,877.244s13.015,4.063,15.419-4.082,5.707-13.111-2.5-16.046-10.75-.306-12.212,2.213S505.181,875.982,508.508,877.244Z" transform="translate(-36.055 -446.76)" fill="#ef8f6a"/>
    <path id="Path_1416" data-name="Path 1416" d="M496.22,853.686s.827,9.478,2.791,9.081,3.738-.717,3.451,2.141-.382,6.295,5.659,6.8,12.1-15.209,10.439-18.163C513.776,845.02,489.3,843.3,496.22,853.686Z" transform="translate(-22.553 -441.901)" fill="#56130f"/>
    <path id="Path_1417" data-name="Path 1417" d="M514.652,1014.409c.287-6.587.717-16.877.774-17.685v-.038l22.1-13.216S538.383,1014.314,514.652,1014.409Z" transform="translate(-50.635 -513.396)" fill="#5692c1"/>
    <path id="Path_1418" data-name="Path 1418" d="M682.341,829.09l-3.982,3.465s6.825,7.308,6.214,15l10.19,8.6,8.436-7.346-7.055-11.706S688.555,836.838,682.341,829.09Z" transform="translate(-294.557 -432.805)" fill="#163560"/>
    <path id="Path_1419" data-name="Path 1419" d="M703.156,854.4a2.266,2.266,0,1,0-.22,3.2A2.266,2.266,0,0,0,703.156,854.4Z" transform="translate(-305.023 -445.613)" fill="#fff"/>
    <rect id="Rectangle_256" data-name="Rectangle 256" width="0.865" height="18.335" transform="matrix(-0.754, 0.657, -0.657, -0.754, 398.142, 411.574)" fill="#fff"/>
    <rect id="Rectangle_257" data-name="Rectangle 257" width="11.189" height="2.81" transform="translate(410.496 418.129) rotate(138.97)" fill="#6fa9c9"/>
    <path id="Path_1420" data-name="Path 1420" d="M586.666,980.144l.406-.354a5.325,5.325,0,0,0,.521-7.514L502.763,874.77l-8.441,7.342,84.831,97.507A5.325,5.325,0,0,0,586.666,980.144Z" transform="translate(-92.293 -456.652)" fill="#163560"/>
    <path id="Path_1421" data-name="Path 1421" d="M608.539,981.256a9.152,9.152,0,0,1-2.012-2.442,3.394,3.394,0,0,0-3.14-1.783c-1.73.129-4.808-3.561-4.808-3.561-.449.956-1.993,4.636.215,6.491,1.807,1.51,6.147,4.13,8.78,5.855C610.4,987.666,608.539,981.256,608.539,981.256Z" transform="translate(-161.911 -508.176)" fill="#ef8f6a"/>
    <path id="Path_1422" data-name="Path 1422" d="M512.16,958.75s21.925,3.728,23.865,2.782c3.1-1.51-1.2-23.75-1.2-23.75s-.182-5.038,5.7-6.214c5.119-1.032,10.037,2.8,10.037,2.8s4.488,4.015,3.915,8.47c-1.271,9.88-3.25,29.964-9.856,33.042-8.522,3.972-33.176-10.993-33.176-10.993a4.3,4.3,0,0,1-.7-2.868A6.977,6.977,0,0,1,512.16,958.75Z" transform="translate(-65.751 -486.209)" fill="#6fa9c9"/>
    <path id="Path_1423" data-name="Path 1423" d="M645.918,941.505s-5.535-2.017-5.047-4.847,2.213-2.471,3.255-1.5S644.589,941.147,645.918,941.505Z" transform="translate(-219.341 -487.806)" fill="#ef8f6a"/>
    <path id="Path_1424" data-name="Path 1424" d="M605.486,980.945a12.862,12.862,0,0,0-1.563-3.164c-.808-.951-1.147-2.562-1.51-2.027s.292,2.462,0,3.2S605.486,980.945,605.486,980.945Z" transform="translate(-160.488 -509.312)" fill="#ef8f6a"/>
    <path id="Path_1425" data-name="Path 1425" d="M0,1297.67v2.428H731.888a.994.994,0,0,0,.994-.956v-.478a1,1,0,0,0-.612-.918,1.029,1.029,0,0,0-.382-.077Z" transform="translate(0 -677.416)" fill="#fff"/>
  </g>
</svg>
