<svg xmlns="http://www.w3.org/2000/svg" xmlns:xlink="http://www.w3.org/1999/xlink" width="252.986" height="253.027" viewBox="0 0 252.986 253.027">
  <defs>
    <linearGradient id="linear-gradient" x1="1.086" y1="1.014" x2="0.335" y2="0.363" gradientUnits="objectBoundingBox">
      <stop offset="0" stop-color="#dae3fe"/>
      <stop offset="1" stop-color="#e9effd"/>
    </linearGradient>
  </defs>
  <g id="Group_69" data-name="Group 69" transform="translate(-429.507 -2009)">
    <path id="Path_1847" data-name="Path 1847" d="M193.508,134.934c-17.279,40.684-63.3,63.473-103.219,57.328-6.495-1-24.3-3.979-40.065-18.039C19.877,147.158,13.386,93.568,37.867,55.8c17.818-27.488,49.757-43.066,80.106-42.289,6.538.168,31.591,1.2,53.608,19.358a82.56,82.56,0,0,1,16.8,19.056C203.471,75.531,204.769,108.419,193.508,134.934Z" transform="matrix(0.719, 0.695, -0.695, 0.719, 547.293, 1983.405)" fill="url(#linear-gradient)"/>
    <g id="Layer_2" data-name="Layer 2" transform="translate(447.996 2033.955)">
      <g id="Layer_1" data-name="Layer 1" transform="translate(0 -0.057)">
        <path id="Path_1539" data-name="Path 1539" d="M418.843,464.42c-4.17,3.393-10.1,7.152-14.975,8.771l7.25,1.364-29.946,35.313-59.687,17.177L250.85,602.373l55.639-.017,28.35-45.517,56.8-33.746,22.06-47.009,4.7,5.688C417.46,476.715,417.89,469.709,418.843,464.42Z" transform="translate(-225.059 -416.664)" fill="#f7cc7f"/>
        <path id="Path_1540" data-name="Path 1540" d="M63.958,1082.781s-3.236-5.8-4.022-7.031-2.838-6.13-2.911-6.323,1.412-2.511,1.081-2.59-.7,1.221-1.053,1.066-1.387-3.29-1.589-3.133c-.377.29.557,1.943.356,2.047s-.809-1.818-1.2-1.761.751,1.761.64,1.912-1.3-1.456-1.514-1.114c-.117.186,1.094,1.4.861,1.517s-1.309-.672-1.423-.445,1,.536,1.328,1.153.9.874,1.131,2,.586,5.222,1.788,7.264,3.846,6.56,3.846,6.56Z" transform="translate(-47.704 -955.284)" fill="#f79c8d"/>
        <path id="Path_1541" data-name="Path 1541" d="M127.246,1221.74s3.578,3.857,4.113,5.411-.514,3.777-1.969,3.875-4.68-6.845-4.68-6.845Z" transform="translate(-111.888 -1096.12)" fill="#355389"/>
        <path id="Path_1542" data-name="Path 1542" d="M243.2,1349.094c-.26-.218-.575-.119-1.479-.538a5.453,5.453,0,0,0-.842-.251.1.1,0,0,1-.079-.075c-.276-1.041-1.478-5.847-1.611-7.233-.135-1.418-1.049-7.427-1.189-8.341a.1.1,0,0,0-.132-.084l-2.627.732a.1.1,0,0,0-.074.124c.162.72,1.172,5.214,1.468,7.49.236,1.815,2.939,7.636,2.994,8.008v.01a.229.229,0,0,0,.226.2h2.927C242.891,1349.133,243.277,1349.165,243.2,1349.094Z" transform="translate(-210.982 -1195.553)" fill="#f48c7f"/>
        <path id="Path_1543" data-name="Path 1543" d="M230.591,1272.779c-1.4-4.24-2.961-4.059-2.961-4.059l1.209,8.913c.864-.235,1.987-.761,2.849-1A38.689,38.689,0,0,0,230.591,1272.779Z" transform="translate(-204.226 -1138.269)" fill="#13375b"/>
        <path id="Path_1544" data-name="Path 1544" d="M165.551,1167.2c-.428-2.788-2.951-4.793-5.589-3.44a6.4,6.4,0,0,0-1.806,1.448c-1.108,1.422-1.391,3.178-2.535,4.559a11.352,11.352,0,0,0,1.534.975l.713-.95-.245,1.185a17.455,17.455,0,0,0,7.694,1.527A14.793,14.793,0,0,0,165.551,1167.2Z" transform="translate(-139.62 -1043.716)" fill="#f7cc7f"/>
        <path id="Path_1545" data-name="Path 1545" d="M202.773,1464.611a11.392,11.392,0,0,0-2.014-1.116c-.083-.04-.389-.236-.5-.3a3.866,3.866,0,0,1-.8-.709,4,4,0,0,1-.392-1.739c.133-1.468,2.262-25.009,2.708-27.555a24.213,24.213,0,0,0-.243-6.643l-1.645-.617-3.114,10.8.246,8.225a21.758,21.758,0,0,0-.823,3.787c-.09,1.422,1.06,12.915,1.06,12.915h0a6.059,6.059,0,0,1-.062,1.015c-.084.43-.556,1.315-.339,1.72a1.088,1.088,0,0,0,.463.506l5.6.091C203.22,1464.99,203.019,1464.793,202.773,1464.611Z" transform="translate(-176.019 -1279.316)" fill="#f48c7f"/>
        <path id="Path_1546" data-name="Path 1546" d="M104.4,1415.75a18.38,18.38,0,0,0-2.408,5.363c-.464,2.429.34,9.89-.551,13.072-.482,1.723-2.309,4.383-2.588,6.609s-1.244,8.65-1.244,8.65h0a5.673,5.673,0,0,1-.672,1.9,5.646,5.646,0,0,0-.733.966,2.827,2.827,0,0,0,.1,2.209c.129.281-.009.281.284.371a1.8,1.8,0,0,0,2.159-1.017A5.2,5.2,0,0,0,99.17,1452a8.646,8.646,0,0,1,.308-1.974h0l6.216-15.251,4.5-13.16,1.153-6.779Z" transform="translate(-86.144 -1269.366)" fill="#f79c8d"/>
        <path id="Path_1547" data-name="Path 1547" d="M97.251,1780.331a2.758,2.758,0,0,1-2.706-1.131,2.983,2.983,0,0,0-.258,2.217c.222.484.87.47,1.379.489a1.33,1.33,0,0,0,1.224-.75A4.482,4.482,0,0,0,97.251,1780.331Z" transform="translate(-84.485 -1596.264)" fill="#86b1f2"/>
        <path id="Path_1548" data-name="Path 1548" d="M205.442,1787.246a5.048,5.048,0,0,1-3.187-.125,2.593,2.593,0,0,0-.256,1.337c.136.4.33.487.5.491,1.353.036,4.956.084,5.988.1a.169.169,0,0,0,.131-.278A27.286,27.286,0,0,0,205.442,1787.246Z" transform="translate(-181.202 -1603.37)" fill="#86b1f2"/>
        <path id="Path_1549" data-name="Path 1549" d="M150.9,1435.94l.351.022h.018l.348.02h.024l.35.017h.018c.118,0,.238.01.357.013a23.1,23.1,0,0,0,4.02-.152c.537-5.37.736-10.27.935-11.355a22.117,22.117,0,0,0-.419-6.786l-.43-.077.271-1.542-7.223.911a18.041,18.041,0,0,0-2.5,5.362c-.481,2.427.354,9.891-.573,13.073C146.438,1435.455,148.5,1435.777,150.9,1435.94Z" transform="translate(-131.384 -1270.497)" fill="#f7cc7f"/>
        <path id="Path_1550" data-name="Path 1550" d="M159.716,1261.245s-2.57-.164-3.6.949,2.262,9.917,2.445,11.333-.944,5.183-.944,5.183,6.049,1.219,7.778.073c0,0,.185-10.186,0-11.2a30,30,0,0,0-2.1-5.531C162.927,1261.649,159.716,1261.245,159.716,1261.245Z" transform="translate(-139.888 -1131.556)" fill="#355389"/>
        <path id="Path_1551" data-name="Path 1551" d="M192.942,1227.278s-.013.076-.037.206a19.957,19.957,0,0,1-.855,3.245c-.361.684,1.234,2.864,2.776,2.6.456-.079-.388-2-.346-2.208.077-.391.183-.925.291-1.469l.18-.913c.164-.835.3-1.516.3-1.516Z" transform="translate(-172.257 -1101.037)" fill="#f7a491"/>
        <path id="Path_1552" data-name="Path 1552" d="M200.21,1227.483c.024-.13.037-.206.037-.206l2.3-.058s-.134.682-.3,1.517c-.058.291-.119.6-.179.908a2.16,2.16,0,0,1-1.1-.552,2.912,2.912,0,0,1-.833-1.242C200.169,1227.705,200.192,1227.579,200.21,1227.483Z" transform="translate(-179.562 -1101.037)" fill="#f47458"/>
        <path id="Path_1553" data-name="Path 1553" d="M194.225,1176.7a2.075,2.075,0,0,0-1.766.757c-.681.882-1.414,3.609.277,5.093s3.36-.2,3.608-1.976S196.687,1176.633,194.225,1176.7Z" transform="translate(-171.99 -1055.702)" fill="#f7a491"/>
        <path id="Path_1554" data-name="Path 1554" d="M233.646,1205.683c-.206.393-.541.611-.757.486s-.227-.545-.026-.938.54-.611.757-.486S233.847,1205.29,233.646,1205.683Z" transform="translate(-208.792 -1080.841)" fill="#f7a491"/>
        <path id="Path_1555" data-name="Path 1555" d="M185.491,1173.677s-1.45,2.593-2.487,2.713-1.174,1.5-1.174,1.5.371-3.176,1.4-3.789A3.8,3.8,0,0,1,185.491,1173.677Z" transform="translate(-163.135 -1052.973)" fill="#f7cc7f"/>
        <path id="Path_1556" data-name="Path 1556" d="M186.424,1200.3c.084.461-.085.883-.378.943s-.6-.263-.685-.72.085-.883.378-.944S186.34,1199.836,186.424,1200.3Z" transform="translate(-166.284 -1076.228)" fill="#f7a491"/>
        <path id="Path_1557" data-name="Path 1557" d="M208.264,1222.92l1.569.308a.7.7,0,0,1-.847.473C208.14,1223.561,208.264,1222.92,208.264,1222.92Z" transform="translate(-186.845 -1097.179)" fill="#fff"/>
        <rect id="Rectangle_258" data-name="Rectangle 258" width="0.655" height="15.006" transform="translate(151.333 185.756) rotate(169.26)" fill="#3c8f7c"/>
        <path id="Path_1558" data-name="Path 1558" d="M1169.4,1678.035h-.773l2.884-14.935.643.122Z" transform="translate(-1048.476 -1492.101)" fill="#3c8f7c"/>
        <path id="Path_1559" data-name="Path 1559" d="M1389.153,1678.035h-.773l2.884-14.935.642.122Z" transform="translate(-1245.633 -1492.101)" fill="#3c8f7c"/>
        <path id="Path_1560" data-name="Path 1560" d="M1220.48,1678.618l.628.008-2.766-14.876-.643.122Z" transform="translate(-1092.501 -1492.685)" fill="#184655"/>
        <path id="Path_1561" data-name="Path 1561" d="M1176.488,1347.541c3.435.368,7.881.756,12.344,8.328,4.878,8.278,2.31,20.642-1.542,24.078s-16.424,7.678-26.994,1.326c0,0-6.382-3.848-3.106-10.236,5.038-9.83,4.328-11.88,6.58-15.731S1169.2,1346.76,1176.488,1347.541Z" transform="translate(-1037.373 -1208.91)" fill="#f47458"/>
        <path id="Path_1562" data-name="Path 1562" d="M1206.96,1361.734c-3.046-5.169-6.085-6.991-8.8-7.744a22.725,22.725,0,0,1,3.179,4.293c4.878,8.278,2.31,20.642-1.542,24.078-3.413,3.046-13.689,6.727-23.339,3.092a9.815,9.815,0,0,0,1.968,1.686c10.57,6.352,23.145,2.11,26.994-1.326S1211.838,1370.012,1206.96,1361.734Z" transform="translate(-1055.502 -1214.773)" fill="#b75742"/>
        <path id="Path_1563" data-name="Path 1563" d="M1238.073,1470.66l-.883,2.65,2.692-1.059Z" transform="translate(-1109.987 -1319.447)" fill="#f79c8d"/>
        <path id="Path_1564" data-name="Path 1564" d="M1240.892,1394c-.179.008-.67.172-1.39,1.526a50.848,50.848,0,0,0-2.262,6.953l4.01,1.486.514-1.09.847-8.393S1240.942,1394,1240.892,1394Z" transform="translate(-1110.032 -1250.669)" fill="#6394db"/>
        <path id="Path_1565" data-name="Path 1565" d="M1275.839,1386.67a24.471,24.471,0,0,0-5.294.754s-.966,8.276.87,14.564c.411,1.407-.339,5.836-.339,5.836l11.866-.156s-1.406-10.7-.876-12.434.543-7.754.543-7.754-.082-.012-2.667-.458a27.026,27.026,0,0,0-4.1-.352Z" transform="translate(-1139.686 -1244.093)" fill="#86b1f2"/>
        <path id="Path_1566" data-name="Path 1566" d="M1329.385,1741.8a15.862,15.862,0,0,1-.745,3.857c-.483.837.026,2.262.051,2.453s1.016.474,2.591.308,1.55-.529,1.423-1.116-.965-1.337-1.017-1.895a14.426,14.426,0,0,1,.483-2.564Z" transform="translate(-1191.849 -1562.71)" fill="#f7a491"/>
        <path id="Path_1567" data-name="Path 1567" d="M1197.076,1566.546s-8.192-.454-10.021.651.331,3.371.331,3.371,6.669,2.889,17.833,3.532c2.645.152,2.872-6.87,2.378-7.452S1197.076,1566.546,1197.076,1566.546Z" transform="translate(-1064.348 -1405.307)" fill="#e5b05c"/>
        <path id="Path_1568" data-name="Path 1568" d="M1330.042,1783.892c1.623-.173,1.421-.967,1.291-1.569-.081-.377-.547-.823-.823-1.243a2.712,2.712,0,0,1-1.085.526,4.031,4.031,0,0,1-2.373-.478,7.747,7.747,0,0,0-.217,2.085A4.714,4.714,0,0,0,1330.042,1783.892Z" transform="translate(-1190.413 -1597.951)" fill="#f47458"/>
        <path id="Path_1569" data-name="Path 1569" d="M1332.357,1573.1c-.327,2.468-1.947,14.755-1.947,14.755l3.762.461s4.627-16.039,4.386-18.49-1.968-2.659-1.968-2.659S1333.224,1566.568,1332.357,1573.1Z" transform="translate(-1193.623 -1406.023)" fill="#f7cc7f"/>
        <path id="Path_1570" data-name="Path 1570" d="M1271.052,1403.382c-1.109-.411-1.652,9.549-1.8,13.649a48.728,48.728,0,0,1-6.243-.063c-.4-.03-1.325-.367-1.724-.419a4.033,4.033,0,0,0-.98-.046,19,19,0,0,0-2.3,1.028c-.218.226-.805.8-.706,1.047s1.131-.69,1.131-.69l.5-.282c-.627.611-1.823,1.415-1.651,1.708s1.247-.531,2.016-1.087c-.659.593-1.478,1.655-1.29,1.822.17.148,1.1-1.082,2.1-1.439.369-.132.737.232,1.028.275a2.051,2.051,0,0,0,.753.042l1.078-.309c.367.034.376.25.748.329.431.092,1.137.187,1.685.321,3.159.769,4.216,1.131,5.179,1.131C1273.5,1420.4,1273.675,1404.36,1271.052,1403.382Z" transform="translate(-1128.001 -1259.076)" fill="#f7a491"/>
        <path id="Path_1571" data-name="Path 1571" d="M1372.548,1404.608c.206-4.2.178-9.378-2.185-10.261-.932-.349-2.577,1.748-2.281,10.346A17.818,17.818,0,0,0,1372.548,1404.608Z" transform="translate(-1227.391 -1250.948)" fill="#86b1f2"/>
        <path id="Path_1572" data-name="Path 1572" d="M1196.69,1766.93a2.036,2.036,0,0,1-.259,1.742c-.587.694-3.028,1.373-3.349,1.748a1.046,1.046,0,0,0-.3.695l6.85-.188-.074-2.063-.316-1.482Z" transform="translate(-1070.149 -1585.256)" fill="#f7a491"/>
        <path id="Path_1573" data-name="Path 1573" d="M1186.778,1785.859s1.76.709,2.61.289.823-.536,1.07-.379.334,2.262.334,2.262l-7.7.052c-.536-.012-.807-.406-.371-.742a6.313,6.313,0,0,1,.84-.5A24.4,24.4,0,0,1,1186.778,1785.859Z" transform="translate(-1060.922 -1602.098)" fill="#f47458"/>
        <path id="Path_1574" data-name="Path 1574" d="M1180.655,1569.959c-.529-1.111-1.733-2.557-3.852-1.686-2.021.831-2.564,2.873-1.927,4.963s4.832,14.379,4.982,16.068l3.352.021s-.61-9.729-.759-12.082A22.7,22.7,0,0,0,1180.655,1569.959Z" transform="translate(-1053.854 -1406.785)" fill="#f7cc7f"/>
        <path id="Path_1575" data-name="Path 1575" d="M1174.009,1476.91h11.207a.73.73,0,0,1,.676.453l3.45,8.414h6.176a.308.308,0,0,1,.308.308h0a.309.309,0,0,1-.308.309h-17.581a1.228,1.228,0,0,1-1.12-.72l-3.474-7.738a.73.73,0,0,1,.666-1.026Z" transform="translate(-1052.648 -1325.055)" fill="#355389"/>
        <path id="Path_1576" data-name="Path 1576" d="M1238.876,1517.453a.617.617,0,1,0,.462-.8A.665.665,0,0,0,1238.876,1517.453Z" transform="translate(-1111.487 -1360.698)" fill="#fff"/>
        <path id="Path_1577" data-name="Path 1577" d="M1309.375,1350.3l.549,3.613s-2,4.3-3.2,3.929c-1-.309-.386-4.119-.386-4.119a10.452,10.452,0,0,0,.383-3.068C1306.56,1349.631,1309.375,1350.3,1309.375,1350.3Z" transform="translate(-1171.86 -1211.269)" fill="#f7a491"/>
        <path id="Path_1578" data-name="Path 1578" d="M1311.018,1350.654c-.164-1.023,2.652-.355,2.652-.355l.046.3a1.681,1.681,0,0,1-.308.5,3.711,3.711,0,0,1-2.468,1.115A5.352,5.352,0,0,0,1311.018,1350.654Z" transform="translate(-1176.155 -1211.269)" fill="#f47458" opacity="0.2"/>
        <path id="Path_1579" data-name="Path 1579" d="M1300.025,1292.623c.079-.029.638,4.113-.421,5.256s-3.125,1.513-3.865.617c-.823-.993-.778-5.449.87-6.62S1300.025,1292.623,1300.025,1292.623Z" transform="translate(-1162.046 -1158.704)" fill="#f7a491"/>
        <path id="Path_1580" data-name="Path 1580" d="M1302.374,1273.376a4.585,4.585,0,0,1,2.4,1.37c.578.069,1.364.388,2.176,1.731a3.36,3.36,0,0,1-.9,4.381,2.617,2.617,0,0,0-1.145,1.935l-.184-.537a3.011,3.011,0,0,1-.145-1.264,2.45,2.45,0,0,1,.188-.76c.279-.6-.6-1-.847-1.5-.19-.385-.2-1.264-.5-1.9l-.358-.485a2.267,2.267,0,0,0-1.631-.46C1300.622,1276.073,1300.743,1273.043,1302.374,1273.376Z" transform="translate(-1167.186 -1142.424)" fill="#f7cc7f"/>
        <path id="Path_1581" data-name="Path 1581" d="M1330.388,1325c-.008.506.221.919.514.925s.536-.4.544-.906-.221-.92-.514-.925S1330.4,1324.492,1330.388,1325Z" transform="translate(-1193.603 -1187.947)" fill="#f7a491"/>
        <path id="Path_1582" data-name="Path 1582" d="M1302.537,1345.812l-1.6-.082a.694.694,0,0,0,.706.665C1302.5,1346.464,1302.537,1345.812,1302.537,1345.812Z" transform="translate(-1167.183 -1207.362)" fill="#fff"/>
        <path id="Path_1583" data-name="Path 1583" d="M1625.222,1110.919c.174.72.488,1.851.488,1.851-.025.308-.117,1.606-.226,3.193l2.333-.934a24.963,24.963,0,0,1,.076-2.743c.088-.134.235.033.95-.99a2.015,2.015,0,0,0,.246-.823s.042-.65-.1-.71a.309.309,0,0,0-.366.149c-.052.112-.039.373-.092.485a.808.808,0,0,1-.532.241,8.684,8.684,0,0,1,.017-1.921s.08-.543.12-.72c.034-.151.172-.6.172-.6s.161-.644-.038-.693c-.118-.029-.418.495-.624,1.05a11.018,11.018,0,0,1-.411,1.224c-.149-.02-.07-1.069-.07-1.069a3.4,3.4,0,0,0,.145-.707c.14-.278.232-.794-.014-.836a4.278,4.278,0,0,0-.37.647s-.129.462-.206.677c-.132.38-.151.981-.22,1.245-.057.221-.1.131-.132.14a3.921,3.921,0,0,1,.049-.72,4.985,4.985,0,0,1,.053-.692,5.1,5.1,0,0,0,.1-.731c.04-.543-.3-.487-.421.009-.044.188-.092.395-.139.6-.184.813-.179,1.6-.266,1.6a5.894,5.894,0,0,1-.039-1.419s-.175-.791-.349-.058a6.345,6.345,0,0,0-.177,1.576A5.656,5.656,0,0,0,1625.222,1110.919Z" transform="translate(-1458.044 -992.611)" fill="#f8a492"/>
        <path id="Path_1584" data-name="Path 1584" d="M1832.927,1092.525c-.175.72-.488,1.851-.488,1.851.025.308.116,1.6.226,3.187l-2.333-.934a25.26,25.26,0,0,0-.076-2.744c-.088-.134-.235.034-.951-.989a2.012,2.012,0,0,1-.245-.823s-.042-.649.1-.709a.3.3,0,0,1,.365.148c.054.113.039.374.093.486a.809.809,0,0,0,.533.241,8.642,8.642,0,0,0-.019-1.922s-.079-.542-.119-.72c-.034-.151-.172-.6-.172-.6s-.162-.645.038-.694c.117-.029.418.495.624,1.05a11.118,11.118,0,0,0,.411,1.224c.148-.021.07-1.069.07-1.069a3.349,3.349,0,0,1-.145-.707c-.14-.279-.233-.794.014-.837a4.258,4.258,0,0,1,.371.648s.128.461.206.677c.131.38.151.98.219,1.245.058.22.109.13.133.139a4.478,4.478,0,0,0-.05-.713,4.159,4.159,0,0,0-.052-.693,4.952,4.952,0,0,1-.1-.731c-.04-.543.3-.487.419.009.045.189.093.395.14.6.183.813.178,1.6.266,1.6a5.954,5.954,0,0,0,.038-1.419s.175-.79.349-.056a6.383,6.383,0,0,1,.178,1.575A5.936,5.936,0,0,1,1832.927,1092.525Z" transform="translate(-1640.999 -976.103)" fill="#f8a492"/>
        <path id="Path_1585" data-name="Path 1585" d="M1788.225,1724a17.907,17.907,0,0,0,1.615,1.8c.322.2-.144,2.526-1.021,2.679-.495.086-.77-.458-.77-.458l.142-.67-1.851-1.9Z" transform="translate(-1602.676 -1546.74)" fill="#f7a491"/>
        <path id="Path_1586" data-name="Path 1586" d="M1721.98,1727.82a17.85,17.85,0,0,0,1.373,1.991c.294.237-.466,2.488-1.355,2.527-.5.022-.705-.552-.705-.552l.227-.648-1.589-2.124Z" transform="translate(-1543.094 -1550.167)" fill="#f7a491"/>
        <path id="Path_1587" data-name="Path 1587" d="M1721.89,1746.52a13.184,13.184,0,0,1-.957,1.1,11.51,11.51,0,0,1-.994.8s-.632,1.147-.805,1.548a6.55,6.55,0,0,0-.755,2.384c.02.161.379.33.68.238,1.249-.384,4.443-3.306,4.847-4.09C1724.37,1747.6,1721.89,1746.52,1721.89,1746.52Z" transform="translate(-1541.696 -1566.944)" fill="#13375b"/>
        <path id="Path_1588" data-name="Path 1588" d="M1653.049,1478.558c.116-.325.227-.625.334-.908,1.329.29,2.83.609,4.374.938l.188,5.655c0-.437-1.161,9.024-1.161,9.024s3,6.642,5.051,10.512a7.043,7.043,0,0,1-2.456,2.106c-3.187-3.818-7.353-10.8-7.526-11.966C1651.754,1493.254,1651.664,1482.453,1653.049,1478.558Z" transform="translate(-1481.972 -1325.719)" fill="#3c8f7c"/>
        <path id="Path_1589" data-name="Path 1589" d="M1716.851,1488.412c-.411,4.41-1.308,12.838-1.234,13.516.226.845,4.241,8.645,4.964,9.78a4.865,4.865,0,0,1-2.417,2.056c-.188.051-6.814-9.378-7.176-10.125-.411-.846-1.089-5.462-1.1-11.174l-.188-5.655C1712.272,1487.355,1714.637,1487.893,1716.851,1488.412Z" transform="translate(-1533.916 -1333.937)" fill="#50bfa5"/>
        <path id="Path_1590" data-name="Path 1590" d="M1659.373,1306.92l3.028.411s2.422.044,2.723.044,2.206,11.06,2.758,15.217.123,4.892.123,4.892a26.806,26.806,0,0,1-6.683.617,21.706,21.706,0,0,1-6.272-1.856s2.524-7.987,3.025-10.481S1659.373,1306.92,1659.373,1306.92Z" transform="translate(-1484.885 -1172.542)" fill="#355389"/>
        <path id="Path_1591" data-name="Path 1591" d="M1625.176,1173.007s-.194,8.234.116,8.864c.452.916,5.536,7.413,5.536,7.413s-2.428,10.163-3.449,13.675c-.1.354-.558,2.636-.558,2.859,0,.494,2.149,1.12,2.4,1.083.228-.034,2.1-9.7,3.3-14.431a13.527,13.527,0,0,1,2.056-4.47l.832-1.182-6.387-6.4s-.786-7.125-.786-7.711C1628.235,1172.543,1625.486,1172.427,1625.176,1173.007Z" transform="translate(-1458.029 -1052.008)" fill="#86b1f2"/>
        <path id="Path_1592" data-name="Path 1592" d="M1731.807,1166.612l7.964-8.115s1.109-7.674,1.189-7.963,2.056-.437,2.852-.514c.256-.025-.134,8.174-.514,9.548-.45,1.623-6.47,9.021-6.47,9.021a24.729,24.729,0,0,0-.823,6.944c.431,4.882,1.595,11.6,1.386,11.806-1.295.815-6.261.9-6.58.4C1727.347,1182.142,1731.807,1166.612,1731.807,1166.612Z" transform="translate(-1551.674 -1031.774)" fill="#86b1f2"/>
        <path id="Path_1593" data-name="Path 1593" d="M1795.529,1740.89a13.764,13.764,0,0,1-.808,1.217,11.4,11.4,0,0,1-.884.925s-.48,1.219-.6,1.639a7.054,7.054,0,0,0-.444,2.548c.04.156.383.454.667.27a21.026,21.026,0,0,0,4.318-4.884C1798.127,1741.647,1795.529,1740.89,1795.529,1740.89Z" transform="translate(-1608.438 -1561.893)" fill="#13375b"/>
        <path id="Path_1594" data-name="Path 1594" d="M1705.412,1208.076a8.2,8.2,0,0,0,1.016-.021,4.8,4.8,0,0,1,1.148,0,2.591,2.591,0,0,1,1.835,1.314c.389.962,1.778.822.132,4.466-1.862,4.129-4.04,2.776-4.069,2.684s-1.076-3.5-1.076-3.5-1.3,1.292-1.28,1.234S1701.344,1207.929,1705.412,1208.076Z" transform="translate(-1527.673 -1083.812)" fill="#0e2e35"/>
        <path id="Path_1595" data-name="Path 1595" d="M1723.534,1274.175l-.217,1.615s-.486,2.328.139,2.776,2.66-2.842,2.66-2.842l-.215-4.094Z" transform="translate(-1545.972 -1140.881)" fill="#f7a491"/>
        <path id="Path_1596" data-name="Path 1596" d="M1727.78,1272.958a4.63,4.63,0,0,1-2.62,2.587l.184-1.37,2.365-2.545Z" transform="translate(-1547.787 -1140.881)" fill="#f47458"/>
        <path id="Path_1597" data-name="Path 1597" d="M1710.172,1224.2a2.159,2.159,0,0,0-3.091,1.162,16.333,16.333,0,0,0-.561,2c-.39,1.851.221,3.832,1.06,3.991a4.043,4.043,0,0,0,3.976-3.212A3.562,3.562,0,0,0,1710.172,1224.2Z" transform="translate(-1530.955 -1098.084)" fill="#f7a491"/>
        <path id="Path_1598" data-name="Path 1598" d="M1750.006,1260.316a.627.627,0,1,0,.745-.625A.693.693,0,0,0,1750.006,1260.316Z" transform="translate(-1570.063 -1130.161)" fill="#f7a491"/>
        <path id="Path_1599" data-name="Path 1599" d="M1719.376,1222.93s-1.042-.122-1.164-.868a3.071,3.071,0,0,0-2.7-2.6c-1.812-.057,1.916-.8,2.044-.75l1.673.617s.823,1.425.823,1.548-.1,1.424-.1,1.424Z" transform="translate(-1538.688 -1093.4)" fill="#0e2e35"/>
        <path id="Path_1600" data-name="Path 1600" d="M1714.867,1275.4l-1.857-.322a.821.821,0,0,0,.731.88C1714.732,1276.162,1714.867,1275.4,1714.867,1275.4Z" transform="translate(-1536.884 -1143.976)" fill="#fff"/>
        <path id="Path_1601" data-name="Path 1601" d="M818.35,1342.362a1.866,1.866,0,0,0,.2.483,18.283,18.283,0,0,0,1.906,2.536l1.028-2.322s-.167-.729-.458-1.771A5.97,5.97,0,0,0,818.35,1342.362Z" transform="translate(-734.211 -1203.378)" fill="#f8a492"/>
        <path id="Path_1602" data-name="Path 1602" d="M803.254,1261.3s-5.747,2.475-5.932,2.428a15.277,15.277,0,0,1-2.382-7.3c-.01-1.626,1.679-3.584,3.563-3.2.949.194.935.459,2.339,2.5A23.49,23.49,0,0,1,803.254,1261.3Z" transform="translate(-713.207 -1124.325)" fill="#13375b"/>
        <path id="Path_1603" data-name="Path 1603" d="M920.175,1763.73s-.136,2.262-.137,2.262a12.269,12.269,0,0,0-.248,1.255c0,.979,4.647-.831,3.606-1.265-.094-.039-.588-.336-.617-.669-.047-.514-.169-1.552-.169-1.552Z" transform="translate(-825.221 -1582.385)" fill="#f7a491"/>
        <path id="Path_1604" data-name="Path 1604" d="M921.993,1785.2s-1.091.3-1.645.374-1.3-.555-1.69-.386c-.436.187-.418,1.874-.418,1.874s5.851.48,7.5-.016C926.382,1786.846,924.224,1785.894,921.993,1785.2Z" transform="translate(-823.83 -1601.609)" fill="#dd513a"/>
        <path id="Path_1605" data-name="Path 1605" d="M827.7,1763.73s-.136,2.262-.137,2.262a12.285,12.285,0,0,0-.248,1.255c0,.979,4.647-.831,3.606-1.265-.094-.039-.734-.558-.765-.891-.048-.514-.023-1.33-.023-1.33Z" transform="translate(-742.259 -1582.385)" fill="#f7a491"/>
        <path id="Path_1606" data-name="Path 1606" d="M829.228,1785.2s-1.091.3-1.645.374-1.3-.555-1.69-.386c-.435.187-.452,1.874-.452,1.874s5.878.559,7.531-.016C833.608,1786.82,831.461,1785.894,829.228,1785.2Z" transform="translate(-740.572 -1601.609)" fill="#dd513a"/>
        <path id="Path_1607" data-name="Path 1607" d="M844.88,1209.26l4.093-5.734q.026-.076.111-.308c.206-.569.635-1.748,1.009-2.93v-.012c.117-.411.366-1.131.608-1.825.267-.772.6-1.73.611-1.894l-.055-.145a13.253,13.253,0,0,1-.425-1.72c-.045-.257-.091-.882.214-.882.48,0,.252.624.473,1.014a10,10,0,0,0,.333-1.3l.08-1.219c.015-.092-.082-.764.254-.764h.016c.3.023.3.737.422,1.946.04-.139.079-.308.109-.461a4.517,4.517,0,0,1,.1-.639c-.061-.337-.026-.869.333-.823.18.026.166.767.166.767,0,.1-.012.886-.007,1.04.037-.262.181-1.385.463-1.385.233,0,.252.3.247.541,0,.142-.149,1.357-.157,1.5.11-.184.241-1.256.35-1.256.454,0,.29,1.524.123,1.921a1.686,1.686,0,0,0-.052.213,3.74,3.74,0,0,1-.39,1.131c-.286.49-.681,1.267-.74,1.386-.044.243-.182,1.116-.354,2.214-.074.471-.154.986-.239,1.52h0c-.015.115-.1.482-.425,1.861a16.755,16.755,0,0,1-.508,2c-.192.34-4.606,6.334-4.794,6.588l-.11.151Z" transform="translate(-758.013 -1069.025)" fill="#f7a491"/>
        <path id="Path_1608" data-name="Path 1608" d="M910.855,1226.1s-.332-.85-.925-.851a.68.68,0,0,1,.617.1A1.184,1.184,0,0,1,910.855,1226.1Z" transform="translate(-816.375 -1099.242)" fill="#f47458"/>
        <path id="Path_1609" data-name="Path 1609" d="M830.666,1216.147l-.526,3.332s2.007,1.612,3.178,1.272c.982-.285.308-1.569.308-1.569a8.341,8.341,0,0,1-.363-2.711C833.424,1215.538,830.666,1216.147,830.666,1216.147Z" transform="translate(-744.789 -1090.927)" fill="#f7a491"/>
        <path id="Path_1610" data-name="Path 1610" d="M834.741,1217.18a8.226,8.226,0,0,0,2.272.641,4.432,4.432,0,0,1-.054-1.324c.074-.431-.474-.533-1.085-.514-.8.068-1.512.193-1.512.193l-.1.64A1.661,1.661,0,0,0,834.741,1217.18Z" transform="translate(-748.485 -1090.952)" fill="#fe875e"/>
        <path id="Path_1611" data-name="Path 1611" d="M810.572,1164.828c-.083,0,.794,3.723,2.15,4.363s3.38.308,3.759-.7c.419-1.109-1.111-4.906-3.02-5.39S810.572,1164.828,810.572,1164.828Z" transform="translate(-727.228 -1043.452)" fill="#f7a491"/>
        <path id="Path_1612" data-name="Path 1612" d="M797.7,1145.664a4.267,4.267,0,0,0-1.748,1.931,2.735,2.735,0,0,0-1.419,2.17,3.048,3.048,0,0,0,2.3,3.464,2.074,2.074,0,0,1,1.58,1.307l.155-.975a3.929,3.929,0,0,0-.763-1.274c-.454-.425.217-1.044.277-1.549.045-.389-.241-1.143-.179-1.782a4.424,4.424,0,0,1,1.51-1.439C800.7,1147.032,799.093,1144.862,797.7,1145.664Z" transform="translate(-712.789 -1027.708)" fill="#13375b"/>
        <path id="Path_1613" data-name="Path 1613" d="M822.225,1197.413c.177.43.1.856-.161.953s-.627-.174-.8-.6-.1-.856.161-.953S822.048,1196.983,822.225,1197.413Z" transform="translate(-736.735 -1073.735)" fill="#f7a491"/>
        <path id="Path_1614" data-name="Path 1614" d="M880.63,1333.819l7.9-1.287s-.9-2.262-1.219-2.262-5.971,2.467-5.971,2.467l-.449.9Z" transform="translate(-790.087 -1193.492)" fill="#f8a492"/>
        <path id="Path_1615" data-name="Path 1615" d="M829.556,1414.3a25.986,25.986,0,0,0-.467,6.694c.321,2.89.346,13.144.346,13.144l-1.226,16.411,2.907.064s3.446-16.4,3.383-15.982,1.155-11.548,1.155-11.548l-4.113-9.142Z" transform="translate(-743.057 -1268.559)" fill="#184655"/>
        <path id="Path_1616" data-name="Path 1616" d="M847.091,1404.663s-.514,3.429.129,4.935,5.506,16.258,5.571,17.461,1.681,14.5,1.681,14.5l3.38-.1.731-14.783-1.531-18.58-1.486-4.7Z" transform="translate(-759.822 -1259.103)" fill="#13375b"/>
        <path id="Path_1617" data-name="Path 1617" d="M830.14,1240.874a3.029,3.029,0,0,0,1.61.483,5.366,5.366,0,0,0,1.876-.78l-.153-.514s-2.01-.293-2.056-.262S830.14,1240.874,830.14,1240.874Z" transform="translate(-744.789 -1112.321)" fill="#f7a491"/>
        <path id="Path_1618" data-name="Path 1618" d="M916.52,1304.8s2.987,2.818,4.335,2.338,1.906-2.126-1.384-4.533C916.527,1300.45,916.52,1304.8,916.52,1304.8Z" transform="translate(-822.287 -1168.133)" fill="#f8a492"/>
        <path id="Path_1619" data-name="Path 1619" d="M816.706,1258.741c-.443-2.414-3.659-9.925-3.915-11.31-.125-.673-1.86-.688-3.511-.6-1.748.093-3.478.308-3.478.308a5.327,5.327,0,0,0-2.225.891c-.683.636-.861,2.4.117,5.741.771,2.639,1.727,4.089,2.2,6.011.1.646.178,1.281.287,2.025.174,2.879,0,6.672,0,6.672s8.409,1.748,11.554-.9C817.733,1267.583,817.16,1261.216,816.706,1258.741Z" transform="translate(-720.45 -1118.597)" fill="#355389"/>
        <path id="Path_1620" data-name="Path 1620" d="M874.955,1254.4s-3.3,2.719-3.493,2.719c-.124,0-4.709-3.372-5.767-6.143a2.422,2.422,0,0,1,2.044-3.24c.972,0,1.4.254,3.329,1.878A24.577,24.577,0,0,1,874.955,1254.4Z" transform="translate(-776.555 -1119.447)" fill="#466eb6"/>
        <path id="Path_1621" data-name="Path 1621" d="M800.626,529.727c-.807-.545-1.633-1.061-2.429-1.621a.706.706,0,0,1-.258-.539c.1-1.123.275-2.239.371-3.363.029-.327.1-.5.411-.617,1.1-.432,2.2-.893,3.29-1.346.178-.073.353-.152.66-.286-.524-1.683-1.043-3.349-1.573-5.055-1.413.281-2.7.514-3.977.8a.78.78,0,0,1-.985-.368c-.592-.853-1.3-1.622-1.94-2.445a.641.641,0,0,1-.083-.528c.434-1.123.867-2.248,1.367-3.342a.679.679,0,0,0-.35-1.051,3.312,3.312,0,0,1-.49-.382l-2.435-1.309a1.649,1.649,0,0,1-.308-.064c-.99-.405-.8-.4-1.362.43-.685,1.007-1.353,2.025-1.939,2.906l-4.4-.411-1.716-4.166a16.9,16.9,0,0,0-5.038,1.567c.279,1.389.547,2.743.823,4.1a.465.465,0,0,1-.206.568c-.932.7-1.851,1.418-2.728,2.177a.547.547,0,0,1-.691.1c-1.131-.473-2.262-.925-3.393-1.39a.474.474,0,0,0-.669.167,15.14,15.14,0,0,0-2.087,4.045c-.1.285.034.411.249.548,1,.647,1.975,1.318,2.974,1.953a.6.6,0,0,1,.319.72c-.2,1.285-.323,2.583-.487,3.98l-4,1.645a15.741,15.741,0,0,0,1.532,5.112l4.318-.888c.832.959,1.582,1.871,2.388,2.73a.753.753,0,0,1,.181.971c-.475,1.068-.908,2.159-1.347,3.239-.086.214-.257.464.077.64l4.1,2.158c.29.153.472.056.647-.217.652-1.013,1.347-2,1.98-3.022.245-.395.508-.411.917-.355a27.9,27.9,0,0,0,3.053.276.665.665,0,0,1,.749.514c.469,1.253,1,2.5,1.5,3.709a15.019,15.019,0,0,0,5.124-1.594c-.28-1.337-.549-2.692-.855-4.038a.572.572,0,0,1,.281-.684c.831-.654,1.615-1.366,2.44-2.029a.7.7,0,0,1,.579-.111c1.005.394,2,.823,2.99,1.251.554.241.777.339.99.2l2.323-4.318C801.525,530.334,801.279,530.168,800.626,529.727Zm-8.637-1.514a7.938,7.938,0,0,1-10.747,3.23h0a7.938,7.938,0,0,1-3.232-10.751h0a7.938,7.938,0,0,1,10.751-3.231h0a7.938,7.938,0,0,1,3.232,10.751Z" transform="translate(-688.634 -454.84)" fill="#cae1f9"/>
        <path id="Path_1622" data-name="Path 1622" d="M308.323,769.788c-1.306.126-2.606.3-3.914.4a.947.947,0,0,1-.729-.338c-.855-1.255-1.638-2.56-2.5-3.81a.8.8,0,0,1-.1-1c.776-1.4,1.514-2.814,2.262-4.225.122-.229.235-.462.44-.864l-5.969-3.9c-1.226,1.5-2.365,2.851-3.441,4.244a1.05,1.05,0,0,1-1.337.463c-1.347-.377-2.745-.566-4.113-.873a.86.86,0,0,1-.539-.477c-.514-1.542-1.028-3.077-1.449-4.643-.206-.751-.568-.941-1.266-.791a4.446,4.446,0,0,1-.837.024l-3.651.73a2.262,2.262,0,0,1-.371.2c-1.376.429-1.171.273-1.046,1.614.153,1.634.334,3.264.48,4.681l-4.92,3.349-5.357-2.853a22.844,22.844,0,0,0-3.887,5.953c1.481,1.2,2.922,2.379,4.371,3.544a.628.628,0,0,1,.277.764c-.369,1.523-.7,3.058-.963,4.6a.743.743,0,0,1-.626.7c-1.576.474-3.141.986-4.715,1.467a.639.639,0,0,0-.552.747,20.309,20.309,0,0,0,1.3,5.99c.138.385.386.395.729.356,1.589-.183,3.182-.327,4.769-.52a.8.8,0,0,1,.945.469c.9,1.506,1.882,2.96,2.91,4.552-.837,1.573-1.787,3.357-2.737,5.141a21.241,21.241,0,0,0,5.979,3.992l3.723-4.627c1.687.282,3.248.584,4.823.783a1.02,1.02,0,0,1,1.02.853c.424,1.516.907,3.016,1.382,4.518.094.3.131.7.629.6l6.085-1.264c.431-.089.537-.347.485-.78-.194-1.611-.318-3.23-.538-4.832-.085-.617.175-.861.647-1.156a37.125,37.125,0,0,0,3.406-2.333.89.89,0,0,1,1.219-.1c1.572.895,3.18,1.727,4.741,2.57a20.342,20.342,0,0,0,3.952-6.053c-1.439-1.147-2.879-2.323-4.353-3.457a.772.772,0,0,1-.3-.951c.3-1.392.5-2.8.793-4.2a.943.943,0,0,1,.506-.612c1.382-.454,2.776-.861,4.178-1.267.781-.227,1.1-.316,1.2-.647l-1.3-6.477C309.772,769.651,309.379,769.686,308.323,769.788Zm-10.263,5.841a10.693,10.693,0,0,1-8.389,12.583h0a10.693,10.693,0,0,1-12.583-8.388h0a10.693,10.693,0,0,1,8.389-12.584h0A10.693,10.693,0,0,1,298.06,775.629Z" transform="translate(-236.735 -676.406)" fill="#9bc1f9"/>
        <path id="Path_1623" data-name="Path 1623" d="M496.155,476.248c-.523-.249-1.056-.478-1.573-.737a.418.418,0,0,1-.2-.293c-.039-.67-.039-1.337-.082-2.011a.354.354,0,0,1,.189-.4c.617-.353,1.213-.72,1.818-1.085.1-.06.194-.121.363-.227l-1.377-2.833c-.805.291-1.542.543-2.262.823a.469.469,0,0,1-.617-.129c-.424-.448-.91-.838-1.358-1.265a.38.38,0,0,1-.1-.3c.154-.7.308-1.4.506-2.086.095-.33,0-.485-.3-.587a1.962,1.962,0,0,1-.322-.181l-1.548-.553a.925.925,0,0,1-.185-.009c-.617-.15-.5-.162-.762.374-.314.653-.617,1.311-.881,1.88l-2.623.151-1.381-2.3a10.069,10.069,0,0,0-2.821,1.375c.288.792.565,1.564.85,2.334a.28.28,0,0,1-.069.353c-.485.492-.959,1-1.41,1.523a.328.328,0,0,1-.4.123c-.7-.178-1.413-.339-2.118-.514a.283.283,0,0,0-.379.158,8.98,8.98,0,0,0-.866,2.564c-.035.176.057.237.2.3.643.292,1.279.6,1.924.886a.354.354,0,0,1,.251.392c0,.774.04,1.548.068,2.384l-2.205,1.323a9.373,9.373,0,0,0,1.357,2.87l2.461-.908c.574.49,1.1.959,1.645,1.392a.452.452,0,0,1,.193.554c-.184.67-.342,1.348-.5,2.024-.032.134-.11.3.1.369l2.591.9c.184.064.282-.009.361-.185.292-.654.617-1.3.894-1.953.109-.254.262-.287.508-.291a16.506,16.506,0,0,0,1.82-.108.4.4,0,0,1,.486.236c.392.7.811,1.376,1.212,2.048a9.1,9.1,0,0,0,2.871-1.4c-.284-.761-.562-1.533-.864-2.3a.342.342,0,0,1,.1-.427c.43-.459.823-.948,1.253-1.411a.419.419,0,0,1,.331-.117c.626.142,1.248.308,1.869.47.347.092.487.13.6.027l.981-2.747C496.734,476.525,496.579,476.449,496.155,476.248Zm-5.211-.121a4.72,4.72,0,0,1-6.033,2.859h0a4.719,4.719,0,0,1-2.859-6.032h0a4.719,4.719,0,0,1,6.032-2.859h0A4.72,4.72,0,0,1,490.944,476.127Z" transform="translate(-427.282 -416.54)" fill="#9bc1f9" opacity="0.2"/>
        <path id="Path_1624" data-name="Path 1624" d="M575.444,1640.192l-1.554-.006c.206-6.78.385-17.076.043-17.653a.257.257,0,0,0,.1.077l1.26-.329c.206.1.327.165.369,3.048.022,1.484.013,3.532-.025,6.09C575.58,1635.771,575.449,1640.147,575.444,1640.192Z" transform="translate(-514.885 -1455.478)" fill="#355389"/>
        <path id="Path_1625" data-name="Path 1625" d="M534.207,1795.68H523.725a.875.875,0,0,0-.875.875h0a.153.153,0,0,0,.153.152H534.93a.153.153,0,0,0,.153-.152h0a.875.875,0,0,0-.876-.875Z" transform="translate(-469.093 -1611.05)" fill="#355389"/>
        <path id="Path_1626" data-name="Path 1626" d="M570.181,1787.3H568.9a.687.687,0,0,0-.688.688h0a.688.688,0,0,0,.688.688h1.283a.688.688,0,0,0,.688-.688h0a.687.687,0,0,0-.688-.688Z" transform="translate(-509.789 -1603.532)" fill="#355389"/>
        <rect id="Rectangle_259" data-name="Rectangle 259" width="0.62" height="30.905" transform="translate(22.607 154.732)" fill="#13375b"/>
        <path id="Path_1627" data-name="Path 1627" d="M529.918,1288.526a8.314,8.314,0,0,1,.76-4.01,3.4,3.4,0,0,1,3.03-1.726c3.788,0,4.27,5,6.683,6.932.737.589,1.561,1.07,2.262,1.706,2.57,2.349,1.415,6.7-.949,8.758-1.645,1.429-4.215,2.242-6.241,1.124a6.359,6.359,0,0,1-2.427-2.615,35.154,35.154,0,0,1-1.908-4.854A17.652,17.652,0,0,1,529.918,1288.526Z" transform="translate(-475.426 -1150.893)" fill="#13375b"/>
        <path id="Path_1628" data-name="Path 1628" d="M408.177,1410.832l8.244-2.3s1.737-2.333,3.971-5.463c.731.72,1.137,1.834,1.872,2.55l-5.456,6.036a1.044,1.044,0,0,1-.77.343l-7.574.025-2.593.206v-1.661Z" transform="translate(-364.14 -1258.807)" fill="#f48c7f"/>
        <path id="Path_1629" data-name="Path 1629" d="M519.713,1399.491a36.229,36.229,0,0,0,3.557-4.162c.728-1.26-.5-.439-1.748-.771-.474-.125-.354-2.9-1.249-2a41.14,41.14,0,0,0-3.314,4.066Z" transform="translate(-463.808 -1249.216)" fill="#96d9c9"/>
        <path id="Path_1630" data-name="Path 1630" d="M539.49,1380.62s2.54-.5,3.7.467-.249,9.574-.248,11a47.713,47.713,0,0,0,.8,5.457s-7.7,1.347-8.918-.795c0,0-.348-8.16-.3-9.186a28.482,28.482,0,0,1,1.508-5.672C536.348,1381.443,539.49,1380.62,539.49,1380.62Z" transform="translate(-479.563 -1238.548)" fill="#50bfa5"/>
        <path id="Path_1631" data-name="Path 1631" d="M562.858,1343.057s.013.076.037.206a19.6,19.6,0,0,0,.859,3.241c.362.684-1.24,2.861-2.781,2.6-.458-.079.388-2,.348-2.205-.078-.39-.184-.925-.292-1.467-.061-.308-.122-.617-.181-.912l-.3-1.514Z" transform="translate(-502.917 -1204.913)" fill="#f7a491"/>
        <path id="Path_1632" data-name="Path 1632" d="M562.9,1343.243c-.024-.128-.037-.206-.037-.206l-2.31-.057.3,1.514.18.907a2.158,2.158,0,0,0,1.1-.551,2.91,2.91,0,0,0,.835-1.24C562.938,1343.465,562.915,1343.34,562.9,1343.243Z" transform="translate(-502.917 -1204.895)" fill="#f47458"/>
        <path id="Path_1633" data-name="Path 1633" d="M548.3,1292.536a2.084,2.084,0,0,1,1.771.755c.683.88,1.418,3.606-.277,5.086s-3.37-.2-3.619-1.973S545.833,1292.476,548.3,1292.536Z" transform="translate(-489.913 -1159.632)" fill="#f7a491"/>
        <path id="Path_1634" data-name="Path 1634" d="M541.087,1321.521c.206.393.542.61.759.485s.228-.544.026-.937-.542-.61-.759-.485S540.884,1321.124,541.087,1321.521Z" transform="translate(-485.325 -1184.77)" fill="#f7a491"/>
        <path id="Path_1635" data-name="Path 1635" d="M566.71,1289.519s1.455,2.6,2.5,2.709,1.177,1.5,1.177,1.5-.372-3.172-1.4-3.784A3.838,3.838,0,0,0,566.71,1289.519Z" transform="translate(-508.443 -1156.905)" fill="#13375b"/>
        <path id="Path_1636" data-name="Path 1636" d="M588.132,1316.106c-.084.459.086.881.38.942s.6-.263.687-.72-.085-.881-.38-.942S588.217,1315.648,588.132,1316.106Z" transform="translate(-527.643 -1180.131)" fill="#f7a491"/>
        <path id="Path_1637" data-name="Path 1637" d="M493.12,1722.094a36.4,36.4,0,0,1,2.352,3.043,11.523,11.523,0,0,1-.371,3.147c-.278.244-1.094.417-.832.691a8.1,8.1,0,0,0,2.735.1c.3-.016.665-2.371.782-2.717.17-.5.583-1.635.429-1.985a2.947,2.947,0,0,0-.943-.848,27.863,27.863,0,0,1-2.57-3.187Z" transform="translate(-442.42 -1543.456)" fill="#f48c7f"/>
        <path id="Path_1638" data-name="Path 1638" d="M504.429,1751.22s-1.568,4.421-2.182,4.627c-.163.057-.946.206-1.093.546a1.474,1.474,0,0,0,0,.452h3.268s.411-1.945.578-2.8a12.728,12.728,0,0,0,.769-2.278C505.674,1751.576,504.429,1751.22,504.429,1751.22Z" transform="translate(-449.61 -1571.161)" fill="#b75742"/>
        <path id="Path_1639" data-name="Path 1639" d="M286.445,1738.745s-1.907,2.686-1.74,3.535c.089.456.49,1.051.26,1.479a1.162,1.162,0,0,1-.491.536l-5.951.1c-.324,0-.11-.206.152-.395a12.4,12.4,0,0,1,2.139-1.181c.089-.043.411-.249.531-.32a4.111,4.111,0,0,0,.851-.751c.428-.475,2.306-4.343,2.306-4.343Z" transform="translate(-249.74 -1558.762)" fill="#f7a491"/>
        <path id="Path_1640" data-name="Path 1640" d="M277.636,1785.773a5.4,5.4,0,0,0,3.388-.133,2.726,2.726,0,0,1,.272,1.414c-.144.42-.351.514-.532.52-1.439.037-5.265.089-6.361.1a.179.179,0,0,1-.14-.294A28.961,28.961,0,0,1,277.636,1785.773Z" transform="translate(-246.027 -1602.042)" fill="#b75742"/>
        <path id="Path_1641" data-name="Path 1641" d="M396.015,1543.5s2.365,2.7,2.964,3.123,6.384,11.074,6.384,11.074l-2.062,1.5s-5.168-6.443-7.594-9.889c-2.051-2.914-1.3-2.729-2.5-4.5a2.365,2.365,0,0,1,.363-3.084c.108-.1.227-.206.356-.309,1.786-1.489,14.028-3.164,14.028-3.164l7.83.766s-6.4,4.487-6.637,4.606S400.309,1545,400.13,1545,396.015,1543.5,396.015,1543.5Z" transform="translate(-352.407 -1380.088)" fill="#b75742"/>
        <path id="Path_1642" data-name="Path 1642" d="M357.714,1543.822s1.343,4.03-.671,5.911-13.983,1.671-17.924,1.671c0,0-1.612,4.421-1.791,5.134s-8,9.973-8,9.973l-2.149-1.374s8.412-16.359,9.073-17.076,10.029-3.582,12.357-4.239S357.714,1543.822,357.714,1543.822Z" transform="translate(-293.541 -1384.825)" fill="#f47458"/>
        <path id="Path_1643" data-name="Path 1643" d="M452.557,1408.142l7.147-1.581s2.586-3.322,5.068-6.18c.731.72,1.131,1.834,1.872,2.55l-5.456,6.036a1.044,1.044,0,0,1-.77.343l-7.575.025-2.592.206v-1.658Z" transform="translate(-403.957 -1256.393)" fill="#f7a491"/>
        <path id="Path_1644" data-name="Path 1644" d="M564.128,1390.115a36.272,36.272,0,0,0,3.557-4.161c.728-1.26.188-3.372-1.062-3.7s-5.244,5-5.244,5Z" transform="translate(-503.661 -1240.116)" fill="#96d9c9"/>
        <path id="Path_1645" data-name="Path 1645" d="M323.164,1396.73h11.788a.771.771,0,0,1,.711.477l3.629,8.852h6.5a.33.33,0,0,1,.329.329h0a.329.329,0,0,1-.329.329H327.3a1.29,1.29,0,0,1-1.177-.763l-3.655-8.141a.769.769,0,0,1,.7-1.084Z" transform="translate(-289.248 -1253.118)" fill="#b75742"/>
        <path id="Path_1646" data-name="Path 1646" d="M391.455,1439.389a.648.648,0,1,0,.486-.846A.694.694,0,0,0,391.455,1439.389Z" transform="translate(-351.192 -1290.622)" fill="#fff"/>
        <path id="Path_1647" data-name="Path 1647" d="M248.2,1495.363H212.986a.746.746,0,0,1-.746-.746h0a.746.746,0,0,1,.746-.746H248.2a.746.746,0,0,1,.746.746h0A.746.746,0,0,1,248.2,1495.363Z" transform="translate(-190.418 -1340.271)" fill="#184655"/>
        <path id="Path_1648" data-name="Path 1648" d="M561.52,1339.162l1.6-.082a.694.694,0,0,1-.707.665C561.556,1339.814,561.52,1339.162,561.52,1339.162Z" transform="translate(-503.787 -1201.396)" fill="#fff"/>
        <path id="Path_1649" data-name="Path 1649" d="M504.712,1554.222l.72-3a4.872,4.872,0,0,1,4.524-3.715l9.135-.369.282-.925-9.459.382a5.793,5.793,0,0,0-5.377,4.421l-.766,3.187C504.033,1554.208,504.35,1554.215,504.712,1554.222Z" transform="translate(-451.975 -1387.23)" fill="#355389"/>
        <path id="Path_1650" data-name="Path 1650" d="M497.154,1454.351s-12.551.215-13.858,0-1.875,1.425-1.485,2.285,1.465,1.192,3.046,1.27,14.745.449,15.114.1c.308-.288,4.294-13.929,5.745-18.918a1.882,1.882,0,0,0-1.273-2.332h0a1.885,1.885,0,0,0-2.333,1.262Z" transform="translate(-432.164 -1288.958)" fill="#184655"/>
        <rect id="Rectangle_260" data-name="Rectangle 260" width="0.62" height="30.905" transform="translate(57.168 154.732)" fill="#13375b"/>
        <rect id="Rectangle_261" data-name="Rectangle 261" width="35.026" height="0.332" transform="translate(22.607 156.733)" fill="#13375b"/>
        <path id="Path_1651" data-name="Path 1651" d="M1443.887,58.52s4.551,2.946,15.766,2.545c0,0-12.02,4.54-16.721,5.244L1441,58.672Z" transform="translate(-1292.843 -52.497)" fill="#e25a44"/>
        <path id="Path_1652" data-name="Path 1652" d="M1454.106,78.768a11.579,11.579,0,0,1-3.1,3.94L1450,78.726l.065-1.926Z" transform="translate(-1300.917 -68.898)" fill="#b75742"/>
        <path id="Path_1653" data-name="Path 1653" d="M1321.72,12.306s13.14-.887,15.184-.137l2.112,8.342A41.45,41.45,0,0,0,1324.25,22.3Z" transform="translate(-1185.826 -10.642)" fill="#f47458"/>
        <path id="Path_1654" data-name="Path 1654" d="M1206.2,904.916s-.632,1.028-.576,1.337.823,3.545,1.234,3.759,1.482.173,1.243.593c-.18.318-2.078.74-3.344.988-.37.072-1.564-2.722-1.817-3.112-.367-.568-1.234-1.837-1.15-2.318a3.753,3.753,0,0,1,.9-1.344,5.9,5.9,0,0,0,.942-1.7Z" transform="translate(-1078.222 -810.259)" fill="#f48c7f"/>
        <path id="Path_1655" data-name="Path 1655" d="M1332.284,910.767s-.215,2.316-.214,2.323c.029.351.02,1.234.1,1.542.292,1.151,4.935-2.29,3.649-2.5a1.281,1.281,0,0,1-.675-.687,2.782,2.782,0,0,1,.093-1.47Z" transform="translate(-1195.112 -816.405)" fill="#f7a491"/>
        <path id="Path_1656" data-name="Path 1656" d="M1249.68,512.72s1.343,3.715,1.357,3.772c1.561,6.169,5.831,17.89,5.891,19.112.149,2.969-2.3,18.933-2.3,18.933l-3.393.441-.074-18.352-3.34-6.548-5.72-13.17Z" transform="translate(-1114.393 -459.998)" fill="#3c8f7c"/>
        <path id="Path_1657" data-name="Path 1657" d="M1212.9,526.241l.288,3.769,2.071,15.293-2.769,16.158s1.439,1.885,2.855,1.842l6.485-17.513,1.542-20.7-1.3-4.184Z" transform="translate(-1087.827 -467.346)" fill="#50bfa5"/>
        <path id="Path_1658" data-name="Path 1658" d="M1198,919.37s3.319,4.966,4.145,5.038c.219.02,1.234-.048,1.521.333a4.632,4.632,0,0,1,.272.69l-4.168,1.2s-1.131-2.581-1.595-3.586a16.388,16.388,0,0,1-1.663-2.57C1196.566,920.215,1198,919.37,1198,919.37Z" transform="translate(-1073.486 -824.838)" fill="#13375b"/>
        <path id="Path_1659" data-name="Path 1659" d="M1331,934.01l.127-2.159a5.325,5.325,0,0,0,1.982-.034,19.3,19.3,0,0,0,1.729-.907c2.7.189,4.838.071,4.633.823h0Z" transform="translate(-1194.152 -835.192)" fill="#13375b"/>
        <path id="Path_1660" data-name="Path 1660" d="M1393.68,357.741l1.8,1.378c.345-.266,1.1-1.39,1.593-1.74l-1.645-1.79h0a.474.474,0,0,1-.191-.429,1.423,1.423,0,0,1,.045-.276c.05-.142.1-.308.148-.452s-.288-.426-.466-.476-.237.631-.314.834a22.2,22.2,0,0,0-.567,2.564Z" transform="translate(-1250.388 -317.556)" fill="#f48c7f"/>
        <path id="Path_1661" data-name="Path 1661" d="M1245.245,390.279c-.5-.538-1.216-.84-1.748-1.4l-7.969,5.487s-6.162-7.286-9.507-4.7a55.615,55.615,0,0,0,4.138,5.954c2.046,2.533,5.171,3.742,5.78,3.462C1236.633,398.763,1245.069,390.5,1245.245,390.279Z" transform="translate(-1099.966 -348.891)" fill="#13375b"/>
        <path id="Path_1662" data-name="Path 1662" d="M1071.328,182.789c.264.7.72,1.807.72,1.807.012.317.078,1.636.161,3.253l2.242-1.229a25.491,25.491,0,0,1-.258-2.781c.073-.146.243,0,.84-1.117a2.039,2.039,0,0,0,.146-.862s-.036-.661-.19-.7a.308.308,0,0,0-.352.194c-.04.12.006.382-.034.5a.827.827,0,0,1-.508.308,8.85,8.85,0,0,1-.217-1.942s.013-.558.032-.743c.016-.156.1-.617.1-.617s.084-.67-.123-.7c-.123-.014-.363.551-.5,1.137-.151.631-.206,1.287-.265,1.287-.153,0-.206-1.072-.206-1.072a3.465,3.465,0,0,0,.06-.732c.1-.3.139-.831-.116-.844a4.417,4.417,0,0,0-.3.7s-.073.482-.122.708c-.086.4-.033,1.01-.07,1.285-.031.229-.094.145-.116.156a4.656,4.656,0,0,1-.037-.727,4.339,4.339,0,0,1-.031-.706,5.152,5.152,0,0,0,.011-.751c-.026-.553-.364-.455-.423.061-.023.2-.045.411-.068.627-.085.845.016,1.637-.072,1.653a6.007,6.007,0,0,1-.213-1.428s-.273-.777-.359-.015a6.533,6.533,0,0,0,.012,1.613A6.4,6.4,0,0,0,1071.328,182.789Z" transform="translate(-960.904 -159.639)" fill="#f8a492"/>
        <path id="Path_1663" data-name="Path 1663" d="M1178.749,287.14a1.3,1.3,0,0,0-2.131.536.967.967,0,0,0-1.226.479s-1.391-.242-1.474,1.805c0,0-.706-.046-.7.786a2.045,2.045,0,0,0,.491,1.329.994.994,0,0,0-.085,1.072.94.94,0,0,0,.771.657s.274,1.065.782,1.337a1.537,1.537,0,0,0,1.131.036.729.729,0,0,0,.781.447c.541-.118,1.157-.72,1.8-.561a6.66,6.66,0,0,0,2.2-.28,2.24,2.24,0,0,0,.933-2.776,1.347,1.347,0,0,0-.1-1.878,2.333,2.333,0,0,0-.892-2.458A3.125,3.125,0,0,0,1178.749,287.14Z" transform="translate(-1052.594 -257.279)" fill="#f47458"/>
        <path id="Path_1664" data-name="Path 1664" d="M1208.145,389.926l-2.752-1.416s-2.445.357-2.748.393-.874,11.428-.925,15.695.473,4.959.473,4.959a27.137,27.137,0,0,0,6.823-.2,22.148,22.148,0,0,0,6.113-2.642s-3.526-7.762-4.338-10.22S1208.145,389.926,1208.145,389.926Z" transform="translate(-1078.16 -348.559)" fill="#f7cc7f"/>
        <path id="Path_1665" data-name="Path 1665" d="M1087.977,258.313l-9.039-7.226s-2.056-7.618-2.175-7.9-2.13-.19-2.946-.172c-.261.006,1.131,8.242,1.688,9.583.654,1.585,7.64,8.323,7.64,8.323a25.04,25.04,0,0,1,1.677,6.917c.16,4.985-.194,11.91.042,12.1,1.408.665,6.437.146,6.693-.4C1094.383,273.459,1087.977,258.313,1087.977,258.313Z" transform="translate(-963.384 -217.997)" fill="#13375b"/>
        <path id="Path_1666" data-name="Path 1666" d="M1211.806,354.48l.411,1.584s.767,2.262.2,2.785-3-2.512-3-2.512l-.279-4.107Z" transform="translate(-1084.813 -316.009)" fill="#f7a491"/>
        <path id="Path_1667" data-name="Path 1667" d="M1209.228,353.551a4.662,4.662,0,0,0,2.934,2.262l-.35-1.344-2.673-2.25Z" transform="translate(-1084.822 -316)" fill="#f47458"/>
        <path id="Path_1668" data-name="Path 1668" d="M1173.388,318.472c.075.617.489,1.084.925,1.028s.729-.6.654-1.22-.49-1.083-.925-1.028S1173.313,317.851,1173.388,318.472Z" transform="translate(-1052.735 -284.624)" fill="#f47458"/>
        <path id="Path_1669" data-name="Path 1669" d="M1193.652,296.094c.043.357.508.594,1.039.531s.925-.406.882-.763-.509-.6-1.039-.532S1193.609,295.736,1193.652,296.094Z" transform="translate(-1070.923 -264.95)" fill="#f47458"/>
        <path id="Path_1670" data-name="Path 1670" d="M1203.142,306.967a2.168,2.168,0,0,1,3.025,1.375,16.4,16.4,0,0,1,.425,2.045c.261,1.877-.49,3.826-1.345,3.93a4.059,4.059,0,0,1-3.771-3.49A3.586,3.586,0,0,1,1203.142,306.967Z" transform="translate(-1077.897 -275.21)" fill="#f7a491"/>
        <path id="Path_1671" data-name="Path 1671" d="M1197.541,341.729a.631.631,0,1,1-.705-.678A.7.7,0,0,1,1197.541,341.729Z" transform="translate(-1073.307 -305.978)" fill="#f7a491"/>
        <path id="Path_1672" data-name="Path 1672" d="M1229.6,291.825c.968.592,1.406,1.617.978,2.289a1.868,1.868,0,0,1-2.524.144c-.968-.592-1.4-1.617-.978-2.289A1.868,1.868,0,0,1,1229.6,291.825Z" transform="translate(-1100.764 -261.451)" fill="#f47458"/>
        <path id="Path_1673" data-name="Path 1673" d="M1216.965,299.634c.037.308-.3.594-.753.649s-.849-.147-.886-.45.3-.6.753-.65S1216.928,299.329,1216.965,299.634Z" transform="translate(-1090.369 -268.408)" fill="#f47458"/>
        <path id="Path_1674" data-name="Path 1674" d="M1245.494,318.042a.7.7,0,1,1-.785-.623.7.7,0,0,1,.785.623Z" transform="translate(-1116.178 -284.773)" fill="#f47458"/>
        <path id="Path_1675" data-name="Path 1675" d="M1244.043,392.5s3.821,9.031,5.18,12.214c.147.344.886,2.6.913,2.82.061.5-2.034,1.394-2.3,1.388-.234-.005-3.311-9.544-5.1-14.177a13.8,13.8,0,0,0-2.621-4.266l-.869-.72-.083-.268S1243.05,389.839,1244.043,392.5Z" transform="translate(-1111.764 -349.438)" fill="#13375b"/>
        <rect id="Rectangle_262" data-name="Rectangle 262" width="0.706" height="63.453" transform="matrix(0.969, -0.245, 0.245, 0.969, 135.151, 0.173)" fill="#13375b"/>
        <path id="Path_1676" data-name="Path 1676" d="M1409.055,362.544a2.152,2.152,0,0,0-.124-.411,1.182,1.182,0,0,0-.237-.379.732.732,0,0,1-.121-.251.429.429,0,0,0-.053-.1h0a1.011,1.011,0,0,0-.236-.227,1.064,1.064,0,0,1-.253-.275.77.77,0,0,0-.285-.251c-.113-.056-.206-.057-.241.013-.188.323-1.131,1.353-.747,1.851a12.6,12.6,0,0,1,.823,1.049c.118.27.531.251.778.157A.944.944,0,0,0,1409.055,362.544Z" transform="translate(-1262.039 -323.524)" fill="#f7a491"/>
        <rect id="Rectangle_263" data-name="Rectangle 263" width="200.074" height="0.709" transform="translate(0 185.393)" fill="#184655"/>
        <path id="Path_1677" data-name="Path 1677" d="M1288.521,253.1a.146.146,0,0,1,.227-.035c.1.1.2.206.3.308.221.225.223.241.256.235.079-.012.082-.155.078-.206a1.742,1.742,0,0,1-.033-.351.258.258,0,0,1,.432-.194c.174.142.34.294.506.447.012-.252.018-.5.035-.755a.1.1,0,0,1,.167-.074l.764.6c.039.031.206.194.252.165s.039-.206.043-.242c.024-.215.035-.291.129-.99a.117.117,0,0,1,.193-.058c.538.644.617.577.668.769a.055.055,0,0,1-.065.068c-.1-.01-.127-.02-.4-.28-.07-.067-.138-.136-.206-.206-.1.851-.1,1.068-.314,1.131-.148.044-.173,0-1.037-.682,0,.264-.016.527-.028.792a.113.113,0,0,1-.189.084c-.617-.514-.617-.548-.682-.578,0,0,0-.047-.011.019-.018.112.087.354.009.556a.341.341,0,0,1-.453.222c-.11-.053-.14-.108-.471-.427a2.987,2.987,0,0,1-.375.587.454.454,0,0,1-.221.163.121.121,0,0,1-.152-.142C1288.026,253.781,1288.242,253.725,1288.521,253.1Z" transform="translate(-1155.523 -226.01)" fill="#f47458"/>
        <path id="Path_1678" data-name="Path 1678" d="M1258.946,213.52a3.96,3.96,0,0,0,.7.061c.046,0,.133.01.164-.036.072-.112-.118-.286-.206-.72-.036-.19-.13-.579.126-.656a1.387,1.387,0,0,1,.428-.005h.308c-.182-.71-.224-.671-.151-.83a.09.09,0,0,1,.121-.036c.143.095.1.076.34.97a.14.14,0,0,1-.127.178c-.139,0-.764-.053-.841-.047a.2.2,0,0,1,0,.048,2.247,2.247,0,0,0,.206.815c.084.221.079.519-.206.582a2.774,2.774,0,0,1-.706-.016c.127.434.257.866.381,1.3a.153.153,0,0,1-.141.2c-.28-.025-.559-.04-.839-.053a2.623,2.623,0,0,0,.344.72c.111.161-.117.36-.369-.068a2.523,2.523,0,0,1-.322-.768.154.154,0,0,1,.142-.2c.278.005.555.023.832.045-.121-.433-.237-.867-.36-1.3a.143.143,0,0,1,.172-.183Z" transform="translate(-1128.797 -189.558)" fill="#66ccb2"/>
        <path id="Path_1679" data-name="Path 1679" d="M1200.981,197.466a.142.142,0,0,1-.142-.133,3.306,3.306,0,0,1,0-1.138c.04-.2.328-.123.3.071a4.028,4.028,0,0,0-.041.925,3.048,3.048,0,0,0,.667-.084.146.146,0,0,1,.186.135c-.014.245-.1,1.171-.1,1.179a.045.045,0,0,1,.024,0c.1.02.429-.049.58-.04.169.011.222.24.231.378.018.281-.192.59-.094.865s.514-.027.823.189c.24.167.156.446.059.888a.341.341,0,0,1-.157.268.073.073,0,0,1-.086-.009c-.117-.136-.057-.3.023-.7.009-.051.042-.139.006-.185-.119-.154-.471.066-.755-.119a.649.649,0,0,1-.217-.666c.029-.187.144-.418.083-.61-.16.008-.323.022-.483.017a.277.277,0,0,1-.3-.276,4.713,4.713,0,0,1,.039-.6c.01-.133.02-.265.032-.4A3.5,3.5,0,0,1,1200.981,197.466Z" transform="translate(-1077.33 -175.913)" fill="#07345a"/>
        <path id="Path_1680" data-name="Path 1680" d="M1303.5,299.415c.669.858.039,1.274-.242,1.028a.235.235,0,0,1,.015-.381c.065-.041.168.024.141.1s.052.082.083.013c.04-.094-.026-.206-.066-.291-.1-.19-.217-.44-.453-.477-.351-.056-.732.3-.54.833a.949.949,0,0,0,1.76-.045,1.156,1.156,0,0,0-.411-1.2c-.07-.054.015-.147.086-.117a1.156,1.156,0,0,1,.528,1.445,1.178,1.178,0,0,1-1.315.7,1.112,1.112,0,0,1-.96-1.195A.766.766,0,0,1,1303.5,299.415Z" transform="translate(-1168.244 -268.139)" fill="#3c8f7c"/>
        <path id="Path_1681" data-name="Path 1681" d="M1171.788,232.391c.094.14.146.425-.043.514a.155.155,0,0,1-.225-.087c-.03-.1.025-.191-.065-.269a.206.206,0,0,0-.261.028c-.219.178-.162.569-.048.789a.526.526,0,0,0,.918.053,1.207,1.207,0,0,0,.13-.382c.019-.072.135-.1.172-.027a.711.711,0,0,1-.308.831.839.839,0,0,1-.908-.013,1.084,1.084,0,0,1-.425-.932C1170.743,232.174,1171.489,231.937,1171.788,232.391Z" transform="translate(-1050.354 -208.284)" fill="#f7cc7f"/>
        <path id="Path_1682" data-name="Path 1682" d="M850.65,1204.774a.7.7,0,0,0,.949.206c.768-.382.462-.959.462-.959Z" transform="translate(-763.19 -1080.222)" fill="#fff"/>
        <path id="Path_1683" data-name="Path 1683" d="M1229,359.189a.7.7,0,0,0,.766.6c.858-.012.832-.664.832-.664Z" transform="translate(-1102.64 -322.191)" fill="#fff"/>
      </g>
    </g>
  </g>
</svg>
