<svg xmlns="http://www.w3.org/2000/svg" xmlns:xlink="http://www.w3.org/1999/xlink" width="501.449" height="501.81" viewBox="0 0 501.449 501.81">
  <defs>
    <linearGradient id="linear-gradient" x1="1.086" y1="1.014" x2="0.335" y2="0.363" gradientUnits="objectBoundingBox">
      <stop offset="0" stop-color="#dae3fe"/>
      <stop offset="1" stop-color="#e9effd"/>
    </linearGradient>
    <linearGradient id="linear-gradient-2" x1="0.629" y1="0.523" x2="1.961" y2="0.658" gradientUnits="objectBoundingBox">
      <stop offset="0" stop-color="#4f52ff"/>
      <stop offset="1" stop-color="#4042e2"/>
    </linearGradient>
    <linearGradient id="linear-gradient-3" x1="0.522" y1="-0.276" x2="0.494" y2="0.749" xlink:href="#linear-gradient-2"/>
    <linearGradient id="linear-gradient-4" x1="0.251" y1="0" x2="1.124" y2="1.56" xlink:href="#linear-gradient-2"/>
    <linearGradient id="linear-gradient-5" x1="0" y1="0.5" x2="1" y2="0.5" xlink:href="#linear-gradient"/>
    <linearGradient id="linear-gradient-8" x1="0" y1="0.499" x2="1" y2="0.499" xlink:href="#linear-gradient"/>
    <linearGradient id="linear-gradient-9" x1="0.003" y1="0.5" x2="0.997" y2="0.5" xlink:href="#linear-gradient"/>
    <linearGradient id="linear-gradient-10" x1="-0.003" y1="0.5" x2="0.997" y2="0.5" xlink:href="#linear-gradient"/>
    <linearGradient id="linear-gradient-11" x1="0.003" y1="0.5" x2="1.003" y2="0.5" xlink:href="#linear-gradient"/>
    <linearGradient id="linear-gradient-12" x1="0" y1="0.5" x2="1" y2="0.5" xlink:href="#linear-gradient"/>
    <linearGradient id="linear-gradient-13" x1="0" y1="0.5" x2="1" y2="0.5" xlink:href="#linear-gradient"/>
    <linearGradient id="linear-gradient-15" x1="31.024" y1="-0.457" x2="28.186" y2="5.932" gradientUnits="objectBoundingBox">
      <stop offset="0" stop-color="#09005d"/>
      <stop offset="1" stop-color="#1a0f91"/>
    </linearGradient>
    <linearGradient id="linear-gradient-16" x1="120.239" y1="0.531" x2="121.247" y2="0.531" gradientUnits="objectBoundingBox">
      <stop offset="0" stop-color="#febbba"/>
      <stop offset="1" stop-color="#ff928e"/>
    </linearGradient>
    <linearGradient id="linear-gradient-17" x1="39.709" y1="0.035" x2="36.692" y2="0.89" xlink:href="#linear-gradient-15"/>
    <linearGradient id="linear-gradient-18" x1="77.502" y1="-2.167" x2="70.482" y2="5.396" xlink:href="#linear-gradient-15"/>
    <linearGradient id="linear-gradient-19" x1="140.141" y1="0.549" x2="141.155" y2="0.549" xlink:href="#linear-gradient-16"/>
    <linearGradient id="linear-gradient-20" x1="26.668" y1="-0.033" x2="24.65" y2="0.81" xlink:href="#linear-gradient-15"/>
    <linearGradient id="linear-gradient-21" x1="10.668" y1="3.867" x2="10.847" y2="3.108" gradientUnits="objectBoundingBox">
      <stop offset="0" stop-color="#ff928e"/>
      <stop offset="1" stop-color="#fe7062"/>
    </linearGradient>
    <linearGradient id="linear-gradient-22" x1="23.162" y1="0.495" x2="24.155" y2="0.495" xlink:href="#linear-gradient-16"/>
    <linearGradient id="linear-gradient-23" x1="0.198" y1="1.541" x2="0.536" y2="0.206" xlink:href="#linear-gradient-16"/>
    <linearGradient id="linear-gradient-24" x1="166.91" y1="0.664" x2="168.911" y2="-1.117" xlink:href="#linear-gradient-16"/>
    <linearGradient id="linear-gradient-25" x1="28.682" y1="9.835" x2="29.132" y2="7.901" xlink:href="#linear-gradient-21"/>
    <linearGradient id="linear-gradient-26" x1="18.462" y1="0.528" x2="19.463" y2="0.528" xlink:href="#linear-gradient-16"/>
    <linearGradient id="linear-gradient-27" x1="46.159" y1="0.518" x2="47.149" y2="0.518" xlink:href="#linear-gradient-16"/>
    <linearGradient id="linear-gradient-28" x1="-17.89" y1="9.251" x2="-18.213" y2="8.185" xlink:href="#linear-gradient-16"/>
    <linearGradient id="linear-gradient-29" x1="-13.397" y1="6" x2="-13.193" y2="7.183" xlink:href="#linear-gradient-15"/>
    <linearGradient id="linear-gradient-30" x1="-59.425" y1="42.097" x2="-60.372" y2="37.484" xlink:href="#linear-gradient-16"/>
    <linearGradient id="linear-gradient-31" x1="16.531" y1="-0.062" x2="17.044" y2="2.428" xlink:href="#linear-gradient-15"/>
    <linearGradient id="linear-gradient-32" x1="55.523" y1="0.5" x2="56.523" y2="0.5" xlink:href="#linear-gradient-16"/>
    <linearGradient id="linear-gradient-33" x1="0" y1="0.5" x2="1" y2="0.5" xlink:href="#linear-gradient"/>
    <linearGradient id="linear-gradient-34" x1="0.772" y1="-6.693" x2="0.499" y2="0.843" xlink:href="#linear-gradient-2"/>
    <linearGradient id="linear-gradient-35" x1="0" y1="0.5" x2="1" y2="0.5" xlink:href="#linear-gradient-16"/>
    <linearGradient id="linear-gradient-36" x1="0.734" y1="-1.867" x2="0.424" y2="1.1" xlink:href="#linear-gradient-2"/>
    <linearGradient id="linear-gradient-37" x1="2.138" y1="-0.591" x2="0.721" y2="0.343" xlink:href="#linear-gradient-15"/>
    <linearGradient id="linear-gradient-38" x1="0" y1="0.5" x2="1" y2="0.5" xlink:href="#linear-gradient-16"/>
    <linearGradient id="linear-gradient-39" x1="0.606" y1="0.374" x2="1.656" y2="-0.715" xlink:href="#linear-gradient-15"/>
    <linearGradient id="linear-gradient-40" x1="0.367" y1="0.85" x2="0.601" y2="0.282" xlink:href="#linear-gradient-16"/>
    <linearGradient id="linear-gradient-41" x1="0.874" y1="-0.444" x2="0.71" y2="0.113" xlink:href="#linear-gradient-21"/>
    <linearGradient id="linear-gradient-42" x1="0.897" y1="-7.441" x2="0.379" y2="2.992" gradientUnits="objectBoundingBox">
      <stop offset="0" stop-color="#e1473d"/>
      <stop offset="1" stop-color="#e9605a"/>
    </linearGradient>
    <linearGradient id="linear-gradient-43" x1="0" y1="0.499" x2="1" y2="0.499" xlink:href="#linear-gradient-16"/>
    <linearGradient id="linear-gradient-44" x1="15.522" y1="3.897" x2="14.481" y2="4.648" xlink:href="#linear-gradient-16"/>
    <linearGradient id="linear-gradient-45" x1="12.333" y1="2.924" x2="13.102" y2="3.818" xlink:href="#linear-gradient-15"/>
    <linearGradient id="linear-gradient-46" x1="63.093" y1="11.359" x2="58.815" y2="13.967" xlink:href="#linear-gradient-16"/>
    <linearGradient id="linear-gradient-47" x1="53.405" y1="-895.049" x2="52.177" y2="-880.724" xlink:href="#linear-gradient-15"/>
    <linearGradient id="linear-gradient-48" x1="87.818" y1="-80.891" x2="85.195" y2="-79.592" xlink:href="#linear-gradient-15"/>
    <linearGradient id="linear-gradient-49" x1="0" y1="0.5" x2="1" y2="0.5" xlink:href="#linear-gradient-16"/>
    <linearGradient id="linear-gradient-50" x1="0.531" y1="0.006" x2="0.327" y2="3.201" xlink:href="#linear-gradient-2"/>
    <linearGradient id="linear-gradient-51" x1="0" y1="0.5" x2="1" y2="0.5" xlink:href="#linear-gradient-16"/>
    <linearGradient id="linear-gradient-52" x1="0" y1="0.5" x2="1" y2="0.5" xlink:href="#linear-gradient-15"/>
    <linearGradient id="linear-gradient-53" x1="0.554" y1="-2.158" x2="0.395" y2="6.275" xlink:href="#linear-gradient-2"/>
    <linearGradient id="linear-gradient-54" x1="0.619" y1="-0.242" x2="0.442" y2="0.664" xlink:href="#linear-gradient-15"/>
    <linearGradient id="linear-gradient-55" x1="1.915" y1="-3.074" x2="1.173" y2="-1.137" xlink:href="#linear-gradient-21"/>
    <linearGradient id="linear-gradient-56" x1="0.751" y1="1.908" x2="0.44" y2="0.311" xlink:href="#linear-gradient-16"/>
    <linearGradient id="linear-gradient-57" x1="-20.374" y1="24.868" x2="-18.973" y2="25.621" xlink:href="#linear-gradient-16"/>
    <linearGradient id="linear-gradient-58" x1="-12.275" y1="33.249" x2="-12.611" y2="36.229" xlink:href="#linear-gradient-15"/>
    <linearGradient id="linear-gradient-59" x1="-87.982" y1="80.032" x2="-82.114" y2="82.476" xlink:href="#linear-gradient-16"/>
    <linearGradient id="linear-gradient-60" x1="0.623" y1="0.5" x2="1.623" y2="0.5" xlink:href="#linear-gradient-16"/>
    <linearGradient id="linear-gradient-61" x1="0.823" y1="4.488" x2="0.083" y2="6.926" xlink:href="#linear-gradient-15"/>
    <linearGradient id="linear-gradient-62" x1="0.733" y1="0.134" x2="0.333" y2="0.8" xlink:href="#linear-gradient-15"/>
    <linearGradient id="linear-gradient-63" x1="-73.034" y1="4.474" x2="-73.018" y2="8.118" xlink:href="#linear-gradient-15"/>
    <linearGradient id="linear-gradient-64" x1="-233.064" y1="1.164" x2="-233.327" y2="-0.58" xlink:href="#linear-gradient-16"/>
    <linearGradient id="linear-gradient-65" x1="-138.403" y1="3.702" x2="-138.376" y2="7.132" xlink:href="#linear-gradient-15"/>
    <linearGradient id="linear-gradient-66" x1="-272.057" y1="1.13" x2="-272.342" y2="-0.792" xlink:href="#linear-gradient-16"/>
    <linearGradient id="linear-gradient-67" x1="-30.537" y1="0.5" x2="-29.537" y2="0.5" xlink:href="#linear-gradient-15"/>
    <linearGradient id="linear-gradient-68" x1="1.395" y1="-0.454" x2="1.164" y2="-0.188" xlink:href="#linear-gradient-21"/>
    <linearGradient id="linear-gradient-69" x1="21.792" y1="-5.861" x2="-1.008" y2="0.95" xlink:href="#linear-gradient-42"/>
    <linearGradient id="linear-gradient-70" x1="1.662" y1="-0.456" x2="0.03" y2="1.187" xlink:href="#linear-gradient-16"/>
    <linearGradient id="linear-gradient-71" x1="-33.989" y1="0.5" x2="-32.989" y2="0.5" xlink:href="#linear-gradient-16"/>
    <linearGradient id="linear-gradient-72" x1="-131.025" y1="1.029" x2="-129.736" y2="0.222" xlink:href="#linear-gradient-16"/>
    <linearGradient id="linear-gradient-73" x1="-105.056" y1="0.175" x2="-106.373" y2="1.493" xlink:href="#linear-gradient-16"/>
    <linearGradient id="linear-gradient-74" x1="-67.266" y1="0.5" x2="-66.265" y2="0.5" xlink:href="#linear-gradient-15"/>
    <linearGradient id="linear-gradient-75" x1="-333.498" y1="2.763" x2="-330.236" y2="0.44" xlink:href="#linear-gradient-16"/>
    <linearGradient id="linear-gradient-76" x1="4.031" y1="-1.794" x2="-0.073" y2="0.828" xlink:href="#linear-gradient-42"/>
    <linearGradient id="linear-gradient-77" x1="-15.702" y1="-385.15" x2="-16.473" y2="-370.981" xlink:href="#linear-gradient-2"/>
    <linearGradient id="linear-gradient-78" x1="-0.001" y1="0.499" x2="1" y2="0.499" xlink:href="#linear-gradient"/>
    <linearGradient id="linear-gradient-80" x1="-0.004" y1="0.497" x2="1.002" y2="0.497" xlink:href="#linear-gradient"/>
    <linearGradient id="linear-gradient-81" x1="0" y1="0.5" x2="1" y2="0.5" xlink:href="#linear-gradient"/>
  </defs>
  <g id="Layer_2" data-name="Layer 2" transform="translate(-0.001 0.009)">
    <g id="Illustration" transform="translate(0.001 -0.009)">
      <path id="Path_284" data-name="Path 284" d="M496.3,350.458C448.361,463.341,320.657,526.571,209.911,509.521c-18.02-2.777-67.424-11.041-111.165-50.052C14.543,384.376-3.465,235.685,64.459,130.9,113.9,54.631,202.517,11.406,286.723,13.562c18.14.465,87.653,3.336,148.742,53.71a229.071,229.071,0,0,1,46.6,52.872C523.947,185.64,527.547,276.891,496.3,350.458Z" transform="translate(-18.741 -11.042)" fill="url(#linear-gradient)"/>
      <path id="Path_285" data-name="Path 285" d="M34.681,898.9l33.641,36.823c-21.05,15.879-34.254,47.036.983,84.089l-47.373,22.961C-11.27,984.632-6.577,938.689,34.681,898.9Z" transform="translate(-0.001 -736.198)" fill="url(#linear-gradient-2)"/>
      <path id="Path_286" data-name="Path 286" d="M82.13,1476.921l32.638.525,5.861-32.146c17.919,36.819,60.289,52.206,108.763,36.5l24.484,45.5C183.91,1559.194,113.092,1542.826,82.13,1476.921Z" transform="translate(-67.265 -1183.699)" fill="#7d97f4"/>
      <path id="Path_287" data-name="Path 287" d="M1426.129,843.171c26.457-52.3,96.292-71.586,146.5-42.949l50.9-16.846c-59.448-79.3-167.468-64.255-234.576,14.99Z" transform="translate(-1137.551 -598.593)" fill="url(#linear-gradient-3)"/>
      <path id="Path_288" data-name="Path 288" d="M2243.07,1012.42l21.595,50.447c78.795-32.819,102.64-143.955,31.494-192.917l.517,32.685-33.485,6.967C2312.511,932.994,2290.535,999.287,2243.07,1012.42Z" transform="translate(-1837.075 -712.488)" fill="#91b3fa"/>
      <path id="Path_289" data-name="Path 289" d="M1466,1560.657c74.651,53.688,139.973,60.688,192.055,18.026l-36.656-13.032L1631.6,1533c-45.71,31.722-88.19,21.4-128.97-11.083Z" transform="translate(-1200.654 -1246.451)" fill="#7d97f4"/>
      <path id="Path_290" data-name="Path 290" d="M191.6,760.356v35.366l33.641,1.448c21.816-14.149,53.395-13.007,93.166-.284l23.1-51.223C281.086,719.792,231.556,725.97,191.6,760.356Z" transform="translate(-156.921 -597.654)" fill="#7d97f4"/>
      <path id="Path_291" data-name="Path 291" d="M806.678,868.969,787.78,829.6l42-11.863c27.286,14.232,49.263,31.662,66.811,51.766,19.316,42.535,45.829,78.853,78.986,94.348l-43.516.46,6.7,37.958a345.45,345.45,0,0,1-47.979-34.166L858.106,910C846.714,892.7,830.82,878.6,806.678,868.969Z" transform="translate(-645.192 -669.728)" fill="url(#linear-gradient-4)"/>
      <path id="Path_292" data-name="Path 292" d="M849.107,1078.952c-12.782,13.666-21.15,33.815-33.161,48.133-19.157,22.835-43.047,52.338-86.156,56.175l35.2,18.21-20.962,34.357c70.306-13.973,119.5-59.833,142.253-112.072V1073.48Z" transform="translate(-597.698 -879.179)" fill="#91b3fa"/>
      <path id="Path_293" data-name="Path 293" d="M1438.039,292.389l171.123-.749a2.934,2.934,0,0,1,2.959,2.95l-.362,59.9a2.93,2.93,0,0,1-3.021,2.919c-15.088-.449-169.749-2.434-172.706-2.311-2.921.123-1.334-47.179-.905-59.873A2.929,2.929,0,0,1,1438.039,292.389Z" transform="translate(-1174.701 -238.851)" fill="#7d97f4"/>
      <path id="Path_294" data-name="Path 294" d="M1619.3,365.61h-.02c-9.644-.288-102.064-1.448-146.478-1.991-12.987-.161-22.205-.275-24.663-.311h-.23l-.04-.226c-1.05-5.922-1.032-25.718.053-57.252a.612.612,0,0,1,.608-.592l171.124-.747a.619.619,0,0,1,.442.181.593.593,0,0,1,.181.436l-.362,59.9A.616.616,0,0,1,1619.3,365.61Zm-170.922-2.858c2.764.038,11.821.15,24.435.308,44.416.554,136.836,1.709,146.487,1.991h.016c.016,0,.042-.027.042-.06l.362-59.9-.063-.337v.279l-171.13.753a.058.058,0,0,0-.058.056C1447.405,336.943,1447.371,356.6,1448.375,362.752Z" transform="translate(-1185.169 -249.376)" fill="#fff"/>
      <path id="Path_295" data-name="Path 295" d="M1495.36,367.964h0c0,1.62.543,2.932,1.207,2.932h65.549c.666,0,1.207-1.312,1.207-2.932h0c0-1.62-.543-2.934-1.207-2.934h-65.554C1495.9,365.024,1495.36,366.344,1495.36,367.964Z" transform="translate(-1224.7 -298.958)" opacity="0.7" fill="url(#linear-gradient-5)"/>
      <path id="Path_296" data-name="Path 296" d="M1495.36,423.2h0c0,1.62.543,2.932,1.207,2.932h65.549c.666,0,1.207-1.312,1.207-2.932h0c0-1.629-.543-2.934-1.207-2.934h-65.554C1495.9,420.27,1495.36,421.584,1495.36,423.2Z" transform="translate(-1224.7 -344.2)" opacity="0.7" fill="url(#linear-gradient-5)"/>
      <path id="Path_297" data-name="Path 297" d="M1495.36,478.444h0c0,1.62.543,2.932,1.207,2.932h65.549c.666,0,1.207-1.312,1.207-2.932h0c0-1.629-.543-2.934-1.207-2.934h-65.554C1495.9,475.51,1495.36,476.824,1495.36,478.444Z" transform="translate(-1224.7 -389.441)" opacity="0.7" fill="url(#linear-gradient-5)"/>
      <path id="Path_298" data-name="Path 298" d="M1495.36,533.724h0c0,1.618.543,2.932,1.207,2.932h65.549c.666,0,1.207-1.314,1.207-2.932h0c0-1.629-.543-2.934-1.207-2.934h-65.554C1495.9,530.783,1495.36,532.095,1495.36,533.724Z" transform="translate(-1224.7 -434.715)" opacity="0.7" fill="url(#linear-gradient-8)"/>
      <circle id="Ellipse_12" data-name="Ellipse 12" cx="11.403" cy="11.403" r="11.403" transform="translate(343.827 59.668)" fill="#fff"/>
      <circle id="Ellipse_13" data-name="Ellipse 13" cx="11.403" cy="11.403" r="11.403" transform="translate(372.164 59.668)" fill="#fff"/>
      <circle id="Ellipse_14" data-name="Ellipse 14" cx="11.403" cy="11.403" r="11.403" transform="translate(400.503 60.043)" fill="#fff"/>
      <path id="Path_299" data-name="Path 299" d="M1927.875,350.4a7.323,7.323,0,1,1-6.775-4.541c.123,0,.246,0,.362.009v-1.855c-.123,0-.246-.009-.362-.009a9.171,9.171,0,1,0,8.478,5.656Z" transform="translate(-1565.875 -281.734)" fill="#7d97f4"/>
      <path id="Path_300" data-name="Path 300" d="M2080.786,359.385a7.323,7.323,0,1,1-3.9-13.521c.123,0,.247,0,.363.009v-1.864c-.123,0-.247-.009-.363-.009a9.18,9.18,0,1,0,4.822,16.991Z" transform="translate(-1693.447 -281.734)" fill="#7d97f4"/>
      <path id="Path_301" data-name="Path 301" d="M2240.513,357.3a7.325,7.325,0,1,1-6.063-11.443c.125,0,.248,0,.362.009v-1.855c-.121,0-.244-.009-.362-.009a9.18,9.18,0,1,0,7.56,14.386Z" transform="translate(-1822.494 -281.734)" fill="#7d97f4"/>
      <g id="Group_21" data-name="Group 21" transform="translate(343.765 87.304)" opacity="0.64">
        <path id="Path_302" data-name="Path 302" d="M1920.014,482.336h-18.582a2.112,2.112,0,1,0,0,4.223h18.582a2.112,2.112,0,1,0,0-4.223Z" transform="translate(-1899.258 -482.335)" fill="url(#linear-gradient-9)"/>
        <path id="Path_303" data-name="Path 303" d="M2077.134,482.336h-18.582a2.112,2.112,0,0,0,0,4.223h18.582a2.112,2.112,0,1,0,0-4.223Z" transform="translate(-2028.041 -482.335)" fill="url(#linear-gradient-10)"/>
        <path id="Path_304" data-name="Path 304" d="M2214.562,486.559h18.582a2.112,2.112,0,0,0,0-4.223h-18.582a2.112,2.112,0,1,0,0,4.223Z" transform="translate(-2155.712 -482.335)" fill="url(#linear-gradient-11)"/>
        <rect id="Rectangle_37" data-name="Rectangle 37" width="22.804" height="16.659" rx="8.33" transform="translate(0.062 6.569)" fill="url(#linear-gradient-12)"/>
        <rect id="Rectangle_38" data-name="Rectangle 38" width="22.804" height="16.659" rx="8.33" transform="translate(28.401 6.569)" fill="url(#linear-gradient-13)"/>
        <rect id="Rectangle_39" data-name="Rectangle 39" width="22.804" height="16.659" rx="8.33" transform="translate(56.738 6.569)" fill="url(#linear-gradient-13)"/>
      </g>
      <path id="Path_305" data-name="Path 305" d="M1039.975,2628.29s-.932,5-1.414,9.955a3.416,3.416,0,0,0,3.233,3.732c6.6.339,20.721,1.008,25.791.831a1.11,1.11,0,0,0,.992-1.513h0a2.48,2.48,0,0,0-1.267-1.354L1044.082,2629Z" transform="translate(-850.57 -2152.568)" fill="url(#linear-gradient-15)"/>
      <path id="Path_306" data-name="Path 306" d="M1042.59,2608.02l.653,6s4.069,1.942,6.878-.181l-1.629-6.7Z" transform="translate(-853.882 -2135.247)" fill="url(#linear-gradient-16)"/>
      <path id="Path_307" data-name="Path 307" d="M967.268,1988.935c-.322,1.562-2.393,78.065,5.459,112.432a1.165,1.165,0,0,1-.7,1.348,20.282,20.282,0,0,1-6.673,1.289,2,2,0,0,1-1.975-1.457c-2.263-7.979-13.084-47.945-14.183-86.036-1.227-42.564.014-1.448.014-1.448l1.209-26.292Z" transform="translate(-776.951 -1628.801)" fill="url(#linear-gradient-17)"/>
      <path id="Path_308" data-name="Path 308" d="M884.844,2641.31s-1.432,2.516-2.86,9.231a2.084,2.084,0,0,0,1.81,2.514c2.172.235,5.531.543,8.221.543a2.078,2.078,0,0,0,2.08-2.3,17.538,17.538,0,0,0-4-9.653Z" transform="translate(-722.307 -2163.231)" fill="url(#linear-gradient-18)"/>
      <path id="Path_309" data-name="Path 309" d="M891.59,2597.327l1.575,9.077s1.629,1.238,4.887.382l-.7-9.756Z" transform="translate(-730.213 -2126.967)" fill="url(#linear-gradient-19)"/>
      <path id="Path_310" data-name="Path 310" d="M859.191,1983.208c-7.075,40.307.5,99.795,3.133,111.447a1.81,1.81,0,0,0,1.448,1.392,12.2,12.2,0,0,0,5.234-.159,1.662,1.662,0,0,0,1.209-1.519c.458-9.4.346-67.115,6.8-89.863a5.182,5.182,0,0,1,2.025-2.84l12.179-8.484,1.061-13.894Z" transform="translate(-701.269 -1621.037)" fill="url(#linear-gradient-20)"/>
      <path id="Path_311" data-name="Path 311" d="M905.835,1566.631c-20.044-.523-42.216,4.862-42.216,4.862-6.308,34.81-1.761,75.073-1.761,75.073,15.481,4.217,33.051-2.172,33.051-2.172,2.715-14.549,15.144-55.449,15.144-55.449a66.017,66.017,0,0,0,24.583-7.544c-5.014-5.922-7.331-13.421-8.326-17.85A67.254,67.254,0,0,1,905.835,1566.631Z" transform="translate(-704.564 -1280.546)" fill="url(#linear-gradient-21)"/>
      <path id="Path_312" data-name="Path 312" d="M1264.17,1413.545a3.836,3.836,0,0,0-4.449-1.3c-3.077,12.433-18.643,22.39-34.571,27.177,1,4.429,3.312,11.928,8.326,17.85C1259.991,1442.7,1264.17,1413.545,1264.17,1413.545Z" transform="translate(-1003.398 -1156.424)" fill="url(#linear-gradient-22)"/>
      <path id="Path_313" data-name="Path 313" d="M1420.324,1327.343c.2.657-2.2,1.629-3.575-1.061-.036-1.285-.766-6.793.013-7.832,4.139-5.531,12.127-12.44,12.127-12.44a1.886,1.886,0,0,1,.21,2.621l-3.881,3.967a18.636,18.636,0,0,1,2.2,4.458,5.386,5.386,0,0,1-.575,3.958c-.686,1.209-1.629,2.78-2.5,4.007A5.32,5.32,0,0,1,1420.324,1327.343Z" transform="translate(-1160.036 -1069.621)" fill="url(#linear-gradient-23)"/>
      <path id="Path_314" data-name="Path 314" d="M1434.6,1356.67l-3.531,2.936-1.128,2.947,3.09,3.493s1.106-5.855,1.9-7.117S1435.323,1357.048,1434.6,1356.67Z" transform="translate(-1171.121 -1111.111)" fill="url(#linear-gradient-24)"/>
      <path id="Path_315" data-name="Path 315" d="M786.376,1626.915l-7.5-19.485s-18.846,12.543-22.082,28.645a44.052,44.052,0,0,1,16.238,4.525C774.486,1632.989,786.376,1626.915,786.376,1626.915Z" transform="translate(-619.811 -1316.484)" fill="url(#linear-gradient-25)"/>
      <path id="Path_316" data-name="Path 316" d="M800.45,1774.917s-21.137,11.682-28.133,1.468a7.994,7.994,0,0,1-1.4-6.21,44.525,44.525,0,0,0-16.238-4.525,22.274,22.274,0,0,0,2.275,15.285c12.208,22.848,46.231-.814,46.231-.814Z" transform="translate(-617.696 -1446.066)" fill="url(#linear-gradient-26)"/>
      <path id="Path_317" data-name="Path 317" d="M970.863,1489.58l-6.554,18.386a.664.664,0,0,0,.3.8c1.729.977,7.964,3.815,15.566-.9a3.135,3.135,0,0,0,1.462-2.223l2.217-15.944Z" transform="translate(-789.737 -1219.965)" fill="url(#linear-gradient-27)"/>
      <path id="Path_318" data-name="Path 318" d="M1004.087,1395.94s6.878,13.251,5.93,18.569-9.626,4.853-17.164.454l-5.162-14.286Z" transform="translate(-808.919 -1143.273)" fill="url(#linear-gradient-28)"/>
      <path id="Path_319" data-name="Path 319" d="M949.424,1364.537a.543.543,0,0,0,.244-.793,14.132,14.132,0,0,1-1.91-4.163s-1.251-.818,3.224-1.844,11.146-2.621,12.581-6.408c1.4-3.692-2.1-13.043-7.884-5.674a.543.543,0,0,1-.861,0c-.927-1.229-3.367-3.785-6.8-2.282-3.214,1.406-3.6,3.749-3.566,4.932a.543.543,0,0,1-.644.543c-1.616-.324-5.5-.626-7.35,3.343-1.526,3.258-.572,5.135.3,6.053a.543.543,0,0,1-.241.905c-1.068.315-2.451,1.2-2.337,3.7.158,3.448,4.013,3.182,5.111,3.035a.543.543,0,0,1,.481.181c.93,1.05,5.126,5.51,9.709,6.087a.543.543,0,0,0,.581-.724l-1.929-5.792a.543.543,0,0,1,.3-.674Z" transform="translate(-765.088 -1099.836)" fill="url(#linear-gradient-29)"/>
      <path id="Path_320" data-name="Path 320" d="M998.495,1459.155s-4.954-3.47-5.347-.592,4.453,4.217,6.867,3.166Z" transform="translate(-813.37 -1193.627)" fill="url(#linear-gradient-30)"/>
      <path id="Path_321" data-name="Path 321" d="M985.614,1721.781l11.515-40.209a1.175,1.175,0,0,1,.992-.845c2.085-.243,8.13-.927,15.11-1.517,8.406-.711,18.169-1.287,24-.8a1.175,1.175,0,0,1,.963,1.692c-3.318,6.712-16.963,34.014-23.8,42.958a1.18,1.18,0,0,1-.948.465l-26.717-.248a1.176,1.176,0,0,1-1.119-1.5Z" transform="translate(-807.181 -1374.469)" fill="url(#linear-gradient-31)"/>
      <path id="Path_322" data-name="Path 322" d="M996.168,1803.137s-1.6-6.6-.956-8.936,1.9-5.347,6.078-4.679a61.128,61.128,0,0,1,9.108,2.429,2.391,2.391,0,0,1-3.425,2.063l1.969,1.524s-.282,2.44-2.965,1.137l1.832,2.02a2.137,2.137,0,0,1-3.126.724C1002.709,1798.138,1001.764,1803.932,996.168,1803.137Z" transform="translate(-814.953 -1465.54)" fill="url(#linear-gradient-32)"/>
      <path id="Path_323" data-name="Path 323" d="M1134.16,1734.709a3.379,3.379,0,1,0,3.379-3.379A3.379,3.379,0,0,0,1134.16,1734.709Z" transform="translate(-928.877 -1417.958)" fill="#91b3fa"/>
      <path id="Path_324" data-name="Path 324" d="M1052.731,1705.161l-.862-.255,2.353-7.951a3.62,3.62,0,0,1,2.73-2.534c7.421-1.553,27-1.868,27.829-1.88l.015.905c-.2,0-20.314.328-27.661,1.861a2.731,2.731,0,0,0-2.051,1.915Z" transform="translate(-861.482 -1386.189)" fill="url(#linear-gradient-33)"/>
      <path id="Path_325" data-name="Path 325" d="M272.658,2384c-1.227,1.81-6.105,42.937-6.878,58.123a1.8,1.8,0,0,0,1.8,1.884h0a1.81,1.81,0,0,0,1.779-1.522l8.921-57.176Z" transform="translate(-217.672 -1952.495)" fill="#7d97f4"/>
      <path id="Path_326" data-name="Path 326" d="M495,2384c1.227,1.81,6.105,42.937,6.869,58.123a1.8,1.8,0,0,1-1.8,1.884h0a1.8,1.8,0,0,1-1.777-1.522L489.37,2385.3Z" transform="translate(-400.794 -1952.495)" fill="#7d97f4"/>
      <path id="Path_327" data-name="Path 327" d="M263,2339.831v.449a6.112,6.112,0,0,0,6.228,5.932l41.241.7a6.161,6.161,0,0,0,6.456-5.6l.022-.409a6.086,6.086,0,0,0-6.217-6.167L269.471,2334A6.153,6.153,0,0,0,263,2339.831Z" transform="translate(-215.396 -1911.54)" fill="#7d97f4"/>
      <path id="Path_328" data-name="Path 328" d="M688.586,2691.4c-7.33,0-10.574-.628-12.026-1.2a2.784,2.784,0,0,0,2.715,2.154H705.2a1.267,1.267,0,0,0,1.216-1.593C703.464,2691,697.183,2691.4,688.586,2691.4Z" transform="translate(-554.103 -2203.273)" fill="#7d97f4"/>
      <path id="Path_329" data-name="Path 329" d="M706.088,2662.3a1.254,1.254,0,0,0-.212-.442c-1.977-2.521-5.946-6.483-11.343-6.407-7.908.112-10.666.97-16.811.049l-1.448,4.8a2.768,2.768,0,0,0-.045,1.434c1.448.573,4.7,1.2,12.026,1.2C696.851,2662.945,703.132,2662.542,706.088,2662.3Z" transform="translate(-553.771 -2174.816)" fill="url(#linear-gradient-34)"/>
      <path id="Path_330" data-name="Path 330" d="M686.589,2627.12l-1.779,6.053s3.942,1.794,7.41.362l.681-5.249Z" transform="translate(-560.86 -2151.61)" fill="url(#linear-gradient-35)"/>
      <path id="Path_331" data-name="Path 331" d="M945.813,2623.011c-5.714,4.593-8.635,6.136-10.123,6.6a2.779,2.779,0,0,0,3.455-.025l20.218-16.245a1.256,1.256,0,0,0-.045-1.991C957.16,2613.381,952.518,2617.621,945.813,2623.011Z" transform="translate(-766.331 -2138.695)" fill="#7d97f4"/>
      <path id="Path_332" data-name="Path 332" d="M946.992,2607.869a1.217,1.217,0,0,0-.442-.21c-3.111-.724-8.675-1.307-12.837,2.132-6.094,5.041-7.709,7.434-13.074,10.569L922.5,2625a2.728,2.728,0,0,0,.86,1.14c1.488-.463,4.409-2.008,10.123-6.6C940.192,2614.146,944.834,2609.906,946.992,2607.869Z" transform="translate(-754.005 -2135.219)" fill="url(#linear-gradient-36)"/>
      <path id="Path_333" data-name="Path 333" d="M446.112,2246.12s43.891,3.584,52.9,7.823-7.34,63.65-7.34,63.65-2.451,1.18-7.906-.516c0,0,5.595-43.84,1.432-53.346l-47.523-7.774Z" transform="translate(-358.452 -1839.571)" fill="url(#linear-gradient-37)"/>
      <path id="Path_334" data-name="Path 334" d="M896.54,2622.508c.407.373,4.362,8.346,4.362,8.346s4.4-.952,5.3-3.738l-3.966-7.2Z" transform="translate(-734.267 -2145.713)" fill="url(#linear-gradient-38)"/>
      <path id="Path_335" data-name="Path 335" d="M332.032,2244.09a22.25,22.25,0,0,0-1.372,8.017,12.022,12.022,0,0,0,11.484,11.765l51.887,2.366a2.491,2.491,0,0,1,2.3,1.872c1.22,4.715,7.178,19.2,36.312,48.1a2.352,2.352,0,0,0,2.9.317l4.147-2.619a.954.954,0,0,0,.315-1.291l-30.211-51.585a11.689,11.689,0,0,0-7.1-5.267l-44.224-11.306Z" transform="translate(-270.809 -1837.908)" fill="url(#linear-gradient-39)"/>
      <path id="Path_336" data-name="Path 336" d="M569.982,1798.85s-5.558,9.828-11.222,14.589l11.714,6.536s2.639-10.4,8.67-13.45Z" transform="translate(-457.625 -1473.257)" fill="url(#linear-gradient-40)"/>
      <path id="Path_337" data-name="Path 337" d="M333.05,1938.371s14.008,3.414,27.378,0c0,0,18.708-25.15,25.946-32,0,0,11.546,18.218,37.243,20.8l1.434-3.2s-20.453-9.432-26.755-23.923-8.829-20.67-14.558-24.451c-3.569-2.353-5.705-3.962-6.809-4.842a1.835,1.835,0,0,0-2.1-.132C368.749,1874.331,340.136,1893.928,333.05,1938.371Z" transform="translate(-272.768 -1531.822)" fill="url(#linear-gradient-41)"/>
      <path id="Path_338" data-name="Path 338" d="M587.865,2003.278a.9.9,0,0,1-.713-.351,56.148,56.148,0,0,1-7.048-12.489.9.9,0,1,1,1.678-.643,55.062,55.062,0,0,0,6.8,12.047.905.905,0,0,1-.713,1.448Z" transform="translate(-475.019 -1629.08)" fill="url(#linear-gradient-42)"/>
      <path id="Path_339" data-name="Path 339" d="M824.89,2144.169l2.9-.771,8.782-2.033a4.075,4.075,0,0,1,3.086.52l7.548,4.758-20.844-.042Z" transform="translate(-675.585 -1753.691)" fill="url(#linear-gradient-43)"/>
      <path id="Path_340" data-name="Path 340" d="M598.358,1717.44s5.4,8.979,6.335,13.937,2.44,8.065-3.2,9.839-10.9-.471-14.192-5.1c0,0-5.146-7.13-4.632-10.395S598.358,1717.44,598.358,1717.44Z" transform="translate(-477.175 -1406.582)" fill="url(#linear-gradient-44)"/>
      <path id="Path_341" data-name="Path 341" d="M554.616,1684.218l.724-.1s-3.825-5.779-1.321-7.213,12.7-4.952,14.48-8.969a6.975,6.975,0,0,0-3.926-9.16.391.391,0,0,0-.471.248l-.181.489a.4.4,0,0,1-.735.02h0a.393.393,0,0,0-.724-.015c-.543,1.2-2.183,3.258-7.088,4.849-6.959,2.255-11.294,5.765-10.76,10.71a.4.4,0,0,1-.567.4c-.568-.252-1.432-.292-2.432.8-1.741,1.906-.376,6.072,4.38,9.021a.395.395,0,0,1,.063.632c-.711.608-1.712,1.968,1.506,3.178,3.292,1.238,5.088.82,5.752.554a.4.4,0,0,0,.244-.445l-.845-4.333a.394.394,0,0,1,.337-.469Z" transform="translate(-442.989 -1358.527)" fill="url(#linear-gradient-45)"/>
      <path id="Path_342" data-name="Path 342" d="M593.087,1785.094s-2.384-5.875-4.887-3.8,2.315,6.632,4.538,6.57Z" transform="translate(-481.16 -1458.515)" fill="url(#linear-gradient-46)"/>
      <path id="Path_343" data-name="Path 343" d="M771.6,2175.337h.1l44.55-.045a1.991,1.991,0,1,0,0-3.982l-44.551.043a1.992,1.992,0,1,0-.1,3.982Z" transform="translate(-630.349 -1778.302)" fill="url(#linear-gradient-47)"/>
      <path id="Path_344" data-name="Path 344" d="M1036.395,1947.8c-.016.031-.031.061-.045.092l-18.744,40.416a1.991,1.991,0,1,0,3.611,1.672l18.744-40.414a1.991,1.991,0,0,0-3.566-1.766Z" transform="translate(-833.243 -1594.396)" fill="url(#linear-gradient-48)"/>
      <rect id="Rectangle_40" data-name="Rectangle 40" width="4.702" height="50.85" transform="translate(315.108 437.652)" fill="#7d97f4"/>
      <path id="Path_345" data-name="Path 345" d="M1681.343,2690.461H1640.16a3.061,3.061,0,0,1,3.061-3.061h35.062A3.061,3.061,0,0,1,1681.343,2690.461Z" transform="translate(-1343.292 -2200.98)" fill="#7d97f4"/>
      <rect id="Rectangle_41" data-name="Rectangle 41" width="51.779" height="14.685" rx="7.342" transform="translate(292.383 426.258)" fill="#7d97f4"/>
      <path id="Path_346" data-name="Path 346" d="M1487.029,2230.64a40.982,40.982,0,0,0-14.842,6.335,3.917,3.917,0,0,0-1.729,3.743c.941,7.45,4.809,31.566,17.557,55.122a5.935,5.935,0,0,1,.568,4.069l-2.215,10.317-4.109,3.852h10.583l7.048-19.07-3.014-.952a5.7,5.7,0,0,1-3.982-5.338l-.353-20.453a23.277,23.277,0,0,0-5.589-15.4l16.9-.823Z" transform="translate(-1204.282 -1826.893)" fill="url(#linear-gradient-49)"/>
      <path id="Path_347" data-name="Path 347" d="M1512.739,2602.635c-.963,1.267,10.375,2.927,16.109.167,0,0,7.941-13.816,7.941-20.929,0,0-.63-1.448-5.293-1.121,0,0-2.666,16.357-5.483,18.191s-7.875.181-7.875.181S1514.158,2600.774,1512.739,2602.635Z" transform="translate(-1238.887 -2113.595)" fill="url(#linear-gradient-50)"/>
      <path id="Path_348" data-name="Path 348" d="M1324.057,2265.049c-.091-.156-18.2-2.172-18.2-2.172a41.779,41.779,0,0,1-1.267,13.086c-1.859,7.581-28.439,40.418-28.439,40.418l2.787,8.836a44.845,44.845,0,0,1-25.441,1.531l17.276-10.367s16.169-55.1,26.064-64.93l18.151-6.281Z" transform="translate(-1026.617 -1838.793)" fill="url(#linear-gradient-51)"/>
      <path id="Path_349" data-name="Path 349" d="M1561.679,2177.88s10.433,15.517,11.289,22.6-2.858,9.955-13.8,10.429-40.171.467-40.171.467l-24.942-21.317s18.176-6.485,22.9-8.326S1561.679,2177.88,1561.679,2177.88Z" transform="translate(-1223.627 -1783.682)" fill="url(#linear-gradient-52)"/>
      <path id="Path_350" data-name="Path 350" d="M1255.913,2671s3,2.907.974,6.141c0,0-23.776,4.214-30.227,2.3,0,0,1.339-3.059,8.608-6.542l-.543.411a.869.869,0,0,0,.574,1.559C1240.092,2674.591,1250.005,2673.715,1255.913,2671Z" transform="translate(-1004.635 -2187.548)" fill="url(#linear-gradient-53)"/>
      <path id="Path_351" data-name="Path 351" d="M1584.11,1631.94c21.325-3.62,31.367,13.769,30.632,17.423a.668.668,0,0,0,.838.766c2.447-.659,7.857-1.49,11.209,2.715,2.961,3.711.749,7.211-1.055,9.131a.673.673,0,0,0,.563,1.139c4.5-.568,14.283-.7,15.883,8.458,1.491,8.545-4.454,10.954-7.982,11.635a.668.668,0,0,0-.225,1.224c1.761,1.117,3.8,3.425,2.976,7.977-1.291,7.135-15.282,6.55-16.916,6.458a.667.667,0,0,1-.291-.087L1597.334,1686a.676.676,0,0,1-.329-.469l-4.525-26.127a.667.667,0,0,1,.181-.581l-14.609-20.616C1572.75,1637.421,1583.86,1631.982,1584.11,1631.94Z" transform="translate(-1291.252 -1336.154)" fill="url(#linear-gradient-54)"/>
      <path id="Path_352" data-name="Path 352" d="M1614.247,1912.031s-12.149-11.568-18.129-19.231a16.26,16.26,0,0,1-2.753-14.632c2.729-9.2,7.582-18.724,8.026-20.209.677-2.271,14.3-2.172,14.3-2.172s26.806,17.4,37.339,46.868l-11.827,3.669s-7-11.741-13.915-19.208c0,0,11.966,15.808,12.388,22.279Z" transform="translate(-1304.412 -1519.888)" fill="url(#linear-gradient-55)"/>
      <path id="Path_353" data-name="Path 353" d="M1631.67,1768.445c.141.472,3.7,12.261,3.982,12.505s7.8.648,11.338-1.77L1638.2,1762Z" transform="translate(-1336.338 -1443.077)" fill="url(#linear-gradient-56)"/>
      <path id="Path_354" data-name="Path 354" d="M1551.549,1694.043s-1.719,6.753,3.035,15.836,10.136,9.072,13.077,6.165,6.57-7.839,5.709-16.621S1554.031,1685.455,1551.549,1694.043Z" transform="translate(-1270.472 -1383.821)" fill="url(#linear-gradient-57)"/>
      <path id="Path_355" data-name="Path 355" d="M1534.237,1661.84s-7.886-12.058-15.283-2.568l-.134,3.452s-8.663-1.028-7.146-8.972,9-12.907,18.643-9.466,15.166,6.969,15.787,13.879-4.875,5.394-4.875,5.394-1.792-4.865-4.344-5.37-1.886,3.287-1.886,3.287Z" transform="translate(-1237.915 -1345.76)" fill="url(#linear-gradient-58)"/>
      <path id="Path_356" data-name="Path 356" d="M1640.208,1712.909s-4.091-6.176.1-7.1,3.542,6.018,3.09,8.583Z" transform="translate(-1341.866 -1396.99)" fill="url(#linear-gradient-59)"/>
      <path id="Path_357" data-name="Path 357" d="M1575.06,2124.941l8.925-8.6,12.35,5.216s12.292,1.9,19.325,0l7.035-1.9,15.9-4.948,2.5,7.059a4.246,4.246,0,0,1-1.551,4.887,28.245,28.245,0,0,1-4.015,2.5c-2.094.916-51.608-.634-51.608-.634Z" transform="translate(-1289.975 -1731.938)" fill="url(#linear-gradient-60)"/>
      <path id="Path_358" data-name="Path 358" d="M1516.626,2172.461h-.125l-51.781-.056a2.319,2.319,0,0,1,0-4.635l51.781.056a2.318,2.318,0,0,1,.114,4.633Z" transform="translate(-1197.761 -1775.402)" fill="url(#linear-gradient-61)"/>
      <path id="Path_359" data-name="Path 359" d="M1202.2,1934h43.118a8.222,8.222,0,0,1,7.434,4.708l19.935,42.271H1219.1a4.992,4.992,0,0,1-4.645-3.158L1199,1938.706a3.439,3.439,0,0,1,3.2-4.706Z" transform="translate(-981.78 -1583.945)" fill="url(#linear-gradient-62)"/>
      <path id="Path_360" data-name="Path 360" d="M1354.455,2034.148c.934,2.9.244,5.723-1.542,6.3s-3.982-1.312-4.927-4.217-.243-5.721,1.542-6.3S1353.521,2031.245,1354.455,2034.148Z" transform="translate(-1103.656 -1662.429)" fill="#91b3fa"/>
      <path id="Path_361" data-name="Path 361" d="M1961.187,2658.736a63.074,63.074,0,0,1,.759,6.6,2.844,2.844,0,0,1-2.563,3c-5.3.514-17.363,1.464-25.066.353a1.292,1.292,0,0,1-.71-2.224c3.177-2.959,10.847-8.717,23.472-9.975Z" transform="translate(-1583.289 -2175.664)" fill="url(#linear-gradient-63)"/>
      <path id="Path_362" data-name="Path 362" d="M2061,2618.478l-2.681,6.569a2.187,2.187,0,0,1-2.246,1.357,11.787,11.787,0,0,1-2.19-.424,2.876,2.876,0,0,1-1.911-3.576l2.022-6.764Z" transform="translate(-1680.461 -2142.208)" fill="url(#linear-gradient-64)"/>
      <path id="Path_363" data-name="Path 363" d="M2321.113,2697.8s-5.367,4.491-7.457,10.25a2.452,2.452,0,0,0,2.326,3.258h11.041a2.606,2.606,0,0,0,2.573-3.046C2328.893,2704.28,2326.865,2697.818,2321.113,2697.8Z" transform="translate(-1894.766 -2209.497)" fill="url(#linear-gradient-65)"/>
      <path id="Path_364" data-name="Path 364" d="M2355,2661.843s-1.086,4.8-1.917,7.964a1.013,1.013,0,0,1-1.325.691,9.157,9.157,0,0,0-4.02-.724.783.783,0,0,1-.862-.78l-.1-7.964Z" transform="translate(-1922.005 -2179.383)" fill="url(#linear-gradient-66)"/>
      <path id="Path_365" data-name="Path 365" d="M2086.878,2012.927,2054.24,2112.5s6.261,4.1,9.244,3.93l38.766-80.022s6.784,49.306,3.5,84.707l11.1.847s18.057-90.46,4.38-121.451Z" transform="translate(-1682.423 -1638.417)" fill="url(#linear-gradient-67)"/>
      <path id="Path_366" data-name="Path 366" d="M2311.169,2145.744h.04a.317.317,0,0,0,.273-.353l-1.267-10.053a.316.316,0,1,0-.626.078l1.267,10.054a.317.317,0,0,0,.313.273Z" transform="translate(-1891.552 -1748.614)" fill="#91b3fa"/>
      <path id="Path_367" data-name="Path 367" d="M2056.968,1585s26.442,2.353,22.7,21.19c0,0,14.616,27.512,21.45,59.911a1.9,1.9,0,0,1-1.546,2.264l-44.037,7.541a2.371,2.371,0,0,1-2.7-1.743l-10.521-40.654-4.1,18.907-13.032-3.394,10.967-55.556S2037.69,1585.362,2056.968,1585Z" transform="translate(-1658.631 -1298.114)" fill="url(#linear-gradient-68)"/>
      <path id="Path_368" data-name="Path 368" d="M2100.507,1763.745a.308.308,0,0,0,.07,0,.327.327,0,0,0,.25-.389l-3.671-16.855a.328.328,0,0,0-.641.139l3.671,16.855A.329.329,0,0,0,2100.507,1763.745Z" transform="translate(-1717.041 -1430.172)" fill="url(#linear-gradient-69)"/>
      <path id="Path_369" data-name="Path 369" d="M2092.1,1988.763a6.289,6.289,0,0,1,4.546-.592l3.064.764a1.109,1.109,0,0,0,1.37-.954l3.171-28.221c3.964,1.882,9.683,1.658,11.57,1.521l-7.3,33.275H2083Z" transform="translate(-1705.978 -1605.042)" fill="url(#linear-gradient-70)"/>
      <path id="Path_370" data-name="Path 370" d="M1758.42,1695.034l.771-2.565a5.069,5.069,0,0,1,2.967-3.245l13.96-5.611s.21-1.79-2.95-3.006-2.422-4.757-2.422-4.757,4.319,1.969,10.639,5.093a14.775,14.775,0,0,1,6.719,7.314l31.633,38.564-3.714,2.552a9.917,9.917,0,0,1-14.377-3.528l-17.137-32.862A63.922,63.922,0,0,1,1758.42,1695.034Z" transform="translate(-1440.147 -1372.52)" fill="url(#linear-gradient-71)"/>
      <path id="Path_371" data-name="Path 371" d="M2115.314,1484.44l8.132,22.762s-7.2,5.629-12.457,3.727l-4.1-13.048S2110.021,1481.933,2115.314,1484.44Z" transform="translate(-1725.544 -1215.536)" fill="url(#linear-gradient-72)"/>
      <path id="Path_372" data-name="Path 372" d="M2019.32,1419.983c0,.351,7.833,22.178,7.833,22.178l12.37-4.737-4.353-21.792S2019.32,1414.1,2019.32,1419.983Z" transform="translate(-1653.824 -1159.255)" fill="url(#linear-gradient-73)"/>
      <path id="Path_373" data-name="Path 373" d="M2004.83,1386.815l3.189,11.292a1.647,1.647,0,0,1,.062.442c0,.92-.226,4.089-3.455,3.658-2.928-.391-5.611-.7-7.311.1a1.629,1.629,0,0,0-.845,2.036,70.292,70.292,0,0,0,4.454,10.054,1.629,1.629,0,0,0,2.1.674,52.893,52.893,0,0,0,10.6-6.237,1.642,1.642,0,0,0,.579-1.575c-.543-2.9-2.156-11.673-2.228-14.192-.067-2.353,2.585-4.163,3.752-4.845a1.6,1.6,0,0,0,.759-1.017c.362-1.522.678-4.965-3.712-5.723a1.642,1.642,0,0,1-1.332-1.953c.371-1.81.253-4.5-3.2-5.481-3.511-1-5.721,1.112-6.844,2.731a1.64,1.64,0,0,1-2.033.543,1.294,1.294,0,0,0-1.448.261,1.615,1.615,0,0,1-2.353-.362,4.892,4.892,0,0,0-6.033-1.991c-5.587,1.81-5.321,8.252-3.272,11.754s7.995,1.2,10.809-1.124c2.141-1.765,5.4-.71,6.84-.1A1.628,1.628,0,0,1,2004.83,1386.815Z" transform="translate(-1625.652 -1125.129)" fill="url(#linear-gradient-74)"/>
      <path id="Path_374" data-name="Path 374" d="M2132.169,1460.793s-3.307-6.255-1.12-8.219,5.892-1.644,5.792,3.249C2136.717,1461.908,2132.169,1460.793,2132.169,1460.793Z" transform="translate(-1744.717 -1188.734)" fill="url(#linear-gradient-75)"/>
      <path id="Path_375" data-name="Path 375" d="M2200.721,1764.785a31.928,31.928,0,0,0,3.23-.152l.236-.027,9.629-44.888a.328.328,0,1,0-.641-.138l-9.53,44.426c-1.433.125-9.084.634-13.125-2.228l8.341-39-1.741-3.28a.328.328,0,1,0-.579.306l1.628,3.077-8.38,39.181.168.127C2192.878,1764.371,2197.58,1764.785,2200.721,1764.785Z" transform="translate(-1793.439 -1408.116)" fill="url(#linear-gradient-76)"/>
      <path id="Path_376" data-name="Path 376" d="M647.778,2306.207a1.554,1.554,0,0,1-.662-.148,1.9,1.9,0,0,1-.878-2.406l35.185-89.276a1.629,1.629,0,0,1,2.2-.959,1.9,1.9,0,0,1,.878,2.406L649.32,2305.1A1.679,1.679,0,0,1,647.778,2306.207Z" transform="translate(-529.156 -1812.666)" fill="#91b3fa"/>
      <path id="Path_377" data-name="Path 377" d="M707.565,2306.2a1.68,1.68,0,0,1-1.542-1.108l-35.185-89.276a1.9,1.9,0,0,1,.878-2.406,1.628,1.628,0,0,1,2.2.959l35.185,89.276a1.9,1.9,0,0,1-.878,2.405A1.558,1.558,0,0,1,707.565,2306.2Z" transform="translate(-549.306 -1812.661)" fill="#91b3fa"/>
      <path id="Path_378" data-name="Path 378" d="M1967.072,2306.207a1.558,1.558,0,0,1-.663-.148,1.9,1.9,0,0,1-.878-2.406l35.185-89.276a1.628,1.628,0,0,1,2.2-.959,1.9,1.9,0,0,1,.878,2.406l-35.184,89.276A1.68,1.68,0,0,1,1967.072,2306.207Z" transform="translate(-1609.659 -1812.666)" fill="#91b3fa"/>
      <path id="Path_379" data-name="Path 379" d="M2026.855,2306.2a1.679,1.679,0,0,1-1.542-1.108l-35.185-89.276a1.9,1.9,0,0,1,.878-2.406,1.629,1.629,0,0,1,2.2.959l35.184,89.276a1.9,1.9,0,0,1-.878,2.405,1.562,1.562,0,0,1-.662.149Z" transform="translate(-1629.805 -1812.661)" fill="#91b3fa"/>
      <path id="Path_380" data-name="Path 380" d="M1946.45,2160.758h50.961V2155.5H1946.45C1947.541,2155.5,1947.541,2160.758,1946.45,2160.758Z" transform="translate(-1594.143 -1765.353)" fill="#bdd0fb"/>
      <path id="Path_381" data-name="Path 381" d="M1989.671,2155.373a.606.606,0,0,0,.6-.6v-4.049a.607.607,0,0,0-.6-.6h-51.3a.6.6,0,1,1,0-1.189H1993.2a2.2,2.2,0,0,1,2.2,2.2v3.361a2.075,2.075,0,0,1-2.074,2.074h-54.953a.6.6,0,1,1,0-1.189Z" transform="translate(-1587.008 -1759.968)" fill="url(#linear-gradient-77)"/>
      <path id="Path_382" data-name="Path 382" d="M858.022,2193.37a1.552,1.552,0,0,0-.637-1.656,3.771,3.771,0,0,0-2.329-.724H549.708a4.128,4.128,0,0,0-2.927,1.062,1.663,1.663,0,0,0-.228,2.21l3.309,4.749a5.169,5.169,0,0,0,4.206,1.785H852.961c1.68,0,3.124-.791,3.439-1.884Z" transform="translate(-447.366 -1794.42)" fill="#91b3fa"/>
      <g id="Group_22" data-name="Group 22" transform="translate(140.709 0)" opacity="0.3">
        <path id="Path_383" data-name="Path 383" d="M932.635,87.4a1.788,1.788,0,0,1-1.386-2.114c.391-1.879.706-3.8.938-5.716A1.787,1.787,0,0,1,934.139,78h.034a1.788,1.788,0,0,1,1.562,1.991c-.244,2.015-.576,4.038-.986,6.015a1.788,1.788,0,0,1-1.928,1.415A1.655,1.655,0,0,1,932.635,87.4Zm.034-17.224c-.033-1.926-.148-3.87-.342-5.779a1.787,1.787,0,1,1,3.555-.362c.206,2.007.328,4.054.362,6.082a1.788,1.788,0,0,1-1.758,1.81,2.039,2.039,0,0,1-.212,0A1.788,1.788,0,0,1,932.669,70.175Zm-1.948-15.043c-.458-1.866-1-3.734-1.629-5.555a1.788,1.788,0,1,1,3.387-1.149c.65,1.917,1.225,3.886,1.708,5.85a1.788,1.788,0,1,1-3.472.854ZM925.46,40.9c-.865-1.719-1.81-3.419-2.825-5.055a1.788,1.788,0,1,1,3.044-1.877c1.061,1.723,2.062,3.515,2.974,5.323A1.788,1.788,0,0,1,925.46,40.9Zm-8.3-12.7c-1.224-1.481-2.534-2.929-3.875-4.3a1.788,1.788,0,1,1,2.554-2.5c1.417,1.448,2.789,2.972,4.076,4.525a1.787,1.787,0,1,1-2.755,2.277ZM906.254,17.647c-1.522-1.175-3.113-2.3-4.729-3.339a1.788,1.788,0,1,1,1.935-3.006c1.7,1.1,3.377,2.279,4.979,3.515a1.788,1.788,0,1,1-2.185,2.831ZM840.913,5.973a1.788,1.788,0,0,1,1.122-2.266c1.915-.637,3.884-1.213,5.855-1.694a1.788,1.788,0,0,1,.847,3.473c-1.87.456-3.741,1-5.56,1.615a1.788,1.788,0,0,1-2.266-1.122Zm52.38,3.8c-1.745-.805-3.546-1.546-5.352-2.2a1.787,1.787,0,0,1,1.216-3.361c1.9.688,3.8,1.468,5.635,2.317a1.788,1.788,0,0,1-.932,3.417,1.755,1.755,0,0,1-.568-.161ZM856.055,2.3a1.788,1.788,0,0,1,1.6-1.957c2.007-.2,4.054-.319,6.08-.349a1.788,1.788,0,1,1,.054,3.575c-1.926.029-3.872.141-5.792.333a1.84,1.84,0,0,1-.362,0,1.786,1.786,0,0,1-1.58-1.6ZM878.9,5.013c-1.879-.4-3.8-.715-5.711-.95a1.787,1.787,0,0,1,.4-3.551h.038c2.011.246,4.035.583,6.011,1a1.788,1.788,0,0,1-.543,3.529.868.868,0,0,1-.2-.02Z" transform="translate(-829.339 0.009)" fill="#bdd0fb"/>
        <path id="Path_384" data-name="Path 384" d="M779.006,45.6a1.792,1.792,0,0,0,1.044-.215q1.211-.673,2.463-1.3a1.787,1.787,0,1,0-1.607-3.193c-.871.438-1.743.9-2.59,1.37a1.788,1.788,0,0,0,.69,3.341Z" transform="translate(-777.398 -33.326)" fill="#bdd0fb"/>
      </g>
      <g id="Group_23" data-name="Group 23" transform="translate(104.891 48.912)" opacity="0.3">
        <path id="Path_385" data-name="Path 385" d="M593.717,276.535a1.786,1.786,0,0,0,1.906-1.32c.237-.891.5-1.79.771-2.675a1.787,1.787,0,1,0-3.414-1.061c-.29.932-.563,1.881-.813,2.818a1.788,1.788,0,0,0,1.267,2.186A1.726,1.726,0,0,0,593.717,276.535Z" transform="translate(-589.827 -270.223)" fill="#bdd0fb"/>
        <path id="Path_386" data-name="Path 386" d="M640.1,417.9a1.788,1.788,0,1,1,.543-3.535c1.859.281,3.758.487,5.667.615a1.793,1.793,0,1,1-.25,3.577q-1.24-.085-2.469-.208C642.422,418.226,641.247,418.077,640.1,417.9Zm13.8-1.021a1.788,1.788,0,0,1,1.662-1.9c1.89-.13,3.8-.34,5.663-.628a1.787,1.787,0,1,1,.543,3.533c-1.966.3-3.982.525-5.962.661a1.9,1.9,0,0,1-.3,0A1.79,1.79,0,0,1,653.894,416.883Zm-23.3-1.086c-1.908-.567-3.817-1.218-5.676-1.942a1.787,1.787,0,0,1,1.3-3.33c1.765.688,3.578,1.307,5.39,1.841a1.788,1.788,0,0,1-.684,3.493,1.739,1.739,0,0,1-.328-.065Zm38.455-1.247a1.786,1.786,0,0,1,1.2-2.224c1.81-.543,3.62-1.166,5.385-1.857a1.788,1.788,0,0,1,1.309,3.327c-1.853.724-3.763,1.386-5.673,1.957a1.781,1.781,0,0,1-2.223-1.2ZM616.11,409.7c-1.736-.968-3.455-2.024-5.11-3.139a1.788,1.788,0,0,1,1.991-2.965c1.571,1.059,3.2,2.063,4.853,2.981A1.788,1.788,0,1,1,616.1,409.7Zm-12.8-9.115c-1.486-1.329-2.932-2.733-4.3-4.177a1.787,1.787,0,1,1,2.6-2.458c1.3,1.372,2.675,2.715,4.087,3.969a1.788,1.788,0,0,1-2.382,2.666Zm-10.5-11.689c-1.162-1.629-2.268-3.307-3.289-5.014a1.791,1.791,0,1,1,3.077-1.835c.968,1.629,2.02,3.225,3.124,4.766a1.788,1.788,0,0,1-2.9,2.083Zm-7.7-13.7c-.78-1.834-1.49-3.723-2.11-5.611a1.788,1.788,0,1,1,3.4-1.115c.588,1.8,1.267,3.589,2,5.332a1.788,1.788,0,1,1-3.291,1.4ZM580.6,360.132c-.362-1.957-.632-3.955-.82-5.939a1.787,1.787,0,1,1,3.558-.34c.181,1.886.442,3.783.778,5.642a1.787,1.787,0,1,1-3.517.637Zm-1.086-15.671c.06-1.464.163-2.947.311-4.4q.079-.79.181-1.575A1.768,1.768,0,0,1,582,336.93a1.79,1.79,0,0,1,1.557,1.991q-.092.747-.168,1.5c-.141,1.385-.241,2.791-.295,4.183a1.79,1.79,0,0,1-1.864,1.718l-.11-.009a1.786,1.786,0,0,1-1.605-1.848Z" transform="translate(-579.512 -324.843)" fill="#bdd0fb"/>
        <path id="Path_387" data-name="Path 387" d="M1153.543,716.837a1.781,1.781,0,0,0,1.053-.221c.844-.472,1.693-.974,2.525-1.488a1.788,1.788,0,1,0-1.877-3.043c-.791.489-1.6.965-2.4,1.414a1.788,1.788,0,0,0,.7,3.338Z" transform="translate(-1048.326 -631.867)" fill="#bdd0fb"/>
      </g>
      <path id="Path_388" data-name="Path 388" d="M773.554,182.591a.834.834,0,0,0,.159-.956l-4.456-9.14a44.294,44.294,0,0,0,5.5-13.256l9.606-3.314a.832.832,0,0,0,.563-.789v-12.2a.836.836,0,0,0-.563-.791l-9.606-3.307a44.314,44.314,0,0,0-5.5-13.26l4.453-9.14a.836.836,0,0,0-.161-.957l-8.625-8.623a.836.836,0,0,0-.956-.161l-9.142,4.449a44.3,44.3,0,0,0-13.262-5.49l-3.309-9.606a.835.835,0,0,0-.789-.563H725.274a.838.838,0,0,0-.791.565l-3.31,9.606a44.3,44.3,0,0,0-13.257,5.5l-9.14-4.453a.838.838,0,0,0-.958.161l-8.626,8.626a.836.836,0,0,0-.161.956l4.454,9.142a44.311,44.311,0,0,0-5.5,13.251l-9.606,3.314a.834.834,0,0,0-.563.789v12.2a.834.834,0,0,0,.563.789l9.605,3.314a44.312,44.312,0,0,0,5.5,13.262l-4.453,9.142a.836.836,0,0,0,.161.956l8.625,8.623a.836.836,0,0,0,.958.161l9.14-4.454a44.3,44.3,0,0,0,13.256,5.482l3.312,9.606a.836.836,0,0,0,.791.563h12.2a.834.834,0,0,0,.789-.563l3.312-9.607a44.315,44.315,0,0,0,13.255-5.5l9.142,4.453a.833.833,0,0,0,.956-.161Z" transform="translate(-555.135 -78.205)" fill="#bdd0fb"/>
      <path id="Path_389" data-name="Path 389" d="M915.316,347.864a12.246,12.246,0,1,1,1.774.313,12.246,12.246,0,0,1-1.774-.313Zm-1.81-19.957a9.4,9.4,0,1,0,7.11-1.039,9.511,9.511,0,0,0-1.374-.243,9.338,9.338,0,0,0-5.745,1.285Z" transform="translate(-742.078 -265.146)" fill="url(#linear-gradient-78)"/>
      <path id="Path_390" data-name="Path 390" d="M833.274,283.844a30.771,30.771,0,0,0,3.093.156h0q.492,0,.983-.016a30.17,30.17,0,0,0,4.8-.543l.065-.013.181-.036.362-.074a.713.713,0,1,0-.3-1.394,28.732,28.732,0,0,1-34.8-28.055c0-.992.051-1.978.148-2.952a28.714,28.714,0,1,1,53.21,17.676.738.738,0,0,0-.1.3.724.724,0,0,0,1.325.44,30.148,30.148,0,1,0-55.861-18.581,30.85,30.85,0,0,0-.156,3.105,30.15,30.15,0,0,0,27.049,29.986Z" transform="translate(-660.295 -183.217)" fill="url(#linear-gradient-13)"/>
      <g id="Group_24" data-name="Group 24" transform="translate(252.473 74.113)" opacity="0.3">
        <path id="Path_391" data-name="Path 391" d="M1653.689,754.261a1.1,1.1,0,0,0,1.133-.682c.362-.869.686-1.759.986-2.648a1.1,1.1,0,1,0-2.092-.708c-.286.847-.6,1.7-.939,2.523a1.1,1.1,0,0,0,.606,1.448A1.172,1.172,0,0,0,1653.689,754.261Z" transform="translate(-1606.029 -687.929)" fill="#bdd0fb"/>
        <path id="Path_392" data-name="Path 392" d="M1444.9,467.641a1.1,1.1,0,0,1-.86-1.3,46.038,46.038,0,0,0,.7-4.579q.049-.483.087-.972a1.1,1.1,0,0,1,1.189-1.012,1.142,1.142,0,0,1,1.019,1.182c-.029.34-.058.679-.092,1.017a48.32,48.32,0,0,1-.735,4.8,1.1,1.1,0,0,1-1.191.876A.313.313,0,0,1,1444.9,467.641Zm.034-12.46a45.967,45.967,0,0,0-.577-5.577,1.1,1.1,0,0,1,2.172-.362,47.794,47.794,0,0,1,.607,5.844,1.106,1.106,0,0,1-1.057,1.151,1.155,1.155,0,0,1-.159,0A1.1,1.1,0,0,1,1444.931,455.181Zm-1.843-11.041a45.576,45.576,0,0,0-1.931-5.265,1.1,1.1,0,1,1,2.022-.887,47.327,47.327,0,0,1,2.025,5.521,1.1,1.1,0,1,1-2.116.63Zm-4.5-10.248a45.969,45.969,0,0,0-3.16-4.628,1.1,1.1,0,1,1,1.743-1.356,48.077,48.077,0,0,1,3.314,4.854,1.1,1.1,0,1,1-1.9,1.129Zm-6.865-8.838a46.165,46.165,0,0,0-4.188-3.725,1.1,1.1,0,1,1,1.363-1.736,48.247,48.247,0,0,1,4.391,3.9,1.1,1.1,0,0,1-1.566,1.558Zm-8.8-6.9a45.015,45.015,0,0,0-4.967-2.586,1.106,1.106,0,1,1,.905-2.018,47.409,47.409,0,0,1,5.209,2.715,1.1,1.1,0,0,1-1.141,1.891Zm-10.217-4.541a45.618,45.618,0,0,0-5.455-1.289,1.1,1.1,0,0,1,.375-2.172,47.855,47.855,0,0,1,5.719,1.352,1.1,1.1,0,0,1-.431,2.156A1.063,1.063,0,0,1,1412.706,413.609Zm-17.82-2.84a1.1,1.1,0,0,1,1.019-1.182,47.944,47.944,0,0,1,5.1-.109c.259,0,.516.016.775.029a1.086,1.086,0,0,1,1.048,1.157,1.106,1.106,0,0,1-1.157,1.05c-.243-.013-.485-.022-.724-.029a45.514,45.514,0,0,0-4.874.1,1,1,0,0,1-.2,0A1.1,1.1,0,0,1,1394.886,410.77Z" transform="translate(-1394.883 -409.454)" fill="#bdd0fb"/>
      </g>
      <g id="Group_25" data-name="Group 25" transform="translate(212.451 137.286)" opacity="0.3">
        <path id="Path_393" data-name="Path 393" d="M1212.94,790.352a47.978,47.978,0,0,1-5.692-1,1.1,1.1,0,1,1,.516-2.149,45.254,45.254,0,0,0,5.43.956,1.1,1.1,0,1,1-.237,2.2Zm4.664-.786a1.1,1.1,0,0,1,1.1-1.111,45.9,45.9,0,0,0,5.5-.362,1.1,1.1,0,1,1,.282,2.188,48.351,48.351,0,0,1-5.768.382h-.12a1.1,1.1,0,0,1-.99-1.1Zm-15.888-1.9a47.825,47.825,0,0,1-5.281-2.353,1.1,1.1,0,1,1,1.017-1.96,45.779,45.779,0,0,0,5.039,2.241,1.1,1.1,0,1,1-.775,2.067Zm27.108.742a1.1,1.1,0,0,1,.8-1.343,45.1,45.1,0,0,0,5.249-1.681,1.1,1.1,0,1,1,.8,2.058,47.717,47.717,0,0,1-5.51,1.765,1.108,1.108,0,0,1-1.341-.8Zm-37.346-6.062a47.96,47.96,0,0,1-4.561-3.551,1.1,1.1,0,0,1,1.461-1.658,45.147,45.147,0,0,0,4.344,3.387,1.1,1.1,0,0,1-.737,2.009,1.123,1.123,0,0,1-.507-.186Zm-8.663-7.624a48.179,48.179,0,0,1-3.578-4.538,1.1,1.1,0,1,1,1.81-1.267,46.152,46.152,0,0,0,3.417,4.328,1.1,1.1,0,1,1-1.649,1.47Zm-6.589-9.477a47.615,47.615,0,0,1-2.389-5.267,1.1,1.1,0,0,1,2.063-.789,44.9,44.9,0,0,0,2.277,5.023,1.1,1.1,0,0,1-.46,1.491,1.086,1.086,0,0,1-.626.123A1.1,1.1,0,0,1,1176.228,765.242Z" transform="translate(-1173.766 -758.476)" fill="#bdd0fb"/>
        <path id="Path_394" data-name="Path 394" d="M1537.085,889.469a1.085,1.085,0,0,0,.633-.127c.833-.447,1.654-.921,2.446-1.41a1.1,1.1,0,0,0-1.161-1.879c-.753.465-1.538.918-2.331,1.345a1.1,1.1,0,0,0,.413,2.071Z" transform="translate(-1470.511 -862.827)" fill="#bdd0fb"/>
      </g>
      <path id="Path_395" data-name="Path 395" d="M1286.5,531.195a.563.563,0,0,0,.109-.641l-2.981-6.116a29.668,29.668,0,0,0,3.676-8.869l6.429-2.217a.559.559,0,0,0,.376-.529V504.66a.552.552,0,0,0-.376-.527l-6.427-2.217a29.6,29.6,0,0,0-3.68-8.869l2.979-6.118a.558.558,0,0,0-.107-.639l-5.77-5.772a.559.559,0,0,0-.641-.107l-6.116,2.981a29.621,29.621,0,0,0-8.869-3.678l-2.221-6.418a.557.557,0,0,0-.529-.376h-8.161a.559.559,0,0,0-.528.376l-2.215,6.429a29.673,29.673,0,0,0-8.869,3.678l-6.116-2.979a.559.559,0,0,0-.641.109l-5.77,5.77a.559.559,0,0,0-.107.641l2.979,6.116a29.667,29.667,0,0,0-3.676,8.869l-6.427,2.217a.559.559,0,0,0-.378.529v8.161a.558.558,0,0,0,.377.529l6.422,2.208a29.622,29.622,0,0,0,3.678,8.869l-2.979,6.116a.559.559,0,0,0,.107.641l5.772,5.77a.557.557,0,0,0,.639.107l6.118-2.981a29.6,29.6,0,0,0,8.869,3.678l2.232,6.429a.558.558,0,0,0,.529.376h8.159a.559.559,0,0,0,.529-.376l2.217-6.429a29.612,29.612,0,0,0,8.869-3.678l6.118,2.979a.558.558,0,0,0,.639-.107Z" transform="translate(-1001.179 -387.32)" fill="#bdd0fb"/>
      <path id="Path_396" data-name="Path 396" d="M1380.841,641.62a8.3,8.3,0,1,1,1.218.215A8.592,8.592,0,0,1,1380.841,641.62Zm-3.915-9.593a6.141,6.141,0,0,0,4.454,7.459h0a6.143,6.143,0,1,0-4.454-7.459Z" transform="translate(-1125.789 -512.098)" fill="url(#linear-gradient-80)"/>
      <path id="Path_397" data-name="Path 397" d="M1323.62,596.67q1.043.1,2.113.1a20.85,20.85,0,0,0,4.215-.427l.181-.04a1.1,1.1,0,1,0-.465-2.158,18.644,18.644,0,0,1-3.935.416h-.219a18.389,18.389,0,0,1-8.791-2.319,18.614,18.614,0,0,1-4.006-3l-.031-.029c-.029-.029-.06-.058-.088-.089a18.462,18.462,0,0,1-5.446-13.144,19.105,19.105,0,0,1,.1-1.908,18.59,18.59,0,0,1,37.082,1.907,18.222,18.222,0,0,1-.094,1.886,18.53,18.53,0,0,1-2.534,7.658,1.1,1.1,0,0,0,1.9,1.135,20.766,20.766,0,0,0,2.84-8.569,21.082,21.082,0,0,0,.107-2.11,20.8,20.8,0,1,0-22.907,20.692Z" transform="translate(-1068.749 -454.687)" fill="url(#linear-gradient-81)"/>
    </g>
  </g>
</svg>
