<svg xmlns="http://www.w3.org/2000/svg" width="682.813" height="401.571" viewBox="0 0 682.813 401.571">
  <g id="Layer_2" data-name="Layer 2" transform="translate(-0.001 0.013)">
    <g id="_ÎÓÈ_1" data-name="‘ÎÓÈ_1" transform="translate(0.001 -0.013)">
      <path id="Path_88" data-name="Path 88" d="M49.219,398.85S-46.563,222.979,29.108,128.043C144.4-16.586,266.892,156.147,340,69.168,440.032-49.855,660.738-11,621.882,152.7c-27.25,114.817,106.172,92.684,44.436,248.859Z" transform="translate(-0.001 0.013)" fill="#e9e9e9"/>
      <path id="Path_89" data-name="Path 89" d="M583.41,760.85H684.594v10.744H589.92a6.51,6.51,0,0,1-6.51-6.51V760.85Z" transform="translate(-348.374 -454.323)" fill="#77a4e5"/>
      <path id="Path_90" data-name="Path 90" d="M703.13,865.229h-6.108L695.31,787.52h9.326Z" transform="translate(-415.193 -470.249)" fill="#677282"/>
      <path id="Path_91" data-name="Path 91" d="M692.561,968.414H633.17v-5.362l30.271-2.731,29.119,2.731Z" transform="translate(-378.087 -573.433)" fill="#677282"/>
      <path id="Path_92" data-name="Path 92" d="M618.85,971.077a4.887,4.887,0,1,1,1.434,3.458,4.887,4.887,0,0,1-1.434-3.458Z" transform="translate(-369.536 -576.939)" fill="#677282"/>
      <path id="Path_93" data-name="Path 93" d="M766.27,971.077a4.887,4.887,0,1,1,4.887,4.887,4.887,4.887,0,0,1-4.887-4.887Z" transform="translate(-457.565 -576.939)" fill="#677282"/>
      <path id="Path_94" data-name="Path 94" d="M644.864,787.52h49.956v.641a4.46,4.46,0,0,1-4.46,4.46H649.32a4.46,4.46,0,0,1-4.46-4.46v-.641Z" transform="translate(-385.068 -470.249)" fill="#677282"/>
      <path id="Path_95" data-name="Path 95" d="M591.91,638.583a8.46,8.46,0,0,1-8.46-8.46V562.381c0-13.407,8.766-24.281,19.579-24.281h44.263c10.813,0,19.583,10.877,19.583,24.281v76.2Z" transform="translate(-348.398 -321.312)" fill="#b8c0c7"/>
      <path id="Path_96" data-name="Path 96" d="M599.735,638.583a4.645,4.645,0,0,1-4.645-4.641V562.381c0-13.407,8.766-24.281,19.579-24.281h44.279c10.813,0,19.579,10.877,19.579,24.281v76.2Z" transform="translate(-355.348 -321.312)" fill="#677282"/>
      <path id="Path_97" data-name="Path 97" d="M692.829,771.594H584.51a5.37,5.37,0,0,1-5.37-5.37h0a5.37,5.37,0,0,1,5.37-5.374H692.829a5.374,5.374,0,0,1,5.374,5.374h0a5.37,5.37,0,0,1-5.374,5.37Z" transform="translate(-345.824 -454.323)" fill="#b8c0c7"/>
      <path id="Path_98" data-name="Path 98" d="M952.2,962.864H911.875c-1.942-2.365-3.03-13.5-2.735-16.352.06-.572.786-3.223.786-3.223s14.906-6.281,16.78,2.155c.06.262.129.52.205.778,2.385,7.888,13.073,11.474,19.245,12.489C950.171,959.322,951.654,961.409,952.2,962.864Z" transform="translate(-542.849 -561.921)" fill="#43a1f6"/>
      <path id="Path_99" data-name="Path 99" d="M704.837,682.76c1.458,0,55.193,7.517,66.393,20.087,5.588,6.281,20.2,88.566,20.2,88.566s-6.792,4.834-21.723.3c0,0-19.7-53.243-18.894-68.294.221-4.162-47.784-5.9-56.281-7.9s-19.04-6.881-14.467-15.067S704.837,682.76,704.837,682.76Z" transform="translate(-405.426 -407.693)" fill="#151f2c"/>
      <path id="Path_100" data-name="Path 100" d="M887.763,964.646H847.436c-1.938-2.365-1.209-11.1-.931-13.951.06-.576.1-.911.1-.911s13.77-11.014,15.663-2.578c.056.262.129.52.206.778,2.381,7.888,13.069,11.474,19.241,12.489C885.733,961.1,887.215,963.191,887.763,964.646Z" transform="translate(-505.257 -563.703)" fill="#43a1f6"/>
      <path id="Path_101" data-name="Path 101" d="M664.717,683.7c1.454,0,65.667,3.187,76.835,17.033,5.588,6.917,6.418,86.8,6.418,86.8s-6.913,8.569-21.843,3.594c0,0-13.7-42.382-12.71-71.239.161-4.589-39.96-5.112-50.979-5.991-13.975-1.112-17.5-24.575-12.932-33.571S664.717,683.7,664.717,683.7Z" transform="translate(-386.715 -404.279)" fill="#384152"/>
      <path id="Path_102" data-name="Path 102" d="M709.619,443.574l-.806.161a6.667,6.667,0,0,1-7.836-5.2l-.85-4.21a6.667,6.667,0,0,1,5.2-7.836l.806-.161a6.667,6.667,0,0,1,7.836,5.2l.85,4.21A6.667,6.667,0,0,1,709.619,443.574Z" transform="translate(-417.992 -254.491)" fill="#43a1f6"/>
      <path id="Path_103" data-name="Path 103" d="M694.541,571.231c-8.057,12.851-58.311,16.727-58.311,16.727-.846-2.055-4.665-35.19-5.318-37.467a111.1,111.1,0,0,1-3.368-18.193.687.687,0,0,0-.028-.238,212.229,212.229,0,0,1-1-27.194c.089-3.577.23-5.781.238-5.89h0l.367-.149c3.042-1.277,5.958-2.377,8.754-3.328h.024c2.349-.806,4.613-1.491,6.788-2.087a99.014,99.014,0,0,1,10.676-2.329,78.068,78.068,0,0,1,10.543-.975h2.82a45.663,45.663,0,0,1,15.712,2.772c.367.145.685.278.947.4l.1.04c.3.133.528.246.689.33l.065.032c.081.04.153.085.226.129l4.158,43.441Z" transform="translate(-374.065 -292.656)" fill="#43a1f6"/>
      <path id="Path_104" data-name="Path 104" d="M813.118,549.964c-5.749,2.667-39.924,4.907-43.2,3.964-1.684-.488-8.73-6.692-15.82-14.33h0c-6.708-7.219-13.472-15.712-15.752-21.835a37.43,37.43,0,0,1-.661-23.733s8.722-.036,12.275,2.111,23.882,39.586,26.589,40.573,34.916,2.82,38.6,4.581C815.153,541.29,818.859,547.3,813.118,549.964Z" transform="translate(-439.532 -294.996)" fill="#43a1f6"/>
      <path id="Path_105" data-name="Path 105" d="M688.353,475.745v2.115s.588,6.619-7.562,7.594-14.326-2.558-14.1-7.654c.729-3.956,1.531-6.675,1.579-9.947a23.192,23.192,0,0,0-.3-3.964l15.792-.338,4.653.753Z" transform="translate(-398.1 -276.796)" fill="#ee805f"/>
      <path id="Path_106" data-name="Path 106" d="M690.276,464.815l-.044,11.449a13.294,13.294,0,0,1-5.689,1.281c-7.252,0-14.5-11.683-14.713-13.125Z" transform="translate(-399.978 -277.315)" fill="#de6b4d"/>
      <path id="Path_107" data-name="Path 107" d="M685.554,429.739s-20.22,4.117-22.589-8.513-6.575-20.607,6.232-23.769,16.228,1.18,18.044,5.209S690.75,428.345,685.554,429.739Z" transform="translate(-394.325 -236.68)" fill="#ee805f"/>
      <path id="Path_108" data-name="Path 108" d="M682.892,382.385a42.487,42.487,0,0,1-12.3-3.308c-5.4-2.341-12.211.254-14.419,1.422a3.344,3.344,0,0,1,.536-1.329,2.969,2.969,0,0,0-1.136,1.688c-.1.077-.145.129-.121.145a3.824,3.824,0,0,0-1.849.125s.508-.073.689.25a.282.282,0,0,0,.081.089c-8.416,4.085-9.173,17.4-6.446,20.474,3.267,3.7,7.191,12.038,7.191,12.038a7.108,7.108,0,0,0,.806-5.237c-.616-3.263,2.22-3.263,5.773-4.754s.584-5.64,3.694-8.158,14.5-1.06,14.374-2.985C684,391.3,682.892,382.816,682.892,382.385Z" transform="translate(-386.056 -225.789)" fill="#151f2c"/>
      <path id="Path_109" data-name="Path 109" d="M635.97,634.246c-.967-6.547-3.275-14.854-4.355-21.92-.9-5.882-1.765-15.341-2.417-21.513a.687.687,0,0,0-.028-.238c.044,0,.117.137.165.081,2.232-2.711,8.327-5.68,15.712,5.125,1.474,2.155,7.5,15.385,7.288,18.1C651.328,626.245,635.97,634.246,635.97,634.246Z" transform="translate(-375.699 -351.178)" fill="#2b6eb2"/>
      <path id="Path_110" data-name="Path 110" d="M657.914,645.5a6.012,6.012,0,0,1,.778-3.731s.947-.612,2.2-1.329c1.873-1.056,4.432-2.337,5.6-2.131.206.04.487.1.806.181,2.752.661,9.165,2.635,10.136,3.8.806.951,1.885,2.163,2.635,3.223Z" transform="translate(-392.828 -381.136)" fill="#ee805f"/>
      <path id="Path_111" data-name="Path 111" d="M588.269,566.674H534.237a3.251,3.251,0,0,1,.04-1.817c1.611-4.069,4.758-10.773,8.38-17.964,2.667-5.29,5.584-10.845,8.343-15.812,3.827-6.9,7.336-12.67,9.395-15.035a24.416,24.416,0,0,1,5.813-4.714,41.2,41.2,0,0,1,5.423-2.707h0l.367-.149a47.729,47.729,0,0,1,6.748-2.2s.04,1.708.04,4.335c0,7.614-.278,22.963-2.711,26.706a49.822,49.822,0,0,1-3.513,4.472l-.137.157c-.854,1-1.8,2.079-2.792,3.187-5.64,6.317-12.783,13.734-13.653,14.64l-.089.093h.1l15.148.21,4.649.064,9.637.133a3.625,3.625,0,0,1,1.579,1.341A9.735,9.735,0,0,1,588.269,566.674Z" transform="translate(-318.945 -302.311)" fill="#43a1f6"/>
      <path id="Path_112" data-name="Path 112" d="M839.834,615.906c-5.749,2.667-39.924,4.907-43.2,3.964-1.684-.487-8.73-6.692-15.82-14.33.35.048,3.594-5.354,18.375,7.574,0,0,3.867,1.724,14.4.757S837.65,612.554,839.834,615.906Z" transform="translate(-466.248 -360.938)" fill="#2b6eb2"/>
      <path id="Path_113" data-name="Path 113" d="M667.165,443.574l-.806.161a6.668,6.668,0,0,1-7.816-5.2l-.854-4.21a6.676,6.676,0,0,1,5.205-7.836l.806-.161a6.672,6.672,0,0,1,7.84,5.2l.85,4.21a6.675,6.675,0,0,1-5.225,7.836Z" transform="translate(-392.652 -254.491)" fill="#43a1f6"/>
      <path id="Path_114" data-name="Path 114" d="M664.96,399.712c-.54-.975-1.329-8.807.806-15.043a9.995,9.995,0,0,1,4.834-5.894,5.188,5.188,0,0,1,2.494-.645l2.119.036c-6.97,2.957-8.581,18.786-8.045,20.458a.958.958,0,0,0-.052-.121Z" transform="translate(-396.712 -225.789)" fill="#43a1f6"/>
      <path id="Path_115" data-name="Path 115" d="M690.363,457.749a21.608,21.608,0,0,1-17.613-9.375l1.051-.641-.528.318.524-.322a20.4,20.4,0,0,0,16.566,8.786h.214v1.233Z" transform="translate(-401.722 -267.349)" fill="#43a1f6"/>
      <path id="Path_116" data-name="Path 116" d="M3.32,0h.4A3.312,3.312,0,0,1,7.034,3.312V5.451A3.316,3.316,0,0,1,3.718,8.766h-.4A3.316,3.316,0,0,1,0,5.451V3.312A3.312,3.312,0,0,1,3.312,0Z" transform="matrix(0.98, -0.198, 0.198, 0.98, 267.234, 177.092)" fill="#2b6eb2"/>
      <path id="Path_117" data-name="Path 117" d="M716.931,470.571h-1.108a1.023,1.023,0,0,1-1.023-1.023h0a1.027,1.027,0,0,1,1.023-1.027h1.108a1.031,1.031,0,0,1,1.027,1.027h0A1.027,1.027,0,0,1,716.931,470.571Z" transform="translate(-426.831 -279.763)" fill="#43a1f6"/>
      <path id="Path_118" data-name="Path 118" d="M361.288,949.507c.238,3.247,4.834,3.279,10.015,2.679s3.819.713,11.095.806,9.79-2.3,10.14-3.348c.314-.923-3.191-1.7-6.941-2.61l-1.418-.351c-4.23-1.076-7.03-4.242-10.648-7.006-3.428-2.619-7.848-12.086-7.848-12.086l-9.943-.451s4.19,8.492,5.761,12.154c.927,2.155.532,4.8.129,6.828a12.7,12.7,0,0,0-.342,3.384Z" transform="translate(-212.424 -553.621)" fill="#ee805f"/>
      <path id="Path_119" data-name="Path 119" d="M379.515,980.317c5.2-.6,3.819.713,11.095.806s9.79-2.3,10.14-3.348c.314-.923-3.191-1.7-6.941-2.611l-.044.068a20.413,20.413,0,0,1-10.68,1.914c-4.887-.491-9.87-2.53-13.242-2.9a12.7,12.7,0,0,0-.342,3.38C369.737,980.885,374.318,980.917,379.515,980.317Z" transform="translate(-220.637 -581.752)" fill="#151f2c"/>
      <path id="Path_120" data-name="Path 120" d="M199.04,941.313c.234,3.247,4.814,3.287,10.015,2.687s3.815.717,11.095.806,9.79-2.292,10.14-3.336c.318-.919-3.187-1.7-6.937-2.619l-1.418-.35c-4.23-1.08-7.026-4.25-10.64-7.018-3.424-2.619,0-18.129,0-18.129l-10.938-1.063s.528,13.065.52,19c0,2.345-1.08,4.6-1.487,6.631A12.658,12.658,0,0,0,199.04,941.313Z" transform="translate(-118.85 -544.753)" fill="#ee805f"/>
      <path id="Path_121" data-name="Path 121" d="M209.056,981.983c5.2-.6,3.815.717,11.095.806s9.79-2.292,10.14-3.336c.318-.918-3.187-1.7-6.937-2.619l-.044.068a20.408,20.408,0,0,1-10.684,1.9c-4.883-.491-9.866-2.538-13.238-2.9a12.658,12.658,0,0,0-.346,3.376C199.274,982.543,203.855,982.583,209.056,981.983Z" transform="translate(-118.85 -582.737)" fill="#151f2c"/>
      <path id="Path_122" data-name="Path 122" d="M199.171,287.14c1.881-7.743-.846-11.349-3.308-13.27-1.168-2.848-2.5-4.9-3.864-5.676a13.96,13.96,0,0,0-7.55-1.446,3.557,3.557,0,0,1,1.611-.753c-1.293-.193-4.178,1.088-4.178,1.088-17.972-6.925-20.8,19.535-20.417,25.683s.326,13.387-9.024,18.23c-17.839,9.242,5.93,44.066,5.93,44.066-.455-4.967,22.464-31.182,34.425-39.034,2.909-4.283,3.944-11.856,4.029-12.453-.5,6.007-1.527,9.371-2.445,11.28C199.807,309.825,200.613,297.787,199.171,287.14Z" transform="translate(-87.065 -158.793)" fill="#151f2c"/>
      <path id="Path_123" data-name="Path 123" d="M235.557,365c.06.028-5.773,3.058-10.16,1.857-4.129-1.124-6.825-6.478-6.768-6.49,1.748-.346,2.252-2.748,2.216-13.069l.806.153,13.295,2.631s-.3,4.182-.31,8.122C234.6,361.513,234.8,364.651,235.557,365Z" transform="translate(-130.55 -207.379)" fill="#ee805f"/>
      <path id="Path_124" data-name="Path 124" d="M239.377,350.311s-.3,4.182-.31,8.122c-7.437-.209-11.369-6.99-12.976-10.753Z" transform="translate(-135.006 -207.606)" fill="#de6b4d"/>
      <path id="Path_125" data-name="Path 125" d="M279.835,721.758a3.267,3.267,0,0,1-2.957,4.25l-5.189.242-5.491.169a4.432,4.432,0,0,1-3.557-1.611,154.78,154.78,0,0,1-26.061-49.359c-.23-.729-.475-1.47-.733-2.216-5.4-15.764-16.61-35.549-22.516-53.456-.939-2.852-1.785-5.54-2.542-8.082-.242-.806-.479-1.611-.7-2.417a190,190,0,0,1-6.776-35.658l42.643.338S254.933,643.759,279.835,721.758Z" transform="translate(-121.403 -342.522)" fill="#43a1f6"/>
      <path id="Path_126" data-name="Path 126" d="M224.485,431.787c-.109,20.292,2.973,29.006,2.973,29.006a57.369,57.369,0,0,1-39.956,2.449c-.258-.081-5.962-33.527-5.419-36.552a64.313,64.313,0,0,0,.528-17,136.574,136.574,0,0,0-5.261-26.7c5.914-1.346,11.449-3.71,17.605-6.019,1.414,1.765,5.741,3.606,9.5,3.521,4.323-.093,5.725-1.942,5.5-3.964,4.609,2.562,8.283,4.983,8.283,4.983,3.916,6.8,11.856,13.407,12.428,23.838C230.79,407.909,224.485,431.219,224.485,431.787Z" transform="translate(-105.902 -224.833)" fill="#b8c0c7"/>
      <path id="Path_127" data-name="Path 127" d="M182.07,467.044c-1.865,2.639-5.439,18.677-14.33,20.691,4.585-11.429,8.057-16.441,8.605-19.954a86.6,86.6,0,0,0,.528-19.74c2.977-5.217,5.2-8.795,5.2-8.795.234-.842,4.73-14.745,6.172-2.316S184.153,464.1,182.07,467.044Z" transform="translate(-100.163 -257.83)" fill="#5f9aa8"/>
      <path id="Path_128" data-name="Path 128" d="M278.33,385.18s6.329,3.432,8.992,6.821,18.29,31.456,18.29,34.264-15.853.975-15.853.975Z" transform="translate(-166.2 -229.998)" fill="#384152"/>
      <path id="Path_129" data-name="Path 129" d="M238.848,319.5s-17.589.29-17.6-10.668-2.292-18.3,8.94-18.935,13.415,3.529,14.31,7.187S243.424,319.138,238.848,319.5Z" transform="translate(-131.996 -173.061)" fill="#ee805f"/>
      <path id="Path_130" data-name="Path 130" d="M229.816,285.986s-4.834,12.856-12.211,14.757-10.6-.081-10.6-.081a20.949,20.949,0,0,0,6.845-12.376S226.182,279.866,229.816,285.986Z" transform="translate(-123.613 -169.435)" fill="#151f2c"/>
      <path id="Path_131" data-name="Path 131" d="M260.65,288.766s3.6,2.872,4.476,5.66,1.269,8.537,2.945,8.339c0,0,3.626-8.738-.451-13.7C263.3,283.843,260.65,288.766,260.65,288.766Z" transform="translate(-155.643 -171.171)" fill="#151f2c"/>
      <path id="Path_132" data-name="Path 132" d="M258.27,376.51s10.176,25.143,10.475,30.215,1.209,83.212,1.209,83.212-.6,3.59,6.285,2.095,8.682-2.993,8.682-2.993-6.587-48.191-4.79-64.954-13.77-44.1-13.77-44.1Z" transform="translate(-154.222 -224.821)" fill="#384152"/>
      <path id="Path_133" data-name="Path 133" d="M281.692,772.038l-5.962.181a3.452,3.452,0,0,1-2.768-1.249,153.846,153.846,0,0,1-26.38-49.734c-.23-.729-.475-1.47-.733-2.216-5.4-15.764-16.61-35.549-22.516-53.456-.939-2.852-1.785-5.539-2.542-8.081-.242-.806-.479-1.611-.7-2.417l6.277-4.766s18.854,30.529,24.692,59.262C256.147,734.539,276.455,764.569,281.692,772.038Z" transform="translate(-131.423 -388.31)" fill="#2b6eb2"/>
      <path id="Path_134" data-name="Path 134" d="M188.908,700.278c.1,13.218-.524,42.68-2.131,57.082a2.606,2.606,0,0,1-2.59,2.312h-4.432c-1.877,0-3.279,0-4.21-.028a1.7,1.7,0,0,1-1.68-1.39c-4.432-22.516-7.594-41.221-9.911-57.384-1.93-13.52-3.65-25.123-5-35.106-1.333-10.047-2.26-18.463-2.594-25.57-.048-1.12-.089-2.212-.109-3.267s-.028-2.095-.02-3.1l36.846-3.59C192.634,654.718,188.847,692.157,188.908,700.278Z" transform="translate(-93.292 -376.332)" fill="#43a1f6"/>
      <path id="Path_135" data-name="Path 135" d="M179.934,774.428c-1.684,0-2.989,0-3.912-.024a2.071,2.071,0,0,1-2.014-1.676c-4.379-22.387-7.538-41-9.846-57.094-1.942-13.528-3.662-25.131-5.008-35.114-1.333-10.047-2.26-18.463-2.594-25.57l13.52,7.953s-8.629,3.042-5.334,26.09S175.35,771.165,179.934,774.428Z" transform="translate(-93.487 -391.087)" fill="#2b6eb2"/>
      <path id="Path_136" data-name="Path 136" d="M169.493,489.213s-2.6,9.379-11.578,8.182-21.755-6.587-21.755-6.587,3.839-12.122,8.609-28.056c5.777-19.285,12.928-44.146,16.3-59.826a96.51,96.51,0,0,0,1.833-10.692l7.441-14.455S181.446,402.709,182.047,409,169.493,489.213,169.493,489.213Z" transform="translate(-81.306 -225.58)" fill="#384152"/>
      <path id="Path_137" data-name="Path 137" d="M181.867,459.481c-.4,10.176-2.8,29.929-24.148,40.5l-.169.081c5.777-19.285,12.928-44.146,16.3-59.826C177.77,446.086,182.085,453.861,181.867,459.481Z" transform="translate(-94.079 -262.876)" fill="#151f2c"/>
      <path id="Path_138" data-name="Path 138" d="M173.376,408.059l9.834-30.279c-.028,0-12.42,3.686-18.653,6.849,0,0-3.9,5.024-6.309,16.61,0,0-2.546,27.826,3.142,38,0,0,17.96,3.59,46.692-6.289v-6.595s-31.424,1.644-37.869,2.393Z" transform="translate(-94.156 -225.58)" fill="#ee805f"/>
      <path id="Path_139" data-name="Path 139" d="M181.8,377.78s-18.23,1.3-22.617,11.063-5.789,42.3-.2,51.881c0,0,7.695,2.192,21.3-.354l.5-.093s4.343-10.628.451-12.723c0,0-11.474.6-10.277-3.191S181.8,377.78,181.8,377.78Z" transform="translate(-92.744 -225.58)" fill="#384152"/>
      <path id="Path_140" data-name="Path 140" d="M288.98,494.666l-.536,1.724-29.909-9.3a1.152,1.152,0,0,1-.2-1.06.85.85,0,0,1,.737-.669Z" transform="translate(-154.23 -289.819)" fill="#a9453d"/>
      <path id="Path_141" data-name="Path 141" d="M335.849,510.088l-2.163-1.628-.536,1.724Z" transform="translate(-198.935 -303.613)" fill="#a9453d"/>
      <path id="Path_142" data-name="Path 142" d="M278.676,493.018s6.784-4.178,9.633-3.537,10.1,5.9,6.611,7.034-6.317-.056-7.655.773-2.333,2.337-8.585,2.313S278.676,493.018,278.676,493.018Z" transform="translate(-164.749 -292.24)" fill="#ee805f"/>
      <path id="Path_143" data-name="Path 143" d="M276.61,523.185l31.077.012,11.961-45.186L288.571,478Z" transform="translate(-165.173 -285.424)" fill="#151f2c"/>
      <path id="Path_144" data-name="Path 144" d="M307.254,470.27s-2.377.4-1.342,3.114h10.612l-3.4-3.114Z" transform="translate(-182.515 -280.808)" fill="#9db0f4"/>
      <path id="Path_145" data-name="Path 145" d="M309.63,470.27s4.685,0,6.313,3.775c1.99,4.613,1.14,17.5,1.14,17.5h24.925s3.936-15.152-4.295-21.279Z" transform="translate(-184.891 -280.808)" fill="#fff"/>
      <path id="Path_146" data-name="Path 146" d="M360.612,531.341s-3.755-2.82-4.915-1.209.894,9.894,3.348,9.266S361.53,533.025,360.612,531.341Z" transform="translate(-212.2 -316.258)" fill="#ee805f"/>
      <path id="Path_147" data-name="Path 147" d="M784.028,336.241c-.616-15.232,12.154-22,25.207-22s27.262,3.38,28.495,23.636c.806,13.033-6.156,21.05-26.158,21.05-6.748,0-11.989-1.064-16.006-2.961l-10,8.887,4.915-12.283C786.127,348.524,784.294,342.815,784.028,336.241Z" transform="translate(-468.157 -187.638)" fill="#b8c0c7"/>
      <path id="Path_148" data-name="Path 148" d="M1081.518,267.682c1.12-27.8-22.158-40.142-45.991-40.142s-49.742,6.172-51.97,43.131c-1.446,23.769,11.228,38.4,47.724,38.4,12.308,0,21.876-1.938,29.2-5.4l18.246,16.211-8.968-22.407C1077.687,290.089,1081.031,279.7,1081.518,267.682Z" transform="translate(-587.249 -135.866)" fill="#b8c0c7"/>
      <path id="Path_149" data-name="Path 149" d="M489.347,799.581h-.069c-.4,0-.737-.91-.729-2.014l1.108-129.55,3.259-1.027-2.78,130.585C490.113,798.7,489.766,799.581,489.347,799.581Z" transform="translate(-291.729 -398.276)" fill="#151f2c"/>
      <rect id="Rectangle_30" data-name="Rectangle 30" width="194.742" height="7.816" rx="3.908" transform="translate(384.02 272.122) rotate(180)" fill="#151f2c"/>
      <path id="Path_150" data-name="Path 150" d="M1526.465,799.581h.069c.4,0,.741-.91.733-2.014l-1.1-129.55-3.263-1.027,2.784,130.585C1525.7,798.7,1526.046,799.581,1526.465,799.581Z" transform="translate(-909.374 -398.276)" fill="#151f2c"/>
      <rect id="Rectangle_31" data-name="Rectangle 31" width="258.999" height="7.816" rx="3.908" transform="translate(624.137 272.122) rotate(180)" fill="#151f2c"/>
      <path id="Path_151" data-name="Path 151" d="M793.078,651.324H754a3.114,3.114,0,0,1,3.114-3.114h35.964Z" transform="translate(-450.239 -387.062)" fill="#384152"/>
      <path id="Path_152" data-name="Path 152" d="M889.034,550.32l-14.487,42.551h-60.8l14.882-42.551Z" transform="translate(-485.917 -328.609)" fill="#384152"/>
      <path id="Path_153" data-name="Path 153" d="M890.353,550.32,876,592.476l-.133.395H815.96l14.878-42.551Z" transform="translate(-487.237 -328.609)" fill="#384152"/>
      <path id="Path_154" data-name="Path 154" d="M913.156,597.791a3.924,3.924,0,0,1-3.626,2.945,2.273,2.273,0,0,1-2.264-2.945,3.928,3.928,0,0,1,3.626-2.941A2.266,2.266,0,0,1,913.156,597.791Z" transform="translate(-541.713 -355.199)" fill="#43a1f6"/>
      <path id="Path_155" data-name="Path 155" d="M1027.93,550.32l14.584,42.6,60.7-.044-14.882-42.551Z" transform="translate(-613.811 -328.609)" fill="#151f2c"/>
      <path id="Path_156" data-name="Path 156" d="M1032.22,552.64l14.024,41.229.129.387h58.512l-14.531-41.616Z" transform="translate(-616.373 -329.994)" fill="#f4f4f4"/>
      <path id="Path_157" data-name="Path 157" d="M1062.858,651.368l84.775-.044h0a3.114,3.114,0,0,0-3.114-3.114H1062Z" transform="translate(-634.156 -387.062)" fill="#151f2c"/>
      <path id="Path_158" data-name="Path 158" d="M1327.036,434.2h.806a6.446,6.446,0,0,1,6.446,6.446v4.162a6.446,6.446,0,0,1-6.446,6.446h-.806a6.446,6.446,0,0,1-6.446-6.446v-4.162A6.446,6.446,0,0,1,1327.036,434.2Z" transform="translate(-788.568 -259.27)" fill="#43a1f6"/>
      <path id="Path_159" data-name="Path 159" d="M1205.563,952.422s-.854,13.331-3.432,13.516c-.346.024-13.081,0-13.081,0l-16.26-.129s.113-3.916,4.867-4.734,12.719-4.141,15.611-10.418C1196.313,944.039,1205.563,952.422,1205.563,952.422Z" transform="translate(-700.312 -566.144)" fill="#151f2c"/>
      <path id="Path_160" data-name="Path 160" d="M1277.861,686.68c.62.52,17.182,18.467,15.828,32.25a7.948,7.948,0,0,1-7.948,7.09h-20.176s-20.582,3.678-21.074,8.126-4.7,28.426-13.049,62.5c0,0-6.152,2.115-9.882.6-4.935-2.014-5.64-4.121-5.64-4.121s4.976-76.3,8.9-81.669,44.392-21.352,57.493-22.923S1277.861,686.68,1277.861,686.68Z" transform="translate(-726.066 -410.034)" fill="#151f2c"/>
      <path id="Path_161" data-name="Path 161" d="M1051.645,637.646s-11.683-2.723-14.7,0a14.5,14.5,0,0,0-3.944,6.672h18.645Z" transform="translate(-616.839 -380.031)" fill="#ee805f"/>
      <path id="Path_162" data-name="Path 162" d="M1134.823,952.422s-.854,13.331-3.432,13.516c-.343.024-13.081,0-13.081,0l-16.26-.129s.113-3.916,4.866-4.734,12.719-4.141,15.611-10.418C1125.573,944.039,1134.823,952.422,1134.823,952.422Z" transform="translate(-658.071 -566.144)" fill="#151f2c"/>
      <path id="Path_163" data-name="Path 163" d="M1252.109,686.68c.471.4,4.053,10.039,6.446,20.993a15.111,15.111,0,0,1-14.765,18.347h-46.918s-20.586,3.678-21.074,8.126-4.706,28.426-13.053,62.5c0,0-6.172,1.611-10.99-.439a13.627,13.627,0,0,1-4.585-3.723s5.02-75.654,8.948-81.025,44.392-21.352,57.5-22.923S1252.109,686.68,1252.109,686.68Z" transform="translate(-685.013 -410.034)" fill="#384152"/>
      <path id="Path_164" data-name="Path 164" d="M1314.005,490.453l-7.252,6.966H1294.39c0-1,.024-5.141.068-8.9v-.661c0-.834.024-1.64.032-2.373.024-2.071.044-3.569.044-3.569l3.179-2.176,7.062-4.834,3.819-2.611c0,.064.318,3.481.362,3.976A29,29,0,0,0,1314.005,490.453Z" transform="translate(-772.924 -282.021)" fill="#ee805f"/>
      <path id="Path_165" data-name="Path 165" d="M1291.246,505.917c.234-.1,13.613-6.1,15.18-5.584s3.513,5.294,3.513,5.294l-23.56,5.326S1288.241,507.186,1291.246,505.917Z" transform="translate(-768.14 -298.741)" fill="#2b6eb2"/>
      <path id="Path_166" data-name="Path 166" d="M1225.472,553.9c-2.55-15.712-13.294-27.484-17.919-31.891-3.09-4.653-21.255-8.492-21.255-8.492l-23.56,5.326a29.989,29.989,0,0,0-20.764,13.826c-4.633,7.655-17.9,25.179-26.589,25.723s-36.065,5.854-36.065,5.854v6.728l41.689,1.152a7.113,7.113,0,0,0,1.519-.121c3.589-.677,18.971-3.734,26.621-7.715,1.209,19.7,2.663,49.782,9.544,54.56,7.28,5.052,58.456,5.729,63.875-1.974,2.776-3.94-.629-27.278-4.875-49.778C1222.974,564.579,1226.54,560.494,1225.472,553.9Z" transform="translate(-644.498 -306.634)" fill="#43a1f6"/>
      <path id="Path_167" data-name="Path 167" d="M1306.776,489l-.628.4a50.73,50.73,0,0,1-11.5,6.071c.024-2.071.044-3.569.044-3.569l3.179-2.175Z" transform="translate(-773.079 -291.993)" fill="#de6b4d"/>
      <path id="Path_168" data-name="Path 168" d="M1277.458,449.6s19.027,2.248,20.248-9.62,4.5-19.575-7.6-21.513-14.906,2.349-16.3,6.212S1272.543,448.706,1277.458,449.6Z" transform="translate(-760.177 -249.587)" fill="#ee805f"/>
      <path id="Path_169" data-name="Path 169" d="M1272.32,413.742s3.594,12.892,6.2,11.8,4.975-1.954,5.318,2.067,1.849,8.734,10.325,7.872,12.034-24.071,8.98-27.717C1294.332,397.245,1260.085,401.185,1272.32,413.742Z" transform="translate(-758.185 -239.867)" fill="#151f2c"/>
      <path id="Path_170" data-name="Path 170" d="M6.47,0h94.11V10.68H0V6.474A6.47,6.47,0,0,1,6.47,0Z" transform="translate(601.242 318.54) rotate(180)" fill="#77a4e5"/>
      <rect id="Rectangle_32" data-name="Rectangle 32" width="80.771" height="10.68" rx="5.34" transform="translate(565.371 318.54) rotate(180)" fill="#b8c0c7"/>
      <path id="Path_171" data-name="Path 171" d="M1359.663,867.91h6.067l1.7-77.25h-9.274Z" transform="translate(-811.003 -472.124)" fill="#b8c0c7"/>
      <path id="Path_172" data-name="Path 172" d="M1296.4,970.479h59.04v-5.334l-30.09-2.715-28.95,2.715Z" transform="translate(-774.124 -574.693)" fill="#b8c0c7"/>
      <path id="Path_173" data-name="Path 173" d="M1442.777,973.093a4.859,4.859,0,1,0-4.835,4.834A4.859,4.859,0,0,0,1442.777,973.093Z" transform="translate(-855.728 -578.145)" fill="#b8c0c7"/>
      <path id="Path_174" data-name="Path 174" d="M1296.237,973.092a4.859,4.859,0,1,0-4.859,4.834,4.859,4.859,0,0,0,4.859-4.834Z" transform="translate(-768.224 -578.145)" fill="#b8c0c7"/>
      <path id="Path_175" data-name="Path 175" d="M1294.114,795.728h54.79a5.068,5.068,0,0,0,5.068-5.068H1289.03a5.068,5.068,0,0,0,5.084,5.068Z" transform="translate(-769.723 -472.124)" fill="#b8c0c7"/>
      <path id="Path_176" data-name="Path 176" d="M1353.245,642.607a4.621,4.621,0,0,0,4.621-4.621v-71.13c0-13.331-8.714-24.136-19.467-24.136h-44.017c-10.749,0-19.463,10.8-19.463,24.136v75.739Z" transform="translate(-761.297 -324.071)" fill="#b8c0c7"/>
      <path id="Path_177" data-name="Path 177" d="M1361.048,642.607a8.428,8.428,0,0,0,8.428-8.428V566.856c0-13.331-8.714-24.136-19.466-24.136h-44.017c-10.748,0-19.462,10.8-19.462,24.136v75.739Z" transform="translate(-768.23 -324.071)" fill="#677282"/>
      <path id="Path_178" data-name="Path 178" d="M1266.384,476.2a20.905,20.905,0,0,0,13.544-13.81l-1.156-.286.58.145-.58-.145a19.771,19.771,0,0,1-12.747,12.96l-.205.064.346,1.14Z" transform="translate(-755.863 -275.93)" fill="#43a1f6"/>
      <path id="Path_179" data-name="Path 179" d="M1262.251,495.731l1.023-.322a1,1,0,0,0,.649-1.249h0a1,1,0,0,0-1.249-.649l-1.023.322a1,1,0,0,0-.649,1.249h0A1,1,0,0,0,1262.251,495.731Z" transform="translate(-752.959 -294.659)" fill="#43a1f6"/>
      <path id="Path_180" data-name="Path 180" d="M1288.377,462l-.806.109a6.466,6.466,0,0,1-7.252-5.5l-.572-4.121a6.446,6.446,0,0,1,5.5-7.272l.806-.113a6.466,6.466,0,0,1,7.252,5.5l.572,4.121A6.47,6.47,0,0,1,1288.377,462Z" transform="translate(-764.143 -265.742)" fill="#43a1f6"/>
      <path id="Path_181" data-name="Path 181" d="M1288.332,420.041c-.467-.878,1.177-7.707,3.594-13,1.168-2.562,4.117-5.991,6.224-6.873a4.514,4.514,0,0,1,2.594,0,14.86,14.86,0,0,1,2.28,1.112c-6.921,2.155-12.936,16.465-12.489,17.968a.673.673,0,0,0-.048-.1Z" transform="translate(-769.259 -238.83)" fill="#43a1f6"/>
      <path id="Path_182" data-name="Path 182" d="M1290.88,464.47l-.4.052a3.223,3.223,0,0,1-3.626-2.74l-.286-2.055a3.223,3.223,0,0,1,2.743-3.626l.4-.056a3.223,3.223,0,0,1,3.626,2.739l.282,2.055A3.223,3.223,0,0,1,1290.88,464.47Z" transform="translate(-768.234 -272.297)" fill="#2b6eb2"/>
      <path id="Path_183" data-name="Path 183" d="M730.688,991.085v.354c0,.568-.334,1.035-.737,1.035H82.447c-.4,0-.737-.467-.737-1.035v-.354c0-.568.33-1.035.737-1.035h647.5C730.354,990.05,730.688,990.517,730.688,991.085Z" transform="translate(-48.792 -591.186)" fill="#151f2c"/>
    </g>
  </g>
</svg>
