<svg xmlns="http://www.w3.org/2000/svg" width="634.844" height="361.656" viewBox="0 0 634.844 361.656">
  <g id="Group_58" data-name="Group 58" transform="translate(-727 -3112.344)">
    <g id="Layer_2" data-name="Layer 2" transform="translate(727 3112.326)">
      <g id="_лой_1" data-name="‘лой_1" transform="translate(0 0.017)">
        <path id="Path_184" data-name="Path 184" d="M41.155,360.8S-2.752,294.372,45.067,216.23,157.108,177.37,154,86.406,286.732-13.369,334.737,13,425.125,24.263,482.46,26.1c92.991,2.982,119.023,94.737,93.241,139.39C539.121,228.85,690.3,236.3,603.275,360.8Z" transform="translate(-17.314 -0.017)" fill="#ebf3fa"/>
        <g id="Group_13" data-name="Group 13" transform="translate(96.05 179.15)" opacity="0.3">
          <path id="Path_185" data-name="Path 185" d="M402.433,788.186c-4.323-15.853,21.268-25.125,21.268-25.125s29.72,14.739,34.614,12.634-22.941-17.564-22.941-17.564c8.333-6.039,37.2-8.421,37.2-8.421s14.964,28.762,19.189,25.517-14.548-24.79-14.548-24.79c10.053-2.454,23.9,2.836,23.9,2.836,19.507,10.39,5.159,34.889,5.159,34.889s5.4,9.857,17.906,17.459h0a38.259,38.259,0,0,1,5.974,3.941l-2.332,1.369q-.834-.772-1.694-1.434h0l-.026-.019c-.37-.268-.9-.645-1.553-1.1h0c-1.529-.975-2.617-1.723-3.345-2.287h0c-4.7-3.123-11.121-7.021-13.872-7.014a5.332,5.332,0,0,0-.129-1.362q.06.65.129,1.362c1.028,10.89-18.085,24.021-30.535,28.262S467.343,825.6,470.34,817s16.324-14.615,18.859-18.785-4.062-2.985-11.126,1.933-6.431,14.5-17.731,22.663-33.629-9-33.629-9c9.769-2.285,21.911-15.533,20.809-18.723s-22.876,9.977-26.8,11.129S406.763,804.039,402.433,788.186Z" transform="translate(-401.941 -749.71)" fill="#aec3ff"/>
        </g>
        <path id="Path_186" data-name="Path 186" d="M1676.3,1053.958c15.9-15.437-7.451-43.761-7.451-43.761s-44.619-3.283-48.856-9.081,38.7-4.643,38.7-4.643c-5.53-12.73-37.407-35.3-37.407-35.3s-37.109,23.125-39.787,16.458,33.9-18.8,33.9-18.8c-9.991-9.745-29.679-13.093-29.679-13.093-29.777-1.324-29.937,36.98-29.937,36.98s-13.033,7.735-32.769,7.979h0a51.437,51.437,0,0,0-9.642.478l1.769,3.188c1-.213,1.983-.385,2.953-.507a.014.014,0,0,1,.017,0h.043c.614-.055,1.489-.129,2.559-.213h0c2.445-.084,4.218-.205,5.465-.354h0c7.6-.4,17.729-.519,20.919,1.376a7.017,7.017,0,0,1,1.083-1.491l-1.083,1.491c-8.667,11.948,4.509,40.3,16.056,53.767s12.156,4.469,14.577-7.573-8.923-28.171-9-34.75,6.753-.686,11.592,9.879-2.485,21.246,5.032,38.473,45.217,12.632,45.217,12.632c-9.774-9.355-14.775-33.077-11.31-36.017s19.712,27.282,23.476,31.3S1660.4,1069.395,1676.3,1053.958Z" transform="translate(-1151.729 -719.715)" fill="#dfebfd"/>
        <g id="Group_14" data-name="Group 14" transform="translate(141.363 144.578)" opacity="0.5">
          <path id="Path_187" data-name="Path 187" d="M638.186,631.163s-20.312-21.153-42.679-26.047a3.255,3.255,0,0,0-3.233,5.2l.1.119C595.65,614.471,622.178,621.905,638.186,631.163Z" transform="translate(-591.565 -605.036)" fill="#c5ddff"/>
        </g>
        <g id="Group_15" data-name="Group 15" transform="translate(127.508 158.398)" opacity="0.5">
          <path id="Path_188" data-name="Path 188" d="M600.53,680.74s-33.782-20.1-63.739-17.664a3.453,3.453,0,0,0-3.2,3.527c.053,1.195.734,2.6,2.786,4.062C541.833,674.558,577.415,674.709,600.53,680.74Z" transform="translate(-533.586 -662.871)" fill="#c5ddff"/>
        </g>
        <g id="Group_18" data-name="Group 18" transform="translate(430.188 174.146)" opacity="0.5">
          <g id="Group_16" data-name="Group 16" transform="translate(2.232)" opacity="0.5">
            <path id="Path_189" data-name="Path 189" d="M1809.56,777.451s4.82-30.143,21.058-47.6a3.39,3.39,0,0,1,5.852,2.528v.16C1836.044,737.934,1817.761,760.033,1809.56,777.451Z" transform="translate(-1809.56 -728.773)" fill="#aec3ff"/>
          </g>
          <g id="Group_17" data-name="Group 17" transform="translate(0 3.848)" opacity="0.5">
            <path id="Path_190" data-name="Path 190" d="M1800.22,798.3s16.966-37.24,44.051-52.931a3.6,3.6,0,0,1,4.836,1.114c.662,1.052.915,2.665.026,5.128C1846.765,758.188,1816.417,779.427,1800.22,798.3Z" transform="translate(-1800.22 -744.874)" fill="#aec3ff"/>
          </g>
        </g>
        <g id="Group_19" data-name="Group 19" transform="translate(288.47 69.989)" opacity="0.2">
          <path id="Path_191" data-name="Path 191" d="M1212.256,376.495l11.824-1.3a2.629,2.629,0,0,1,2.478,1.195q1.023,1.6,2.191,3.128a44.34,44.34,0,0,0,4.665,5.24,2.6,2.6,0,0,1,.633,2.868l-4.567,11.563a2.554,2.554,0,0,0,1.25,3.24l10.17,5.073a2.524,2.524,0,0,0,3.24-.889l6.187-9.63a2.533,2.533,0,0,1,2.841-1.09,45.958,45.958,0,0,0,14.412,1.477,2.628,2.628,0,0,1,2.628,1.823l2.07,6.65a2.643,2.643,0,0,0,3,1.792l11.066-2.206a2.345,2.345,0,0,0,.641-.21,2.54,2.54,0,0,0,1.422-2.586l-.956-8.842-.239-2.151a45.484,45.484,0,0,0,5.374-3.527,46.113,46.113,0,0,0,6.3-5.819,2.533,2.533,0,0,1,2.832-.674l9.32,3.687a2.629,2.629,0,0,0,3.319-1.276l3.881-7.773,1.1-2.232a2.66,2.66,0,0,0-.934-3.432l-8.046-5.176a2.528,2.528,0,0,1-1.128-2.762,45.651,45.651,0,0,0,1.255-9.676c.029-.282.026-.542.029-.82a1.32,1.32,0,0,1,.017-.275,2.6,2.6,0,0,1,1.835-2.218l10.789-3.381a1.911,1.911,0,0,0,.354-.139,2.628,2.628,0,0,0,1.434-2.853l-2.182-11.035a2.629,2.629,0,0,0-2.868-2.1l-12.333,1.36a2.535,2.535,0,0,1-2.542-1.343,46.6,46.6,0,0,0-3.843-5.914q-1.159-1.515-2.414-2.908a2.677,2.677,0,0,1-.5-2.772l4.385-11.114a2.548,2.548,0,0,0-1.233-3.221l-10.068-5a2.669,2.669,0,0,0-3.443.944l-4.9,7.621a2.629,2.629,0,0,1-3.052,1.071,45.88,45.88,0,0,0-13.9-2.538,2.6,2.6,0,0,1-2.447-1.838l-3.042-9.726a2.7,2.7,0,0,0-3.08-1.83L1246.5,295.12a2.576,2.576,0,0,0-2.065,2.815l.05.516,1.121,10.264a2.628,2.628,0,0,1-1.434,2.641h0a45.892,45.892,0,0,0-6.832,4.313c-1.164.889-2.263,1.826-3.329,2.8a2.586,2.586,0,0,1-2.719.523l-9.451-3.745a2.669,2.669,0,0,0-3.376,1.286l-4.99,10.025a2.9,2.9,0,0,0-.258.882,2.66,2.66,0,0,0,1.195,2.492l6.438,4.117a2.662,2.662,0,0,1,1.195,2.318,2.863,2.863,0,0,1-.136.717,45.671,45.671,0,0,0-2.37,17.9,2.577,2.577,0,0,1-1.389,2.464,2.5,2.5,0,0,1-.411.165L1209,360.353a2.614,2.614,0,0,0-1.783,2.992l.05.256,2.117,10.753A2.662,2.662,0,0,0,1212.256,376.495Zm75.716-33.352a30.327,30.327,0,0,1,1.6,5.463,23.994,23.994,0,0,1-1.745,12.971c-.179.363-.366.717-.552,1.073-11.626,21.437-41.931,17.081-46.856-7.157a24.908,24.908,0,0,1,.92-11.313,16.437,16.437,0,0,1,.911-2.229,28.233,28.233,0,0,1,5.663-7.747A24.632,24.632,0,0,1,1287.972,343.143Z" transform="translate(-1207.168 -292.904)" fill="#91b5f8"/>
        </g>
        <path id="Path_192" data-name="Path 192" d="M1844.358,396.408l7.343-.805a1.634,1.634,0,0,1,1.539.741q.633.989,1.36,1.943a27.92,27.92,0,0,0,2.9,3.255,1.613,1.613,0,0,1,.392,1.778l-2.834,7.169a1.587,1.587,0,0,0,.774,2.014l6.325,3.159a1.565,1.565,0,0,0,2.012-.552l3.843-5.974a1.577,1.577,0,0,1,1.763-.676,28.549,28.549,0,0,0,8.952.918,1.627,1.627,0,0,1,1.625,1.133l1.283,4.129a1.642,1.642,0,0,0,1.864,1.114l6.873-1.369a1.491,1.491,0,0,0,.4-.131,1.575,1.575,0,0,0,.882-1.606l-.6-5.5-.148-1.336a28.012,28.012,0,0,0,3.345-2.191,28.551,28.551,0,0,0,3.919-3.606,1.577,1.577,0,0,1,1.742-.425l5.783,2.292a1.63,1.63,0,0,0,2.06-.793l2.411-4.827.686-1.386a1.653,1.653,0,0,0-.581-2.132l-5-3.214a1.57,1.57,0,0,1-.7-1.716,28.345,28.345,0,0,0,.779-6.008,4.63,4.63,0,0,0,.017-.509,1.015,1.015,0,0,1,.012-.172,1.615,1.615,0,0,1,1.14-1.376l6.691-2.1a1.254,1.254,0,0,0,.217-.086,1.64,1.64,0,0,0,.889-1.773l-1.355-6.853a1.632,1.632,0,0,0-1.775-1.3l-7.647.844a1.572,1.572,0,0,1-1.58-.832,28.626,28.626,0,0,0-2.39-3.675c-.478-.628-.977-1.228-1.5-1.807a1.656,1.656,0,0,1-.308-1.721l2.722-6.9a1.584,1.584,0,0,0-.765-2l-6.263-3.092a1.659,1.659,0,0,0-2.136.588l-3.042,4.732a1.625,1.625,0,0,1-1.9.664,28.5,28.5,0,0,0-8.631-1.575,1.618,1.618,0,0,1-1.52-1.142l-1.89-6.039a1.673,1.673,0,0,0-1.912-1.137l-6.829,1.348a1.6,1.6,0,0,0-1.281,1.747l.031.32.7,6.373a1.634,1.634,0,0,1-.889,1.642h0a28.206,28.206,0,0,0-4.242,2.676q-1.075.832-2.069,1.742a1.6,1.6,0,0,1-1.689.325l-5.867-2.325a1.656,1.656,0,0,0-2.1.8l-3.106,6.213a1.723,1.723,0,0,0-.16.547,1.649,1.649,0,0,0,.734,1.548l4,2.557a1.63,1.63,0,0,1,.66,1.888,28.38,28.38,0,0,0-1.472,11.119,1.6,1.6,0,0,1-.863,1.529,1.7,1.7,0,0,1-.253.1l-5.427,1.7a1.625,1.625,0,0,0-1.109,1.857l.031.16,1.314,6.691a1.654,1.654,0,0,0,1.816,1.31Zm47.021-20.713a18.98,18.98,0,0,1,.987,3.393,14.913,14.913,0,0,1-1.085,8.053c-.11.239-.239.447-.342.667-7.221,13.313-26.047,10.608-29.1-4.445a15.449,15.449,0,0,1,.574-7.023,10.07,10.07,0,0,1,.564-1.386,17.537,17.537,0,0,1,3.518-4.81A15.3,15.3,0,0,1,1891.379,375.694Z" transform="translate(-1401.194 -262.19)" fill="#aec3ff"/>
        <path id="Path_193" data-name="Path 193" d="M1661.877,243.185l5.018-1.673a1.173,1.173,0,0,1,1.195.284q.6.6,1.247,1.152a19.853,19.853,0,0,0,2.521,1.835,1.152,1.152,0,0,1,.547,1.195l-.889,5.456a1.133,1.133,0,0,0,.848,1.29l4.9,1.243a1.121,1.121,0,0,0,1.324-.693l1.776-4.779a1.128,1.128,0,0,1,1.133-.741,20.449,20.449,0,0,0,6.4-.717,1.166,1.166,0,0,1,1.309.545l1.527,2.693a1.171,1.171,0,0,0,1.472.495l4.6-2a1.058,1.058,0,0,0,.258-.151,1.128,1.128,0,0,0,.373-1.259l-1.252-3.747-.306-.913a20.208,20.208,0,0,0,2-2.041,20.654,20.654,0,0,0,2.194-3.121,1.123,1.123,0,0,1,1.166-.562l4.392.717a1.171,1.171,0,0,0,1.324-.867l.956-3.745.27-1.075a1.2,1.2,0,0,0-.731-1.4l-3.986-1.486a1.123,1.123,0,0,1-.75-1.094,20.309,20.309,0,0,0-.37-4.323q-.023-.181-.065-.358a.542.542,0,0,1-.019-.122,1.157,1.157,0,0,1,.588-1.135l4.347-2.5a1,1,0,0,0,.139-.093,1.178,1.178,0,0,0,.354-1.376l-1.993-4.588a1.164,1.164,0,0,0-1.434-.64l-5.231,1.756a1.125,1.125,0,0,1-1.231-.342,20.951,20.951,0,0,0-2.23-2.208c-.43-.366-.872-.717-1.324-1.035a1.2,1.2,0,0,1-.478-1.157l.853-5.245a1.137,1.137,0,0,0-.841-1.283l-4.846-1.221a1.2,1.2,0,0,0-1.407.736l-1.407,3.773a1.162,1.162,0,0,1-1.224.755,20.356,20.356,0,0,0-6.28.213,1.159,1.159,0,0,1-1.238-.569l-2.242-3.938a1.2,1.2,0,0,0-1.51-.5l-4.574,1.983a1.145,1.145,0,0,0-.631,1.417l.072.22,1.458,4.354a1.173,1.173,0,0,1-.373,1.283h0a20.036,20.036,0,0,0-2.559,2.519c-.423.5-.812,1.008-1.183,1.532a1.144,1.144,0,0,1-1.133.478l-4.459-.734a1.2,1.2,0,0,0-1.345.879l-1.221,4.827a1.247,1.247,0,0,0-.026.409,1.176,1.176,0,0,0,.748.97l3.188,1.18a1.2,1.2,0,0,1,.738.894,1.246,1.246,0,0,1,0,.327,20.309,20.309,0,0,0,.664,8,1.147,1.147,0,0,1-.37,1.195,1.3,1.3,0,0,1-.163.11l-3.532,2.036a1.161,1.161,0,0,0-.492,1.467l.045.108,1.938,4.473A1.2,1.2,0,0,0,1661.877,243.185Zm29.744-21.653a13.468,13.468,0,0,1,1.207,2.222,10.759,10.759,0,0,1,.478,5.8c-.043.177-.091.349-.139.521-3.023,10.414-16.6,11.387-21.029,1.321a11.052,11.052,0,0,1-.671-5,7.171,7.171,0,0,1,.186-1.056,12.559,12.559,0,0,1,1.728-3.9A10.942,10.942,0,0,1,1691.621,221.533Z" transform="translate(-1261.526 -153.817)" fill="#f99746"/>
        <path id="Path_194" data-name="Path 194" d="M166.688,1431.578h21.619c1.159-.982-.8-3.214-2.848-3.365a12.619,12.619,0,0,0-3.3.392c-.3-3.953-2-21.717-8.4-21-7.2.8,0,7.824,2.036,11.982a96.189,96.189,0,0,1,3.823,9.582c-.583.127-1.195.239-1.807.363-.956-2.93-4.5-12.785-9.021-12.211-5.3.672-3.171,4.624.588,6.971,2.755,1.723,6.141,4.175,7.75,5.36a22.978,22.978,0,0,1-4.227.339C169.2,1429.906,167.391,1430.986,166.688,1431.578Z" transform="translate(-126.038 -1071.225)" fill="#a8d29f"/>
        <path id="Path_195" data-name="Path 195" d="M2309.736,1419.357h-24.449c-1.31-1.114.908-3.637,3.224-3.807a14.409,14.409,0,0,1,3.73.442c.337-4.469,2.258-24.556,9.5-23.748,8.142.9,0,8.842-2.3,13.549a111.365,111.365,0,0,0-4.325,10.835c.662.143,1.346.282,2.043.411,1.08-3.312,5.095-14.457,10.2-13.807,5.994.76,3.584,5.229-.664,7.886-3.107,1.95-6.945,4.722-8.766,6.062a26,26,0,0,0,4.78.382C2306.906,1417.458,2308.942,1418.693,2309.736,1419.357Z" transform="translate(-1738.888 -1059.534)" fill="#a8d29f"/>
        <path id="Path_196" data-name="Path 196" d="M1215.825,877.581,1204,1018.183s-1.238,8.524,5.1,8.538c10.424.026,51.884,0,51.884,0s-7.848-1.773-7.752-5.766c.112-4.705,13.822-144.7,13.822-144.7Z" transform="translate(-916.212 -666.862)" fill="#d8702a"/>
        <path id="Path_197" data-name="Path 197" d="M1275.761,1016.06c-2.05,0-42.189.074-52.333-.055-4.423-.055-5.2-3.933-5.236-6.452a12.511,12.511,0,0,1,.134-2.093l.308-3.654.784-9.32.693-8.227.889-10.574.75-8.925,8.4-99.909,51.229-1.331s-5.773,58.589-9.857,101.24c-.456,4.751-.891,9.32-1.293,13.561q-.194,2.036-.375,3.976c-.38,4.036-.717,7.742-1.028,11.014-.158,1.723-.3,3.326-.437,4.794-.521,5.752-.827,9.425-.829,10.122a5.9,5.9,0,0,0,.1,1.137C1268.494,1015.859,1274.991,1016.06,1275.761,1016.06Z" transform="translate(-927.086 -658.696)" fill="#f99746"/>
        <path id="Path_198" data-name="Path 198" d="M733.16,561.64l28.8,115.7,3.943,15.846,13.415,53.889H1028.56L979.114,561.64Z" transform="translate(-557.961 -427.432)" fill="#f99746"/>
        <path id="Path_199" data-name="Path 199" d="M720.451,561.64l-3.991,1.331L761.306,751.1l5.307-4.024Z" transform="translate(-545.252 -427.432)" fill="#d8702a"/>
        <path id="Path_200" data-name="Path 200" d="M904.13,1341.654h247.7l6.842-4.024H909.437Z" transform="translate(-688.075 -1017.989)" fill="#ed7d2b"/>
        <rect id="Rectangle_33" data-name="Rectangle 33" width="53.631" height="2.547" transform="translate(356.673 359.914) rotate(180)" fill="#f99746"/>
        <path id="Path_201" data-name="Path 201" d="M1274.016,1354.47l-.277,1.948-50.438,10.189.693-8.228.33-3.909Z" transform="translate(-930.975 -1030.804)" fill="#e27329"/>
        <g id="Group_20" data-name="Group 20" transform="translate(291.106 341.414)" opacity="0.5">
          <path id="Path_202" data-name="Path 202" d="M1275.769,1444.691c-2.05,0-42.189.074-52.333-.055-4.423-.055-5.2-3.934-5.236-6.452l50.2-9.444c-.521,5.752-.827,9.425-.829,10.123a5.9,5.9,0,0,0,.1,1.137C1268.5,1444.49,1275,1444.691,1275.769,1444.691Z" transform="translate(-1218.2 -1428.74)" fill="#ed7d2b"/>
        </g>
        <path id="Path_203" data-name="Path 203" d="M733.16,561.64H979.114l39.907,149.03H770.262Z" transform="translate(-557.961 -427.432)" fill="#ed7d2b"/>
        <path id="Path_204" data-name="Path 204" d="M1039.862,729.639H809.575l-8.23-32.784-3.183-12.684-1.3-5.174-8.457-33.689-.44-1.754L783.5,625.747l-2-7.967-1.706-6.8-4-15.932h226.968l4.392,15.932,1.874,6.8,2.2,7.967,14.472,52.493v0l1.226,4.447.571,2.065,9.991,36.239Z" transform="translate(-590.404 -452.858)" fill="#505aba"/>
        <path id="Path_205" data-name="Path 205" d="M981.865,1185.29l-84.3,36.839-9.148-36.839Z" transform="translate(-676.119 -902.052)" fill="#ed7d2b"/>
        <path id="Path_206" data-name="Path 206" d="M1237.667,730.311c-18.816,0-36.662-15.294-39.78-34.119s9.647-34.122,28.461-34.122,36.662,15.294,39.781,34.122S1256.481,730.311,1237.667,730.311Zm-10.342-62.37c-15.571,0-26.138,12.665-23.557,28.241s17.351,28.241,32.922,28.241,26.138-12.665,23.557-28.238-17.351-28.234-32.922-28.234Z" transform="translate(-911.278 -503.863)" fill="#e6f0ff"/>
        <path id="Path_207" data-name="Path 207" d="M1237.423,730.169c-18.857,0-36.743-15.341-39.871-34.2s9.671-34.2,28.528-34.2c10.244,0,20.615,4.54,28.453,12.445a40.873,40.873,0,0,1,11.418,21.746,2.489,2.489,0,0,1-2.519,3.018,3.709,3.709,0,0,1-3.522-3.016,34.6,34.6,0,0,0-32.831-28.171c-15.533,0-26.066,12.634-23.49,28.162s17.3,28.159,32.831,28.159a3.709,3.709,0,0,1,3.52,3.018A2.5,2.5,0,0,1,1237.423,730.169Z" transform="translate(-911.021 -503.635)" fill="#f99746"/>
        <path id="Path_208" data-name="Path 208" d="M1252,1047.3l.54,3.262a2.676,2.676,0,0,1-2.7,3.236H1135.521a3.988,3.988,0,0,1-3.773-3.236l-.54-3.262a2.677,2.677,0,0,1,2.7-3.238h114.311A3.989,3.989,0,0,1,1252,1047.3Z" transform="translate(-860.856 -794.571)" fill="#e6f0ff"/>
        <path id="Path_209" data-name="Path 209" d="M1215.065,1044.06l1.615,9.735h-81.159a3.988,3.988,0,0,1-3.773-3.236l-.54-3.262a2.677,2.677,0,0,1,2.7-3.238Z" transform="translate(-860.856 -794.571)" fill="#f99746"/>
        <path id="Path_210" data-name="Path 210" d="M1334.827,1044.06l-7.365,9.735h-16.8l7.365-9.735Z" transform="translate(-997.459 -794.571)" fill="#f78248"/>
        <path id="Path_211" data-name="Path 211" d="M1437.826,1044.06l1.615,9.735H1423.87l7.365-9.735Z" transform="translate(-1083.616 -794.571)" fill="#f78248"/>
        <path id="Path_212" data-name="Path 212" d="M1221.616,1044.06l-7.365,9.735h-16.8l7.365-9.735Z" transform="translate(-911.302 -794.571)" fill="#f78248"/>
        <path id="Path_213" data-name="Path 213" d="M1144.119,1044.06l-7.365,9.735h-1.233a3.988,3.988,0,0,1-3.773-3.236l-.54-3.262a2.677,2.677,0,0,1,2.7-3.238Z" transform="translate(-860.856 -794.571)" fill="#f78248"/>
        <path id="Path_214" data-name="Path 214" d="M1267.676,779.687H1261.3l-.323-1.957h8.9l.279,1.673-3.9,10.992h-2.5Z" transform="translate(-959.651 -591.885)" fill="#e6f0ff"/>
        <path id="Path_215" data-name="Path 215" d="M1308.735,783.382c-.6-3.62,1.123-6.552,4.452-6.552s5.974,2.894,6.591,6.552c.6,3.62-1.121,6.552-4.452,6.552S1309.342,787.039,1308.735,783.382Zm8.744,0c-.416-2.5-2.038-4.54-3.993-4.54s-2.868,1.993-2.452,4.54c.416,2.5,2.022,4.54,3.993,4.54S1317.9,785.915,1317.479,783.382Z" transform="translate(-995.905 -591.2)" fill="#e6f0ff"/>
        <path id="Path_216" data-name="Path 216" d="M1360.837,780.37c-.292-1.756.676-3.24,2.469-3.24a3.708,3.708,0,0,1,3.506,3.24c.294,1.776-.676,3.24-2.469,3.24A3.714,3.714,0,0,1,1360.837,780.37Zm4.364,0a2.014,2.014,0,0,0-1.7-1.847c-.851,0-1.219.832-1.052,1.847a2.009,2.009,0,0,0,1.7,1.845c.815,0,1.228-.832,1.056-1.845Zm5.675-3.107h1.792l-7.169,12.665h-1.79Zm-1.307,9.578c-.292-1.756.676-3.24,2.469-3.24a3.708,3.708,0,0,1,3.506,3.24c.294,1.775-.676,3.238-2.469,3.238a3.694,3.694,0,0,1-3.5-3.228Zm4.361,0a2.01,2.01,0,0,0-1.7-1.847c-.851,0-1.219.832-1.052,1.847a2.009,2.009,0,0,0,1.7,1.845c.815,0,1.224-.822,1.054-1.835Z" transform="translate(-1035.606 -591.428)" fill="#e6f0ff"/>
        <path id="Path_217" data-name="Path 217" d="M1328.76,1011.86h.686l.545,3.281h2.053l.1.624h-2.739Z" transform="translate(-1011.234 -770.066)" fill="#e6f0ff"/>
        <path id="Path_218" data-name="Path 218" d="M1343.57,1017.152a1.274,1.274,0,0,1,1.319-1.539,1.873,1.873,0,0,1,1.823,1.539,1.271,1.271,0,0,1-1.324,1.534,1.874,1.874,0,0,1-1.818-1.534Zm2.466,0a1.116,1.116,0,0,0-1.061-.956.729.729,0,0,0-.717.956,1.121,1.121,0,0,0,1.056.956.754.754,0,0,0,.726-.956Z" transform="translate(-1022.483 -772.921)" fill="#e6f0ff"/>
        <path id="Path_219" data-name="Path 219" d="M1361.284,1018.729l-.06-.361a1,1,0,0,1-.884.423,1.152,1.152,0,0,1-1.195-.92c-.108-.652.349-.956,1.035-.956a2.7,2.7,0,0,1,.834.122v-.055a.742.742,0,0,0-.829-.631,1.843,1.843,0,0,0-.812.184l-.273-.54a2.256,2.256,0,0,1,1.08-.239,1.377,1.377,0,0,1,1.5,1.245l.289,1.744Zm-.189-1.233a2.1,2.1,0,0,0-.693-.117c-.426,0-.648.174-.6.478a.593.593,0,0,0,.641.437c.447,0,.741-.239.679-.621Z" transform="translate(-1034.324 -773.031)" fill="#e6f0ff"/>
        <path id="Path_220" data-name="Path 220" d="M1372.661,1013.735a1.167,1.167,0,0,1,1.111-1.529,1.474,1.474,0,0,1,1.092.519l-.263-1.584h.674l.676,4.062h-.676l-.081-.478a.956.956,0,0,1-.913.552A1.728,1.728,0,0,1,1372.661,1013.735Zm2.39,0a1.082,1.082,0,0,0-1.009-.944c-.464,0-.789.358-.691.956a1.078,1.078,0,0,0,1,.956.751.751,0,0,0,.686-.968Z" transform="translate(-1044.623 -769.518)" fill="#e6f0ff"/>
        <path id="Path_221" data-name="Path 221" d="M1387.29,1011.3h.717l.108.643h-.717Zm.208,1.094h.679l.478,2.944h-.674Z" transform="translate(-1055.777 -769.64)" fill="#e6f0ff"/>
        <path id="Path_222" data-name="Path 222" d="M1394.68,1015.679h.674l.076.456a.868.868,0,0,1,.834-.518,1.234,1.234,0,0,1,1.238,1.133l.311,1.873h-.667l-.277-1.673a.748.748,0,0,0-.75-.717c-.4,0-.619.272-.542.731l.277,1.673h-.676Z" transform="translate(-1061.401 -772.924)" fill="#e6f0ff"/>
        <path id="Path_223" data-name="Path 223" d="M1409.85,1019.148l.165-.507a2.187,2.187,0,0,0,1.1.313c.6,0,.879-.313.781-.9l-.038-.239a1.016,1.016,0,0,1-.956.54,1.623,1.623,0,0,1-1.568-1.388,1.1,1.1,0,0,1,1.109-1.384,1.529,1.529,0,0,1,1.116.5l-.074-.44h.676l.387,2.342a1.336,1.336,0,0,1-.189,1.111,1.481,1.481,0,0,1-1.145.4A2.848,2.848,0,0,1,1409.85,1019.148Zm1.876-2.175a1.011,1.011,0,0,0-1-.815.662.662,0,0,0-.7.82.984.984,0,0,0,.973.815.686.686,0,0,0,.729-.82Z" transform="translate(-1072.538 -772.897)" fill="#e6f0ff"/>
        <path id="Path_224" data-name="Path 224" d="M598.489,899.155s.576-6.285-6.452-6.285a8.245,8.245,0,0,1,3.226,1.732s-4.476-2.629-9.348,1.41-1.847,14.168-3.329,16.092-7.241,2.3-6.536,8.517,18.312,14.008,17.182,19.155c0,0,6.9-10.144,1.967-14.773a9.152,9.152,0,0,1,2.65,4.959s.652-5.257-2.693-6.93c-2.961-1.489-5.386-6.93-5.128-7.9S598.489,899.155,598.489,899.155Z" transform="translate(-438.35 -679.51)" fill="#2c3a64"/>
        <path id="Path_225" data-name="Path 225" d="M617.544,1045.4s5.245,21.7,10.393,26.035c3.095,2.607,12.295,8.6,12.295,8.6l-3.823,1.388s-12.763-4.3-15.619-7.668-10.679-20.193-10.679-20.193Z" transform="translate(-464.316 -795.591)" fill="#ffb27d"/>
        <path id="Path_226" data-name="Path 226" d="M665.355,1196.516l-1.233-3.052a8.655,8.655,0,0,0-8.027-5.415H633.36v76.017h94.049v-61.591H674.187a9.525,9.525,0,0,1-8.832-5.959Z" transform="translate(-482.01 -904.153)" fill="#6376e5"/>
        <path id="Path_227" data-name="Path 227" d="M424.574,1139.562l.146.253c1.147,2,3.78,6.882,6.679,12.233,1.372,2.535,2.808,5.178,4.17,7.664,2.349,4.3,4.483,8.11,5.735,10.13s2.2,3.5,2.576,4.062h0a.972.972,0,0,1,.122.595,31.046,31.046,0,0,0,.084,5.379,41.261,41.261,0,0,0,13.482,26.728l3.489.516s-4.937-18.293-6.392-28.633a20.372,20.372,0,0,1-.268-4.1,42.794,42.794,0,0,0-1.126-11.191,251.094,251.094,0,0,0-7.133-25.9c-.162-.507-5.071-18.255-5.071-18.255-4.117,3.6-19.139,5.083-19.139,5.083S419.372,1130.329,424.574,1139.562Z" transform="translate(-320.625 -851.634)" fill="#2f539b"/>
        <path id="Path_228" data-name="Path 228" d="M571.635,1480.353h-14.56a8,8,0,0,1,.411-3.9c.729-1.615,1.768-1.673.131-4.2.927.956,3.9,1.348,6.005,1.063.258.418,1.673,3.224,2.526,3.843C567.1,1477.842,571.334,1477.6,571.635,1480.353Z" transform="translate(-423.894 -1120.439)" fill="#233862"/>
        <path id="Path_229" data-name="Path 229" d="M435,1177.576l.146.253c1.147,2,7.353,13.459,10.254,18.807-3.36-13.824-1.023-27.646-1.023-27.646Z" transform="translate(-331.051 -889.647)" fill="#233862"/>
        <path id="Path_230" data-name="Path 230" d="M625.666,915.145c.1-.382-8.316,3.8-8.744,4.275-3.945,4.375-2.82,10.087-.562,10.142,1.448.033,1.166,2.442,1.166,2.442l16.128-6.823S631.714,913.857,625.666,915.145Z" transform="translate(-467.512 -696.384)" fill="#2c3a64"/>
        <path id="Path_231" data-name="Path 231" d="M612.126,1031.77s2.454,4.9,2.151,8.882c0,0-2.961,4.672-10.636,5.855C603.638,1046.507,610.238,1031.765,612.126,1031.77Z" transform="translate(-459.392 -785.218)" fill="#aec3ff"/>
        <path id="Path_232" data-name="Path 232" d="M366.033,1115.577l.048-2.724c-5.424.686-18.708-6.483-18.708-6.483s-5.675,3.776-6.452,14.558c-.378,5.257-2.779,27.519-3.044,34.172-.1,2.409-.129,4.127-.139,4.815h0a.936.936,0,0,1-.239.562,31.078,31.078,0,0,0-2.942,4.507c-8.28,15.4-3.95,36.337-3.95,36.337l1.924-.478s7-21.7,11.575-31.085a19.624,19.624,0,0,1,2.074-3.546,42.834,42.834,0,0,0,5.322-9.91C354.887,1148.215,366.033,1115.577,366.033,1115.577Z" transform="translate(-250.742 -841.991)" fill="#2f539b"/>
        <path id="Path_233" data-name="Path 233" d="M336.069,1480.034H321.506a7.981,7.981,0,0,1,.413-3.9c.729-1.615,1.869-2.351,1.6-4.3a5.24,5.24,0,0,0,4.54,1.737,16.271,16.271,0,0,0,2.526,3.274C331.533,1477.522,335.775,1477.279,336.069,1480.034Z" transform="translate(-244.617 -1120.12)" fill="#233862"/>
        <path id="Path_234" data-name="Path 234" d="M449.2,1023.347c-1.957.334.32,1.888-2.371,2.182-3.823.418-7.783.7-9.853,1.529a2.228,2.228,0,0,0-1.419,1.149c-.9,2.7-6.581,7.336-6.581,7.336C403.62,1034.39,402,1023.089,402,1023.089c16.455-15.982,30.456-24.692,42.024-25.772,2.817-.263,6.612.091,8.392.884,4.048,1.8,6.266,7.284,6.266,7.284S456.632,1022.08,449.2,1023.347Z" transform="translate(-305.936 -758.932)" fill="#aec3ff"/>
        <path id="Path_235" data-name="Path 235" d="M552.6,1049.957c-3.823.418-7.783.7-9.852,1.529-5.974-11.932,5.121-22.157,5.121-22.157S551.758,1045.171,552.6,1049.957Z" transform="translate(-411.704 -783.361)" fill="#94b0ed"/>
        <path id="Path_236" data-name="Path 236" d="M566.169,1020.333s-9.628-.526-11.339,5.52,3.209,30.174,4.27,32.664c1.931,4.54,11.666,18.037,11.666,18.037l3.118-1.615s-6.266-19.77-7.666-21.724C564.023,1050.144,569.051,1022.962,566.169,1020.333Z" transform="translate(-421.973 -776.506)" fill="#ffb27d"/>
        <path id="Path_237" data-name="Path 237" d="M624.445,1247.54a14.228,14.228,0,0,1,1.453,1.491c.648.791.079,1.078,1.938,4.66,0,0-.093.5-.5.406s-1.807-1.479-2.526-1.379c0,0-.516.423-.571,1.828a33.7,33.7,0,0,1-.287,4.765c-.229.545-1.9-2.289-2.722-4.337-.717-1.8-.017-7.855-.017-7.855Z" transform="translate(-472.533 -949.107)" fill="#ffb27d"/>
        <path id="Path_238" data-name="Path 238" d="M548,1028.246c.026.143,9.112,1.673,14.8-1.212,0,0,4.748-14.875-2.038-14.163s-10.8,2.849-10.973,6.1A62.541,62.541,0,0,1,548,1028.246Z" transform="translate(-417.048 -770.816)" fill="#aec3ff"/>
        <path id="Path_239" data-name="Path 239" d="M611.975,987.149a6.049,6.049,0,0,0,1.828,4.234c1.207,1.243,2.949,2.213,4.175.989a13.225,13.225,0,0,0,1.895-2.289c1.059-1.821,2.32-3.68,2.32-3.68l-5.451-4.779-.325-.284a13.837,13.837,0,0,1-4.062,4.6A1.322,1.322,0,0,0,611.975,987.149Z" transform="translate(-465.729 -746.839)" fill="#ffb27d"/>
        <path id="Path_240" data-name="Path 240" d="M637.115,987.327s-1.259,1.854-2.32,3.678c-3.386-2.089-3.391-6.282-3.128-8.455Z" transform="translate(-480.644 -747.76)" fill="#ed985f"/>
        <path id="Path_241" data-name="Path 241" d="M636.546,958.714s-8.225-4.576-5.3-9.654,3.84-9.081,9.214-6.383,5.257,5.229,4.7,7.169S638.762,959.777,636.546,958.714Z" transform="translate(-479.924 -716.755)" fill="#ffb27d"/>
        <path id="Path_242" data-name="Path 242" d="M643.8,944.665c-.378-2.256-1.522-2.471-2.323-2.32a6.581,6.581,0,0,0-8-3.061,11.208,11.208,0,0,1-6.483,3.9s.956,1.776,4.887,2.868a6.725,6.725,0,0,0,3.881-.311,21.956,21.956,0,0,1-5.582,2.105c5.181.478,10.113-4.263,10.624-4.779a7.386,7.386,0,0,1,.406,3.4c-.342,1.527-1.7,4.3-.87,4.65C640.346,951.117,644.368,948.051,643.8,944.665Z" transform="translate(-477.169 -714.546)" fill="#2c3a64"/>
        <path id="Path_243" data-name="Path 243" d="M738.607,1189.844s-2.294,1.721-.564,2.846,4.818,1.434,4.829.691C742.916,1190.9,741.678,1189.141,738.607,1189.844Z" transform="translate(-561.186 -905.4)" fill="#ffb27d"/>
        <path id="Path_244" data-name="Path 244" d="M709.689,1318.107h48.6c2,0,3.546-3.063,3.573-5.231.079-6.808-7.229-17.683-23.791-12.871,0,0-4.674-12.615-21.1-11.086-9.642.9-15.017,10.737-15.664,19.509C700.919,1313.663,704.835,1318.107,709.689,1318.107Z" transform="translate(-533.699 -980.821)" fill="#aec3ff"/>
        <rect id="Rectangle_34" data-name="Rectangle 34" width="9.413" height="21.624" transform="translate(202.575 348.625) rotate(180)" fill="#f99746"/>
        <path id="Path_245" data-name="Path 245" d="M802.511,1351.74H779.15l11.681-10.98Z" transform="translate(-592.961 -1020.371)" fill="#f99746"/>
        <path id="Path_246" data-name="Path 246" d="M1675.083,927.092l-12.28,2.822-6.1,11.026-4.562-25.18Z" transform="translate(-1257.338 -696.93)" fill="#233862"/>
        <rect id="Rectangle_35" data-name="Rectangle 35" width="2.244" height="12.981" transform="translate(403.012 231.925) rotate(-36.99)" fill="#233862"/>
        <path id="Path_247" data-name="Path 247" d="M946.071,658.2a1.434,1.434,0,0,0-.256,1.534h0a9.524,9.524,0,0,0,3.013,3.307c.182.148.344.28.478.4.036.033.074.064.107.1l.084.074c1.324,1.224.827,1.5,3.207,3.981,2.715,2.825,4.583,2.868,5.114,2.629.452-.22-.464-1.716-1.477-3.4l-.146-.239c-.136-.222-.27-.449-.4-.674-1.195-2.026-.882-2.978-.6-5.993.239-2.449,3.811-13.69,3.811-13.69l-5.2-.894s-1.565,8.949-3.291,10.326c-.925.736-1.957.746-2.844,1.29-.062.036-.124.076-.184.115A6.829,6.829,0,0,0,946.071,658.2Z" transform="translate(-719.709 -491.131)" fill="#ffb27d"/>
        <path id="Path_248" data-name="Path 248" d="M946.071,695.54a1.434,1.434,0,0,0-.256,1.534h0a11.119,11.119,0,0,0,3.018,3.3c.179.148.339.287.478.413.036.034.074.065.108.1l.084.074c1.324,1.224.827,1.5,3.207,3.981,2.715,2.825,4.583,2.868,5.114,2.629.452-.22-.464-1.716-1.477-3.4a11.554,11.554,0,0,1-4.837-3.565c-1.575-2.01-2.645-4.571-3.716-6.144l-.306-.057A6.828,6.828,0,0,0,946.071,695.54Z" transform="translate(-719.709 -528.467)" fill="#233862"/>
        <path id="Path_249" data-name="Path 249" d="M1109.53,649.877c.32,1.606,2.609,1.338,5.166.717s1.95.117,5.589-.284,4.741-1.761,4.851-2.3c.1-.478-1.7-.65-3.627-.872-.239-.026-.478-.057-.729-.088-2.179-.272-3.773-1.673-5.752-2.832-1.874-1.092-4.669-5.546-4.669-5.546l-4.99.4s2.629,3.976,3.632,5.706a5.927,5.927,0,0,1,.478,3.4,6.383,6.383,0,0,0,.05,1.7Z" transform="translate(-841.226 -486.055)" fill="#ffb27d"/>
        <path id="Path_250" data-name="Path 250" d="M1127.675,677.548c2.557-.626,1.95.117,5.589-.284s4.741-1.761,4.851-2.3c.1-.478-1.7-.65-3.628-.872l-.017.036a10.255,10.255,0,0,1-5.219,1.615c-2.469.062-5.085-.645-6.789-.619a6.384,6.384,0,0,0,.038,1.706C1122.829,678.439,1125.118,678.171,1127.675,677.548Z" transform="translate(-854.204 -513.011)" fill="#233862"/>
        <path id="Path_251" data-name="Path 251" d="M988.212,526.533l-4.665,12.555-6.091,16.391a9.874,9.874,0,0,1-3.236-.294,14.1,14.1,0,0,1-3.13-1.525s1.692-17.6,4.846-27.7a18.053,18.053,0,0,1,2.715-5.871C983.542,514.312,988.212,526.533,988.212,526.533Z" transform="translate(-739.034 -394.629)" fill="#94b0ed"/>
        <path id="Path_252" data-name="Path 252" d="M879.17,460.617c-2.655-.858-9.585-.014-17.1,1.348a5.1,5.1,0,0,1-5.257-2.378h0L837.9,458.11s-6.256,13.834-2.832,22.661a3.316,3.316,0,0,0,3.3,2.132h0s11.43.017,15.086.017c9.406,0,19.908-6.466,21.268-6.739,2.225-.444,3.107,4,5.336,8.672s20.9,20.678,20.9,20.678a16.519,16.519,0,0,0,4.062-.416,3.988,3.988,0,0,0,1.742-1.1S886.064,462.839,879.17,460.617Z" transform="translate(-634.736 -348.642)" fill="#aec3ff"/>
        <path id="Path_253" data-name="Path 253" d="M822.784,228.286a6.72,6.72,0,0,0-3.613-.939,10.151,10.151,0,0,1-1.744-.105c-7.219-1.059-11.566,9.427-11.819,12.6-.478,5.816-3.546,6.7-7.886,10.347-8.686,7.3-6.139,15.791-1.391,18.945,2.851,1.893,7.871,0,7.871,0,.072.05,13.736-7.647,20.472-11.348C834.78,256.348,826.842,230.712,822.784,228.286Z" transform="translate(-602.724 -172.887)" fill="#233862"/>
        <path id="Path_254" data-name="Path 254" d="M875.863,308.341c.031.019-3.314,1.161-5.549.172-2.1-.93-3.7-4.39-3.666-4.392.956-.045,2.007-.882,2.815-6.371l.409.148,6.851,2.464s-.5,2.2-.817,4.3C875.634,306.412,875.49,308.085,875.863,308.341Z" transform="translate(-659.55 -226.603)" fill="#ffb27d"/>
        <path id="Path_255" data-name="Path 255" d="M886.991,300.834s-.275,1.195-.674,3.4a7.749,7.749,0,0,1-6.177-5.867Z" transform="translate(-669.818 -227.074)" fill="#ed975d"/>
        <path id="Path_256" data-name="Path 256" d="M885.827,265.3s-9.375-1.257-8.5-7.083.239-9.91,6.273-9.353,6.846,2.954,7.028,4.968S888.285,265.481,885.827,265.3Z" transform="translate(-667.633 -189.363)" fill="#ffb27d"/>
        <path id="Path_257" data-name="Path 257" d="M881.71,249.005s-6,5.171-10.08,5.587S866,253.7,866,253.7a15.94,15.94,0,0,0,3.854-5.221,2.868,2.868,0,0,1,2.366-1.692C875.136,246.537,880.66,246.422,881.71,249.005Z" transform="translate(-659.057 -187.725)" fill="#233862"/>
        <path id="Path_258" data-name="Path 258" d="M916.05,250.961a14.535,14.535,0,0,1,2.629,3.379,11.338,11.338,0,0,1,.308,6.031s3.128-6.082,1.357-9.035C918.475,248.206,916.05,250.961,916.05,250.961Z" transform="translate(-697.147 -190.142)" fill="#233862"/>
        <path id="Path_259" data-name="Path 259" d="M858.149,341.731c-.284,18.971-.079,15.007-2.151,16.809-.5.433-1.912.691-3.757.813-5.816.387-16.044-.571-16.434-1.646-1.34-3.721-.394-4.875-1.513-10.572-.117-.6-.263-1.262-.43-1.974-.934-3.912-1.842-5.243,1.467-11.528,3-5.692,6.125-10.314,6.4-10.146,7.924,4.705,8.562.75,8.562.75S858.288,332.476,858.149,341.731Z" transform="translate(-633.943 -246.185)" fill="#f99746"/>
        <path id="Path_260" data-name="Path 260" d="M983.547,562.751l-6.091,16.391a9.874,9.874,0,0,1-3.236-.294,14.1,14.1,0,0,1-3.13-1.525s1.692-17.6,4.846-27.7Z" transform="translate(-739.034 -418.285)" fill="#aec3ff"/>
        <path id="Path_261" data-name="Path 261" d="M905.39,326.64s8.151,1.381,9.109,4.892,4.108,24.826,4.108,24.826-2.3,2.246-4.213.33-6.024-19.934-6.024-19.934Z" transform="translate(-689.034 -248.589)" fill="#f99746"/>
        <path id="Path_262" data-name="Path 262" d="M856.356,409.518c-5.816.387-16.044-.571-16.434-1.646-1.341-3.721-.394-4.875-1.513-10.572l2.806-7.9s-.464,8.8,2.132,11.112,10.622,4.469,11.884,6.4A7.073,7.073,0,0,1,856.356,409.518Z" transform="translate(-638.06 -296.352)" fill="#ed7d2b"/>
        <path id="Path_263" data-name="Path 263" d="M885.62,455.278s5.735-1.278,6.665-.77a13.4,13.4,0,0,1,3.472,3.011c.282.645-2.06-.49-2.825-.7a6.854,6.854,0,0,0-2.437.533,8.107,8.107,0,0,1-4.368.44Z" transform="translate(-673.989 -345.81)" fill="#ffb27d"/>
        <path id="Path_264" data-name="Path 264" d="M810.331,323.49s-7.707.478-10.373,4.194c-3.757,5.238-11.205,27.56-6.93,30.537,4.808,3.345,21.882.877,21.882.877s.569-2.655-.222-3.94-13.642-3.348-14.235-3.952,7.408-11.563,7.408-13.341S810.331,323.49,810.331,323.49Z" transform="translate(-602.544 -246.192)" fill="#f99746"/>
        <path id="Path_265" data-name="Path 265" d="M914.67,461.58a10.617,10.617,0,0,0,1.6,1.735,1.156,1.156,0,0,0,.648.139l-.81-1.458Z" transform="translate(-696.097 -351.283)" fill="#ffb27d"/>
        <path id="Path_266" data-name="Path 266" d="M913.51,454.89l3.5,1.7a.616.616,0,0,1-.578.222,8.334,8.334,0,0,1-1.517-.416Z" transform="translate(-695.214 -346.192)" fill="#ffb27d"/>
        <path id="Path_267" data-name="Path 267" d="M922.141,471.59H885.62v.808h36.2Z" transform="translate(-673.989 -358.901)" fill="#233862"/>
        <path id="Path_268" data-name="Path 268" d="M921.36,409.08h27.655l8.321-20.69H929.721Z" transform="translate(-701.188 -295.583)" fill="#233862"/>
        <path id="Path_269" data-name="Path 269" d="M999.321,427.487a.961.961,0,0,0-.939-1.317,1.885,1.885,0,0,0-1.694,1.317.96.96,0,0,0,.939,1.317A1.89,1.89,0,0,0,999.321,427.487Z" transform="translate(-758.474 -324.335)" fill="#fff"/>
        <path id="Path_270" data-name="Path 270" d="M2138.28,827.35s13.4,13.635,14.087,19.3-6.947,14.5-6.947,14.5Z" transform="translate(-1627.308 -629.647)" fill="#ed7d2b"/>
        <path id="Path_271" data-name="Path 271" d="M2043.756,1465.542s-.511,7.977-2.055,8.089c-.206.014-7.828,0-7.828,0l-9.733-.076a3.16,3.16,0,0,1,2.915-2.837c2.846-.49,7.611-2.478,9.344-6.235C2038.22,1460.531,2043.756,1465.542,2043.756,1465.542Z" transform="translate(-1540.443 -1113.373)" fill="#0e2644"/>
        <path id="Path_272" data-name="Path 272" d="M2134.519,1465.742s-.514,7.979-2.057,8.089c-.206.017-7.829,0-7.829,0l-9.733-.079a3.159,3.159,0,0,1,2.915-2.834c2.846-.49,7.611-2.478,9.344-6.235C2128.968,1460.738,2134.519,1465.742,2134.519,1465.742Z" transform="translate(-1609.515 -1113.527)" fill="#0e2644"/>
        <path id="Path_273" data-name="Path 273" d="M2061.91,1076.157s2.509,16.286,11.948,45.2,10.7,41.437,10.7,41.437l10.187-.265s.155-31.582-4.189-46.12-.832-52.393-.832-52.393Z" transform="translate(-1569.187 -809.762)" fill="#163560"/>
        <path id="Path_274" data-name="Path 274" d="M2041.234,1067.44A395.354,395.354,0,0,0,2045,1122.1c4.177,30.131,2.715,42.913,2.715,42.913l10.163.361s6.141-30.11,4.433-45.2,8.431-51.716,8.431-51.716Z" transform="translate(-1553.444 -812.364)" fill="#1c468a"/>
        <path id="Path_275" data-name="Path 275" d="M2081.948,788.735l-5.422,3.539-7.826-1.479c.11-.633.633-3.25,1.109-5.62.029-.141.057-.282.084-.418l.76-3.749,7.317-3.212,2.729-1.195c0,.041-.215,2.239-.239,2.559A18.608,18.608,0,0,0,2081.948,788.735Z" transform="translate(-1574.355 -591.025)" fill="#ffb27d"/>
        <path id="Path_276" data-name="Path 276" d="M2067.138,811.9c.151-.065,9.432-2.779,10.438-2.445s1.6,2.284,1.6,2.284l-15.175,3.4A7.51,7.51,0,0,1,2067.138,811.9Z" transform="translate(-1570.778 -616.01)" fill="#ed7d2b"/>
        <path id="Path_277" data-name="Path 277" d="M2069.11,881.308c-1.587,7.169-27.753,7.962-34.482,1.434-.765-.745-.8-4.2-.5-8.842.585-9.093,2.432-22.768,2.519-29.758a55.531,55.531,0,0,1,1.137-9.96,80.792,80.792,0,0,1,3.345-11.917s12.787-4.1,15.177-3.4C2067.822,822.274,2070.7,874.139,2069.11,881.308Z" transform="translate(-1547.912 -623.13)" fill="#f99746"/>
        <path id="Path_278" data-name="Path 278" d="M2034.69,918.639c.586-9.093,2.433-22.768,2.519-29.758a55.53,55.53,0,0,1,1.137-9.96l7.69-1.341S2054.514,910.16,2034.69,918.639Z" transform="translate(-1548.472 -667.874)" fill="#ed7d2b"/>
        <path id="Path_279" data-name="Path 279" d="M2045.222,992.591a1.812,1.812,0,0,1-.581,2.093,3.506,3.506,0,0,0-1.57,3.195c.251,1,2.66,2.629,3.5,2.366s2.543-1.568,2.361-2.093,1.154-4.607-.882-6.184S2045.222,992.591,2045.222,992.591Z" transform="translate(-1554.812 -754.494)" fill="#ffb27d"/>
        <path id="Path_280" data-name="Path 280" d="M2016.645,827.46s-7.291.956-13.284,9.752-9.936,15.325-8.842,18.5,11.1,14.2,12.83,14.206,4.521-1.25,4.684-4.079c0,0-6.34-11.255-4.944-12.837.595-.676,8.486-6.961,9.7-3.823C2018.8,854.394,2016.645,827.46,2016.645,827.46Z" transform="translate(-1517.762 -629.731)" fill="#f99746"/>
        <path id="Path_281" data-name="Path 281" d="M2083.436,783.083c-1.613,2.715-7.6,5.054-10.1,5.914.029-.141.057-.282.084-.418l.76-3.749,7.317-3.212C2083.116,781.6,2084.1,781.965,2083.436,783.083Z" transform="translate(-1577.886 -594.843)" fill="#fca56b"/>
        <path id="Path_282" data-name="Path 282" d="M2060.683,731.482s11.769,3.7,13.96-3.666,5.186-11.846-2.237-14.52-9.723-.3-11.052,1.981S2057.677,730.33,2060.683,731.482Z" transform="translate(-1567.141 -541.947)" fill="#ffb27d"/>
        <path id="Path_283" data-name="Path 283" d="M2066.59,701.75s.731,8.576,2.507,8.208,3.384-.64,3.119,1.945-2.731,5.563,2.731,6.031,13.353-13.621,11.857-16.281C2082.488,693.945,2060.355,692.337,2066.59,701.75Z" transform="translate(-1571.912 -529.129)" fill="#163560"/>
        <rect id="Rectangle_36" data-name="Rectangle 36" width="634.844" height="1.742" rx="0.871" transform="translate(0 359.914)" fill="#2e3552"/>
      </g>
    </g>
    <path id="Path_1269" data-name="Path 1269" d="M1182.754,1537.512c-3.875,0-5.334-5.552-5.349-5.612a.27.27,0,0,1,.522-.133c.015.06,1.586,6.029,5.684,5.108a.27.27,0,0,1,.118.527A4.458,4.458,0,0,1,1182.754,1537.512Z" transform="translate(-238.771 1649.735)" fill="#fff"/>
    <ellipse id="Ellipse_27" data-name="Ellipse 27" cx="1.394" cy="0.764" rx="1.394" ry="0.764" transform="matrix(0.968, -0.252, 0.252, 0.968, 944.521, 3186.312)" fill="#fff"/>
    <ellipse id="Ellipse_28" data-name="Ellipse 28" cx="1.304" cy="2.088" rx="1.304" ry="2.088" transform="translate(936.635 3179.379) rotate(-14.452)" fill="#fff"/>
    <path id="Path_1270" data-name="Path 1270" d="M1149.339,1318.25l-.094-.224c-.058-.146-.138-.36-.231-.635a14.83,14.83,0,0,1-.573-2.327,11.5,11.5,0,0,1-.07-3.391,8.09,8.09,0,0,1,.475-1.867,7.442,7.442,0,0,1,2.332-3.179l.386-.3.4-.265.2-.133.208-.116.411-.227c.146-.079.277-.133.416-.2s.29-.118.434-.164a6.039,6.039,0,0,1,2.47-.3,3.415,3.415,0,0,1,.364.045,3.009,3.009,0,0,1,.349.066c.112.029.222.05.325.083l.3.1a2.332,2.332,0,0,1,.274.119c.086.043.173.077.249.123.15.1.3.174.413.265l.308.25c.083.078.147.152.2.21l.167.176a.144.144,0,0,1-.208.2l-.013-.013-.157-.162c-.052-.051-.111-.12-.189-.192l-.282-.229c-.108-.084-.244-.152-.383-.241-.071-.043-.153-.072-.232-.111a2.456,2.456,0,0,0-.255-.108l-.281-.093c-.1-.031-.2-.049-.305-.075a2.7,2.7,0,0,0-.324-.058,3.061,3.061,0,0,0-.347-.04,5.729,5.729,0,0,0-2.333.3c-.133.044-.265.1-.4.154-.133.067-.28.129-.4.2l-.394.223-.2.114-.191.129-.385.259-.366.291a7.054,7.054,0,0,0-2.186,3.034,7.721,7.721,0,0,0-.433,1.778,11.046,11.046,0,0,0,.1,3.256,14.285,14.285,0,0,0,.578,2.245c.092.266.172.469.228.606s.089.206.089.206l0,.01a.253.253,0,0,1-.464.2Z" transform="translate(-211.581 1861.371)" fill="#fff"/>
  </g>
</svg>
