<svg xmlns="http://www.w3.org/2000/svg" xmlns:xlink="http://www.w3.org/1999/xlink" width="419.789" height="423.481" viewBox="0 0 419.789 423.481">
  <defs>
    <clipPath id="clip-path">
      <path id="Path_624" data-name="Path 624" d="M326.991,1305.986l-42.929,23.443s-20.115-17.606-18.084-38.9c4.141-43.438-34.191-44.033-50.213-46.684-24.157-4-43.7-18.055-23.352-39.942s-25.719-46.785-65.662-47.619c-26.593-.557-47.755-71.65,24.571-76.771,50.618-3.584,67.731,42.811,81.943,64.186s48.6,4.991,52.156,38.652c3.037,28.747-6.172,55.949,16.771,64.319S336.464,1272.3,326.991,1305.986Z" transform="translate(-101.932 -1079.322)" fill="none"/>
    </clipPath>
    <linearGradient id="linear-gradient" x1="4.042" y1="-1.471" x2="3.632" y2="-0.364" gradientUnits="objectBoundingBox">
      <stop offset="0" stop-color="#aa80f9"/>
      <stop offset="1" stop-color="#6165d7"/>
    </linearGradient>
    <linearGradient id="linear-gradient-2" x1="-6.468" y1="-0.29" x2="-5.648" y2="0.904" xlink:href="#linear-gradient"/>
    <clipPath id="clip-path-2">
      <path id="Path_634" data-name="Path 634" d="M575.189,408.274l35.985-7.04s10.8-24.28-1.835-31.381-6.01-30.571-4.031-43.437c5.374-34.908-35.578-33.376-32.529-78.683.811-12.048,6.693-34.854-3.581-44.893-11.7-11.438-21.526-1.081-28.909-10.549-11.537-14.8-31.493-20.746-44.6-6.532-12.937,14.031-.4,43.514,34.1,68.2,22.535,20.353,22.509,26.165,19.661,40.231-1.992,9.846-13.914,35.22-.151,46.1s24.048,22.458,17.708,33.411C557.368,390.364,575.189,408.274,575.189,408.274Z" transform="translate(-490.702 -177.655)" fill="none"/>
    </clipPath>
    <linearGradient id="linear-gradient-3" x1="0.454" y1="-0.716" x2="1.103" y2="0.188" gradientUnits="objectBoundingBox">
      <stop offset="0" stop-color="#e38ddd"/>
      <stop offset="1" stop-color="#9571f6"/>
    </linearGradient>
    <clipPath id="clip-path-3">
      <path id="Path_641" data-name="Path 641" d="M168.79,696.526l57.76-7.148c2.512-8.157,5.236-22.965-7.237-24.988-17.338-2.815-20.6-30.831-16.992-41.289,4.468-12.952,14.226-43.3-12.5-48.051-22.246-3.956-37.573-2.17-41.763-28.311s-21.023-40.795-46.081-36.3c-26.36,4.722-51.515-26.182-72.11-12.473-35.887,23.886,4.321,77.89,52.085,89.341s22.945,30.23,23.9,51.91c1.3,29.6,42.64,18.438,54.9,28.7C170.369,675.962,170.027,688.644,168.79,696.526Z" transform="translate(-16.094 -494.431)" fill="none"/>
    </clipPath>
    <clipPath id="clip-path-4">
      <rect id="Rectangle_80" data-name="Rectangle 80" width="193.966" height="186.187" fill="none"/>
    </clipPath>
    <clipPath id="clip-path-5">
      <path id="Path_650" data-name="Path 650" d="M1521.282,2193.288l29.125,15.911s13.644-11.948,12.267-26.387c-2.808-29.467,23.2-29.87,34.063-31.668,16.387-2.712,29.644-12.251,15.841-27.1s17.448-31.74,44.544-32.305c26.518-.554,40.836-48.009-16.669-52.079-34.339-2.432-45.948,29.039-55.589,43.543s-32.971,3.389-35.391,26.221c-2.06,19.5,4.188,37.962-11.377,43.634S1514.857,2170.439,1521.282,2193.288Z" transform="translate(-1519.007 -2039.529)" fill="none"/>
    </clipPath>
    <linearGradient id="linear-gradient-4" x1="4.612" y1="-2.11" x2="4.203" y2="-1.003" xlink:href="#linear-gradient"/>
    <linearGradient id="linear-gradient-5" x1="-11.246" y1="-0.407" x2="-10.426" y2="0.787" xlink:href="#linear-gradient"/>
    <clipPath id="clip-path-6">
      <path id="Path_660" data-name="Path 660" d="M1747.48,1584.279l-24.412-4.775s-7.329-16.472,1.246-21.291,4.083-20.738,2.734-29.467c-3.643-23.682,24.135-22.643,22.066-53.375-.551-8.167-4.537-23.644,2.429-30.454,7.942-7.76,14.6-.735,19.612-7.157,7.827-10.038,21.365-14.075,30.258-4.432,8.772,9.518.269,29.517-23.14,46.262-15.286,13.807-15.276,17.754-13.341,27.289,1.351,6.68,9.438,23.9.107,31.277s-16.31,15.235-12.013,22.665C1759.571,1572.13,1747.48,1584.279,1747.48,1584.279Z" transform="translate(-1720.151 -1427.832)" fill="none"/>
    </clipPath>
    <linearGradient id="linear-gradient-6" x1="-0.76" y1="-1.043" x2="-0.112" y2="-0.139" xlink:href="#linear-gradient-3"/>
    <clipPath id="clip-path-7">
      <path id="Path_667" data-name="Path 667" d="M1688.857,1779.793l-39.184-4.849c-1.7-5.533-3.551-15.578,4.909-16.953,11.762-1.909,13.976-20.914,11.528-28.015-3.025-8.786-9.651-29.373,8.479-32.6,15.091-2.683,25.489-1.471,28.331-19.208s14.267-27.677,31.26-24.627c17.883,3.209,34.948-17.756,48.92-8.456,24.35,16.2-2.933,52.841-35.335,60.608s-15.566,20.508-16.209,35.217c-.879,20.079-28.927,12.508-37.246,19.468C1687.786,1765.848,1688.018,1774.445,1688.857,1779.793Z" transform="translate(-1648.225 -1642.69)" fill="none"/>
    </clipPath>
    <linearGradient id="linear-gradient-7" x1="0.54" y1="0.385" x2="-1.168" y2="3.534" gradientUnits="objectBoundingBox">
      <stop offset="0" stop-color="#ffc444"/>
      <stop offset="1" stop-color="#f36f56"/>
    </linearGradient>
    <linearGradient id="linear-gradient-8" y1="0.5" x2="1" y2="0.5" gradientUnits="objectBoundingBox">
      <stop offset="0.49" stop-color="#ebeff2"/>
      <stop offset="1" stop-color="#fff"/>
    </linearGradient>
    <clipPath id="clip-path-8">
      <path id="Path_687" data-name="Path 687" d="M329.856,861.221l-91.432,28.313s2.559-99.409,2.355-96.812S113.1,709.963,63.711,726.807s-99.919,129.1-27.569,182.083,90.427-3.3,77.371,100.642l155.478-10.587,63.6-82.578Z" transform="translate(0.005 -724.604)" fill="none"/>
    </clipPath>
    <linearGradient id="linear-gradient-9" x1="-9.326" y1="-13.179" x2="-9.66" y2="-10.462" gradientUnits="objectBoundingBox">
      <stop offset="0" stop-color="#ab316d"/>
      <stop offset="1" stop-color="#792d3d"/>
    </linearGradient>
    <linearGradient id="linear-gradient-10" x1="-5.574" y1="-2.688" x2="-4.759" y2="-2.688" gradientUnits="objectBoundingBox">
      <stop offset="0" stop-color="#ff9085"/>
      <stop offset="1" stop-color="#fb6fbb"/>
    </linearGradient>
    <linearGradient id="linear-gradient-11" x1="-5.584" y1="-2.898" x2="-4.766" y2="-2.898" xlink:href="#linear-gradient-10"/>
    <linearGradient id="linear-gradient-12" x1="-5.297" y1="0.5" x2="-4.297" y2="0.5" xlink:href="#linear-gradient-10"/>
    <linearGradient id="linear-gradient-13" x1="-1.187" y1="0.373" x2="-0.203" y2="0.373" gradientUnits="objectBoundingBox">
      <stop offset="0" stop-color="#311944"/>
      <stop offset="1" stop-color="#6b3976"/>
    </linearGradient>
    <linearGradient id="linear-gradient-14" x1="-1.191" y1="0.09" x2="-0.157" y2="0.09" xlink:href="#linear-gradient-13"/>
    <linearGradient id="linear-gradient-15" x1="-15.899" y1="1.612" x2="-15.957" y2="-0.066" xlink:href="#linear-gradient-9"/>
    <linearGradient id="linear-gradient-16" x1="-17.891" y1="1.011" x2="-17.316" y2="-0.404" xlink:href="#linear-gradient-9"/>
    <linearGradient id="linear-gradient-17" x1="-7.126" y1="0.5" x2="-5.797" y2="0.5" xlink:href="#linear-gradient-10"/>
    <clipPath id="clip-path-9">
      <path id="Path_718" data-name="Path 718" d="M1652.393,257.56V230.35H1551.06v88.016h19.527a59.52,59.52,0,0,0,58.985,53.073c32.765,0,58.9-28.157,59.122-59.3A58.811,58.811,0,0,0,1652.393,257.56Z" transform="translate(-1551.06 -230.35)" fill="none"/>
    </clipPath>
    <linearGradient id="linear-gradient-18" x1="0.42" y1="1.01" x2="0.562" y2="-0.049" xlink:href="#linear-gradient-7"/>
    <linearGradient id="linear-gradient-19" x1="0.452" y1="0.991" x2="0.563" y2="-0.035" xlink:href="#linear-gradient"/>
    <linearGradient id="linear-gradient-20" x1="-4.277" y1="-1.677" x2="-3.793" y2="-0.29" gradientUnits="objectBoundingBox">
      <stop offset="0" stop-color="#311944"/>
      <stop offset="1" stop-color="#893976"/>
    </linearGradient>
    <linearGradient id="linear-gradient-21" x1="-4.101" y1="-0.286" x2="-3.464" y2="-0.286" xlink:href="#linear-gradient-20"/>
    <linearGradient id="linear-gradient-22" x1="118.85" y1="-11.731" x2="120.074" y2="-13.507" xlink:href="#linear-gradient-7"/>
    <linearGradient id="linear-gradient-23" x1="40.236" y1="-34.827" x2="41.199" y2="-34.827" gradientUnits="objectBoundingBox">
      <stop offset="0" stop-color="#444b8c"/>
      <stop offset="1" stop-color="#26264f"/>
    </linearGradient>
    <linearGradient id="linear-gradient-24" x1="97.752" y1="-19.955" x2="98.764" y2="-21.834" xlink:href="#linear-gradient-7"/>
    <linearGradient id="linear-gradient-25" x1="-17.337" y1="0.836" x2="-18.137" y2="0.171" xlink:href="#linear-gradient-9"/>
    <linearGradient id="linear-gradient-26" x1="-19.972" y1="0.836" x2="-20.888" y2="0.171" xlink:href="#linear-gradient-9"/>
    <linearGradient id="linear-gradient-27" x1="-27.607" y1="0.219" x2="-28.741" y2="-0.43" xlink:href="#linear-gradient-9"/>
    <linearGradient id="linear-gradient-28" x1="-12.2" y1="0.779" x2="-11.603" y2="0.353" xlink:href="#linear-gradient"/>
    <linearGradient id="linear-gradient-29" x1="-12.372" y1="0.766" x2="-11.766" y2="0.258" xlink:href="#linear-gradient"/>
    <linearGradient id="linear-gradient-30" x1="-28.243" y1="14.393" x2="-28.19" y2="12.353" xlink:href="#linear-gradient-7"/>
    <linearGradient id="linear-gradient-31" x1="31.916" y1="12.873" x2="31.238" y2="11.313" xlink:href="#linear-gradient-13"/>
    <linearGradient id="linear-gradient-32" x1="-67.215" y1="12.241" x2="-67.251" y2="15.402" xlink:href="#linear-gradient-7"/>
    <linearGradient id="linear-gradient-33" x1="38.593" y1="16.531" x2="37.765" y2="14.47" xlink:href="#linear-gradient-13"/>
    <linearGradient id="linear-gradient-34" x1="-15.483" y1="0.995" x2="-15.376" y2="0.008" xlink:href="#linear-gradient"/>
    <linearGradient id="linear-gradient-35" x1="0" y1="0.5" x2="1" y2="0.5" xlink:href="#linear-gradient-7"/>
    <linearGradient id="linear-gradient-36" x1="5.787" y1="3.281" x2="5.898" y2="2.423" xlink:href="#linear-gradient-7"/>
    <linearGradient id="linear-gradient-37" x1="0" y1="0.5" x2="1" y2="0.5" xlink:href="#linear-gradient-20"/>
    <linearGradient id="linear-gradient-38" x1="0" y1="0.5" x2="1" y2="0.5" xlink:href="#linear-gradient-10"/>
  </defs>
  <g id="assistant" transform="translate(-41.945 0.001)" style="isolation: isolate">
    <g id="Layer_2" data-name="Layer 2" transform="translate(41.945 -0.001)">
      <g id="Illustration">
        <g id="Acknowledgment_received" data-name="Acknowledgment received">
          <path id="Path_615" data-name="Path 615" d="M282.712.036C228.085,1,143.567,21.778,119.24,75.146c-8.5,18.642-7.921,46.047-6.771,100.859a578.893,578.893,0,0,0,4.84,68.726c8.179,60.523,13.748,101.724,34.822,125.716,52.806,60.114,243.554,58.38,325.009-49.848,44.435-59.038,51.271-143.021,10.641-212.43C443.045,31.76,355.844-1.256,282.712.036Z" transform="translate(-94.906 0.001)" fill="#f4f7fa"/>
          <g id="Group_36" data-name="Group 36" transform="translate(15.417 163.24)" clip-path="url(#clip-path)">
            <path id="Path_616" data-name="Path 616" d="M274.53,1305.986,231.6,1329.428s-20.115-17.606-18.084-38.9c4.141-43.438-34.191-44.033-50.213-46.684-24.156-4-40.961-17.034-26.676-39.25,16.162-25.136-22.395-47.477-62.338-48.31-39.087-.817-60.195-70.77,24.571-76.771,50.618-3.584,67.731,42.811,81.943,64.186s48.6,4.991,52.156,38.651c3.037,28.747-6.172,55.949,16.771,64.319S284,1272.3,274.53,1305.986Z" transform="translate(-49.471 -1079.322)" fill="url(#linear-gradient)"/>
            <g id="Group_35" data-name="Group 35" transform="translate(-21.761 -5.496)" opacity="0.5" style="mix-blend-mode: soft-light;isolation: isolate">
              <path id="Path_617" data-name="Path 617" d="M188.468,1537.2l-.98.324c-.2-.6-20.489-61.35-58.758-115.5-35.256-49.892-93.433-104.229-170.369-79.8l-.312-.983c34.247-10.877,67.689-7.319,99.392,10.576,25.327,14.294,49.6,37.72,72.143,69.625C167.939,1475.723,188.267,1536.594,188.468,1537.2Z" transform="translate(41.95 -1290.912)" fill="#beb8f2"/>
              <path id="Path_618" data-name="Path 618" d="M428.1,1111.938l-.96.38c-12.627-31.97-47.262-68.259-47.611-68.622l.746-.715C380.625,1043.344,415.4,1079.78,428.1,1111.938Z" transform="translate(-315.784 -1042.98)" fill="#beb8f2"/>
              <path id="Path_619" data-name="Path 619" d="M191.813,1417.245c-40.895-2.34-64.416,22.354-64.647,22.6l-.756-.7c.24-.26,24.067-25.3,65.462-22.931Z" transform="translate(-100.947 -1359.63)" fill="#beb8f2"/>
              <path id="Path_620" data-name="Path 620" d="M687.081,2024.546c-33.479-37.192-97.319-15.921-97.924-15.663l-.467-.92c.569-.3,65.382-21.628,99.158,15.891Z" transform="translate(-493.31 -1856.664)" fill="#beb8f2"/>
              <path id="Path_621" data-name="Path 621" d="M1156.054,1663.329l-.988.3c-9.283-30.551,10.162-65.689,10.36-66.042l.9.507C1166.131,1598.442,1146.9,1633.2,1156.054,1663.329Z" transform="translate(-971.896 -1513.709)" fill="#beb8f2"/>
              <path id="Path_622" data-name="Path 622" d="M1218.865,2514.615c-10.394-15.917-41.333-16.112-41.645-16.114v-1.031c1.293,0,31.808.194,42.508,16.581Z" transform="translate(-992.829 -2277.489)" fill="#beb8f2"/>
              <path id="Path_623" data-name="Path 623" d="M1410.032,2236l-.977.336c-4.884-14.217,6.857-39.438,10.716-47.726.544-1.171,1.015-2.182,1.059-2.379l1.006.233a23.965,23.965,0,0,1-1.133,2.582C1416.891,2197.236,1405.284,2222.177,1410.032,2236Z" transform="translate(-1188.608 -2013.322)" fill="#beb8f2"/>
            </g>
          </g>
          <path id="Path_625" data-name="Path 625" d="M567.019,373.722c-5.54,9.583-1.565,19.553,2.441,26.316a11.309,11.309,0,0,1,2.722.635c9.542,2.583,14.164,1.653,23.97,2.722,2.117.23,8.51-.983,11.094-1.647l4.8-1.314s9.955-23.443-2.685-30.551-6.01-30.571-4.031-43.437c1.21-7.9-.756-11.9-.78-14.878-.206-31.49,9.746-40.294,3.388-50.492-7.018-11.259-21.153-3.752-29.435-15.6-9.351-13.376,2.394-31.926-9.283-42.605a20.7,20.7,0,0,0-7.523-4.861c-8.429-2.957-15.645,1.664-21.384-5.694-11.537-14.8-31.493-20.746-44.6-6.532-12.943,14.026-.4,43.51,34.1,68.194,22.535,20.353,22.509,26.165,19.662,40.231-1.99,9.844-13.914,35.218-.151,46.1S573.353,362.769,567.019,373.722Z" transform="translate(-416.5 -150.811)" fill="url(#linear-gradient-2)"/>
          <g id="Group_38" data-name="Group 38" transform="translate(74.216 26.869)" clip-path="url(#clip-path-2)">
            <g id="Group_37" data-name="Group 37" transform="translate(-6.95 -4.759)" opacity="0.5" style="mix-blend-mode: soft-light;isolation: isolate">
              <path id="Path_626" data-name="Path 626" d="M551.977,376.819l.726-.054c-.263-4-.581-8.04-.945-11.994a390.972,390.972,0,0,0-16.5-82.985,319.638,319.638,0,0,0-26.8-61.364,274.742,274.742,0,0,0-29.352-41.894,227.855,227.855,0,0,0-23.657-24c-1.414-1.228-2.934-2.408-4.406-3.55-1.959-1.521-3.985-3.094-5.773-4.79l-.523.476c1.815,1.72,3.851,3.3,5.824,4.84,1.464,1.136,2.976,2.311,4.375,3.525a227.608,227.608,0,0,1,23.594,23.928,274.188,274.188,0,0,1,29.281,41.794,318.889,318.889,0,0,1,26.738,61.235,390.482,390.482,0,0,1,16.472,82.852C551.4,368.791,551.716,372.818,551.977,376.819Z" transform="translate(-444.75 -146.19)" fill="#fcfdfe"/>
              <path id="Path_627" data-name="Path 627" d="M917.313,370.475l.676-.26c-11.426-26.713,3.478-74.605,3.63-75.086l-.7-.178C920.774,295.434,905.794,343.547,917.313,370.475Z" transform="translate(-842.148 -272.451)" fill="#fcfdfe"/>
              <path id="Path_628" data-name="Path 628" d="M868.823,1107.774l.7-.184c-5.46-19.042-42.271-35.06-42.65-35.22l-.316.613C826.943,1073.141,863.456,1089.033,868.823,1107.774Z" transform="translate(-768.814 -932.292)" fill="#fcfdfe"/>
              <path id="Path_629" data-name="Path 629" d="M1119.062,1084.318l.723-.068c-1.127-12.856,4.752-31.1,16.552-51.347.594-1.018.594-1.018.584-1.145l-.724.059.363-.029-.345-.1c-.03.071-.254.454-.514.907C1123.832,1052.956,1117.923,1071.326,1119.062,1084.318Z" transform="translate(-1016.96 -897.765)" fill="#fcfdfe"/>
              <path id="Path_630" data-name="Path 630" d="M998.283,1513.575l.678-.257c-5.564-13.158-27.246-19.149-27.464-19.208l-.216.647C971.495,1494.815,992.847,1500.712,998.283,1513.575Z" transform="translate(-891.646 -1290.247)" fill="#fcfdfe"/>
              <path id="Path_631" data-name="Path 631" d="M1157.07,1487.854c3.5-11.075,10.511-21.644,21.448-32.31l-.52-.454c-11.021,10.747-18.095,21.409-21.628,32.591Z" transform="translate(-1048.743 -1257.128)" fill="#fcfdfe"/>
              <path id="Path_632" data-name="Path 632" d="M636.156,192.829l.659-.295c-7.26-14.507-11.215-31.375-12.517-36.918a20.1,20.1,0,0,0-.5-1.966l-.672.268c.052.121.231.888.454,1.86C624.9,161.333,628.871,178.256,636.156,192.829Z" transform="translate(-596.151 -152.522)" fill="#fcfdfe"/>
              <path id="Path_633" data-name="Path 633" d="M564.012,487.137l.541-.454C553.7,475.615,521.187,474.636,519.8,474.6l-.035.673C520.107,475.282,553.361,476.28,564.012,487.137Z" transform="translate(-508.424 -424.93)" fill="#fcfdfe"/>
            </g>
          </g>
          <path id="Path_635" data-name="Path 635" d="M188.669,745.716c2.44-.6-1.966-13.046,3.347-30.249,1.326-4.3,6.934-28.239,25.212-31.017l10.643-1.618c2.137-8.359,2.6-16.637-8.562-18.452-17.338-2.815-20.6-30.831-16.992-41.289,4.468-12.952,14.226-43.3-12.5-48.051-22.246-3.956-37.573-2.17-41.763-28.311s-21.023-40.795-46.081-36.3c-26.36,4.731-51.515-26.173-72.111-12.464-35.885,23.886,4.323,77.89,52.086,89.341s22.945,30.23,23.9,51.91a37.471,37.471,0,0,0,1.915,8.66c7.68,21.853,31.554,23,50.442,39.438C183.968,709.736,184.561,746.73,188.669,745.716Z" transform="translate(-13.656 -419.652)" fill="url(#linear-gradient-3)"/>
          <g id="Group_40" data-name="Group 40" transform="translate(2.435 74.779)" clip-path="url(#clip-path-3)">
            <g id="Group_39" data-name="Group 39" transform="translate(-8.552 9.995)" opacity="0.5" style="mix-blend-mode: soft-light;isolation: isolate">
              <path id="Path_636" data-name="Path 636" d="M184.477,740.655l1.21-.381C158.645,657.479,89.064,588.6,4.09,560.52l-.44,1.131C88.266,589.613,157.555,658.2,184.477,740.655Z" transform="translate(3.02 -560.52)" fill="#fcfdfe"/>
              <path id="Path_637" data-name="Path 637" d="M1072.833,1094.024l1.252-.151c-3.592-34.057,24.409-64.287,24.692-64.581l-.929-.782C1097.561,1028.808,1069.185,1059.428,1072.833,1094.024Z" transform="translate(-904.182 -957.73)" fill="#fcfdfe"/>
              <path id="Path_638" data-name="Path 638" d="M675.908,1508.551l1.042-.694c-20.522-28.317-87.249-24.7-87.92-24.653l.047,1.193C589.741,1484.353,655.775,1480.773,675.908,1508.551Z" transform="translate(-493.826 -1343.509)" fill="#fcfdfe"/>
              <path id="Path_639" data-name="Path 639" d="M691.686,639.528l1.1-.6c-14.165-23.745-.917-64.492-.781-64.9l-1.2-.333C690.668,574.106,677.259,615.341,691.686,639.528Z" transform="translate(-575.285 -571.698)" fill="#fcfdfe"/>
              <path id="Path_640" data-name="Path 640" d="M31.793,739.409l.549-1.087C2.53,725.336-40.022,739.564-40.45,739.71l.4,1.124C-39.626,740.69,2.445,726.626,31.793,739.409Z" transform="translate(40.45 -706.795)" fill="#fcfdfe"/>
            </g>
          </g>
          <g id="Group_47" data-name="Group 47" transform="translate(213.752 213.169)" clip-path="url(#clip-path-4)">
            <g id="Group_42" data-name="Group 42" transform="translate(15.987 95.295)" clip-path="url(#clip-path-5)">
              <path id="Path_642" data-name="Path 642" d="M1521.282,2193.288l29.125,15.911s13.644-11.948,12.267-26.387c-2.808-29.467,23.2-29.87,34.063-31.668,16.387-2.712,27.788-11.556,18.1-26.628-10.964-17.052,15.193-32.215,42.289-32.774,26.517-.554,40.836-48.009-16.669-52.079-34.34-2.432-45.948,29.039-55.589,43.543s-32.971,3.389-35.391,26.221c-2.06,19.5,4.188,37.962-11.377,43.634S1514.857,2170.439,1521.282,2193.288Z" transform="translate(-1519.007 -2039.529)" fill="url(#linear-gradient-4)"/>
              <g id="Group_41" data-name="Group 41" transform="translate(11.498 -3.734)" opacity="0.5" style="mix-blend-mode: soft-light;isolation: isolate">
                <path id="Path_643" data-name="Path 643" d="M1607.63,2350.121l.666.219c.136-.412,13.9-41.619,39.862-78.356,23.917-33.844,63.383-70.709,115.577-54.133l.212-.668c-23.234-7.378-45.92-4.964-67.427,7.175-17.181,9.7-33.649,25.589-48.942,47.233C1621.558,2308.414,1607.766,2349.708,1607.63,2350.121Z" transform="translate(-1605.724 -2183.039)" fill="#beb8f2"/>
                <path id="Path_644" data-name="Path 644" d="M2137.37,2061.621l.652.257c8.566-21.688,32.063-46.306,32.3-46.552l-.505-.486C2169.577,2015.088,2145.986,2039.805,2137.37,2061.621Z" transform="translate(-2055.345 -2014.84)" fill="#beb8f2"/>
                <path id="Path_645" data-name="Path 645" d="M2233.386,2268.739c27.743-1.588,43.7,15.165,43.861,15.334l.513-.478c-.16-.172-16.327-17.163-44.409-15.557Z" transform="translate(-2136.809 -2229.654)" fill="#beb8f2"/>
                <path id="Path_646" data-name="Path 646" d="M1769.072,2680.707c22.71-25.23,66.02-10.8,66.43-10.625l.318-.624c-.387-.212-44.356-14.67-67.27,10.781Z" transform="translate(-1742.306 -2566.819)" fill="#beb8f2"/>
                <path id="Path_647" data-name="Path 647" d="M1776.053,2435.727l.671.2c6.3-20.72-6.9-44.564-7.03-44.8l-.605.342C1769.217,2391.7,1782.263,2415.283,1776.053,2435.727Z" transform="translate(-1742.765 -2334.219)" fill="#beb8f2"/>
                <path id="Path_648" data-name="Path 648" d="M1624.014,3013.191c7.051-10.8,28.04-10.931,28.252-10.931v-.7c-.877,0-21.578.132-28.836,11.248Z" transform="translate(-1619.135 -2852.326)" fill="#beb8f2"/>
                <path id="Path_649" data-name="Path 649" d="M1603.041,2824.182l.662.228c3.312-9.643-4.652-26.755-7.269-32.376-.371-.8-.69-1.48-.721-1.614l-.684.151a16.579,16.579,0,0,0,.77,1.751C1598.385,2797.888,1606.26,2814.806,1603.041,2824.182Z" transform="translate(-1595.03 -2673.119)" fill="#beb8f2"/>
              </g>
            </g>
            <path id="Path_651" data-name="Path 651" d="M1751.941,1560.78c3.758,6.5,1.059,13.264-1.664,17.847a7.571,7.571,0,0,0-1.844.431c-6.473,1.753-9.607,1.121-16.26,1.842-1.432.151-5.774-.668-7.527-1.117l-3.253-.893s-6.753-15.906,1.815-20.72,4.083-20.738,2.734-29.467c-.824-5.36.514-8.075.528-10.092.139-21.363-6.611-27.336-2.3-34.253,4.761-7.639,14.35-2.547,19.964-10.587,6.352-9.075-1.623-21.658,6.3-28.9a14.084,14.084,0,0,1,5.1-3.294c5.718-2.005,10.614,1.131,14.507-3.863,7.827-10.038,21.365-14.075,30.258-4.432,8.772,9.518.269,29.517-23.14,46.262-15.286,13.807-15.276,17.754-13.341,27.289,1.351,6.681,9.438,23.9.107,31.277S1747.644,1553.347,1751.941,1560.78Z" transform="translate(-1672.65 -1425.01)" fill="url(#linear-gradient-5)"/>
            <g id="Group_44" data-name="Group 44" transform="translate(46.409 2.78)" clip-path="url(#clip-path-6)">
              <g id="Group_43" data-name="Group 43" transform="translate(1.326 -3.229)" opacity="0.5" style="mix-blend-mode: soft-light;isolation: isolate">
                <path id="Path_652" data-name="Path 652" d="M1827.242,1562.935l-.491-.036c.177-2.722.393-5.455.64-8.137a265.3,265.3,0,0,1,11.192-56.3,216.962,216.962,0,0,1,18.182-41.627,187.265,187.265,0,0,1,19.913-28.422,154.3,154.3,0,0,1,16.053-16.28c.959-.833,1.99-1.633,2.989-2.409,1.328-1.031,2.7-2.1,3.916-3.249l.355.324c-1.23,1.166-2.614,2.24-3.952,3.279-.992.771-2.019,1.568-2.967,2.391a153.989,153.989,0,0,0-16,16.233,185.886,185.886,0,0,0-19.864,28.353,216.351,216.351,0,0,0-18.149,41.543,264.849,264.849,0,0,0-11.174,56.206C1827.639,1557.488,1827.423,1560.221,1827.242,1562.935Z" transform="translate(-1811.954 -1406.48)" fill="#fcfdfe"/>
                <path id="Path_653" data-name="Path 653" d="M1957.469,1558.625l-.454-.177c7.753-18.122-2.361-50.612-2.466-50.937l.473-.121C1955.12,1507.717,1965.282,1540.356,1957.469,1558.625Z" transform="translate(-1920.425 -1492.128)" fill="#fcfdfe"/>
                <path id="Path_654" data-name="Path 654" d="M1859.7,2058.782l-.476-.125c3.7-12.917,28.677-23.784,28.928-23.9l.215.416C1888.113,2035.286,1863.343,2046.067,1859.7,2058.782Z" transform="translate(-1839.513 -1939.737)" fill="#fcfdfe"/>
                <path id="Path_655" data-name="Path 655" d="M1785,2042.882l-.492-.045c.756-8.725-3.223-21.1-11.228-34.833-.4-.691-.4-.691-.4-.777l.492.041-.246-.021.234-.066c.021.05.173.3.35.6C1781.766,2021.607,1785.773,2034.074,1785,2042.882Z" transform="translate(-1766.233 -1916.328)" fill="#fcfdfe"/>
                <path id="Path_656" data-name="Path 656" d="M1830.124,2334.085l-.454-.174c3.781-8.923,18.483-12.99,18.632-13.031l.151.44C1848.3,2321.36,1833.812,2325.36,1830.124,2334.085Z" transform="translate(-1814.432 -2182.584)" fill="#fcfdfe"/>
                <path id="Path_657" data-name="Path 657" d="M1743.471,2316.62c-2.372-7.514-7.131-14.683-14.551-21.918l.354-.312c7.476,7.29,12.275,14.519,14.671,22.11Z" transform="translate(-1728.92 -2160.1)" fill="#fcfdfe"/>
                <path id="Path_658" data-name="Path 658" d="M2129,1438.091l-.454-.2c4.92-9.841,7.609-21.284,8.492-25.044.213-.907.289-1.231.337-1.337l.454.182c-.035.082-.151.6-.312,1.261C2136.643,1416.727,2133.946,1428.2,2129,1438.091Z" transform="translate(-2068.109 -1410.749)" fill="#fcfdfe"/>
                <path id="Path_659" data-name="Path 659" d="M2059.587,1637.764l-.367-.312c7.364-7.5,29.42-8.167,30.356-8.193l.023.454C2089.372,1629.723,2066.814,1630.4,2059.587,1637.764Z" transform="translate(-2009.265 -1595.566)" fill="#fcfdfe"/>
              </g>
            </g>
            <path id="Path_661" data-name="Path 661" d="M1673.845,1813.163c-1.664-.407,1.331-8.851-2.269-20.519-.908-2.916-4.705-19.156-17.1-21.042l-7.22-1.1c-1.45-5.67-1.767-11.283,5.808-12.512,11.762-1.909,13.976-20.914,11.528-28.015-3.025-8.786-9.651-29.373,8.479-32.6,15.091-2.683,25.489-1.472,28.331-19.208s14.267-27.677,31.26-24.627c17.883,3.209,34.948-17.756,48.919-8.456,24.35,16.2-2.931,52.841-35.335,60.608s-15.566,20.508-16.209,35.217a25.49,25.49,0,0,1-1.3,5.871c-5.206,14.822-21.405,15.608-34.22,26.758C1677.035,1788.751,1676.634,1813.851,1673.845,1813.163Z" transform="translate(-1611.17 -1607.414)" fill="url(#linear-gradient-6)"/>
            <g id="Group_46" data-name="Group 46" transform="translate(35.531 35.276)" clip-path="url(#clip-path-7)">
              <g id="Group_45" data-name="Group 45" transform="translate(18.009 6.785)" opacity="0.5" style="mix-blend-mode: soft-light;isolation: isolate">
                <path id="Path_662" data-name="Path 662" d="M1794.557,1809.751l-.817-.259c18.341-56.167,65.544-102.893,123.189-121.943l.3.767C1859.826,1707.28,1812.821,1753.817,1794.557,1809.751Z" transform="translate(-1789.741 -1687.55)" fill="#fcfdfe"/>
                <path id="Path_663" data-name="Path 663" d="M1784.9,2049.449l-.848-.1c2.435-23.105-16.56-43.612-16.752-43.817l.631-.531C1768.124,2005.207,1787.37,2025.979,1784.9,2049.449Z" transform="translate(-1767.3 -1956.988)" fill="#fcfdfe"/>
                <path id="Path_664" data-name="Path 664" d="M1819.458,2330.673l-.708-.472c13.914-19.208,59.189-16.754,59.644-16.727l-.032.809C1877.912,2314.257,1833.115,2311.827,1819.458,2330.673Z" transform="translate(-1810.969 -2218.71)" fill="#fcfdfe"/>
                <path id="Path_665" data-name="Path 665" d="M2113.816,1741.156l-.746-.413c9.608-16.115.62-43.752.53-44.028l.812-.225C2114.511,1696.77,2123.609,1724.745,2113.816,1741.156Z" transform="translate(-2060.775 -1695.138)" fill="#fcfdfe"/>
                <path id="Path_666" data-name="Path 666" d="M2314.014,1808.9l-.374-.738c20.224-8.81,49.092.842,49.382.942l-.271.756C2362.466,1809.772,2333.922,1800.232,2314.014,1808.9Z" transform="translate(-2231.01 -1786.779)" fill="#fcfdfe"/>
              </g>
            </g>
          </g>
          <path id="Path_668" data-name="Path 668" d="M892.232,2620.779l-304.1-2.629v7.777a4.124,4.124,0,0,0,3.123,4.225l85.991,15.316a11.912,11.912,0,0,0,3.085.144l208.6-17.462a3.932,3.932,0,0,0,3.3-4.126Z" transform="translate(-499.179 -2222.173)" fill="#bfc8d6"/>
          <path id="Path_669" data-name="Path 669" d="M738.979,1754.83l-193.288,14.227a5.86,5.86,0,0,1-6.271-6.05V1619.083a6.392,6.392,0,0,1,6.271-6.5H738.979c2.849,0,5.153,2.632,5.153,5.88v130.111C744.139,1751.817,741.828,1754.62,738.979,1754.83Z" transform="translate(-457.836 -1368.689)" fill="#bfc8d6"/>
          <path id="Path_670" data-name="Path 670" d="M759.393,1754.83l-193.281,14.227a5.861,5.861,0,0,1-6.272-6.05V1619.083a6.393,6.393,0,0,1,6.272-6.5H759.4c2.849,0,5.153,2.632,5.153,5.88v130.111C764.546,1751.817,762.242,1754.62,759.393,1754.83Z" transform="translate(-475.167 -1368.689)" fill="#fff"/>
          <path id="Path_671" data-name="Path 671" d="M800.554,1792.541,620.533,1804.9a4.8,4.8,0,0,1-5.1-4.959V1673.928a5.24,5.24,0,0,1,5.1-5.333l180.021-.776a4.547,4.547,0,0,1,4.251,4.819v114.773C804.806,1790.085,802.906,1792.38,800.554,1792.541Z" transform="translate(-522.35 -1415.574)" fill="url(#linear-gradient-7)"/>
          <path id="Path_672" data-name="Path 672" d="M1260.433,1625.02a2.234,2.234,0,1,1-2.223-2.42A2.339,2.339,0,0,1,1260.433,1625.02Z" transform="translate(-1066.021 -1377.193)" fill="#fff"/>
          <path id="Path_673" data-name="Path 673" d="M566.11,1769.074l192.3-14.156.979-.071a5.19,5.19,0,0,0,3.4-1.724c-13.839-.756-22.434-5.667-27.98-10.738-11.135-10.191-9.2-20.241-21.21-26.941-14.973-8.356-26.753,2.232-38.113-8.216-6.891-6.334-3.507-11.057-11.986-20.522-9.389-10.484-15.5-6.957-24.94-16.4-11.932-11.93-5.965-21.214-16.242-29.778-12.47-10.392-25.917-.775-37.786-10.738-5.118-4.3-7.928-10.548-9.394-17.193h-9.034a6.394,6.394,0,0,0-6.272,6.5v143.93A5.857,5.857,0,0,0,566.11,1769.074Z" transform="translate(-475.167 -1368.705)" fill="#fff" opacity="0.48" style="mix-blend-mode: soft-light;isolation: isolate"/>
          <path id="Path_674" data-name="Path 674" d="M792.51,2547.646l-204.38,14.973,89.114,15.871a11.933,11.933,0,0,0,3.085.144l211.9-17.738-96.47-13.158A15.589,15.589,0,0,0,792.51,2547.646Z" transform="translate(-499.179 -2162.294)" fill="url(#linear-gradient-8)"/>
          <path id="Path_675" data-name="Path 675" d="M827.27,2576.754,997.423,2564.1l52.661,7.122L881.4,2584.749Z" transform="translate(-708.495 -2176.298)" fill="#d8dee8"/>
          <g id="Group_51" data-name="Group 51" transform="translate(0 109.591)" clip-path="url(#clip-path-8)">
            <path id="Path_676" data-name="Path 676" d="M1926.05,1741.472a11.635,11.635,0,0,1,8.22-3.58c5.363-.162,12.668-3.343,15.806-3.63.756-.066,1.133-.284,1.2-.561.133-.569-3.35-1.4-6.441-1.5-5.478-.183-8.674,1.919-9.412.839-.827-1.21,2.71-4.505,2.061-5.245-.5-.572-2.905,1.266-5.48,2.387-1.827.8-8.971,9.339-8.971,9.339Z" transform="translate(-1632.185 -1575.979)" fill="url(#linear-gradient-9)"/>
            <path id="Path_677" data-name="Path 677" d="M1323.211,1777.81l3.988,8.049a106.684,106.684,0,0,1-9.982,29.583c-6.449,12.582-21.15,41.262-47.036,43.861-19.742,1.984-36.3-12.151-42.572-17.559-5.8-5-11-9.413-13.526-16.451-3.982-11.1.039-24.784,9.687-37.672a10.043,10.043,0,0,1,17.441,2.432c4.43,11.693,11.9,19.813,20.481,21.4,9.649,1.785,20.4-4.752,24.969-7.527,6.806-4.129,8.535-7.3,16.994-13.845A118.136,118.136,0,0,1,1323.211,1777.81Z" transform="translate(-1029.167 -1618.52)" fill="url(#linear-gradient-10)"/>
            <g id="Group_48" data-name="Group 48" transform="translate(183.555 163.954)" opacity="0.3" style="mix-blend-mode: multiply;isolation: isolate">
              <path id="Path_678" data-name="Path 678" d="M1245.546,1864.147c7.393-1.664,10.183-8.53,20.318-9.146,12.815-.779,18.32,9.593,26.517,6.857,6.691-2.232,7.8-10.738,12.467-21.685a101.036,101.036,0,0,1,21.591-31.523l1.677,3.385a106.684,106.684,0,0,1-9.982,29.583c-6.449,12.582-21.15,41.262-47.036,43.86-19.742,1.985-36.3-12.151-42.572-17.559-5.8-5-11-9.413-13.526-16.451a25.9,25.9,0,0,1-1.361-6.063C1228.916,1862.863,1238.908,1865.64,1245.546,1864.147Z" transform="translate(-1213.64 -1808.65)" fill="url(#linear-gradient-11)"/>
            </g>
            <path id="Path_679" data-name="Path 679" d="M805.109,1864.941c-.151-7.647-.567-49.839,19.861-80.18,4.689-6.957,12.966-19.259,28.871-27.4a68.111,68.111,0,0,1,15.633-5.7l13.612,2.022a82.758,82.758,0,0,1,15.448,18.942c3.3,5.56,8.754,14.76,10.018,26.637,1.473,13.842-4.029,19.3-8.547,40.854a171.249,171.249,0,0,0-3.5,27.953l-47.077,4.046a221.664,221.664,0,0,0-7.349-49.653,190.638,190.638,0,0,0-5.7,50.388c-1.906.756-12.641,4.775-22.989-.735A25.107,25.107,0,0,1,805.109,1864.941Z" transform="translate(-683.314 -1596.325)" fill="url(#linear-gradient-12)"/>
            <path id="Path_680" data-name="Path 680" d="M232.333,1070.16c7.3-11.378,10.945-17.066,11.1-22.859.339-12.656-9.321-23.7-18.263-28.954-12.553-7.379-26.57-5.065-35.444-3.6-11.4,1.881-11.254,4.663-17.025,4.141-15.953-1.443-17.717-22.738-35.677-33.64-19.813-12.028-45.318-2.887-51.675-.322-33.866,13.663-41.814,49.467-42.566,53.148-6.966,34.11,12.2,66.226,35.441,80.72,6.646,4.144,23.647,14.746,37.309,8.662,13.158-5.86,12.046-22.219,30.165-30.9a41.517,41.517,0,0,1,20.115-4.386c11.184.573,14.66,5.939,26.46,6.159a41.333,41.333,0,0,0,18.163-3.864C219.4,1090.128,223.833,1083.412,232.333,1070.16Z" transform="translate(-35.081 -940.68)" fill="url(#linear-gradient-13)"/>
            <g id="Group_49" data-name="Group 49" transform="translate(5.619 107.954)" opacity="0.3" style="mix-blend-mode: multiply;isolation: isolate">
              <path id="Path_681" data-name="Path 681" d="M37.326,1438.38c7.713,33.2,15.3,43.472,21.93,43.774,9.276.423,14.456-18.765,28.645-18.978,12.762-.192,16.485,15.212,28.113,14.795,14.705-.528,15.992-25.4,32.315-29.6,19.426-4.991,33.072,26.25,56.057,24.539,6.957-.517,15.525-4.124,24.978-15.657l-.87,1.42c-8.219,13.427-12.511,20.236-21.389,24.766a41.3,41.3,0,0,1-18.077,4.244c-11.8.029-15.389-5.263-26.584-5.6a41.387,41.387,0,0,0-20.011,4.8c-17.936,9.057-16.481,25.391-29.512,31.522-13.53,6.37-30.751-3.872-37.482-7.875C53.7,1497.61,35.117,1469.571,37.326,1438.38Z" transform="translate(-37.147 -1438.38)" fill="url(#linear-gradient-14)"/>
            </g>
            <path id="Path_682" data-name="Path 682" d="M1133.83,1560.589s.383,9.831,0,16.425c-.28,4.829,3.9,7.58,3.9,7.58s2.293,3.932-10.109,4.586-24.468,0-24.468,0,12.124-8.064,14.895-10.207,4.256-18.166,2.482-28.313Z" transform="translate(-936.306 -1425.725)" fill="url(#linear-gradient-15)"/>
            <path id="Path_683" data-name="Path 683" d="M1182.2,1375.936s6.311,15.218,6.278,24.414-6.463,14.472-11.343,12.2-12.225-11.833-12.225-11.833-.986,2.571-4.726,0-6.519-17.031.756-12.93a19.039,19.039,0,0,1,.643-9.929C1163.374,1371.981,1180.065,1365.636,1182.2,1375.936Z" transform="translate(-981.497 -1272.783)" fill="url(#linear-gradient-16)"/>
            <g id="Group_50" data-name="Group 50" transform="translate(128.43 200.133)" opacity="0.3" style="mix-blend-mode: multiply;isolation: isolate">
              <path id="Path_684" data-name="Path 684" d="M869.006,2096.812c5.47-8.584-2.874-16.031.673-29.613,3.025-11.594,12.869-20.646,16.485-19.182,5,2.021-4.825,22.927,5.048,32.643,6.553,6.449,15.1,1.383,23.9,7.066,5.8,3.749,11.629,12.127,12.084,32.322l-40.349,3.468a221.65,221.65,0,0,0-7.349-49.653,190.64,190.64,0,0,0-5.7,50.388c-1.906.756-12.641,4.775-22.989-.735-.578-.3-1.124-.632-1.646-.966a25.533,25.533,0,0,1,4.707-13.96C859.225,2101.422,865.048,2103.022,869.006,2096.812Z" transform="translate(-849.16 -2047.861)" fill="url(#linear-gradient-17)"/>
            </g>
            <path id="Path_685" data-name="Path 685" d="M1189.608,1545.11c-8.834,0-12.161-12.659-12.2-12.8a.616.616,0,0,1,1.192-.3c.035.138,3.616,13.745,12.958,11.646a.616.616,0,0,1,.269,1.2A10.152,10.152,0,0,1,1189.608,1545.11Z" transform="translate(-999.325 -1409.528)" fill="#fff"/>
            <ellipse id="Ellipse_23" data-name="Ellipse 23" cx="3.178" cy="1.742" rx="3.178" ry="1.742" transform="matrix(0.968, -0.252, 0.252, 0.968, 191.51, 133.449)" fill="#fff"/>
            <ellipse id="Ellipse_24" data-name="Ellipse 24" cx="2.972" cy="4.76" rx="2.972" ry="4.76" transform="translate(173.53 117.642) rotate(-14.452)" fill="#fff"/>
            <path id="Path_686" data-name="Path 686" d="M1150.7,1335.332l-.213-.511c-.131-.333-.315-.82-.528-1.447a33.852,33.852,0,0,1-1.307-5.306,26.2,26.2,0,0,1-.16-7.732,18.421,18.421,0,0,1,1.083-4.258,16.972,16.972,0,0,1,5.316-7.247l.88-.684.92-.6.454-.3.474-.265.938-.517c.334-.18.632-.3.948-.454.333-.125.661-.269.989-.373a13.773,13.773,0,0,1,5.632-.673,7.816,7.816,0,0,1,.83.1,7.1,7.1,0,0,1,.8.151c.254.067.505.114.741.191l.685.238a5.337,5.337,0,0,1,.625.271c.2.1.395.174.568.28.342.221.675.4.941.6l.7.569c.191.179.336.348.463.478l.381.4a.328.328,0,1,1-.473.454l-.03-.03-.357-.369c-.118-.118-.254-.274-.431-.437l-.643-.523c-.247-.191-.557-.346-.873-.549-.162-.1-.348-.163-.529-.253a5.333,5.333,0,0,0-.581-.246l-.64-.213c-.221-.07-.454-.11-.7-.171a6.1,6.1,0,0,0-.738-.133,7.17,7.17,0,0,0-.791-.091,13.067,13.067,0,0,0-5.318.69c-.3.1-.6.236-.907.352-.3.151-.638.293-.907.454l-.9.51-.454.259-.436.293-.877.591-.835.664a16.088,16.088,0,0,0-4.984,6.918,17.605,17.605,0,0,0-.986,4.053,25.177,25.177,0,0,0,.235,7.423,32.708,32.708,0,0,0,1.317,5.12c.21.6.392,1.068.519,1.382s.2.47.2.47l.009.023a.576.576,0,1,1-1.059.454Z" transform="translate(-974.608 -1217.138)" fill="#fff"/>
          </g>
          <path id="Path_688" data-name="Path 688" d="M1575.542,289.26l-9.971-2.936a74.051,74.051,0,0,0,.956-20.209l9.875-2.391a5.192,5.192,0,0,0,3.758-6.212l-1.654-7.411a5.076,5.076,0,0,0-6.05-3.932l-9.722,2.258a76.4,76.4,0,0,0-9.425-18.6l7.222-6.806a5.4,5.4,0,0,0,.233-7.483l-5.2-5.839a5.133,5.133,0,0,0-7.367-.454l-7.208,6.717a77.759,77.759,0,0,0-18.057-11.933l2.859-9.651a5.728,5.728,0,0,0-3.642-6.947l-7.651-2.651a5.2,5.2,0,0,0-6.794,3.392l-2.89,9.755a78.725,78.725,0,0,0-22.195-1.407l-2.571-10.354a6.054,6.054,0,0,0-6.891-4.475l-8.167,1.537a5.306,5.306,0,0,0-4.191,6.615l2.691,10.613a78.091,78.091,0,0,0-19.937,10.144l-8.06-8.364a6.154,6.154,0,0,0-8.415-.523l-6.29,5.569a5.525,5.525,0,0,0-.082,8.093l8.394,8.53a74.792,74.792,0,0,0-11.555,18.852l-12.049-3.547a5.947,5.947,0,0,0-7.5,3.745L1395.607,251a5.85,5.85,0,0,0,4.277,7.146l12.4,3.509a74.035,74.035,0,0,0,.139,21.69l-12.748,2.96a5.574,5.574,0,0,0-4.348,6.862l2.26,8.036a6.11,6.11,0,0,0,7.376,4.034L1417.9,302.1a76.783,76.783,0,0,0,11.192,18.125l-9.562,8.91a5.26,5.26,0,0,0-.078,7.8l6.05,5.638a6.109,6.109,0,0,0,8.246-.106l9.528-8.972a78.1,78.1,0,0,0,18.452,9.9l-3.58,12.084a5.12,5.12,0,0,0,3.872,6.47l7.893,1.835a5.83,5.83,0,0,0,6.86-3.916l3.542-11.948a78.585,78.585,0,0,0,20.513-.243l2.937,11.584a5.1,5.1,0,0,0,6.457,3.532l7.562-2.155a5.443,5.443,0,0,0,3.889-6.428l-2.816-11.367a77.969,77.969,0,0,0,17.57-9.846l7.927,8.055a5.114,5.114,0,0,0,7.237-.094l5.445-5.369a5.155,5.155,0,0,0,.225-7.232l-7.632-7.9a74.8,74.8,0,0,0,10.573-16.972l10.271,2.9a5.121,5.121,0,0,0,6.246-3.565l2.14-7.223A5.045,5.045,0,0,0,1575.542,289.26Zm-98.308,35.569c-29.815-7.641-47.714-37.841-39.021-67.2s40.252-45.255,69.529-35.8c28.294,9.132,43.9,38.67,35.736,66.25S1506.042,332.213,1477.234,324.83Z" transform="translate(-1184.125 -154.126)" fill="#97a6b7"/>
          <path id="Path_689" data-name="Path 689" d="M1954.39,185.629l-7.027-2.349-4.333,5.64Z" transform="translate(-1655.505 -155.56)" fill="#97a6b7"/>
          <path id="Path_690" data-name="Path 690" d="M2477.77,356.1l8.161,2.506-1.79,6.038Z" transform="translate(-2109.369 -302.242)" fill="#97a6b7"/>
          <path id="Path_691" data-name="Path 691" d="M2626.97,609.76l8.061,2.748-3.394,3.964Z" transform="translate(-2236.004 -517.538)" fill="#97a6b7"/>
          <path id="Path_692" data-name="Path 692" d="M2634.47,895.44l8.046,3.094-3.876,3.2Z" transform="translate(-2242.369 -760.011)" fill="#97a6b7"/>
          <path id="Path_693" data-name="Path 693" d="M2433.08,1227.137l7.658,3.51,2.913-6.237Z" transform="translate(-2071.438 -1039.227)" fill="#97a6b7"/>
          <path id="Path_694" data-name="Path 694" d="M2173.09,1367.7l6.794,3.433,2.141-5.135Z" transform="translate(-1850.77 -1159.402)" fill="#97a6b7"/>
          <path id="Path_695" data-name="Path 695" d="M1876.517,1336.948l-6.107-3.052,7.99-6.6Z" transform="translate(-1593.868 -1126.555)" fill="#97a6b7"/>
          <path id="Path_696" data-name="Path 696" d="M1653.938,1225.914l-7.048-3.775,7.872-5.3Z" transform="translate(-1404.154 -1032.802)" fill="#97a6b7"/>
          <path id="Path_697" data-name="Path 697" d="M1677.96,305.17l7.76,2.565-4.793,4.793Z" transform="translate(-1430.524 -259.015)" fill="#97a6b7"/>
          <path id="Path_698" data-name="Path 698" d="M1454.58,664.837l6.866,3.187,1.169-6.044Z" transform="translate(-1240.929 -561.86)" fill="#97a6b7"/>
          <path id="Path_699" data-name="Path 699" d="M1472.32,988.291l6.677,3.22,1.949-4.481Z" transform="translate(-1255.986 -837.749)" fill="#97a6b7"/>
          <path id="Path_700" data-name="Path 700" d="M1619.183,304.343l-10.056-2.955a74.711,74.711,0,0,0,.965-20.374l9.955-2.409a5.241,5.241,0,0,0,3.79-6.263l-1.664-7.477a5.109,5.109,0,0,0-6.1-3.96l-9.8,2.276a77.028,77.028,0,0,0-9.5-18.754l7.275-6.863a5.442,5.442,0,0,0,.234-7.544l-5.242-5.886a5.184,5.184,0,0,0-7.429-.463l-7.26,6.771a78.394,78.394,0,0,0-18.207-12.031l2.883-9.729a5.776,5.776,0,0,0-3.674-7L1557.638,199a5.249,5.249,0,0,0-6.851,3.42l-2.913,9.831a79.351,79.351,0,0,0-22.384-1.42L1522.9,200.4a6.1,6.1,0,0,0-6.948-4.512l-8.238,1.553a5.352,5.352,0,0,0-4.226,6.67l2.722,10.7a78.732,78.732,0,0,0-20.1,10.226l-8.145-8.433a6.207,6.207,0,0,0-8.486-.528l-6.351,5.61a5.574,5.574,0,0,0-.082,8.158l8.47,8.6a75.373,75.373,0,0,0-11.646,19l-12.151-3.577a6,6,0,0,0-7.562,3.781l-2.4,8.11a5.891,5.891,0,0,0,4.312,7.2l12.512,3.539a74.662,74.662,0,0,0,.141,21.867l-12.856,2.984a5.618,5.618,0,0,0-4.386,6.918l2.279,8.095a6.161,6.161,0,0,0,7.438,4.067l13.04-3.156a77.413,77.413,0,0,0,11.29,18.275l-9.639,8.987a5.3,5.3,0,0,0-.08,7.865l6.1,5.685a6.165,6.165,0,0,0,8.318-.107l9.6-9.043a78.771,78.771,0,0,0,18.6,9.982l-3.61,12.184a5.162,5.162,0,0,0,3.905,6.523l7.958,1.848a5.875,5.875,0,0,0,6.916-3.947l3.571-12.051a79.23,79.23,0,0,0,20.684-.245l2.961,11.679a5.144,5.144,0,0,0,6.511,3.56l7.63-2.173a5.486,5.486,0,0,0,3.92-6.479l-2.839-11.461a78.591,78.591,0,0,0,17.708-9.928l7.993,8.12a5.157,5.157,0,0,0,7.3-.094l5.487-5.411a5.2,5.2,0,0,0,.227-7.291l-7.7-7.967a75.338,75.338,0,0,0,10.66-17.112l10.357,2.93a5.172,5.172,0,0,0,6.3-3.594l2.157-7.284A5.085,5.085,0,0,0,1619.183,304.343ZM1520.067,340.2c-30.062-7.706-48.11-38.151-39.34-67.757s40.581-45.618,70.1-36.09c28.517,9.209,44.255,38.987,36.019,66.793s-37.743,44.5-66.783,37.053Z" transform="translate(-1219.902 -166.177)" fill="#d8dee8"/>
          <g id="Group_52" data-name="Group 52" transform="translate(234.587 34.839)" clip-path="url(#clip-path-9)">
            <path id="Path_701" data-name="Path 701" d="M1871.37,417.554l3.1-2.117s.413-4.008,2.135-5.384,6.39-2.855,6.915-.605-1.9,9.377-4.855,10.168a26.617,26.617,0,0,0-5.994,2.657Z" transform="translate(-1822.926 -381.375)" fill="url(#linear-gradient-18)"/>
            <path id="Path_702" data-name="Path 702" d="M1658.074,462.221a18.514,18.514,0,0,0-16.219,4.8c-7.109,6.968-15.469,18.1-16.213,16.5s13.406-19.58,22.32-24.829a34.878,34.878,0,0,0-3.558-7s-41.24,11.646-40.152,30.825,12,21.967,14.958,21.967,10.325,3.652,31-6.086S1658.074,462.221,1658.074,462.221Z" transform="translate(-1596.189 -418.214)" fill="url(#linear-gradient-19)"/>
            <rect id="Rectangle_81" data-name="Rectangle 81" width="15.371" height="9.781" rx="4.42" transform="matrix(0.578, -0.816, 0.816, 0.578, 49.585, 37.423)" fill="url(#linear-gradient-20)"/>
            <rect id="Rectangle_82" data-name="Rectangle 82" width="15.371" height="9.781" rx="4.42" transform="matrix(0.578, -0.816, 0.816, 0.578, 49.812, 37.586)" fill="url(#linear-gradient-21)"/>
            <rect id="Rectangle_83" data-name="Rectangle 83" width="12.856" height="8.105" rx="4.053" transform="matrix(0.578, -0.816, 0.816, 0.578, 51.304, 36.928)" fill="#fff"/>
            <rect id="Rectangle_84" data-name="Rectangle 84" width="0.56" height="2.235" rx="0.28" transform="matrix(0.578, -0.816, 0.816, 0.578, 61.173, 27.82)" fill="#fff"/>
            <path id="Path_703" data-name="Path 703" d="M2096.175,2046.56l-.6,6.885a3.738,3.738,0,0,0,3.843.475l1.553-6.768Z" transform="translate(-2013.217 -1771.871)" fill="url(#linear-gradient-22)"/>
            <path id="Path_704" data-name="Path 704" d="M1708.459,2041.109a3.4,3.4,0,0,1,.352,4.084c-.857.988-2.118.242-5.708.349-3.852.115-4.858,1.025-7.476.3-1.059-.292-2.925-1-2.89-1.756.026-.531.976-.806,4.153-1.869,4.507-1.512,4.487-1.593,5.445-1.751C1704.74,2040.07,1707.155,2039.671,1708.459,2041.109Z" transform="translate(-1671.309 -1766.386)" fill="url(#linear-gradient-23)"/>
            <path id="Path_705" data-name="Path 705" d="M1769.523,2005.25l-1.933,6.426a3.747,3.747,0,0,0,3.8.767l2.874-6.239Z" transform="translate(-1734.841 -1736.809)" fill="url(#linear-gradient-24)"/>
            <path id="Path_706" data-name="Path 706" d="M1787.08,1074.5a602.529,602.529,0,0,1-19.031,142.64l7.394,1.989c6.255-5.83,14.146-15.012,17.952-27.98,2.363-8.052,1.574-12.19,3.073-22.1,2.387-15.769,7.22-24.031,12.217-36.752a209.259,209.259,0,0,0,12.641-50.614Z" transform="translate(-1735.231 -946.828)" fill="url(#linear-gradient-25)"/>
            <path id="Path_707" data-name="Path 707" d="M1822.854,1178.232c2.473-6.835,5.485-8.939,6.83-16.1,1.172-6.246-.437-8.276-.489-14.637-.1-12.679,6.2-16.877,8.294-27.322,1.137-5.663-6.3-19.964-13.122-32.312q.238-6.833.323-13.352l34.253,7.183a209.276,209.276,0,0,1-12.641,50.613c-4.991,12.715-9.831,20.977-12.218,36.752-1.5,9.9-.711,14.043-3.073,22.1-3.807,12.972-11.7,22.154-17.953,27.98l-.7-.188c6.305-8.217,8.264-15.2,8.541-20.72C1821.188,1192.534,1819.762,1186.772,1822.854,1178.232Z" transform="translate(-1772.84 -946.837)" opacity="0.3" fill="url(#linear-gradient-26)" style="mix-blend-mode: multiply;isolation: isolate"/>
            <path id="Path_708" data-name="Path 708" d="M2050.84,1090.735q2.269,41.208,3.69,83.94,1.058,32.063,1.568,63.293l7.555.932a87.947,87.947,0,0,0,7.88-20.333c2.689-10.782,2.066-17.186,3.246-28.36,1.323-12.533,3.244-15.265,6.655-31.074,6.909-32.088,10.365-48.132,2.656-58.111C2081.583,1097.779,2073.738,1089.651,2050.84,1090.735Z" transform="translate(-1975.252 -960.524)" fill="url(#linear-gradient-27)"/>
            <path id="Path_709" data-name="Path 709" d="M1875.548,519.96a129.576,129.576,0,0,0-27.752-4.636c-17.241-.974-25.862-1.405-30.921,2.557-15.693,12.29-.82,56.219-6.413,79.3-4.705,19.421-4.879,19.76-4.879,19.76-1.112,2.17-2.915,5.188-2.2,8.781.566,2.827,2.7,6.075,5.611,7.075,6.039,2.078,9.5-7.579,19.51-10.49,10.468-3.043,22.18,3,36.991,10.648,9.426,4.866,12.644,7.969,15.945,6.429,6.36-2.966,4.613-19.221,3.9-25.862C1882.534,587.157,1879.36,556.272,1875.548,519.96Z" transform="translate(-1765.085 -471.661)" fill="url(#linear-gradient-28)"/>
            <path id="Path_710" data-name="Path 710" d="M1821.31,736.507c1.7-2.952,1.632-7.411,5.368-9.515,2.178-1.227,3.875-.653,6.83-.732,8.808-.234,10.495-5.776,16.588-6.1,9.438-.5,13.97,12.338,19.271,10.49,3.462-1.21,5.69-8.131,3.9-13.418-2.49-7.37-11.022-6.361-22.2-16.345-4.781-4.27-11.646-11.977-9.758-15.368,1.98-3.562,11.367,1.664,18.3-3.66,4.043-3.107,3.527-6.945,6.83-13.905,1.789-3.77,8.344-13.576,18.094-20.186,3.134,29.975,5.825,56.029,8.253,78.735.709,6.637,2.456,22.892-3.9,25.863-3.3,1.54-6.52-1.564-15.945-6.429-14.811-7.644-26.523-13.691-36.991-10.648-10.015,2.911-13.477,12.568-19.51,10.49a8.668,8.668,0,0,1-4.46-4.062C1817.358,740.745,1820.028,738.73,1821.31,736.507Z" transform="translate(-1772.517 -584.638)" opacity="0.3" fill="url(#linear-gradient-29)" style="mix-blend-mode: multiply;isolation: isolate"/>
            <path id="Path_711" data-name="Path 711" d="M1990.734,432.31c-.01,1.31-1.2,7.875,3.2,11.059,4.434,3.211,10.015,3.037,11.677,3.448,3.855.956,4.351.93,4.436,1.313.415,1.866-10.1,8.226-20.956,6.693-6.647-.938-12.694-4.729-12.322-6.721s4.516-.929,6.494-4.554c1.376-2.521,2.329-6.1.505-9.067C1985.536,431.17,1988.968,435.619,1990.734,432.31Z" transform="translate(-1912.369 -401.765)" fill="url(#linear-gradient-30)"/>
            <path id="Path_712" data-name="Path 712" d="M1966.276,364.2a7.261,7.261,0,0,1-.848-8.279c1.361-2.231,3.843-2.825,5.331-3.176,4.314-1.031,10.052.13,12.457,3.923,1.425,2.249-.439,7.5-.717,8.439-.314,1.059-1.059,1.5-1.7,2.352-.886,1.178-2.269,3.049-4.525,6.171a18.016,18.016,0,0,0-1.352-2.848,15.957,15.957,0,0,0-2.5-3.237C1969.806,365.036,1968.061,366.054,1966.276,364.2Z" transform="translate(-1901.977 -333.933)" fill="url(#linear-gradient-31)"/>
            <path id="Path_713" data-name="Path 713" d="M1987.629,418.657a9.842,9.842,0,0,1-8.076,5.38c-5.167.284-7.3-11.119-4.321-13.954a6.514,6.514,0,0,1,4.979-1.261c1.086.168,1.494.561,3.275.8,1.642.222,2.07-.009,2.6.337.661.434,1.25,1.621.652,5.1a2.813,2.813,0,0,1,2.874-1.336,1.761,1.761,0,0,1,.756.582C1991.24,415.534,1990.242,417.355,1987.629,418.657Z" transform="translate(-1909.925 -381.769)" fill="url(#linear-gradient-32)"/>
            <path id="Path_714" data-name="Path 714" d="M1988.366,411.783c-.225.215.641,1.045.856,2.344a6.321,6.321,0,0,1-4.37,6.443c-1.527.339-2.066-.541-4.655-.5a11.773,11.773,0,0,0-3.7.664c-.469,2.874.622,5.555,2.633,6.617,2.166,1.143,4.619,0,5.646-.484a7.39,7.39,0,0,0,3.828-3.587c.983-2.338-.4-3.51.853-5.162.632-.833,1.54-1.27,2.288-2.827a7.008,7.008,0,0,0,.4-1.036C1990.655,413.011,1988.693,411.48,1988.366,411.783Z" transform="translate(-1912.058 -384.309)" fill="url(#linear-gradient-33)"/>
            <path id="Path_715" data-name="Path 715" d="M2021.84,556.441c2.631-3.993,7.865-7.91,12.685-7.562,14.065,1.015,31.4,38.9,19.51,53.912-9.075,11.457-37.109,12.012-62.695-7.806V588.4c12.589,2.2,23.027,3.663,30.737,4.634,4.808.6,9.6,1.152,10.49-.732,1.349-2.849-8.282-6.925-11.948-17.564C2020.12,573.268,2016.9,563.94,2021.84,556.441Z" transform="translate(-1924.751 -500.685)" fill="url(#linear-gradient-34)"/>
            <path id="Path_716" data-name="Path 716" d="M1871.553,805.94c-.113.02-6.46-4.073-5.561-1.664a5.962,5.962,0,0,0,2.738,3.259,13.687,13.687,0,0,0-5.6,3.895c-2.25,2.771-2.884,4.421-1.423,4.645s13.527-5.4,16.636-5.3a21.132,21.132,0,0,0,3.781-.053l.188-4.419S1874.428,805.462,1871.553,805.94Z" transform="translate(-1814.059 -716.829)" fill="url(#linear-gradient-35)"/>
            <path id="Path_717" data-name="Path 717" d="M1894.766,414.89a2.362,2.362,0,0,1,1.645.6c.549.635,3.234-1.221,4.264-3.285s-.239-4.235-1.156-3.781-5.578,2.163-4.908,6.246Z" transform="translate(-1842.596 -381.444)" fill="url(#linear-gradient-36)"/>
          </g>
          <path id="Path_719" data-name="Path 719" d="M731.275,382.929a1.288,1.288,0,0,1-.34.041l-41.173-.629-16.972-.265-13.949-.212-76.747-1.7a13.244,13.244,0,0,1-13.12-13.309l1.11-78.09a12.479,12.479,0,0,1,12.48-12.269c.3-.012.6.054.908.073l.935.107h.01L690.062,283.9a12.706,12.706,0,0,1,11.78,12.772l-.136,61.94L731.665,380.5A1.378,1.378,0,0,1,731.275,382.929Z" transform="translate(-482.918 -234.673)" fill="url(#linear-gradient-37)"/>
          <path id="Path_720" data-name="Path 720" d="M751.1,380.435,721.14,358.541l.136-61.955a12.747,12.747,0,0,0-11.783-12.806l-106.584-7.325a12.506,12.506,0,0,0-13.385,12.251L588.413,366.8a13.232,13.232,0,0,0,13.12,13.309l90.693,1.919,16.966.266,41.176.634A1.374,1.374,0,0,0,751.1,380.435Z" transform="translate(-499.417 -234.628)" fill="url(#linear-gradient-38)"/>
          <path id="Path_721" data-name="Path 721" d="M849.521,491.776a8.343,8.343,0,0,1-6.977-2.741l-24.772-31.083c-2.322-2.913-1.071-6.9,2.792-8.911s8.87-1.273,11.192,1.638l17.181,21.576,22.668-36.074c2.034-3.238,6.922-4.723,10.915-3.32s5.579,5.165,3.547,8.4L856.773,487.92a9.058,9.058,0,0,1-6.957,3.839Z" transform="translate(-693.099 -366.945)" fill="#fff"/>
          <path id="Path_722" data-name="Path 722" d="M712.428,381.872l-110.893-1.7a13.246,13.246,0,0,1-13.122-13.309l1.112-78.09A12.479,12.479,0,0,1,602.005,276.5c.135.088.263.183.393.283,6.308,4.62,11.727,11.939,13.216,23.538,4.114,32.032,20.28,30.854,36.74,32.913,8.271,1.034,15.8,2.886,23.291,7.642,7.411,4.708,14.807,12.261,22.85,24.689,5.142,7.936,9.41,13,13.861,16.26A.626.626,0,0,0,712.428,381.872Z" transform="translate(-499.418 -234.681)" opacity="0.2" fill="url(#linear-gradient-38)" style="mix-blend-mode: multiply;isolation: isolate"/>
        </g>
      </g>
    </g>
  </g>
</svg>
