<svg id="Group_5" data-name="Group 5" xmlns="http://www.w3.org/2000/svg" width="36.917" height="27.255" viewBox="0 0 36.917 27.255">
  <path id="rgba_0_0_0_1_" data-name="rgba(0,0,0,1)" d="M16.223,94.255H0V82.827l.072-.072.072-3.605.072-.072L.361,77.13l.649-2.956A9.394,9.394,0,0,1,4,69.379a8.976,8.976,0,0,1,2.163-1.3l1.8-.577a2.746,2.746,0,0,0,1.154-.216l1.082-.072.072-.072,2.091-.072L12.438,67l.036,7.138-1.767.216-.721.216A3.046,3.046,0,0,0,8.58,75.616l-.5.865-.433,1.3-.216,1.154v.5l-.072.072-.072,2.019-.072.252h9.013Z" transform="translate(20.694 -67)" fill="#fff"/>
  <path id="rgba_0_0_0_1_2" data-name="rgba(0,0,0,1)" d="M303.223,94.255H287v-11.5l.072-.072V80.3l.072-.072V79.221l.072-.072.144-1.947.288-1.226v-.361l.433-1.658.5-1.3.649-1.226a8.4,8.4,0,0,1,1.622-1.911,8.681,8.681,0,0,1,3.389-1.8l2.452-.5,1.442-.072.072-.072h1.154l.072-.072.036,7.138-1.694.216-.721.216a2.711,2.711,0,0,0-1.262.9l-.649,1.082L294.715,78l-.144.721v.5l-.072.072v.577l-.072.072-.072,1.839h8.869Z" transform="translate(-287 -67)" fill="#fff"/>
</svg>
