<svg xmlns="http://www.w3.org/2000/svg" width="665.073" height="375.57" viewBox="0 0 665.073 375.57">
  <g id="Layer_2" data-name="Layer 2" transform="translate(0 0.002)">
    <g id="_Layer_" data-name="&lt;Layer&gt;" transform="translate(0 -0.002)">
      <path id="Path_1117" data-name="Path 1117" d="M25.551,374c.156-2.733-64.183-84.8,10.741-160.573,33.824-34.2,91.038-15.671,81.986-115.584C110.463,11.565,245.428-39.128,329.31,37.9,383.5,87.665,438.364,21.275,524.336,58.944S553.7,199,588.975,208.643c69.506,19,104.007,102.63,48.6,164.428Z" transform="translate(0 0.002)" fill="#ebf3fa"/>
      <path id="Path_1118" data-name="Path 1118" d="M686.544,389.77c-.365-.752-.765-1.515-1.195-2.267l1.211-.687c.443.781.859,1.562,1.237,2.343Zm-2.53-4.459c-.461-.705-.953-1.416-1.463-2.111l1.122-.825c.521.716,1.041,1.45,1.507,2.176ZM545.734,400.66c-.882.094-1.768.167-2.632.219l-.083-1.39c.843-.049,1.708-.122,2.564-.213Zm2.6-.346-.214-1.375c.838-.13,1.692-.281,2.538-.453l.26,1.367c-.838.172-1.713.328-2.569.469Zm-7.89.653c-.885,0-1.775,0-2.645-.049l.065-1.39c.843.036,1.708.055,2.569.047Zm13.079-1.687-.331-1.354c.825-.2,1.666-.424,2.494-.661l.385,1.338C555.226,398.845,554.369,399.074,553.526,399.28Zm-18.348,1.44c-.88-.089-1.762-.206-2.624-.346l.224-1.375c.833.138,1.69.26,2.543.338Zm23.414-2.892-.435-1.322c.807-.26,1.63-.552,2.439-.851l.482,1.3C560.253,397.265,559.414,397.557,558.592,397.827Zm4.946-1.822-.521-1.289c.781-.323,1.588-.666,2.377-1.018l.568,1.27c-.815.362-1.627.711-2.431,1.039Zm-33.582,3.861c-.867-.2-1.731-.422-2.567-.669l.4-1.333c.807.237,1.643.456,2.478.646Zm151.019-18.7c-.539-.659-1.106-1.3-1.684-1.947l1.041-.937c.594.651,1.174,1.325,1.729,2ZM568.333,393.86l-.607-1.252c.765-.372,1.544-.763,2.309-1.164l.646,1.231C569.9,393.084,569.111,393.483,568.333,393.86Zm-43.474,4.5c-.833-.307-1.658-.646-2.457-1l.573-1.27c.768.349,1.562.674,2.366.971Zm48.123-6.938-.679-1.213c.745-.417,1.5-.854,2.241-1.3l.713,1.195c-.745.456-1.51.9-2.265,1.32ZM677.5,377.368c-.6-.6-1.234-1.2-1.869-1.773l.935-1.041c.651.588,1.3,1.2,1.916,1.822ZM520.03,396.18c-.781-.419-1.562-.875-2.291-1.349l.752-1.171c.711.456,1.45.89,2.2,1.3Zm57.477-7.44-.745-1.174c.721-.456,1.45-.929,2.174-1.411l.781,1.158C578.978,387.8,578.236,388.279,577.507,388.739Zm4.368-2.913-.8-1.125c.7-.489,1.406-1,2.1-1.512l.825,1.119C583.3,384.816,582.581,385.332,581.875,385.826Zm-66.32,7.487c-.706-.534-1.4-1.1-2.062-1.682l.922-1.041c.635.56,1.3,1.1,1.979,1.614Zm158.134-19.4c-.659-.541-1.343-1.073-2.031-1.585l.83-1.117c.705.521,1.406,1.07,2.083,1.627ZM586.1,382.718l-.849-1.1.206-.159q.94-.726,1.877-1.427l.833,1.114q-.927.69-1.859,1.414Zm83.455-11.879c-.708-.476-1.44-.942-2.171-1.385l.721-1.192c.75.456,1.5.932,2.226,1.421ZM511.572,389.8c-.614-.635-1.211-1.3-1.773-1.984l1.075-.888c.536.653,1.109,1.3,1.7,1.9Zm78.678-10.189-.815-1.13c.713-.521,1.432-1.02,2.145-1.51l.781,1.145Zm74.89-11.433c-.752-.406-1.523-.8-2.293-1.171l.6-1.255c.781.383,1.58.781,2.343,1.2Zm-70.621,8.487-.765-1.161c.734-.484,1.476-.963,2.2-1.421l.745,1.177c-.711.456-1.445.927-2.171,1.406Zm-86.329,9.031c-.505-.724-.989-1.479-1.437-2.244l1.2-.7c.43.734.89,1.458,1.375,2.15ZM598.919,373.9,598.2,372.7c.75-.448,1.513-.893,2.267-1.322l.687,1.213C600.4,373.016,599.661,373.456,598.919,373.9Zm61.593-7.958c-.781-.333-1.593-.651-2.4-.948l.484-1.3c.82.3,1.645.633,2.455.974Zm-57.084,5.4-.659-1.218c.781-.411,1.562-.817,2.33-1.211l.627,1.244C604.958,370.532,604.185,370.933,603.427,371.342Zm52.255-7.182c-.815-.26-1.648-.5-2.473-.718l.357-1.346c.846.224,1.7.474,2.536.737Zm-47.639,4.855-.591-1.26c.781-.372,1.6-.737,2.392-1.086l.557,1.278c-.771.354-1.565.7-2.348,1.067ZM505.5,381.1c-.383-.781-.739-1.614-1.062-2.439l1.3-.505c.307.781.651,1.578,1.018,2.343Zm145.2-18.262c-.833-.18-1.684-.341-2.53-.482l.229-1.375c.867.146,1.739.312,2.6.495ZM612.8,366.948l-.521-1.3c.815-.325,1.643-.643,2.455-.942l.479,1.3C614.413,366.313,613.6,366.625,612.8,366.948ZM645.626,362c-.849-.1-1.71-.185-2.564-.247l.1-1.388c.872.063,1.757.148,2.627.26Zm-27.972,3.176-.437-1.322c.836-.276,1.682-.539,2.512-.781l.393,1.335C619.3,364.636,618.474,364.9,617.654,365.177Zm22.838-3.559c-.849-.026-1.716-.031-2.577-.018l-.018-1.393c.88,0,1.768,0,2.637.018ZM622.616,363.7l-.346-1.338c.849-.219,1.71-.424,2.562-.609l.3,1.359c-.838.182-1.682.383-2.515.6Zm12.725-2.015c-.851.049-1.716.117-2.569.2l-.138-1.385c.872-.086,1.757-.156,2.627-.206Zm-7.68.914-.26-1.369c.867-.156,1.742-.3,2.6-.417l.193,1.38c-.833.12-1.679.263-2.538.414Zm-124.1,13.542c-.26-.838-.482-1.705-.677-2.572l1.359-.3c.185.833.4,1.663.648,2.47Zm-1.158-5.183c-.047-.32-.091-.64-.13-.963-.065-.557-.122-1.122-.164-1.679l1.388-.1c.042.536.094,1.08.159,1.617.039.31.078.62.125.924Zm.989-5.305H502c0-.875.016-1.768.068-2.653l1.39.081c-.039.867-.062,1.729-.055,2.572Zm.294-5.118-1.382-.167c.1-.854.237-1.723.393-2.582l1.375.208v.055c-.146.817-.273,1.661-.375,2.486Zm.916-5.063-1.359-.307c.2-.856.409-1.718.638-2.559l1.343.364C505,353.794,504.788,354.634,504.6,355.473Zm47.621-7.044a19.73,19.73,0,0,1-2.7.07l.065-1.393a17.683,17.683,0,0,0,2.507-.062Zm2.653-.432-.292-1.349a23.036,23.036,0,0,0,2.439-.679l.445,1.32A24.731,24.731,0,0,1,554.877,348Zm-8.07.143a14.087,14.087,0,0,1-2.6-.841l.56-1.276a12.478,12.478,0,0,0,2.343.755Zm13.138-1.846-.573-1.268c.765-.346,1.526-.734,2.262-1.156l.692,1.208a24.963,24.963,0,0,1-2.374,1.226Zm4.636-2.65-.794-1.114c.7-.489,1.369-1.013,2.01-1.562l.9,1.06c-.661.565-1.382,1.114-2.111,1.627Zm-58.641,6.847-1.317-.411c.26-.836.557-1.677.859-2.494l1.3.482c-.292.8-.573,1.617-.836,2.434Zm35.888-4.563a11.819,11.819,0,0,1-2.01-1.893l1.065-.9a10.574,10.574,0,0,0,1.775,1.671Zm26.813-5.74-1-.968c.591-.612,1.153-1.255,1.671-1.911l1.093.864A24.025,24.025,0,0,1,568.643,340.186Zm-60.916,5.482-1.273-.536c.341-.81.705-1.619,1.08-2.408l1.257.6Q508.241,344.475,507.727,345.669Zm30.554-3.92a14.636,14.636,0,0,1-1.041-2.523l1.328-.414a13.658,13.658,0,0,0,.94,2.291Zm33.678-5.764-1.179-.745a22.453,22.453,0,0,0,1.226-2.21l1.255.6a24.45,24.45,0,0,1-1.3,2.348Zm-62.007,5.037-1.226-.656c.411-.781.849-1.546,1.3-2.3l1.2.713C510.783,339.515,510.356,340.27,509.953,341.022Zm26.686-4.426c-.036-.242-.073-.487-.1-.739-.076-.622-.128-1.273-.154-1.934l1.393-.055c.023.625.073,1.239.143,1.822.029.234.06.466.094.692Zm37.648-5.433-1.317-.453a20.634,20.634,0,0,0,.674-2.429l1.361.289a22.423,22.423,0,0,1-.718,2.58Zm-61.7,5.449-1.161-.765c.482-.729.987-1.458,1.5-2.168l1.125.82c-.505.679-1,1.39-1.468,2.1Zm25.2-5.3-1.393-.055c.036-.888.1-1.778.2-2.645l1.385.151c-.091.82-.156,1.679-.187,2.536Zm37.625-5.417-1.388-.12a20.342,20.342,0,0,0,.063-2.52l1.39-.049A22.041,22.041,0,0,1,575.411,325.9Zm-59.789,6.542-1.086-.872c.547-.682,1.119-1.361,1.7-2.02l1.041.919C516.714,331.109,516.156,331.773,515.623,332.439Zm3.4-3.868-1-.966c.609-.63,1.239-1.257,1.874-1.859l.958,1.01C520.236,327.345,519.619,327.951,519.025,328.571Zm19.319-2.343-1.369-.26c.161-.872.357-1.744.583-2.6l1.346.359c-.219.843-.406,1.669-.56,2.507Zm35.425-5.42a10.509,10.509,0,0,0-.82-2.3l1.244-.62a11.864,11.864,0,0,1,.932,2.6Zm-51.005,4.215-.914-1.041c.661-.573,1.343-1.14,2.031-1.687l.867,1.091C524.075,323.911,523.406,324.465,522.763,325.023Zm16.892-3.71-1.3-.466c.3-.833.633-1.663.992-2.468l1.27.573C540.268,319.72,539.94,320.514,539.656,321.313Zm31.955-4.816a11.33,11.33,0,0,0-1.778-1.69l.849-1.1a12.91,12.91,0,0,1,1.994,1.9Zm-44.81,5.337-.817-1.127c.711-.521,1.44-1.02,2.171-1.5l.765,1.161c-.713.458-1.427.953-2.119,1.455Zm4.3-2.84-.726-1.195c.752-.45,1.525-.89,2.293-1.3l.664,1.224c-.742.391-1.5.82-2.231,1.26Zm10.642-2.306L540.528,316c.377-.682.781-1.361,1.213-2.023q-.687.242-1.372.5l-.492-1.3c.823-.312,1.661-.609,2.489-.88l.435,1.322-.7.234.966.64c-.471.7-.914,1.442-1.322,2.179Zm25.993-3.2a17.14,17.14,0,0,0-2.306-.976l.45-1.317a18.742,18.742,0,0,1,2.491,1.054Zm-32.1,3.038-.609-1.252c.781-.385,1.6-.755,2.4-1.1l.552,1.276C537.2,315.789,536.407,316.151,535.636,316.526Zm27.36-4.7c-.8-.172-1.643-.31-2.507-.411l.159-1.382c.909.1,1.8.26,2.64.432Zm-17.733,1.041-.276-1-.435.547-1.1-.854c.536-.69,1.109-1.375,1.708-2.036l1.041.932q-.422.466-.823.942c.7-.185,1.4-.354,2.083-.505l.3,1.359c-.831.193-1.671.4-2.5.627Zm12.683-1.648c-.83-.026-1.692-.021-2.559.013l-.055-1.39c.9-.036,1.794-.042,2.658-.013Zm-7.659.544-.227-1.375c.883-.143,1.765-.26,2.627-.354l.143,1.385c-.833.1-1.687.213-2.543.354Zm-2.314-3.147-.968-1c.625-.6,1.286-1.2,1.963-1.778l.9,1.06c-.653.568-1.291,1.148-1.9,1.731Zm3.9-3.322-.838-1.112c.69-.521,1.414-1.041,2.153-1.533l.781,1.156c-.729.492-1.432.994-2.1,1.5Zm4.259-2.864-.719-1.192c.739-.445,1.512-.888,2.293-1.3l.664,1.224c-.771.411-1.526.841-2.247,1.278Zm4.535-2.46-.612-1.25c.781-.377,1.583-.752,2.395-1.109l.56,1.273c-.8.357-1.591.721-2.351,1.091Zm4.73-2.083-.521-1.3c.8-.32,1.632-.633,2.468-.932l.469,1.3c-.82.315-1.635.622-2.424.937Zm4.873-1.749-.427-1.325c.825-.26,1.674-.521,2.517-.781l.388,1.335c-.838.258-1.674.513-2.486.776Zm4.98-1.445-.364-1.343c.841-.216,1.7-.427,2.559-.622l.31,1.356c-.836.193-1.684.4-2.512.614Zm5.058-1.158-.26-1.364c.864-.174,1.736-.336,2.6-.482l.234,1.372c-.872.151-1.731.31-2.585.479Zm7.677-1.169s-.955.078-2.559.3l-.19-1.38c1.653-.229,2.6-.3,2.637-.307Z" transform="translate(-371.317 -215.23)" fill="#8c9df4"/>
      <rect id="Rectangle_112" data-name="Rectangle 112" width="55.376" height="142.202" transform="translate(168.057 230.452)" fill="#bdd1f9"/>
      <rect id="Rectangle_113" data-name="Rectangle 113" width="55.376" height="188.68" transform="translate(254.204 183.974)" fill="#bdd1f9"/>
      <rect id="Rectangle_114" data-name="Rectangle 114" width="60.635" height="238.842" transform="translate(332.533 133.81)" fill="#bdd1f9"/>
      <rect id="Rectangle_115" data-name="Rectangle 115" width="55.376" height="271.908" transform="translate(414.771 100.746)" fill="#bdd1f9"/>
      <path id="Path_1119" data-name="Path 1119" d="M1510.3,659.682l116.386-56.342L1574.78,713.98l-8.776-50.2Z" transform="translate(-1117.133 -446.276)" fill="#f77d48"/>
      <path id="Path_1120" data-name="Path 1120" d="M1405.679,598.254a21.807,21.807,0,1,1,26.345,16.033A21.807,21.807,0,0,1,1405.679,598.254Z" transform="translate(-1039.286 -422.566)" fill="#ffb93e"/>
      <path id="Path_1121" data-name="Path 1121" d="M1437.306,618.882a19.871,19.871,0,1,1,12.277-8.979A19.871,19.871,0,0,1,1437.306,618.882Zm-9.111-37.461a18.683,18.683,0,1,0,22.57,13.737,18.683,18.683,0,0,0-22.57-13.737Z" transform="translate(-1044.967 -428.793)" fill="#ffa412"/>
      <path id="Path_1122" data-name="Path 1122" d="M1470.692,618.9a3.2,3.2,0,0,0-.318-1.112,2.357,2.357,0,0,0-.7-.815,4.53,4.53,0,0,0-1.151-.607,11.921,11.921,0,0,0-1.669-.463q-1.682-.372-3.077-.83a9.916,9.916,0,0,1-2.429-1.158,5.774,5.774,0,0,1-1.687-1.721,6.555,6.555,0,0,1-.659-4.946,5.557,5.557,0,0,1,1.091-2.028,6.932,6.932,0,0,1,1.9-1.541,9.192,9.192,0,0,1,2.6-.958l-.4-3.275,2.635-.318.4,3.319a8.222,8.222,0,0,1,2.658.437,6.23,6.23,0,0,1,3.645,3.215,8.332,8.332,0,0,1,.781,2.71l-4.761.575a4.074,4.074,0,0,0-1.148-2.647,2.812,2.812,0,0,0-2.291-.646,3.551,3.551,0,0,0-1.252.362,2.4,2.4,0,0,0-.812.672,2.279,2.279,0,0,0-.409.911,3.384,3.384,0,0,0-.036,1.078,3.07,3.07,0,0,0,.289,1,2.259,2.259,0,0,0,.672.781,4.533,4.533,0,0,0,1.158.607,16.157,16.157,0,0,0,1.742.521q1.671.4,3.056.872a10.03,10.03,0,0,1,2.424,1.171,5.626,5.626,0,0,1,2.517,4.236,6,6,0,0,1-.174,2.476,5.409,5.409,0,0,1-1.1,2.01,6.638,6.638,0,0,1-1.913,1.507,9.891,9.891,0,0,1-2.619.937l.37,3.046-2.619.315-.367-3.028a11.136,11.136,0,0,1-2.715-.276,7.108,7.108,0,0,1-2.426-1.041,6.32,6.32,0,0,1-1.846-1.989,7.72,7.72,0,0,1-.974-3.08l4.759-.578a4.71,4.71,0,0,0,.521,1.775,3.033,3.033,0,0,0,.955,1.065,2.965,2.965,0,0,0,1.234.471,5.082,5.082,0,0,0,1.349.016,4.206,4.206,0,0,0,1.335-.364,2.811,2.811,0,0,0,.911-.669,2.207,2.207,0,0,0,.492-.906,2.7,2.7,0,0,0,.057-1.091Z" transform="translate(-1079.029 -443.162)" fill="#ffa412"/>
      <circle id="Ellipse_25" data-name="Ellipse 25" cx="21.24" cy="21.24" r="21.24" transform="translate(472.31 113.038) rotate(-45)" fill="#ffb93e"/>
      <path id="Path_1123" data-name="Path 1123" d="M1875.508,399.537a19.35,19.35,0,1,1,13.451-6.2A19.35,19.35,0,0,1,1875.508,399.537Zm-1.471-37.518a18.2,18.2,0,1,0,18.9,17.468,18.2,18.2,0,0,0-18.9-17.468Z" transform="translate(-1372.393 -266.912)" fill="#ffa412"/>
      <path id="Path_1124" data-name="Path 1124" d="M1909.02,400.036a3.16,3.16,0,0,0-.089-1.122,2.343,2.343,0,0,0-.521-.914,4.442,4.442,0,0,0-.984-.8,12.057,12.057,0,0,0-1.5-.768,30.325,30.325,0,0,1-2.778-1.385,9.709,9.709,0,0,1-2.083-1.562,5.7,5.7,0,0,1-1.278-1.968,6.406,6.406,0,0,1,.325-4.852,5.389,5.389,0,0,1,1.434-1.723,6.69,6.69,0,0,1,2.1-1.106,8.947,8.947,0,0,1,2.668-.414l.26-3.2,2.577.2-.26,3.246a8.045,8.045,0,0,1,2.455.932,6.07,6.07,0,0,1,2.864,3.772,8.068,8.068,0,0,1,.214,2.733l-4.655-.367a3.94,3.94,0,0,0-.586-2.749,2.736,2.736,0,0,0-2.064-1.06,3.538,3.538,0,0,0-1.265.1,2.343,2.343,0,0,0-.9.484,2.214,2.214,0,0,0-.565.781,3.292,3.292,0,0,0-.245,1.02,2.985,2.985,0,0,0,.083,1.015,2.2,2.2,0,0,0,.489.875,4.383,4.383,0,0,0,.992.8,14.833,14.833,0,0,0,1.562.825q1.52.706,2.749,1.421a9.673,9.673,0,0,1,2.083,1.588,5.467,5.467,0,0,1,1.585,4.53,5.814,5.814,0,0,1-.646,2.327,5.3,5.3,0,0,1-1.44,1.708,6.528,6.528,0,0,1-2.116,1.067,9.631,9.631,0,0,1-2.681.391l-.234,2.975-2.562-.2.234-2.962a10.947,10.947,0,0,1-2.541-.781,6.863,6.863,0,0,1-2.111-1.468,6.118,6.118,0,0,1-1.377-2.254,7.477,7.477,0,0,1-.338-3.124l4.655.37a4.637,4.637,0,0,0,.159,1.8,3,3,0,0,0,.708,1.2,2.889,2.889,0,0,0,1.088.687,4.911,4.911,0,0,0,1.283.273,4.1,4.1,0,0,0,1.343-.089,2.738,2.738,0,0,0,1-.463,2.2,2.2,0,0,0,.643-.768A2.675,2.675,0,0,0,1909.02,400.036Z" transform="translate(-1403.783 -281.239)" fill="#ffa412"/>
      <path id="Path_1125" data-name="Path 1125" d="M1733.043,539.8a14.648,14.648,0,1,1,14.906,14.388A14.648,14.648,0,0,1,1733.043,539.8Z" transform="translate(-1281.889 -388.247)" fill="#ffb93e"/>
      <path id="Path_1126" data-name="Path 1126" d="M1751.642,557.236a13.347,13.347,0,1,1,9.372-4.077A13.347,13.347,0,0,1,1751.642,557.236Zm-.458-25.894a12.55,12.55,0,1,0,12.771,12.337A12.55,12.55,0,0,0,1751.184,531.341Z" transform="translate(-1285.602 -392.429)" fill="#ffa412"/>
      <path id="Path_1127" data-name="Path 1127" d="M1774.787,557.6a2.179,2.179,0,0,0-.047-.781,1.562,1.562,0,0,0-.338-.638,3,3,0,0,0-.664-.568,8.408,8.408,0,0,0-1.026-.552,20.475,20.475,0,0,1-1.9-1,6.625,6.625,0,0,1-1.421-1.114,3.9,3.9,0,0,1-.851-1.377,4.405,4.405,0,0,1,.3-3.34,3.7,3.7,0,0,1,1.013-1.169,4.685,4.685,0,0,1,1.468-.732,6.183,6.183,0,0,1,1.846-.245l.221-2.2,1.775.18-.226,2.234a5.627,5.627,0,0,1,1.679.679,4.186,4.186,0,0,1,1.913,2.642,5.6,5.6,0,0,1,.107,1.89l-3.2-.3a2.713,2.713,0,0,0-.365-1.906,1.882,1.882,0,0,0-1.406-.76,2.418,2.418,0,0,0-.875.052,1.624,1.624,0,0,0-.63.323,1.528,1.528,0,0,0-.4.536,2.3,2.3,0,0,0-.182.7,2.054,2.054,0,0,0,.042.7,1.54,1.54,0,0,0,.325.612,3.091,3.091,0,0,0,.672.565,10.487,10.487,0,0,0,1.065.594q1.041.521,1.874,1.021a6.766,6.766,0,0,1,1.416,1.125,3.777,3.777,0,0,1,1.026,3.147,4,4,0,0,1-.479,1.6,3.644,3.644,0,0,1-1.018,1.156,4.462,4.462,0,0,1-1.476.705,6.656,6.656,0,0,1-1.856.229l-.206,2.049-1.762-.177.206-2.038a7.427,7.427,0,0,1-1.729-.6,4.735,4.735,0,0,1-1.437-1.041,4.275,4.275,0,0,1-.916-1.562,5.171,5.171,0,0,1-.185-2.161l3.2.323a3.18,3.18,0,0,0,.083,1.242,2.082,2.082,0,0,0,.469.836,2.013,2.013,0,0,0,.742.492,3.381,3.381,0,0,0,.88.208,2.816,2.816,0,0,0,.927-.042,1.877,1.877,0,0,0,.7-.3,1.482,1.482,0,0,0,.456-.521A1.824,1.824,0,0,0,1774.787,557.6Z" transform="translate(-1307.076 -402.295)" fill="#ffa412"/>
      <circle id="Ellipse_26" data-name="Ellipse 26" cx="35.748" cy="35.748" r="35.748" transform="translate(385.313 61.836) rotate(-3.89)" fill="#ffb93e"/>
      <path id="Path_1128" data-name="Path 1128" d="M1544.635,305.2a32.569,32.569,0,1,1,18.863-16.294A32.569,32.569,0,0,1,1544.635,305.2Zm-19.855-59.992a30.627,30.627,0,1,0,38.7,19.446A30.627,30.627,0,0,0,1524.78,245.208Z" transform="translate(-1110.865 -178.788)" fill="#ffa412"/>
      <path id="Path_1129" data-name="Path 1129" d="M1595.513,305.543a5.4,5.4,0,0,0-.669-1.773,3.93,3.93,0,0,0-1.252-1.239,7.354,7.354,0,0,0-1.96-.836,19.778,19.778,0,0,0-2.791-.539,51.543,51.543,0,0,1-5.134-.948,16.285,16.285,0,0,1-4.124-1.562,9.545,9.545,0,0,1-2.986-2.585,9.891,9.891,0,0,1-1.695-4.012,9.772,9.772,0,0,1-.037-3.988,9.065,9.065,0,0,1,1.513-3.457,11.363,11.363,0,0,1,2.892-2.77,15.02,15.02,0,0,1,4.118-1.911l-1.078-5.305,4.264-.869,1.1,5.37a13.537,13.537,0,0,1,4.4.362,10.226,10.226,0,0,1,6.375,4.769,13.64,13.64,0,0,1,1.619,4.324l-7.7,1.562a6.6,6.6,0,0,0-2.228-4.165,4.617,4.617,0,0,0-3.829-.75,5.836,5.836,0,0,0-2,.758,3.926,3.926,0,0,0-1.239,1.205,3.668,3.668,0,0,0-.544,1.544,5.413,5.413,0,0,0,.081,1.762,5,5,0,0,0,.606,1.6,3.679,3.679,0,0,0,1.2,1.184,7.468,7.468,0,0,0,1.973.836,25.179,25.179,0,0,0,2.913.6q2.785.437,5.108,1.02a16.413,16.413,0,0,1,4.116,1.593,9.216,9.216,0,0,1,4.686,6.586,9.839,9.839,0,0,1,.039,4.066,8.944,8.944,0,0,1-1.533,3.434,10.934,10.934,0,0,1-2.928,2.713,16.209,16.209,0,0,1-4.165,1.88l1,4.925-4.235.867-1-4.9a18.345,18.345,0,0,1-4.472-.091,11.594,11.594,0,0,1-4.1-1.393,10.377,10.377,0,0,1-3.277-3,12.577,12.577,0,0,1-2-4.9l7.7-1.575a7.756,7.756,0,0,0,1.093,2.832,4.987,4.987,0,0,0,1.7,1.611,4.86,4.86,0,0,0,2.083.607,8.345,8.345,0,0,0,2.2-.154,6.9,6.9,0,0,0,2.132-.781,4.605,4.605,0,0,0,1.4-1.213,3.711,3.711,0,0,0,.685-1.546,4.512,4.512,0,0,0-.029-1.749Z" transform="translate(-1164.752 -202.486)" fill="#ffa412"/>
      <path id="Path_1130" data-name="Path 1130" d="M1000.484,232.713c-3.215.8-6.282,1.562-9.15,2.059-9.291,1.588-16.468.279-19.563-12.108s2.627-16.921,11.571-19.884c2.765-.916,5.831-1.684,9.044-2.486a38.212,38.212,0,0,1,20.524,1.041c5.954,1.955,10.413,5.1,11.194,8.265.9,3.6-1.562,8.479-5.915,12.9A39.18,39.18,0,0,1,1000.484,232.713Z" transform="translate(-718.168 -147.449)" fill="#739af0"/>
      <path id="Path_1131" data-name="Path 1131" d="M941.312,192.961l-10.551-6.891L914.1,189.621l17.3,12.157Z" transform="translate(-676.138 -137.631)" fill="#163560"/>
      <path id="Path_1132" data-name="Path 1132" d="M985.455,326.181l-6.073,11.043-16.372,4.7,9.557-18.866Z" transform="translate(-712.315 -238.959)" fill="#163560"/>
      <path id="Path_1133" data-name="Path 1133" d="M991.334,244.541c-9.291,1.588-16.468.279-19.563-12.108s2.627-16.921,11.571-19.884Z" transform="translate(-718.168 -157.218)" fill="#163560"/>
      <path id="Path_1134" data-name="Path 1134" d="M890.86,283.268s4.636-10.806,12.756-9.143c8.281,1.7,7.237,10.621,1.023,11.441S894.484,282.362,890.86,283.268Z" transform="translate(-658.948 -202.635)" fill="#f77d48"/>
      <path id="Path_1135" data-name="Path 1135" d="M1063.325,228.017a8.008,8.008,0,1,1-5.829,9.71,8.008,8.008,0,0,1,5.829-9.71Z" transform="translate(-782.026 -168.48)" fill="#163560"/>
      <path id="Path_1136" data-name="Path 1136" d="M1063.649,242.806a8.544,8.544,0,1,1,2.067-.26A8.544,8.544,0,0,1,1063.649,242.806Zm0-16.018a7.474,7.474,0,1,0,7.253,5.665A7.474,7.474,0,0,0,1063.649,226.788Z" transform="translate(-780.416 -166.957)" fill="#bdd1f9"/>
      <path id="Path_1137" data-name="Path 1137" d="M1137.495,228.151,1132.21,207c5.954,1.955,10.413,5.1,11.194,8.265C1144.31,218.858,1141.858,223.734,1137.495,228.151Z" transform="translate(-837.469 -153.112)" fill="#f77d48"/>
      <path id="Path_1138" data-name="Path 1138" d="M2072.35,734.63s16.179,16.775,16.944,23.091-7.75,16.171-7.75,16.171Z" transform="translate(-1532.868 -543.388)" fill="#ed7d2b"/>
      <path id="Path_1139" data-name="Path 1139" d="M1982.093,1394.324s-.573,8.9-2.293,9.023c-.229.016-8.734,0-8.734,0l-10.855-.086a3.535,3.535,0,0,1,3.251-3.163c3.173-.56,8.489-2.765,10.413-6.953C1975.915,1388.727,1982.093,1394.324,1982.093,1394.324Z" transform="translate(-1449.921 -1029.219)" fill="#2e5a99"/>
      <path id="Path_1140" data-name="Path 1140" d="M2074.973,1394.534s-.573,8.9-2.293,9.023c-.229.016-8.734,0-8.734,0l-10.855-.086a3.535,3.535,0,0,1,3.251-3.163c3.173-.56,8.492-2.765,10.413-6.953C2068.8,1388.944,2074.973,1394.534,2074.973,1394.534Z" transform="translate(-1518.622 -1029.377)" fill="#18417c"/>
      <path id="Path_1141" data-name="Path 1141" d="M1998.88,996.537s2.8,18.165,13.321,50.422,11.936,46.218,11.936,46.218l11.36-.294s.174-35.227-4.67-51.448S2029.89,983,2029.89,983Z" transform="translate(-1478.524 -727.101)" fill="#163560"/>
      <path id="Path_1142" data-name="Path 1142" d="M1977.714,986.48a440.48,440.48,0,0,0,4.2,60.973c4.662,33.61,3.025,47.866,3.025,47.866l11.34.4s6.849-33.582,4.946-50.417,9.4-57.683,9.4-57.683Z" transform="translate(-1462.858 -729.675)" fill="#1c468a"/>
      <path id="Path_1143" data-name="Path 1143" d="M2020.616,702.242l-6.05,3.947-8.726-1.645c.122-.705.7-3.624,1.234-6.269.034-.156.065-.312.1-.466.453-2.249.846-4.183.846-4.183l8.164-3.579,3.043-1.335c0,.047-.242,2.5-.273,2.864A20.939,20.939,0,0,0,2020.616,702.242Z" transform="translate(-1483.672 -509.422)" fill="#ffb27d"/>
      <path id="Path_1144" data-name="Path 1144" d="M2004.534,725.067c.169-.073,10.522-3.1,11.644-2.728s1.783,2.549,1.783,2.549l-16.921,3.788A8.355,8.355,0,0,1,2004.534,725.067Z" transform="translate(-1480.122 -534.273)" fill="#ed7d2b"/>
      <path id="Path_1145" data-name="Path 1145" d="M2009.472,801.61c-1.77,8-30.955,8.882-38.463,1.6-.854-.83-.888-4.686-.552-9.872.653-10.153,2.713-25.4,2.809-33.194a61.875,61.875,0,0,1,1.268-11.108,90.158,90.158,0,0,1,3.728-13.292s14.266-4.576,16.921-3.788C2008.035,735.764,2011.244,793.615,2009.472,801.61Z" transform="translate(-1457.353 -541.346)" fill="#f99746"/>
      <path id="Path_1146" data-name="Path 1146" d="M1971,837.876c.653-10.153,2.713-25.4,2.809-33.194a61.9,61.9,0,0,1,1.268-11.108l8.591-1.494S1991.969,826.344,1971,837.876Z" transform="translate(-1457.902 -585.882)" fill="#ed7d2b"/>
      <path id="Path_1147" data-name="Path 1147" d="M1982.03,909.969a2.033,2.033,0,0,1-.648,2.343c-1.229.945-2.028,2.452-1.749,3.564s2.968,2.929,3.9,2.64,2.837-1.749,2.634-2.343,1.3-5.139-.984-6.9S1982.03,909.969,1982.03,909.969Z" transform="translate(-1464.246 -672.101)" fill="#ffb27d"/>
      <path id="Path_1148" data-name="Path 1148" d="M1954.81,738.94s-8.367,1.546-15.049,11.353-11.084,17.1-9.866,20.636,12.384,15.841,14.318,15.846,5.042-1.393,5.225-4.548c0,0-7.851-11.824-6.295-13.589.664-.752,10.244-8.5,11.6-4.985C1956.986,769.458,1954.81,738.94,1954.81,738.94Z" transform="translate(-1427.347 -546.576)" fill="#f99746"/>
      <path id="Path_1149" data-name="Path 1149" d="M2021.842,695.47c-1.8,3.028-8.476,5.636-11.262,6.6.034-.156.065-.312.1-.466.453-2.249.846-4.183.846-4.183l8.164-3.579C2021.488,693.817,2022.583,694.223,2021.842,695.47Z" transform="translate(-1487.178 -513.214)" fill="#fca56b"/>
      <path id="Path_1150" data-name="Path 1150" d="M1997.765,644.272s13.125,4.126,15.57-4.09,5.784-13.214-2.494-16.195-10.848-.333-12.329,2.21S1994.412,642.986,1997.765,644.272Z" transform="translate(-1476.493 -460.572)" fill="#ffb27d"/>
      <path id="Path_1151" data-name="Path 1151" d="M2003.771,612.656s.815,9.567,2.8,9.156,3.772-.713,3.478,2.169-3.046,6.206,3.048,6.729,14.893-15.18,13.224-18.16C2021.5,603.951,1996.81,602.162,2003.771,612.656Z" transform="translate(-1481.234 -447.821)" fill="#163560"/>
      <path id="Path_1152" data-name="Path 1152" d="M1568.4,1412.235v3.442a1.18,1.18,0,0,1-.26.74,1.561,1.561,0,0,1-.742.494,1.374,1.374,0,0,1-.289.07,1.637,1.637,0,0,1-.279.021h-65.266a1.532,1.532,0,0,1-1.562-1.127v-3.837a1.531,1.531,0,0,1,1.562-1.127h65.268a1.95,1.95,0,0,1,.278.018,1.806,1.806,0,0,1,.289.07,1.593,1.593,0,0,1,.742.495A1.193,1.193,0,0,1,1568.4,1412.235Z" transform="translate(-1109.514 -1043.616)" fill="#ffb93e"/>
      <path id="Path_1153" data-name="Path 1153" d="M1536.289,1416.988h-34.967a1.4,1.4,0,0,1-1.356-.981,1.5,1.5,0,0,1-.039-.146.539.539,0,0,1,0-.13v-3.694a1.3,1.3,0,0,1,.039-.146,1.4,1.4,0,0,1,1.356-.981H1532A10.674,10.674,0,0,0,1536.289,1416.988Z" transform="translate(-1109.457 -1043.615)" fill="#ffa412"/>
      <rect id="Rectangle_116" data-name="Rectangle 116" width="0.742" height="6.094" transform="translate(450.199 367.278)" fill="#ffa412"/>
      <rect id="Rectangle_117" data-name="Rectangle 117" width="0.742" height="6.094" transform="translate(447.687 367.278)" fill="#ffa412"/>
      <rect id="Rectangle_118" data-name="Rectangle 118" width="0.742" height="6.094" transform="translate(444.677 367.278)" fill="#ffa412"/>
      <rect id="Rectangle_119" data-name="Rectangle 119" width="0.742" height="6.094" transform="translate(440.062 367.278)" fill="#ffa412"/>
      <rect id="Rectangle_120" data-name="Rectangle 120" width="0.742" height="6.094" transform="translate(435.181 367.278)" fill="#ffa412"/>
      <rect id="Rectangle_121" data-name="Rectangle 121" width="0.742" height="6.094" transform="translate(427.699 367.278)" fill="#ffa412"/>
      <rect id="Rectangle_122" data-name="Rectangle 122" width="0.742" height="6.094" transform="translate(420.691 367.278)" fill="#ffa412"/>
      <rect id="Rectangle_123" data-name="Rectangle 123" width="0.742" height="6.094" transform="translate(414.436 367.278)" fill="#ffa412"/>
      <rect id="Rectangle_124" data-name="Rectangle 124" width="0.742" height="6.094" transform="translate(452.589 367.278)" fill="#ffa412"/>
      <rect id="Rectangle_125" data-name="Rectangle 125" width="0.742" height="6.094" transform="translate(454.166 367.278)" fill="#ffa412"/>
      <rect id="Rectangle_126" data-name="Rectangle 126" width="0.742" height="6.094" transform="translate(455.692 367.278)" fill="#ffa412"/>
      <path id="Path_1154" data-name="Path 1154" d="M1755.632,1410.873v6.05a1.99,1.99,0,0,1-.279.021h-.463v-6.094h.463A1.664,1.664,0,0,1,1755.632,1410.873Z" transform="translate(-1298.05 -1043.572)" fill="#ffa412"/>
      <path id="Path_1155" data-name="Path 1155" d="M1759.592,1411.695v4.92a1.579,1.579,0,0,1-.742.5V1411.2A1.564,1.564,0,0,1,1759.592,1411.695Z" transform="translate(-1300.979 -1043.83)" fill="#ffa412"/>
      <path id="Path_1156" data-name="Path 1156" d="M1541.511,1388.77v3.442a1.194,1.194,0,0,1-.26.742,1.39,1.39,0,0,1-.148.156,1.588,1.588,0,0,1-.594.338,1.675,1.675,0,0,1-.289.068,1.9,1.9,0,0,1-.276.023h-65.281a1.536,1.536,0,0,1-1.562-1.13,1.112,1.112,0,0,1-.013-.13.568.568,0,0,1,0-.068v-3.442a.625.625,0,0,1,0-.068,1.105,1.105,0,0,1,.013-.13,1.534,1.534,0,0,1,1.562-1.127h65.271a.929.929,0,0,1,.122,0h.055a.214.214,0,0,1,.057,0h.042a1.676,1.676,0,0,1,.289.068l.159.06h0l.1.05.057.034.055.031a1.289,1.289,0,0,1,.19.141l.055.052.034.031.016.018h.016l.057.068A1.185,1.185,0,0,1,1541.511,1388.77Z" transform="translate(-1089.607 -1026.258)" fill="#ffb93e"/>
      <path id="Path_1157" data-name="Path 1157" d="M1509.46,1393.544h-34.967a1.4,1.4,0,0,1-1.354-.987.9.9,0,0,1-.039-.143,1.108,1.108,0,0,1-.013-.13.568.568,0,0,1,0-.068v-3.442a.627.627,0,0,1,0-.068,1.108,1.108,0,0,1,.013-.13.92.92,0,0,1,.039-.143,1.4,1.4,0,0,1,1.354-.984h30.674a.53.53,0,0,0,.042.148A10.674,10.674,0,0,0,1509.46,1393.544Z" transform="translate(-1089.607 -1026.263)" fill="#ffa412"/>
      <rect id="Rectangle_127" data-name="Rectangle 127" width="0.742" height="6.094" transform="translate(443.22 361.187)" fill="#ffa412"/>
      <rect id="Rectangle_128" data-name="Rectangle 128" width="0.742" height="6.094" transform="translate(440.71 361.187)" fill="#ffa412"/>
      <rect id="Rectangle_129" data-name="Rectangle 129" width="0.742" height="6.094" transform="translate(437.698 361.187)" fill="#ffa412"/>
      <rect id="Rectangle_130" data-name="Rectangle 130" width="0.742" height="6.094" transform="translate(433.083 361.187)" fill="#ffa412"/>
      <rect id="Rectangle_131" data-name="Rectangle 131" width="0.742" height="6.094" transform="translate(428.202 361.187)" fill="#ffa412"/>
      <rect id="Rectangle_132" data-name="Rectangle 132" width="0.742" height="6.094" transform="translate(420.72 361.187)" fill="#ffa412"/>
      <rect id="Rectangle_133" data-name="Rectangle 133" width="0.742" height="6.094" transform="translate(413.715 361.187)" fill="#ffa412"/>
      <rect id="Rectangle_134" data-name="Rectangle 134" width="0.742" height="6.094" transform="translate(407.459 361.187)" fill="#ffa412"/>
      <rect id="Rectangle_135" data-name="Rectangle 135" width="0.742" height="6.094" transform="translate(445.609 361.187)" fill="#ffa412"/>
      <rect id="Rectangle_136" data-name="Rectangle 136" width="0.742" height="6.094" transform="translate(447.19 361.187)" fill="#ffa412"/>
      <rect id="Rectangle_137" data-name="Rectangle 137" width="0.742" height="6.094" transform="translate(448.715 361.187)" fill="#ffa412"/>
      <path id="Path_1158" data-name="Path 1158" d="M1728.822,1387.471v6.05a1.935,1.935,0,0,1-.279.021h-.463v-6.092h.463A1.952,1.952,0,0,1,1728.822,1387.471Z" transform="translate(-1278.22 -1026.263)" fill="#ffa412"/>
      <path id="Path_1159" data-name="Path 1159" d="M1732.782,1388.287v4.92a1.562,1.562,0,0,1-.742.5v-5.915a1.561,1.561,0,0,1,.742.5Z" transform="translate(-1281.149 -1026.515)" fill="#ffa412"/>
      <path id="Path_1160" data-name="Path 1160" d="M1554.505,1365.945v3.442a1.176,1.176,0,0,1-.26.742,1.586,1.586,0,0,1-.739.495,1.972,1.972,0,0,1-.292.07,2.371,2.371,0,0,1-.276.018h-65.281a1.846,1.846,0,0,1-.726-.148,1.388,1.388,0,0,1-.833-.963v-.086a.408.408,0,0,1,0-.06.57.57,0,0,1,0-.068v-3.441a.627.627,0,0,1,0-.068.71.71,0,0,1,.016-.127,1.531,1.531,0,0,1,1.562-1.13h65.271a1.915,1.915,0,0,1,.276.021,1.491,1.491,0,0,1,.292.068,1.588,1.588,0,0,1,.739.5A1.164,1.164,0,0,1,1554.505,1365.945Z" transform="translate(-1099.23 -1009.376)" fill="#ffb93e"/>
      <path id="Path_1161" data-name="Path 1161" d="M1522.457,1370.691H1487.49a1.492,1.492,0,0,1-.651-.148,1.351,1.351,0,0,1-.742-.963v-.086a.408.408,0,0,1,0-.06.57.57,0,0,1,0-.068v-3.441a.627.627,0,0,1,0-.068.713.713,0,0,1,.016-.128.965.965,0,0,1,.036-.143,1.4,1.4,0,0,1,1.356-.987h30.671a10.7,10.7,0,0,0,4.082,5.943A.891.891,0,0,0,1522.457,1370.691Z" transform="translate(-1099.23 -1009.361)" fill="#ffa412"/>
      <rect id="Rectangle_138" data-name="Rectangle 138" width="0.742" height="6.094" transform="translate(446.593 355.244)" fill="#ffa412"/>
      <rect id="Rectangle_139" data-name="Rectangle 139" width="0.742" height="6.094" transform="translate(444.081 355.244)" fill="#ffa412"/>
      <rect id="Rectangle_140" data-name="Rectangle 140" width="0.742" height="6.094" transform="translate(441.069 355.244)" fill="#ffa412"/>
      <rect id="Rectangle_141" data-name="Rectangle 141" width="0.742" height="6.094" transform="translate(436.454 355.244)" fill="#ffa412"/>
      <rect id="Rectangle_142" data-name="Rectangle 142" width="0.742" height="6.094" transform="translate(431.573 355.244)" fill="#ffa412"/>
      <rect id="Rectangle_143" data-name="Rectangle 143" width="0.742" height="6.094" transform="translate(424.091 355.244)" fill="#ffa412"/>
      <rect id="Rectangle_144" data-name="Rectangle 144" width="0.742" height="6.094" transform="translate(417.086 355.244)" fill="#ffa412"/>
      <rect id="Rectangle_145" data-name="Rectangle 145" width="0.742" height="6.094" transform="translate(410.83 355.244)" fill="#ffa412"/>
      <rect id="Rectangle_146" data-name="Rectangle 146" width="0.742" height="6.094" transform="translate(448.983 355.244)" fill="#ffa412"/>
      <rect id="Rectangle_147" data-name="Rectangle 147" width="0.742" height="6.094" transform="translate(450.561 355.244)" fill="#ffa412"/>
      <rect id="Rectangle_148" data-name="Rectangle 148" width="0.742" height="6.094" transform="translate(452.086 355.244)" fill="#ffa412"/>
      <path id="Path_1162" data-name="Path 1162" d="M1741.752,1364.641v6.05a1.651,1.651,0,0,1-.279.021H1741v-6.092h.463a1.988,1.988,0,0,1,.289.021Z" transform="translate(-1287.776 -1009.376)" fill="#ffa412"/>
      <path id="Path_1163" data-name="Path 1163" d="M1745.739,1365.487v4.923a1.583,1.583,0,0,1-.739.495V1365A1.561,1.561,0,0,1,1745.739,1365.487Z" transform="translate(-1290.735 -1009.657)" fill="#ffa412"/>
      <path id="Path_1164" data-name="Path 1164" d="M1560.51,1342.532v3.439a1.173,1.173,0,0,1-.26.742,1.088,1.088,0,0,1-.073.081,1.479,1.479,0,0,1-.45.328,1.832,1.832,0,0,1-.219.089,1.726,1.726,0,0,1-.289.068l-.135.016h-65.422a1.531,1.531,0,0,1-1.562-1.13v-3.712a1.456,1.456,0,0,1,1.39-1.247h65.456a1.334,1.334,0,0,1,.143,0,1.121,1.121,0,0,1,.135.016,1.506,1.506,0,0,1,.289.068,1.563,1.563,0,0,1,.742.495A1.166,1.166,0,0,1,1560.51,1342.532Z" transform="translate(-1103.671 -992.055)" fill="#ffb93e"/>
      <path id="Path_1165" data-name="Path 1165" d="M1528.452,1347.3h-34.967a1.4,1.4,0,0,1-1.356-.984,1.309,1.309,0,0,1-.039-.146v-3.717a1.372,1.372,0,0,1,1.242-1.247h30.841A10.7,10.7,0,0,0,1528.452,1347.3Z" transform="translate(-1103.663 -992.061)" fill="#ffa412"/>
      <rect id="Rectangle_149" data-name="Rectangle 149" width="0.742" height="6.094" transform="translate(448.155 349.149)" fill="#ffa412"/>
      <rect id="Rectangle_150" data-name="Rectangle 150" width="0.742" height="6.094" transform="translate(445.646 349.149)" fill="#ffa412"/>
      <rect id="Rectangle_151" data-name="Rectangle 151" width="0.742" height="6.094" transform="translate(442.634 349.149)" fill="#ffa412"/>
      <rect id="Rectangle_152" data-name="Rectangle 152" width="0.742" height="6.094" transform="translate(438.018 349.149)" fill="#ffa412"/>
      <rect id="Rectangle_153" data-name="Rectangle 153" width="0.742" height="6.094" transform="translate(433.137 349.149)" fill="#ffa412"/>
      <rect id="Rectangle_154" data-name="Rectangle 154" width="0.742" height="6.094" transform="translate(425.656 349.149)" fill="#ffa412"/>
      <rect id="Rectangle_155" data-name="Rectangle 155" width="0.742" height="6.094" transform="translate(418.65 349.149)" fill="#ffa412"/>
      <rect id="Rectangle_156" data-name="Rectangle 156" width="0.742" height="6.094" transform="translate(412.395 349.149)" fill="#ffa412"/>
      <rect id="Rectangle_157" data-name="Rectangle 157" width="0.742" height="6.094" transform="translate(450.545 349.149)" fill="#ffa412"/>
      <rect id="Rectangle_158" data-name="Rectangle 158" width="0.742" height="6.094" transform="translate(452.125 349.149)" fill="#ffa412"/>
      <rect id="Rectangle_159" data-name="Rectangle 159" width="0.742" height="6.094" transform="translate(453.651 349.149)" fill="#ffa412"/>
      <path id="Path_1166" data-name="Path 1166" d="M1747.752,1341.231v6.053a1.951,1.951,0,0,1-.279.021H1747v-6.094h.463A1.957,1.957,0,0,1,1747.752,1341.231Z" transform="translate(-1292.214 -992.061)" fill="#ffa412"/>
      <path id="Path_1167" data-name="Path 1167" d="M1751.742,1342.047v4.923a1.561,1.561,0,0,1-.742.495v-5.915A1.583,1.583,0,0,1,1751.742,1342.047Z" transform="translate(-1295.173 -992.312)" fill="#ffa412"/>
      <path id="Path_1168" data-name="Path 1168" d="M1542.031,1319.117v3.439a1.156,1.156,0,0,1-.26.739,1.562,1.562,0,0,1-.742.5,1.788,1.788,0,0,1-.289.065.517.517,0,0,1-.091,0h-65.464a1.492,1.492,0,0,1-1.578-1.257.614.614,0,0,1,0-.07v-3.439a.643.643,0,0,1,0-.07.409.409,0,0,1,0-.055,1.429,1.429,0,0,1,1.185-1.161.215.215,0,0,1,.047,0,1.818,1.818,0,0,1,.341-.034h65.469a.331.331,0,0,1,.073,0,1.8,1.8,0,0,1,.289.065,1.562,1.562,0,0,1,.742.5A1.155,1.155,0,0,1,1542.031,1319.117Z" transform="translate(-1089.991 -974.724)" fill="#ffb93e"/>
      <path id="Path_1169" data-name="Path 1169" d="M1509.967,1323.964H1475a1.38,1.38,0,0,1-1.408-1.257.614.614,0,0,1,0-.07V1319.2a.614.614,0,0,1,0-.07.37.37,0,0,1,0-.055,1.361,1.361,0,0,1,1.093-1.169.213.213,0,0,1,.06,0,1.3,1.3,0,0,1,.26-.024h30.671l.013.044a10.674,10.674,0,0,0,4.267,6.04Z" transform="translate(-1089.976 -974.804)" fill="#ffa412"/>
      <rect id="Rectangle_160" data-name="Rectangle 160" width="0.742" height="6.094" transform="translate(443.358 343.066)" fill="#ffa412"/>
      <rect id="Rectangle_161" data-name="Rectangle 161" width="0.742" height="6.094" transform="translate(440.845 343.066)" fill="#ffa412"/>
      <rect id="Rectangle_162" data-name="Rectangle 162" width="0.742" height="6.094" transform="translate(437.836 343.066)" fill="#ffa412"/>
      <rect id="Rectangle_163" data-name="Rectangle 163" width="0.742" height="6.094" transform="translate(433.221 343.066)" fill="#ffa412"/>
      <rect id="Rectangle_164" data-name="Rectangle 164" width="0.742" height="6.094" transform="translate(428.34 343.066)" fill="#ffa412"/>
      <rect id="Rectangle_165" data-name="Rectangle 165" width="0.742" height="6.094" transform="translate(420.855 343.066)" fill="#ffa412"/>
      <rect id="Rectangle_166" data-name="Rectangle 166" width="0.742" height="6.094" transform="translate(413.85 343.066)" fill="#ffa412"/>
      <rect id="Rectangle_167" data-name="Rectangle 167" width="0.742" height="6.094" transform="translate(407.594 343.066)" fill="#ffa412"/>
      <rect id="Rectangle_168" data-name="Rectangle 168" width="0.742" height="6.094" transform="translate(445.747 343.066)" fill="#ffa412"/>
      <rect id="Rectangle_169" data-name="Rectangle 169" width="0.742" height="6.094" transform="translate(447.328 343.066)" fill="#ffa412"/>
      <rect id="Rectangle_170" data-name="Rectangle 170" width="0.742" height="6.094" transform="translate(448.85 343.066)" fill="#ffa412"/>
      <path id="Path_1170" data-name="Path 1170" d="M1729.352,1317.861v6.052a1.953,1.953,0,0,1-.279.021h-.463v-6.094h.463a1.933,1.933,0,0,1,.278.021Z" transform="translate(-1278.612 -974.774)" fill="#ffa412"/>
      <path id="Path_1171" data-name="Path 1171" d="M1733.312,1318.685v4.923a1.6,1.6,0,0,1-.742.5v-5.915A1.561,1.561,0,0,1,1733.312,1318.685Z" transform="translate(-1281.541 -975.033)" fill="#ffa412"/>
      <path id="Path_1172" data-name="Path 1172" d="M1541.538,1295.922v3.439a1.187,1.187,0,0,1-.26.742,1.643,1.643,0,0,1-.148.159,1.623,1.623,0,0,1-.594.339,2.149,2.149,0,0,1-.224.057h-.06a1.9,1.9,0,0,1-.276.021h-65.287a1.762,1.762,0,0,1-.2,0h-.078a1.473,1.473,0,0,1-1.283-1.122.855.855,0,0,1,0-.115.614.614,0,0,1,0-.07v-3.449a.614.614,0,0,1,0-.07,1.118,1.118,0,0,1,.013-.128,1.536,1.536,0,0,1,1.562-1.13H1540.2a.1.1,0,0,1,.042,0,1.46,1.46,0,0,1,.289.068l.159.06h0a1.591,1.591,0,0,1,.521.367l.057.068a1.181,1.181,0,0,1,.266.765Z" transform="translate(-1089.633 -957.578)" fill="#ffb93e"/>
      <path id="Path_1173" data-name="Path 1173" d="M1509.487,1300.691h-35.138a1.38,1.38,0,0,1-1.224-1.132.9.9,0,0,1,0-.115.675.675,0,0,1,0-.07v-3.447a.675.675,0,0,1,0-.07,1.118,1.118,0,0,1,.013-.128.983.983,0,0,1,.039-.146,1.4,1.4,0,0,1,1.354-.984H1505.2a.523.523,0,0,0,.042.151,10.652,10.652,0,0,0,4.189,5.9Z" transform="translate(-1089.634 -957.584)" fill="#ffa412"/>
      <rect id="Rectangle_171" data-name="Rectangle 171" width="0.742" height="6.094" transform="translate(443.22 337.016)" fill="#ffa412"/>
      <rect id="Rectangle_172" data-name="Rectangle 172" width="0.742" height="6.094" transform="translate(440.71 337.016)" fill="#ffa412"/>
      <rect id="Rectangle_173" data-name="Rectangle 173" width="0.742" height="6.094" transform="translate(437.698 337.016)" fill="#ffa412"/>
      <rect id="Rectangle_174" data-name="Rectangle 174" width="0.742" height="6.094" transform="translate(433.083 337.016)" fill="#ffa412"/>
      <rect id="Rectangle_175" data-name="Rectangle 175" width="0.742" height="6.094" transform="translate(428.202 337.016)" fill="#ffa412"/>
      <rect id="Rectangle_176" data-name="Rectangle 176" width="0.742" height="6.094" transform="translate(420.72 337.016)" fill="#ffa412"/>
      <rect id="Rectangle_177" data-name="Rectangle 177" width="0.742" height="6.094" transform="translate(413.715 337.016)" fill="#ffa412"/>
      <rect id="Rectangle_178" data-name="Rectangle 178" width="0.742" height="6.094" transform="translate(407.459 337.016)" fill="#ffa412"/>
      <rect id="Rectangle_179" data-name="Rectangle 179" width="0.742" height="6.094" transform="translate(445.609 337.016)" fill="#ffa412"/>
      <rect id="Rectangle_180" data-name="Rectangle 180" width="0.742" height="6.094" transform="translate(447.19 337.016)" fill="#ffa412"/>
      <rect id="Rectangle_181" data-name="Rectangle 181" width="0.742" height="6.094" transform="translate(448.715 337.016)" fill="#ffa412"/>
      <path id="Path_1174" data-name="Path 1174" d="M1728.822,1294.623v6.05a1.934,1.934,0,0,1-.279.021h-.463V1294.6h.463A1.64,1.64,0,0,1,1728.822,1294.623Z" transform="translate(-1278.22 -957.584)" fill="#ffa412"/>
      <path id="Path_1175" data-name="Path 1175" d="M1732.782,1295.482v4.923a1.562,1.562,0,0,1-.742.5V1295A1.562,1.562,0,0,1,1732.782,1295.482Z" transform="translate(-1281.149 -957.88)" fill="#ffa412"/>
      <path id="Path_1176" data-name="Path 1176" d="M1554.505,1273.1v3.439a1.165,1.165,0,0,1-.26.742,1.563,1.563,0,0,1-.739.5,2,2,0,0,1-.292.068,1.9,1.9,0,0,1-.276.021h-65.281a1.8,1.8,0,0,1-.726-.151,1.385,1.385,0,0,1-.833-.961v-.086a.445.445,0,0,1,0-.06.614.614,0,0,1,0-.07V1273.1a.614.614,0,0,1,0-.07.712.712,0,0,1,.016-.128,1.533,1.533,0,0,1,1.562-1.13h65.271a1.6,1.6,0,0,1,.276.023,1.486,1.486,0,0,1,.292.068,1.533,1.533,0,0,1,.739.5A1.158,1.158,0,0,1,1554.505,1273.1Z" transform="translate(-1099.23 -940.698)" fill="#ffb93e"/>
      <path id="Path_1177" data-name="Path 1177" d="M1522.457,1277.864H1487.49a1.46,1.46,0,0,1-.651-.151,1.346,1.346,0,0,1-.742-.961v-.086a.446.446,0,0,1,0-.06.612.612,0,0,1,0-.07V1273.1a.614.614,0,0,1,0-.07.71.71,0,0,1,.016-.128.8.8,0,0,1,.036-.141,1.4,1.4,0,0,1,1.356-.989h30.671a10.689,10.689,0,0,0,4.079,5.943A1.4,1.4,0,0,0,1522.457,1277.864Z" transform="translate(-1099.23 -940.697)" fill="#ffa412"/>
      <rect id="Rectangle_182" data-name="Rectangle 182" width="0.742" height="6.094" transform="translate(446.593 331.075)" fill="#ffa412"/>
      <rect id="Rectangle_183" data-name="Rectangle 183" width="0.742" height="6.094" transform="translate(444.081 331.075)" fill="#ffa412"/>
      <rect id="Rectangle_184" data-name="Rectangle 184" width="0.742" height="6.094" transform="translate(441.069 331.075)" fill="#ffa412"/>
      <rect id="Rectangle_185" data-name="Rectangle 185" width="0.742" height="6.094" transform="translate(436.454 331.075)" fill="#ffa412"/>
      <rect id="Rectangle_186" data-name="Rectangle 186" width="0.742" height="6.094" transform="translate(431.573 331.075)" fill="#ffa412"/>
      <rect id="Rectangle_187" data-name="Rectangle 187" width="0.742" height="6.094" transform="translate(424.091 331.075)" fill="#ffa412"/>
      <rect id="Rectangle_188" data-name="Rectangle 188" width="0.742" height="6.094" transform="translate(417.086 331.075)" fill="#ffa412"/>
      <rect id="Rectangle_189" data-name="Rectangle 189" width="0.742" height="6.094" transform="translate(410.83 331.075)" fill="#ffa412"/>
      <rect id="Rectangle_190" data-name="Rectangle 190" width="0.742" height="6.094" transform="translate(448.983 331.075)" fill="#ffa412"/>
      <rect id="Rectangle_191" data-name="Rectangle 191" width="0.742" height="6.094" transform="translate(450.561 331.075)" fill="#ffa412"/>
      <rect id="Rectangle_192" data-name="Rectangle 192" width="0.742" height="6.094" transform="translate(452.086 331.075)" fill="#ffa412"/>
      <path id="Path_1178" data-name="Path 1178" d="M1741.752,1271.793v6.05a1.971,1.971,0,0,1-.279.021H1741v-6.094h.463A1.649,1.649,0,0,1,1741.752,1271.793Z" transform="translate(-1287.776 -940.697)" fill="#ffa412"/>
      <path id="Path_1179" data-name="Path 1179" d="M1745.739,1272.595v4.923a1.56,1.56,0,0,1-.739.5V1272.1A1.561,1.561,0,0,1,1745.739,1272.595Z" transform="translate(-1290.735 -940.942)" fill="#ffa412"/>
      <path id="Path_1180" data-name="Path 1180" d="M1574.985,1249.709v3.442a1.182,1.182,0,0,1-.26.739h0l-.07.083a1.56,1.56,0,0,1-.349.273,1.728,1.728,0,0,1-.208.1h0a1.06,1.06,0,0,1-.109.039,1.53,1.53,0,0,1-.292.068,1.607,1.607,0,0,1-.276.021h-65.284a1.534,1.534,0,0,1-1.562-1.127,1.1,1.1,0,0,1,0-.13.6.6,0,0,1,0-.068v-3.441a.57.57,0,0,1,0-.068,1.5,1.5,0,0,1,1.575-1.247h65.271a1.914,1.914,0,0,1,.276.021,2.092,2.092,0,0,1,.292.068,1.645,1.645,0,0,1,.669.414l.07.083h0a1.182,1.182,0,0,1,.258.731Z" transform="translate(-1114.376 -923.403)" fill="#ffb93e"/>
      <path id="Path_1181" data-name="Path 1181" d="M1542.937,1254.483h-34.969a1.4,1.4,0,0,1-1.356-.987.751.751,0,0,0-.036-.141,1.1,1.1,0,0,1,0-.13.57.57,0,0,1,0-.068v-3.442a.57.57,0,0,1,0-.068,1.367,1.367,0,0,1,1.239-1.247,1.186,1.186,0,0,1,.167,0h30.674A10.673,10.673,0,0,0,1542.937,1254.483Z" transform="translate(-1114.376 -923.41)" fill="#ffa412"/>
      <rect id="Rectangle_193" data-name="Rectangle 193" width="0.742" height="6.094" transform="translate(451.927 324.981)" fill="#ffa412"/>
      <rect id="Rectangle_194" data-name="Rectangle 194" width="0.742" height="6.094" transform="translate(449.415 324.981)" fill="#ffa412"/>
      <rect id="Rectangle_195" data-name="Rectangle 195" width="0.742" height="6.094" transform="translate(446.403 324.981)" fill="#ffa412"/>
      <rect id="Rectangle_196" data-name="Rectangle 196" width="0.742" height="6.094" transform="translate(441.788 324.981)" fill="#ffa412"/>
      <rect id="Rectangle_197" data-name="Rectangle 197" width="0.742" height="6.094" transform="translate(436.907 324.981)" fill="#ffa412"/>
      <rect id="Rectangle_198" data-name="Rectangle 198" width="0.742" height="6.094" transform="translate(429.425 324.981)" fill="#ffa412"/>
      <rect id="Rectangle_199" data-name="Rectangle 199" width="0.742" height="6.094" transform="translate(422.42 324.981)" fill="#ffa412"/>
      <rect id="Rectangle_200" data-name="Rectangle 200" width="0.742" height="6.094" transform="translate(416.164 324.981)" fill="#ffa412"/>
      <rect id="Rectangle_201" data-name="Rectangle 201" width="0.742" height="6.094" transform="translate(454.317 324.981)" fill="#ffa412"/>
      <rect id="Rectangle_202" data-name="Rectangle 202" width="0.742" height="6.094" transform="translate(455.895 324.981)" fill="#ffa412"/>
      <rect id="Rectangle_203" data-name="Rectangle 203" width="0.742" height="6.094" transform="translate(457.42 324.981)" fill="#ffa412"/>
      <path id="Path_1182" data-name="Path 1182" d="M1762.272,1248.391v6.05a1.987,1.987,0,0,1-.279.021h-.463v-6.092h.463a1.986,1.986,0,0,1,.278.021Z" transform="translate(-1302.962 -923.389)" fill="#ffa412"/>
      <path id="Path_1183" data-name="Path 1183" d="M1766.229,1249.207v4.92a1.563,1.563,0,0,1-.739.5v-5.915A1.562,1.562,0,0,1,1766.229,1249.207Z" transform="translate(-1305.891 -923.641)" fill="#ffa412"/>
      <path id="Path_1184" data-name="Path 1184" d="M1542.031,1226.328v3.439a1.156,1.156,0,0,1-.26.739,1.666,1.666,0,0,1-1.041.565h-65.544a1.661,1.661,0,0,1-1.343-.633,1.2,1.2,0,0,1-.234-.627.627.627,0,0,1,0-.068v-3.415a.614.614,0,0,1,0-.07,1.4,1.4,0,0,1,1.119-1.2,1.763,1.763,0,0,1,.458-.057h65.383a1.474,1.474,0,0,1,.154.016,1.8,1.8,0,0,1,.289.068,1,1,0,0,1,.133.052h0a1.562,1.562,0,0,1,.458.286h0l.018.018a1.176,1.176,0,0,1,.393.875Z" transform="translate(-1089.991 -906.103)" fill="#ffb93e"/>
      <path id="Path_1185" data-name="Path 1185" d="M1509.967,1231.094H1475a1.437,1.437,0,0,1-1.177-.6,1.258,1.258,0,0,1-.232-.659.627.627,0,0,1,0-.068v-3.439a.614.614,0,0,1,0-.07,1.356,1.356,0,0,1,1.125-1.229A1.447,1.447,0,0,1,1475,1225h30.671c.013.047.029.094.042.141a10.673,10.673,0,0,0,4.238,5.943Z" transform="translate(-1089.976 -906.103)" fill="#ffa412"/>
      <rect id="Rectangle_204" data-name="Rectangle 204" width="0.742" height="6.094" transform="translate(443.358 318.897)" fill="#ffa412"/>
      <rect id="Rectangle_205" data-name="Rectangle 205" width="0.742" height="6.094" transform="translate(440.845 318.897)" fill="#ffa412"/>
      <rect id="Rectangle_206" data-name="Rectangle 206" width="0.742" height="6.094" transform="translate(437.836 318.897)" fill="#ffa412"/>
      <rect id="Rectangle_207" data-name="Rectangle 207" width="0.742" height="6.094" transform="translate(433.221 318.897)" fill="#ffa412"/>
      <rect id="Rectangle_208" data-name="Rectangle 208" width="0.742" height="6.094" transform="translate(428.34 318.897)" fill="#ffa412"/>
      <rect id="Rectangle_209" data-name="Rectangle 209" width="0.742" height="6.094" transform="translate(420.855 318.897)" fill="#ffa412"/>
      <rect id="Rectangle_210" data-name="Rectangle 210" width="0.742" height="6.094" transform="translate(413.85 318.897)" fill="#ffa412"/>
      <rect id="Rectangle_211" data-name="Rectangle 211" width="0.742" height="6.094" transform="translate(407.594 318.897)" fill="#ffa412"/>
      <rect id="Rectangle_212" data-name="Rectangle 212" width="0.742" height="6.094" transform="translate(445.747 318.897)" fill="#ffa412"/>
      <rect id="Rectangle_213" data-name="Rectangle 213" width="0.742" height="6.094" transform="translate(447.328 318.897)" fill="#ffa412"/>
      <rect id="Rectangle_214" data-name="Rectangle 214" width="0.742" height="6.094" transform="translate(448.85 318.897)" fill="#ffa412"/>
      <path id="Path_1186" data-name="Path 1186" d="M1729.352,1225.021v6.05a1.651,1.651,0,0,1-.279.021h-.463V1225h.463a1.95,1.95,0,0,1,.278.021Z" transform="translate(-1278.612 -906.103)" fill="#ffa412"/>
      <path id="Path_1187" data-name="Path 1187" d="M1733.312,1225.837v4.92a1.578,1.578,0,0,1-.742.5v-5.915a1.579,1.579,0,0,1,.742.5Z" transform="translate(-1281.541 -906.354)" fill="#ffa412"/>
      <path id="Path_1188" data-name="Path 1188" d="M1560.481,1203.508v3.439a1.167,1.167,0,0,1-.26.742,1.583,1.583,0,0,1-.742.5,1.851,1.851,0,0,1-.568.089h-65.279a1.841,1.841,0,0,1-.705-.141,1.361,1.361,0,0,1-.867-1.065v-3.621a1.507,1.507,0,0,1,1.578-1.247h65.268a1.952,1.952,0,0,1,.279.021,1.671,1.671,0,0,1,.289.07,1.56,1.56,0,0,1,.742.495A1.17,1.17,0,0,1,1560.481,1203.508Z" transform="translate(-1103.641 -889.237)" fill="#ffb93e"/>
      <path id="Path_1189" data-name="Path 1189" d="M1528.408,1208.275h-34.967a1.491,1.491,0,0,1-.63-.141,1.338,1.338,0,0,1-.781-1.065v-3.621a1.369,1.369,0,0,1,1.242-1.247,1.186,1.186,0,0,1,.167,0h30.674a10.674,10.674,0,0,0,4.095,5.933Z" transform="translate(-1103.619 -889.237)" fill="#ffa412"/>
      <rect id="Rectangle_215" data-name="Rectangle 215" width="0.742" height="6.094" transform="translate(448.155 312.944)" fill="#ffa412"/>
      <rect id="Rectangle_216" data-name="Rectangle 216" width="0.742" height="6.094" transform="translate(445.646 312.944)" fill="#ffa412"/>
      <rect id="Rectangle_217" data-name="Rectangle 217" width="0.742" height="6.094" transform="translate(442.634 312.944)" fill="#ffa412"/>
      <rect id="Rectangle_218" data-name="Rectangle 218" width="0.742" height="6.094" transform="translate(438.018 312.944)" fill="#ffa412"/>
      <rect id="Rectangle_219" data-name="Rectangle 219" width="0.742" height="6.094" transform="translate(433.137 312.944)" fill="#ffa412"/>
      <rect id="Rectangle_220" data-name="Rectangle 220" width="0.742" height="6.094" transform="translate(425.656 312.944)" fill="#ffa412"/>
      <rect id="Rectangle_221" data-name="Rectangle 221" width="0.742" height="6.094" transform="translate(418.65 312.944)" fill="#ffa412"/>
      <rect id="Rectangle_222" data-name="Rectangle 222" width="0.742" height="6.094" transform="translate(412.395 312.944)" fill="#ffa412"/>
      <rect id="Rectangle_223" data-name="Rectangle 223" width="0.742" height="6.094" transform="translate(450.545 312.944)" fill="#ffa412"/>
      <rect id="Rectangle_224" data-name="Rectangle 224" width="0.742" height="6.094" transform="translate(452.125 312.944)" fill="#ffa412"/>
      <rect id="Rectangle_225" data-name="Rectangle 225" width="0.742" height="6.094" transform="translate(453.651 312.944)" fill="#ffa412"/>
      <path id="Path_1190" data-name="Path 1190" d="M1747.752,1202.151v6.053a1.951,1.951,0,0,1-.279.021H1747v-6.094h.463A1.957,1.957,0,0,1,1747.752,1202.151Z" transform="translate(-1292.214 -889.186)" fill="#ffa412"/>
      <path id="Path_1191" data-name="Path 1191" d="M1751.742,1202.967v4.923a1.561,1.561,0,0,1-.742.495v-5.915A1.583,1.583,0,0,1,1751.742,1202.967Z" transform="translate(-1295.173 -889.438)" fill="#ffa412"/>
      <path id="Path_1192" data-name="Path 1192" d="M1568.353,1180.028v3.439a1.187,1.187,0,0,1-.26.742,1.562,1.562,0,0,1-.742.495,1.791,1.791,0,0,1-.289.07h-65.544a1.491,1.491,0,0,1-1.578-1.257v-3.579a1.491,1.491,0,0,1,1.578-1.257h65.268a1.986,1.986,0,0,1,.278.021,1.807,1.807,0,0,1,.289.07,1.561,1.561,0,0,1,.742.495A1.186,1.186,0,0,1,1568.353,1180.028Z" transform="translate(-1109.47 -871.841)" fill="#ffb93e"/>
      <path id="Path_1193" data-name="Path 1193" d="M1536.265,1184.853H1501.3a1.382,1.382,0,0,1-1.408-1.257v-3.579a1.382,1.382,0,0,1,1.408-1.257h30.671a10.674,10.674,0,0,0,4.282,6.084Z" transform="translate(-1109.433 -871.899)" fill="#ffa412"/>
      <rect id="Rectangle_226" data-name="Rectangle 226" width="0.742" height="6.094" transform="translate(450.199 306.86)" fill="#ffa412"/>
      <rect id="Rectangle_227" data-name="Rectangle 227" width="0.742" height="6.094" transform="translate(447.687 306.86)" fill="#ffa412"/>
      <rect id="Rectangle_228" data-name="Rectangle 228" width="0.742" height="6.094" transform="translate(444.677 306.86)" fill="#ffa412"/>
      <rect id="Rectangle_229" data-name="Rectangle 229" width="0.742" height="6.094" transform="translate(440.062 306.86)" fill="#ffa412"/>
      <rect id="Rectangle_230" data-name="Rectangle 230" width="0.742" height="6.094" transform="translate(435.181 306.86)" fill="#ffa412"/>
      <rect id="Rectangle_231" data-name="Rectangle 231" width="0.742" height="6.094" transform="translate(427.699 306.86)" fill="#ffa412"/>
      <rect id="Rectangle_232" data-name="Rectangle 232" width="0.742" height="6.094" transform="translate(420.691 306.86)" fill="#ffa412"/>
      <rect id="Rectangle_233" data-name="Rectangle 233" width="0.742" height="6.094" transform="translate(414.436 306.86)" fill="#ffa412"/>
      <rect id="Rectangle_234" data-name="Rectangle 234" width="0.742" height="6.094" transform="translate(452.589 306.86)" fill="#ffa412"/>
      <rect id="Rectangle_235" data-name="Rectangle 235" width="0.742" height="6.094" transform="translate(454.169 306.86)" fill="#ffa412"/>
      <rect id="Rectangle_236" data-name="Rectangle 236" width="0.742" height="6.094" transform="translate(455.692 306.86)" fill="#ffa412"/>
      <path id="Path_1194" data-name="Path 1194" d="M1755.632,1178.781v6.052a1.952,1.952,0,0,1-.279.021h-.463v-6.094h.463A1.933,1.933,0,0,1,1755.632,1178.781Z" transform="translate(-1298.05 -871.9)" fill="#ffa412"/>
      <path id="Path_1195" data-name="Path 1195" d="M1759.592,1179.595v4.923a1.563,1.563,0,0,1-.742.495V1179.1A1.562,1.562,0,0,1,1759.592,1179.595Z" transform="translate(-1300.979 -872.152)" fill="#ffa412"/>
      <path id="Path_1196" data-name="Path 1196" d="M1637.5,1026.808s-3.428,4.826-6.571,4.891-7.924-2.236-7.924-2.236-2.884-6.43-.929-8.947a4.207,4.207,0,0,1,4.017.659,6.2,6.2,0,0,1,1.062,1.018,3.384,3.384,0,0,0,1.65,1.119c2.241.682,4.9-.922,5.9.627a10.567,10.567,0,0,0,1.734,2.051A7.813,7.813,0,0,0,1637.5,1026.808Z" transform="translate(-1199.31 -754.67)" fill="#ffeddc"/>
      <path id="Path_1197" data-name="Path 1197" d="M1511.58,1094.092s12.118-29.362,33.928-29.922c0,0,20.133,2.239,21.25,29.922Z" transform="translate(-1118.079 -787.141)" fill="#ffeddc"/>
      <path id="Path_1198" data-name="Path 1198" d="M1618.871,1056.82s8.742,1.945,11.439.8c0,0,.409-3.645-3.275-3.145a7.706,7.706,0,0,1-5.126-1.351C1620.532,1052.431,1618.5,1055.289,1618.871,1056.82Z" transform="translate(-1197.407 -778.892)" fill="#db6a1d"/>
      <path id="Path_1199" data-name="Path 1199" d="M1641.715,1029.652c-.56.419-2.275-5.912-2.275-5.912a6.193,6.193,0,0,1,1.062,1.018,3.384,3.384,0,0,0,1.651,1.119C1642.158,1026.062,1642.259,1029.243,1641.715,1029.652Z" transform="translate(-1212.655 -757.236)" fill="#e5c1a1"/>
      <path id="Path_1200" data-name="Path 1200" d="M1665.62,1036.411c-.122.073-4.165,2.494-4.714,2.494s2.981-4.545,2.981-4.545A10.562,10.562,0,0,0,1665.62,1036.411Z" transform="translate(-1228.489 -765.091)" fill="#e5c1a1"/>
      <path id="Path_1201" data-name="Path 1201" d="M1557.038,1110.514c-.224-.193,8.575-12.956,11-13.05s7.87,2.8,11.811,3.171,7.763-.747,8.51,1.583,2.8,10.593,1.536,11.915S1561.877,1114.648,1557.038,1110.514Z" transform="translate(-1151.701 -811.766)" fill="#f9ddbf"/>
      <path id="Path_1202" data-name="Path 1202" d="M1503.21,1227.355v.044a29.2,29.2,0,0,1-.979,6.04h0c-.078.286-.159.57-.245.854a29.806,29.806,0,0,1-2.153,5.23,30.354,30.354,0,0,1-4.1,5.943c-.042.049-.089.1-.133.148a31.438,31.438,0,0,1-7.169,5.946q-.872.521-1.783,1.007-.617.323-1.242.62c-.4.229-.817.427-1.213.669a17.014,17.014,0,0,1-4.147,1.708v-2.853a1.364,1.364,0,0,1,.039-.146,1.4,1.4,0,0,1,1.356-.981h-6.979a1.4,1.4,0,0,1-1.354-.987.89.89,0,0,1-.039-.143,1.129,1.129,0,0,1-.013-.13.625.625,0,0,1,0-.068v-3.442a.6.6,0,0,1,0-.068,1.082,1.082,0,0,1,.013-.13.906.906,0,0,1,.039-.143,1.4,1.4,0,0,1,1.354-.984h2.744a1.351,1.351,0,0,1-.742-.963v-.086a.425.425,0,0,1,0-.06.545.545,0,0,1,0-.068v-3.442a.625.625,0,0,1,0-.068.724.724,0,0,1,.016-.128.981.981,0,0,1,.036-.143,1.4,1.4,0,0,1,1.356-.987h1.562a1.426,1.426,0,0,1-1.4-1.13v-3.73a1.372,1.372,0,0,1,1.242-1.247H1474.6a1.38,1.38,0,0,1-1.408-1.257.616.616,0,0,1,0-.07v-3.439a.614.614,0,0,1,0-.07.37.37,0,0,1,0-.055,1.361,1.361,0,0,1,1.093-1.169,1.38,1.38,0,0,1-1.224-1.132.853.853,0,0,1,0-.115.614.614,0,0,1,0-.07v-3.429a.612.612,0,0,1,0-.07,1.088,1.088,0,0,1,.013-.128,1,1,0,0,1,.039-.146,1.4,1.4,0,0,1,1.354-.984h2.736a1.346,1.346,0,0,1-.742-.961v-.086a.468.468,0,0,1,0-.06.643.643,0,0,1,0-.07v-3.439a.675.675,0,0,1,0-.07.722.722,0,0,1,.016-.127.787.787,0,0,1,.036-.141,1.4,1.4,0,0,1,1.356-.989h5.331a1.4,1.4,0,0,1-1.356-.987.748.748,0,0,0-.036-.141,1.1,1.1,0,0,1,0-.13.572.572,0,0,1,0-.068V1210.6a.568.568,0,0,1,0-.068,1.367,1.367,0,0,1,1.239-1.247H1474.6a1.437,1.437,0,0,1-1.177-.6v-.026l.885-5.4v-.029l1.26-7.711a33.278,33.278,0,0,1,4.324.872l.247.068h.018q1.237.344,2.445.781h.021a32.279,32.279,0,0,1,10.147,5.956c.052.044.107.091.156.141a30.626,30.626,0,0,1,4.251,4.576c.26.336.5.674.739,1.021.078.115.159.229.234.346h0c.385.568.75,1.151,1.1,1.749a29.882,29.882,0,0,1,2.064,4.332,29.043,29.043,0,0,1,1.583,5.943.959.959,0,0,0,.023.151A29.146,29.146,0,0,1,1503.21,1227.355Z" transform="translate(-1089.584 -884.29)" fill="#e2810e" opacity="0.5"/>
      <path id="Path_1203" data-name="Path 1203" d="M1318.55,1230.031a32.1,32.1,0,1,1,43.615,12.615A32.1,32.1,0,0,1,1318.55,1230.031Z" transform="translate(-972.345 -874.61)" fill="#e2810e"/>
      <path id="Path_1204" data-name="Path 1204" d="M1353.981,1247.087c-.4.24-.8.474-1.205.7l-.417.224c-.318.169-.633.331-.953.49a32.108,32.108,0,0,1-32.9-54.876,32.736,32.736,0,0,1,3.275-2.083c.414-.226.828-.445,1.244-.651s.815-.393,1.224-.575a32.1,32.1,0,0,1,3.824-1.419,31.614,31.614,0,0,1,5.813-1.172,32.111,32.111,0,0,1,20.1,59.354Z" transform="translate(-965.409 -878.398)" fill="#ffb93e"/>
      <path id="Path_1205" data-name="Path 1205" d="M1348.007,1260.25a28.929,28.929,0,0,1-8.034-1.146,28.6,28.6,0,1,1,8.034,1.146Zm-.089-56.751a16.639,16.639,0,1,0,0-.013Z" transform="translate(-975.916 -889.866)" fill="#ffa412"/>
      <path id="Path_1206" data-name="Path 1206" d="M1404.976,1255.12c-.065-.156-.13-.31-.2-.461a8.406,8.406,0,0,0-1.947-2.78,8.7,8.7,0,0,0-3.064-1.8,14.625,14.625,0,0,0-3.9-.731q-2.153-.133-4.686-.062a22.569,22.569,0,0,1-2.671-.052,6.737,6.737,0,0,1-1.88-.411,3.3,3.3,0,0,1-1.255-.851,4.455,4.455,0,0,1-.8-1.3,4.887,4.887,0,0,1-.362-1.544,3.341,3.341,0,0,1,.226-1.453,3.588,3.588,0,0,1,.9-1.268,5.3,5.3,0,0,1,1.637-1,4.141,4.141,0,0,1,3.507.034,5.929,5.929,0,0,1,2.653,3.319l6.539-2.655a12.154,12.154,0,0,0-2.14-3.551,9.176,9.176,0,0,0-6.412-3.163,12.051,12.051,0,0,0-3.947.4l-1.854-4.561-3.619,1.468,1.822,4.5a13.608,13.608,0,0,0-3.324,2.366,10.1,10.1,0,0,0-2.083,2.921,8.1,8.1,0,0,0-.781,3.3,9.674,9.674,0,0,0,2.845,6.768,8.528,8.528,0,0,0,3.061,1.794,14.5,14.5,0,0,0,3.9.705,46.152,46.152,0,0,0,4.686,0,17.38,17.38,0,0,1,2.551.018,6.623,6.623,0,0,1,1.869.414,3.532,3.532,0,0,1,1.3.89,4.747,4.747,0,0,1,.88,1.453,4.047,4.047,0,0,1,.312,1.562,3.291,3.291,0,0,1-.349,1.476,4.185,4.185,0,0,1-1.041,1.3,6.31,6.31,0,0,1-1.755,1.041,7.572,7.572,0,0,1-1.921.5,4.4,4.4,0,0,1-1.937-.193,4.526,4.526,0,0,1-1.768-1.143,6.912,6.912,0,0,1-1.429-2.322L1382,1262.7a11.217,11.217,0,0,0,2.572,4,9.223,9.223,0,0,0,3.384,2.114,10.337,10.337,0,0,0,3.85.555,16.252,16.252,0,0,0,3.965-.653l1.689,4.165,3.6-1.463-1.7-4.181a14.64,14.64,0,0,0,3.358-2.343,9.892,9.892,0,0,0,2.025-2.648c.039-.075.078-.154.115-.232a8,8,0,0,0,.781-3.283A8.868,8.868,0,0,0,1404.976,1255.12Z" transform="translate(-1018.778 -910.711)" fill="#ffa412"/>
      <g id="Group_57" data-name="Group 57" transform="translate(559.717 287.781)" opacity="0.7">
        <path id="Path_1207" data-name="Path 1207" d="M2212.542,1255.682s6.17-7.2.38-11.769c0,0-4.228-2.559-7.677-2.343,0,0,4.886,8.192,3.306,9.007s-4.785-9.52-4.785-9.52-9.632-.934-12.719.555c0,0,8.226,6.732,6.508,7.133s-10.619-6.206-10.619-6.206-8.955,1.523-8.479,6.987,3.564,7.151,4.92,7.005,9.291-3.173,9.463-2.062-4.6,4.743-7.948,4.912c0,0,6.316,6.964,10.512,4.946s4.553-5.206,7.169-6.391,4.85-1.192,3.769.029-5.815,2.4-7.31,5.048-2.837,4.426,1.5,3.777,11.4-3.829,11.714-7.469Z" transform="translate(-2171.057 -1205.547)" fill="#77a4e5"/>
        <path id="Path_1208" data-name="Path 1208" d="M2195.37,1274.82s24.325-.937,29.7,6.019a17.6,17.6,0,0,0,4.844,6.8l.57,1.562s-4.217-4.444-5.727-4.714C2224.755,1284.468,2227.114,1275.859,2195.37,1274.82Z" transform="translate(-2183.58 -1230.703)" fill="#77a4e5"/>
        <path id="Path_1209" data-name="Path 1209" d="M2324.135,1322.429a15.271,15.271,0,0,1,5.584,10.762l-.948.083s-1.669-7.133-4.686-9.923S2324.135,1322.429,2324.135,1322.429Z" transform="translate(-2277.806 -1265.496)" fill="#77a4e5"/>
        <path id="Path_1210" data-name="Path 1210" d="M2366.358,1211.782s-8.651-4.845-4.615-11.42c0,0,3.23-4.038,6.69-5.076,0,0-1.846,9.806,0,10.036s1.27-11.072,1.27-11.072,9.111-4.384,12.688-4.038c0,0-5.652,9.575-3.806,9.343s8.19-9.921,8.19-9.921,9.343-1.729,10.842,3.806-.924,8.307-2.306,8.653-10.267.229-10.036,1.382,6.227,3,9.572,1.963c0,0-3.691,9.111-8.533,8.651s-6.347-3.46-9.346-3.691-5.191.578-3.691,1.385,6.576.26,9,2.325,4.381,3.327-.117,4.249-12.571.346-14.187-3.124Z" transform="translate(-2305.849 -1167.535)" fill="#77a4e5"/>
        <path id="Path_1211" data-name="Path 1211" d="M2402.957,1211.63s-24.21,7.844-26.99,16.611a18.41,18.41,0,0,1-2.306,8.419v1.731s2.536-5.883,3.92-6.69C2377.58,1231.7,2372.16,1224.089,2402.957,1211.63Z" transform="translate(-2315.457 -1183.994)" fill="#77a4e5"/>
        <path id="Path_1212" data-name="Path 1212" d="M2367.232,1304.719a15.978,15.978,0,0,0-1.606,12.579l.961-.26s-.932-7.607,1.021-11.431S2367.232,1304.719,2367.232,1304.719Z" transform="translate(-2309.029 -1252.053)" fill="#77a4e5"/>
        <path id="Path_1213" data-name="Path 1213" d="M2197.524,1138.973s12.936-7.245,6.9-17.075c0,0-4.829-6.037-10-7.591,0,0,2.759,14.661,0,15.008s-1.9-16.559-1.9-16.559-13.625-6.555-18.972-6.037c0,0,8.45,14.318,5.691,13.972S2167,1105.852,2167,1105.852s-13.972-2.588-16.216,5.691,1.38,12.42,3.452,12.938,15.359.344,15.005,2.083-9.314,4.483-14.318,2.931c0,0,5.519,13.625,12.756,12.935s9.486-5.173,13.972-5.519,7.76.862,5.519,2.083-9.833.4-13.453,3.475-6.555,4.977.172,6.357,18.8.521,21.217-4.657Z" transform="translate(-2150.08 -1105.469)" fill="#9fc1f4"/>
        <path id="Path_1214" data-name="Path 1214" d="M2177.28,1138.76s36.221,11.73,40.35,24.838a27.491,27.491,0,0,0,3.449,12.592v2.588s-3.8-8.8-5.865-10C2215.228,1168.773,2223.334,1157.389,2177.28,1138.76Z" transform="translate(-2170.199 -1130.094)" fill="#9fc1f4"/>
        <path id="Path_1215" data-name="Path 1215" d="M2340.658,1277.968a23.9,23.9,0,0,1,2.4,18.808l-1.437-.385s1.4-11.374-1.528-17.093S2340.658,1277.968,2340.658,1277.968Z" transform="translate(-2289.764 -1231.872)" fill="#9fc1f4"/>
        <path id="Path_1216" data-name="Path 1216" d="M2267.648,1368.458a22.338,22.338,0,0,1-22.339-22.338h44.677a22.339,22.339,0,0,1-22.339,22.338Z" transform="translate(-2220.519 -1283.473)" fill="#9fc1f4"/>
        <rect id="Rectangle_237" data-name="Rectangle 237" width="45.919" height="0.685" transform="translate(70.204 63.329) rotate(180)" fill="#77a4e5"/>
        <path id="Path_1217" data-name="Path 1217" d="M2308.344,1426.834H2287.43a1.794,1.794,0,0,1,1.791-1.794h17.332A1.794,1.794,0,0,1,2308.344,1426.834Z" transform="translate(-2251.675 -1341.848)" fill="#77a4e5"/>
      </g>
      <path id="Path_1218" data-name="Path 1218" d="M983.5,787.247c-28.742,23.4-63.178,41.391-102.349,53.468-31.819,9.806-67.072,15.817-104.786,17.863-10.283.557-20.305.8-29.937.8-19.5,0-37.474-.992-53.14-2.372l6.339-29.989A559.2,559.2,0,0,0,774.9,828.19c35.49-1.924,68.543-7.549,98.233-16.692,35.729-11.014,66.979-27.29,92.873-48.379Z" transform="translate(-512.81 -564.461)" fill="#f77d48"/>
      <path id="Path_1219" data-name="Path 1219" d="M894.431,622.709a9.1,9.1,0,0,0-7.2-.781c-12.235-1.437-15.8,12.826-15.619,17.733s.726,10.189-4.741,16.564c-15.778,18.415,17.262,19.228,17.262,19.228.281-14.714,17.918-9.346,17.145-7.854C923.882,673.027,903.522,627.424,894.431,622.709Z" transform="translate(-638.046 -459.728)" fill="#163560"/>
      <path id="Path_1220" data-name="Path 1220" d="M766.892,850.65s-2.15-3.275-3.884-3.337-4.946-.963-4.686-.323,2.247.708,2.439,1.091-2.952.963-3.85,1.028-3.017,0-2.955.45,3.819,2.309,6.466,2.054a17.914,17.914,0,0,1,5.925.781Z" transform="translate(-557.682 -626.328)" fill="#ffb27d"/>
      <path id="Path_1221" data-name="Path 1221" d="M831.008,791.492a32.322,32.322,0,0,1-3.288,4.975c-2.556,3.2-6.508,6.9-11.454,7.628a12.256,12.256,0,0,1-6.8-1.1h0c-6.008-2.666-10.528-8.8-10.528-8.8a4.946,4.946,0,0,1,.674-4.85s12.134,2.731,13.29,2.153,7.9-20,9.5-22.437,7.076-3.707,7.076-3.707Z" transform="translate(-590.695 -566.111)" fill="#f99746"/>
      <path id="Path_1222" data-name="Path 1222" d="M858.634,866.608c-2.556,3.2-6.508,6.9-11.454,7.628a12.256,12.256,0,0,1-6.8-1.1c.234.031,6.248.781,8.63-3.507,2.439-4.366,5.076-11.3,8.7-8.989C859.285,861.635,859.217,864.114,858.634,866.608Z" transform="translate(-621.609 -636.252)" fill="#ed7d2b"/>
      <path id="Path_1223" data-name="Path 1223" d="M1058.888,1364.331s3.7,3.384,2.981,5.779-4.064,4-4.517,6.935-2.257,4.535-3.881,4.535h-7.75s-1.2-2.064,1.692-2.687,3.98-4.071,3.8-7.271a57.031,57.031,0,0,1,.26-7.471l6.138-1.421Z" transform="translate(-773.313 -1007.978)" fill="#36599e"/>
      <path id="Path_1224" data-name="Path 1224" d="M916.707,1374.39s1.33,14.318-.294,15.1l-20.8-.042s0-2.4,3.343-2.934,9.21-2.489,10.2-6.847S916.707,1374.39,916.707,1374.39Z" transform="translate(-662.461 -1016.603)" fill="#2b478b"/>
      <path id="Path_1225" data-name="Path 1225" d="M934.111,783.161c-4.282-9.6-6.9-12.355-6.4-15.336.372-2.218-1.132-41.347-1.132-41.347-.508-.156-1.526-.3-2.083-.422a5.227,5.227,0,0,1-3.814-3.317,26.946,26.946,0,0,1-1.3-8.83l-.549.109-9.218,1.822s.208,2.9.214,5.636v.068A5.305,5.305,0,0,1,906,726.674c-1.166.336-2.179.622-2.179.622a84.636,84.636,0,0,0-4.032,19.595c-.648,9.929,6.157,14.242-.052,34.087C893.409,801.243,936.475,788.464,934.111,783.161Z" transform="translate(-665.043 -528.062)" fill="#ffb27d"/>
      <path id="Path_1226" data-name="Path 1226" d="M939.51,716.155s.208,2.9.214,5.636c5.16-.146,7.888-4.852,9-7.461Z" transform="translate(-694.933 -528.372)" fill="#e8945b"/>
      <path id="Path_1227" data-name="Path 1227" d="M921.336,672.758s12.207.2,12.214-7.4,1.591-12.7-6.2-13.149-9.312,2.45-9.931,4.988S918.16,672.51,921.336,672.758Z" transform="translate(-678.483 -482.387)" fill="#ffb27d"/>
      <path id="Path_1228" data-name="Path 1228" d="M934.62,647.234s3.343,8.919,8.471,10.239,7.354-.055,7.354-.055a14.536,14.536,0,0,1-4.751-8.591S937.143,642.988,934.62,647.234Z" transform="translate(-691.316 -477.598)" fill="#163560"/>
      <path id="Path_1229" data-name="Path 1229" d="M920.22,650.277a7.564,7.564,0,0,0-3.5,2.733,12.264,12.264,0,0,0-1.658,6.979s-2.52-6.063.312-9.491C918.384,646.862,920.22,650.277,920.22,650.277Z" transform="translate(-676.088 -479.918)" fill="#163560"/>
      <path id="Path_1230" data-name="Path 1230" d="M930.567,711.947a3.074,3.074,0,0,1-2.528,1.041,2.244,2.244,0,0,1-1.88-1.244A8.042,8.042,0,0,1,930.567,711.947Z" transform="translate(-685.058 -526.294)" fill="#ebf3fa"/>
      <path id="Path_1231" data-name="Path 1231" d="M931.328,779.5a82.916,82.916,0,0,1,0,9.616c-.206,3.475-3.723,8.13-4.22,9.283-1.252,2.89-2.663,3.358-2.663,3.358l-10.934,2.676-3.819.94-12.11-3.616s-5.527-15.406-3.311-24.062a66.9,66.9,0,0,1,5.6-14.685s9.892,9.676,22.747-.82Z" transform="translate(-661.084 -563.773)" fill="#f99746"/>
      <path id="Path_1232" data-name="Path 1232" d="M893.236,923.16s-5.987,18.668-6.383,25.022,11.454,90.285,11.941,93.214c.45,2.759,3.876,4.519,3.876,4.519a5.191,5.191,0,0,0,3.827.294c3.124-.88,4.108-1.937,4.108-1.937s4.67-59.859,1.781-81.239a338.539,338.539,0,0,1-2.923-39.874Z" transform="translate(-655.976 -682.839)" fill="#233862"/>
      <path id="Path_1233" data-name="Path 1233" d="M942.418,921s9.15,12.274,10,20.566,1.338,37.442,3.155,45.533,8.492,23.653,8.492,48.884a5.027,5.027,0,0,1-2.835,2.215,22.876,22.876,0,0,1-2.494.69,3.918,3.918,0,0,1-4.386-2.083c-4.514-9.085-18.889-38.393-19.628-44.476-.521-4.306-5.061-32.8-14.961-49.521-2.377-4.012,1.458-19.977,1.458-19.977Z" transform="translate(-679.752 -681.241)" fill="#2b478b"/>
      <path id="Path_1234" data-name="Path 1234" d="M929.932,712.343s-.211.9-2.442.758c0,0-1.869-.117-1.822-1.1A5.885,5.885,0,0,1,929.932,712.343Z" transform="translate(-684.693 -526.472)" fill="#fff"/>
      <path id="Path_1235" data-name="Path 1235" d="M906.752,912.09s2.408,1.9,7.19,2c5.711.117,19.868-1.455,19.868-1.455a11.683,11.683,0,0,1,.6,3.613s-17.288,4.36-27.305.635A6.318,6.318,0,0,1,906.752,912.09Z" transform="translate(-670.451 -674.651)" fill="#233862"/>
      <path id="Path_1236" data-name="Path 1236" d="M922.683,921.922a2.974,2.974,0,1,1,2.6-2.952A2.8,2.8,0,0,1,922.683,921.922Zm0-5.037a2.116,2.116,0,1,0,1.742,2.083A1.937,1.937,0,0,0,922.683,916.884Z" transform="translate(-680.561 -677.558)" fill="#fff"/>
      <rect id="Rectangle_238" data-name="Rectangle 238" width="23.486" height="32.15" transform="translate(243.148 231.982) rotate(-41.05)" fill="#b5453c"/>
      <path id="Path_1237" data-name="Path 1237" d="M977.932,925.28s-6.49.758-6.472,2.3,1.619,4.707,2.421,4.847,5.269-4.282,5.269-4.282Z" transform="translate(-718.566 -684.407)" fill="#ffb27d"/>
      <path id="Path_1238" data-name="Path 1238" d="M993.5,762.19s8.666.607,11.988,8.682,9.632,21.63,9.632,23.911-3.52,9.312-22.424,13.355c0,0-1.955-2.059-1.838-3.686,0,0,11.8-10.134,11.769-11.319-.06-2.241-1.934-5.206-12.3-15.565C987.5,774.748,993.5,762.19,993.5,762.19Z" transform="translate(-731.961 -563.773)" fill="#f99746"/>
      <path id="Path_1239" data-name="Path 1239" d="M281.854,1263.315h-.086a.9.9,0,0,1-.9-.919l1.364-59.057,4.014-.469-3.423,59.531a.974.974,0,0,1-.971.914Z" transform="translate(-207.752 -889.734)" fill="#95c0f4"/>
      <path id="Path_1240" data-name="Path 1240" d="M520.1,1263.315h.086a.9.9,0,0,0,.9-.919l-1.362-59.057-4.014-.469,3.423,59.531A.971.971,0,0,0,520.1,1263.315Z" transform="translate(-381.458 -889.734)" fill="#b0d4ff"/>
      <path id="Path_1241" data-name="Path 1241" d="M274.44,1038.974V998.5a12.891,12.891,0,0,1,12.9-12.894H316.5A12.894,12.894,0,0,1,329.392,998.5v42.016Z" transform="translate(-202.997 -729.032)" fill="#b0d4ff"/>
      <path id="Path_1242" data-name="Path 1242" d="M274.44,1190.6h60.169v6.388h-56.3a3.871,3.871,0,0,1-3.871-3.871Z" transform="translate(-202.997 -880.658)" fill="#95c0f4"/>
      <rect id="Rectangle_239" data-name="Rectangle 239" width="48.316" height="6.388" rx="3.194" transform="translate(92.904 309.942)" fill="#b0d4ff"/>
      <path id="Path_1243" data-name="Path 1243" d="M436.2,1148.477c-4.178,7.271-9.432,10.077-9.432,10.077H404.9S439.385,1142.932,436.2,1148.477Z" transform="translate(-299.495 -848.62)" fill="#233862"/>
      <path id="Path_1244" data-name="Path 1244" d="M459.152,1316.4a2.02,2.02,0,0,0-.362,2.161h0c.521,1.44,2.244,3.048,4.246,4.655.26.206.482.393.679.568l.154.138.117.107c1.867,1.718,1.164,2.114,4.517,5.6,3.822,3.975,6.451,4.048,7.2,3.686.633-.31-.653-2.418-2.083-4.787-.068-.115-.135-.232-.208-.346-.19-.315-.378-.635-.565-.953-1.671-2.864-1.242-4.191-.846-8.437.32-3.449,5.365-19.264,5.365-19.264l-7.323-1.263s-2.2,12.6-4.634,14.542c-1.3,1.041-2.754,1.041-4,1.822-.089.052-.174.107-.26.164A9.581,9.581,0,0,0,459.152,1316.4Z" transform="translate(-339.234 -960.299)" fill="#ffb27d"/>
      <path id="Path_1245" data-name="Path 1245" d="M459.152,1362.856a2.02,2.02,0,0,0-.362,2.161h0c.64,1.437,2.317,3.038,4.251,4.639.26.211.476.4.674.583l.154.138.117.107c1.867,1.718,1.164,2.114,4.517,5.6,3.822,3.975,6.451,4.048,7.2,3.686.633-.31-.653-2.418-2.083-4.787a16.291,16.291,0,0,1-6.813-5.022c-2.3-2.936-3.835-6.708-5.4-8.893-.089.052-.174.107-.26.164a9.585,9.585,0,0,0-1.994,1.622Z" transform="translate(-339.234 -1006.751)" fill="#233862"/>
      <path id="Path_1246" data-name="Path 1246" d="M670.837,1305.514c.453,2.262,3.676,1.885,7.276,1s2.744.167,7.867-.4,6.675-2.478,6.833-3.241c.138-.674-2.392-.914-5.108-1.226l-1.028-.122c-3.067-.385-5.311-2.364-8.1-3.988-2.637-1.538-6.573-7.81-6.573-7.81l-7.029.557s3.689,5.6,5.115,8.036a8.609,8.609,0,0,1,.69,4.787A9.063,9.063,0,0,0,670.837,1305.514Z" transform="translate(-491.87 -953.982)" fill="#ffb27d"/>
      <path id="Path_1247" data-name="Path 1247" d="M694.449,1340.388c3.6-.88,2.744.167,7.867-.4s6.675-2.478,6.833-3.241c.138-.674-2.392-.914-5.108-1.226l-.026.052a14.435,14.435,0,0,1-7.339,2.281c-3.475.086-7.156-.911-9.557-.872a9.063,9.063,0,0,0,.052,2.4C687.626,1341.646,690.848,1341.268,694.449,1340.388Z" transform="translate(-508.205 -987.852)" fill="#233862"/>
      <path id="Path_1248" data-name="Path 1248" d="M515.556,1145.77l-6.571,17.676-8.575,23.078a13.831,13.831,0,0,1-4.556-.417,19.676,19.676,0,0,1-4.4-2.142s2.379-24.78,6.823-39c1.138-3.645,2.413-6.607,3.822-8.268C508.98,1128.554,515.556,1145.77,515.556,1145.77Z" transform="translate(-363.514 -839.168)" fill="#233862"/>
      <path id="Path_1249" data-name="Path 1249" d="M377.894,1059.9c-4.3-1.387-16.577.4-28.9,2.809l-2.58-4.259-26.631-2.083s-8.789,19.488-3.978,31.905a4.511,4.511,0,0,0,4.509,3.035H341.7c13.243,0,28.026-9.111,29.937-9.486,3.124-.625,4.384,5.636,7.513,12.209s29.417,29.115,29.417,29.115,4.04.039,5.712-.586a5.645,5.645,0,0,0,2.452-1.549S387.6,1063.042,377.894,1059.9Z" transform="translate(-232.532 -781.371)" fill="#2b478b"/>
      <path id="Path_1250" data-name="Path 1250" d="M305.142,760.147c-3.41-1.791-8.591-2.033-9.445-2.148-10.093-1.356-16.166,13.308-16.523,17.751-.659,8.19-4.99,9.439-11.09,14.578-12.235,10.283-8.64,22.234-1.955,26.675,4.012,2.663,11.082,0,11.082,0,.1.07,19.339-10.754,28.823-15.976C320.251,799,313.837,764.7,305.142,760.147Z" transform="translate(-192.315 -560.608)" fill="#b5453c"/>
      <path id="Path_1251" data-name="Path 1251" d="M369.44,864.051c.042.029-4.665,1.635-7.81.24-2.962-1.3-5.206-6.18-5.162-6.183,1.348-.062,2.827-1.239,3.965-8.968l.575.206,9.655,3.473s-.7,3.093-1.151,6.039C369.12,861.339,368.914,863.7,369.44,864.051Z" transform="translate(-263.67 -628.088)" fill="#ffb27d"/>
      <path id="Path_1252" data-name="Path 1252" d="M383.595,853.4s-.7,3.093-1.151,6.039c-5.54-1-7.716-6.508-8.494-9.512Z" transform="translate(-276.602 -628.672)" fill="#ed975d"/>
      <path id="Path_1253" data-name="Path 1253" d="M382.208,809.107s-13.2-1.77-11.975-9.97.354-13.953,8.83-13.17,9.632,4.165,9.892,7S385.673,809.352,382.208,809.107Z" transform="translate(-273.794 -581.308)" fill="#ffb27d"/>
      <path id="Path_1254" data-name="Path 1254" d="M377.755,786.41s-8.448,7.289-14.193,7.867-7.922-1.257-7.922-1.257a22.466,22.466,0,0,0,5.425-7.352,4.043,4.043,0,0,1,3.332-2.382C368.49,782.932,376.276,782.771,377.755,786.41Z" transform="translate(-263.058 -579.249)" fill="#b5453c"/>
      <path id="Path_1255" data-name="Path 1255" d="M420.31,788.787a20.819,20.819,0,0,1,3.715,4.761c.859,1.955,1.117,6.633.432,8.489,0,0,4.4-8.562,1.911-12.719C423.725,784.905,420.31,788.787,420.31,788.787Z" transform="translate(-310.893 -582.279)" fill="#b5453c"/>
      <path id="Path_1256" data-name="Path 1256" d="M348.384,908.089c-.4,26.712-.109,21.13-3.033,23.666-.7.609-2.684.974-5.287,1.145-8.192.544-22.588-.807-23.138-2.319-1.89-5.238-.555-6.865-2.132-14.883-.164-.854-.367-1.775-.607-2.783-1.3-5.506-2.6-7.38,2.07-16.229,4.23-8.013,8.622-14.518,9.018-14.284,11.155,6.623,12.056,1.057,12.056,1.057S348.576,895.049,348.384,908.089Z" transform="translate(-231.498 -652.687)" fill="#8c9df4"/>
      <path id="Path_1257" data-name="Path 1257" d="M508.985,1193.146l-8.575,23.078a13.831,13.831,0,0,1-4.556-.416,19.674,19.674,0,0,1-4.4-2.143s2.379-24.78,6.823-39Z" transform="translate(-363.514 -868.868)" fill="#2b478b"/>
      <path id="Path_1258" data-name="Path 1258" d="M406.53,886.47s11.478,1.947,12.826,6.888,9.281,34,9.281,34-5.836,1.041-8.533-1.645-9.372-25.012-9.372-25.012Z" transform="translate(-300.7 -655.7)" fill="#8c9df4"/>
      <path id="Path_1259" data-name="Path 1259" d="M345.2,995.908c-8.192.544-22.588-.807-23.138-2.319-1.89-5.238-.555-6.865-2.132-14.883l3.952-11.126s-.653,12.389,3,15.648,14.958,6.289,16.734,9.012A9.7,9.7,0,0,1,345.2,995.908Z" transform="translate(-236.645 -715.695)" fill="#6980e2"/>
      <path id="Path_1260" data-name="Path 1260" d="M381,1052.829s8.07-1.8,9.372-1.08,4.491,3.327,4.889,4.238-2.9-.69-3.978-.979c-.7-.187-2.525.45-3.431.752a11.418,11.418,0,0,1-6.151.617Z" transform="translate(-281.817 -777.828)" fill="#ffb27d"/>
      <path id="Path_1261" data-name="Path 1261" d="M285.813,882.4s-10.85.669-14.607,5.907c-5.287,7.375-15.776,38.8-9.765,43,6.768,4.72,30.809,1.234,30.809,1.234s.8-3.741-.312-5.547-19.2-4.733-20.045-5.566,10.436-16.281,10.436-18.785S285.813,882.4,285.813,882.4Z" transform="translate(-192.047 -652.69)" fill="#8c9df4"/>
      <path id="Path_1262" data-name="Path 1262" d="M418.53,1060.87a15.527,15.527,0,0,0,2.249,2.444,1.651,1.651,0,0,0,.911.2l-1.14-2.054Z" transform="translate(-309.577 -784.7)" fill="#ffb27d"/>
      <path id="Path_1263" data-name="Path 1263" d="M417,1052.23l4.923,2.39a.88.88,0,0,1-.817.315,11.883,11.883,0,0,1-2.135-.586Z" transform="translate(-308.445 -778.309)" fill="#ffb27d"/>
      <path id="Path_1264" data-name="Path 1264" d="M420.33,1000.348h41.529l12.493-29.128H432.885Z" transform="translate(-310.908 -718.388)" fill="#f77d48"/>
      <path id="Path_1265" data-name="Path 1265" d="M425.9,1075.86H371.06v1.84h54.356Z" transform="translate(-274.464 -795.787)" fill="#f77d48"/>
      <path id="Path_1266" data-name="Path 1266" d="M528.124,1021.894a1.367,1.367,0,0,0-1.411-1.854,2.809,2.809,0,0,0-2.543,1.854,1.366,1.366,0,0,0,1.408,1.856A2.812,2.812,0,0,0,528.124,1021.894Z" transform="translate(-387.656 -754.499)" fill="#ebf3fa"/>
      <path id="Path_1267" data-name="Path 1267" d="M799.24,1187.593h.112a1.257,1.257,0,0,0,1.19-1.341l-1.8-86.167-5.308-.685,4.527,86.86A1.346,1.346,0,0,0,799.24,1187.593Z" transform="translate(-586.881 -813.2)" fill="#233862"/>
      <path id="Path_1268" data-name="Path 1268" d="M382.23,1187.593h-.112a1.255,1.255,0,0,1-1.187-1.341l1.8-86.167,5.308-.685-4.527,86.86A1.346,1.346,0,0,1,382.23,1187.593Z" transform="translate(-281.763 -813.2)" fill="#233862"/>
      <rect id="Rectangle_240" data-name="Rectangle 240" width="124.784" height="6.167" rx="3.084" transform="translate(91.598 281.96)" fill="#233862"/>
      <rect id="Rectangle_241" data-name="Rectangle 241" width="657.331" height="2.804" rx="1.402" transform="translate(0.081 372.766)" fill="#2e3552"/>
    </g>
  </g>
</svg>
