<svg xmlns="http://www.w3.org/2000/svg" xmlns:xlink="http://www.w3.org/1999/xlink" width="252.986" height="253.027" viewBox="0 0 252.986 253.027">
  <defs>
    <linearGradient id="linear-gradient" x1="1.086" y1="1.014" x2="0.335" y2="0.363" gradientUnits="objectBoundingBox">
      <stop offset="0" stop-color="#dae3fe"/>
      <stop offset="1" stop-color="#e9effd"/>
    </linearGradient>
  </defs>
  <g id="Group_70" data-name="Group 70" transform="translate(-746.042 -2009)">
    <path id="Path_1848" data-name="Path 1848" d="M193.508,134.934c-17.279,40.684-63.3,63.473-103.219,57.328-6.495-1-24.3-3.979-40.065-18.039C19.877,147.158,13.386,93.568,37.867,55.8c17.818-27.488,49.757-43.066,80.106-42.289,6.538.168,31.591,1.2,53.608,19.358a82.56,82.56,0,0,1,16.8,19.056C203.471,75.531,204.769,108.419,193.508,134.934Z" transform="matrix(0.719, 0.695, -0.695, 0.719, 863.828, 1983.405)" fill="url(#linear-gradient)"/>
    <g id="Layer_2" data-name="Layer 2" transform="translate(752.002 2083.563)">
      <g id="Layer_1" data-name="Layer 1" transform="translate(-0.002 0.001)">
        <path id="Path_1775" data-name="Path 1775" d="M208.339,60.208c3.153,32.313-27.311,68.864-93.89,75.355S3.5,111.3.344,78.989,14.452-26.512,99.191,9.936,205.186,27.9,208.339,60.208Z" transform="translate(0.002 -0.001)" fill="#fff4e9"/>
        <path id="Path_1776" data-name="Path 1776" d="M270.409,187.073s41.607-6.791,43.268-21.272-33.3-.362-33.3-.362,15.493-26.308,8.653-34.5-26.308,20.647-26.308,20.647,3.182-30.418-6.03-31.651S239,183.316,239,183.316Z" transform="translate(-140.757 -70.625)" fill="#ffdacf"/>
        <path id="Path_1777" data-name="Path 1777" d="M295.719,158.855q3.749-5.734,7.448-11.51l.456-.707c-.058-.074-.111-.148-.173-.218s-.136-.156-.206-.23q-3.523,5.484-7.074,10.942-3.728,5.71-7.576,11.345c-2.549,3.7-5.155,7.4-7.843,11s-5.4,7.083-8.254,10.5c-2.8,3.358-5.71,6.626-8.747,9.767l-.251.255.7.082q3.983-4.111,7.674-8.5c2.877-3.387,5.631-6.873,8.307-10.416q4.078-5.414,7.917-10.992C290.7,166.439,293.224,162.661,295.719,158.855Z" transform="translate(-155.186 -86.098)" fill="#ffebde"/>
        <path id="Path_1778" data-name="Path 1778" d="M335.58,225.677a4.614,4.614,0,0,0-.127-.547l-12.233,4.542-13.8,5.122-13.733,5.081-13.783,5.138-5.648,2.1,1.213.144,2.877-1.065,13.8-5.122,13.729-5.1,13.775-5.138,13.733-5.1Z" transform="translate(-162.701 -132.589)" fill="#ffebde"/>
        <path id="Path_1779" data-name="Path 1779" d="M265.97,182.028q1.122-5.586,2.026-11.21.995-6.055,1.788-12.147.822-6.339,1.5-12.7.67-6.486,1.159-12.985.473-6.326.756-12.656a4.335,4.335,0,0,0-.555-.173q-.243,5.607-.645,11.2-.456,6.441-1.1,12.874t-1.451,12.743q-.789,6.141-1.759,12.258-.9,5.66-1.99,11.288c-.09.448-.177.9-.267,1.348C265.361,182.23,265.9,182.382,265.97,182.028Z" transform="translate(-156.319 -70.768)" fill="#ffebde"/>
        <path id="Path_1780" data-name="Path 1780" d="M120.382,187.386s-37.862-9.832-39.535-24.293,33.168,1.007,33.168,1.007-19.1-24.594-12.266-32.774,25.588,21.786,25.588,21.786-2.466-31.553,6.758-32.778,14.712,61.922,14.712,61.922Z" transform="translate(-47.579 -70.861)" fill="#ffdacf"/>
        <path id="Path_1781" data-name="Path 1781" d="M209.473,130.823c.337,3.938.748,7.868,1.2,11.789.469,4.065.987,8.122,1.529,12.175q.789,5.907,1.644,11.81.765,5.315,1.546,10.618c.058.411.111.785.169,1.18s.592.2.543-.152c-.5-3.453-1.011-6.91-1.509-10.367q-.847-5.833-1.644-11.674-.822-6.092-1.558-12.188c-.465-3.942-.892-7.888-1.233-11.838-.321-3.56-.588-7.119-.732-10.687l-.037-1.028a4.193,4.193,0,0,0-.555.132C208.943,124,209.181,127.419,209.473,130.823Z" transform="translate(-122.994 -70.945)" fill="#ffebde"/>
        <ellipse id="Ellipse_32" data-name="Ellipse 32" cx="31.783" cy="4.694" rx="31.783" ry="4.694" transform="translate(67.883 112.773)" fill="#fff"/>
        <path id="Path_1782" data-name="Path 1782" d="M160.562,187.3q4.057,4.756,8.332,9.319l1.069,1.135c.251.259.645-.136.411-.411q-4.291-4.522-8.369-9.257t-8.02-9.73q-3.95-5.023-7.679-10.227t-7.292-10.655q-3.552-5.438-6.873-11.033c-.037-.058-.07-.119-.107-.181-.111.107-.218.222-.325.345l-.07.09q2.935,4.933,6.055,9.775,3.523,5.451,7.272,10.745,3.7,5.2,7.613,10.244T160.562,187.3Z" transform="translate(-77.528 -86.139)" fill="#ffebde"/>
        <path id="Path_1783" data-name="Path 1783" d="M132.921,239.088l1.34.214c.349.053.5-.485.148-.538q-5.438-.822-10.794-2.133t-10.659-3.062q-5.344-1.776-10.494-3.983T92.222,224.7q-5.093-2.676-9.96-5.755L81.1,218.21a4.185,4.185,0,0,0-.123.584q4.764,3.054,9.758,5.755t10.252,4.994q5.126,2.253,10.424,4.082t10.687,3.194Q127.438,238.175,132.921,239.088Z" transform="translate(-47.692 -128.514)" fill="#ffebde"/>
        <path id="Path_1784" data-name="Path 1784" d="M347.6,32.389l11.666-2.409,10.819,53.877L357.8,86.393Z" transform="translate(-204.716 -17.657)" fill="#ffc000"/>
        <ellipse id="Ellipse_33" data-name="Ellipse 33" cx="21.823" cy="27.475" rx="21.823" ry="27.475" transform="translate(121.96 19.059) rotate(-11.67)" fill="#ffc000"/>
        <path id="Path_1785" data-name="Path 1785" d="M328.825,75.22l-15.517,3.2c-.144,1-.243,2.014-.288,3.05l16.4-3.387Z" transform="translate(-184.35 -44.301)" fill="#ff8f00"/>
        <path id="Path_1786" data-name="Path 1786" d="M331.745,110.727l-.592-2.877L315.8,111.019c.255.962.551,1.895.88,2.808Z" transform="translate(-185.988 -63.518)" fill="#ff8f00"/>
        <path id="Path_1787" data-name="Path 1787" d="M325.385,93.49,313.14,96.018c.066.966.173,1.94.329,2.923l12.508-2.586Z" transform="translate(-184.421 -55.061)" fill="#ff8f00"/>
        <path id="Path_1788" data-name="Path 1788" d="M333.927,57l-17.071,3.527a28.048,28.048,0,0,0-1.126,3.219l18.789-3.88Z" transform="translate(-185.946 -33.57)" fill="#ff8f00"/>
        <path id="Path_1789" data-name="Path 1789" d="M324,45.448l18.909-3.9-.592-2.877-15.291,3.161A21.978,21.978,0,0,0,324,45.448Z" transform="translate(-190.817 -22.775)" fill="#ff8f00"/>
        <path id="Path_1790" data-name="Path 1790" d="M361.258,150.37l-15.908,3.288a21.835,21.835,0,0,0,4.193,2.121l12.307-2.54Z" transform="translate(-203.391 -88.56)" fill="#ff8f00"/>
        <path id="Path_1791" data-name="Path 1791" d="M347.723,136.65l-16.993,3.51a28.878,28.878,0,0,0,2.331,2.507l15.254-3.153Z" transform="translate(-194.78 -80.48)" fill="#ff8f00"/>
        <path id="Path_1792" data-name="Path 1792" d="M339.433,125.047l-.592-2.877-17.3,3.572c.46.929.958,1.825,1.492,2.68Z" transform="translate(-189.368 -71.952)" fill="#ff8f00"/>
        <ellipse id="Ellipse_34" data-name="Ellipse 34" cx="21.823" cy="27.475" rx="21.823" ry="27.475" transform="translate(132.882 16.802) rotate(-11.67)" fill="#ffc000"/>
        <path id="Path_1793" data-name="Path 1793" d="M338.592,54.66a29.933,29.933,0,0,0-3.473,16.253L371.44,93.8a25.351,25.351,0,0,0,7.235-13.877Z" transform="translate(-197.332 -32.192)" fill="#ffd660"/>
        <path id="Path_1794" data-name="Path 1794" d="M347.37,41.727,386.351,66.3a33.55,33.55,0,0,0-.325-8.349l-33.6-21.182a20.585,20.585,0,0,0-5.056,4.957Z" transform="translate(-204.58 -21.656)" fill="#ffd660"/>
        <ellipse id="Ellipse_35" data-name="Ellipse 35" cx="17.844" cy="22.464" rx="17.844" ry="22.464" transform="translate(137.792 20.904) rotate(-11.67)" fill="#f18800"/>
        <path id="Path_1795" data-name="Path 1795" d="M347.29,64.18a25.654,25.654,0,0,0-1.858,16.52c.062.292.132.584.2.876l25.613,16.146c4.5-2.368,7.736-7.046,9.043-12.743Z" transform="translate(-203.095 -37.799)" fill="#ffa421"/>
        <path id="Path_1796" data-name="Path 1796" d="M359.455,46.31a16.738,16.738,0,0,0-5.155,4.9L386.362,71.43a27.356,27.356,0,0,0-.411-8.41Z" transform="translate(-208.662 -27.274)" fill="#ffa421"/>
        <path id="Path_1797" data-name="Path 1797" d="M378.67,41.58c8.94-.51,17.593,7.4,19.924,18.662,2.507,12.147-3.288,23.615-12.928,25.609l-.391.066a13.939,13.939,0,0,0,2.092-.267c9.652-1.994,15.439-13.458,12.932-25.609C397.821,48.05,388.194,39.883,378.67,41.58Z" transform="translate(-223.014 -24.358)" fill="#ff8f00"/>
        <path id="Path_1798" data-name="Path 1798" d="M385.6,75.666a6.992,6.992,0,0,1-2.22,5.689,7.839,7.839,0,0,1-4.522,2.635l.411,3.979-1.554.169-.436-3.979a13.293,13.293,0,0,1-3.334-.049,11.341,11.341,0,0,1-3.6-1.077l-.543-4.97,1.916-.21a7.14,7.14,0,0,0,1.233,3.634q1.044,1.3,4.143.863l-1.044-9.561a6.91,6.91,0,0,1-4.752-1.726,6.511,6.511,0,0,1-2.384-4.464,6.906,6.906,0,0,1,1.287-4.99,6.733,6.733,0,0,1,4.324-2.717l-.148-1.352,1.554-.169.148,1.352a9.866,9.866,0,0,1,1.3-.053q.707,0,1.566.074a16.032,16.032,0,0,1,3.136.588l.5,4.563L381,64.066a3.531,3.531,0,0,0-1.772-3.264,4.11,4.11,0,0,0-2.972-.5l.941,8.632a7.9,7.9,0,0,1,4.111.917A6.9,6.9,0,0,1,385.6,75.666Zm-9.985-6.856-.917-8.39a4.688,4.688,0,0,0-3.56,4.719,3.843,3.843,0,0,0,1.533,2.725,4.07,4.07,0,0,0,2.943.945Zm7.148,8.044a4.67,4.67,0,0,0-1.739-2.906,4.3,4.3,0,0,0-3.387-1.024l1.011,9.257a4.5,4.5,0,0,0,3.173-1.87,4.2,4.2,0,0,0,.941-3.457Z" transform="translate(-217.236 -33.788)" fill="#ff8f00"/>
        <path id="Path_1799" data-name="Path 1799" d="M388.405,75.366a6.951,6.951,0,0,1-2.216,5.685,7.8,7.8,0,0,1-4.522,2.639l.436,3.979-1.558.169-.432-3.979a13.294,13.294,0,0,1-3.334-.049,11.275,11.275,0,0,1-3.6-1.077l-.543-4.974,1.911-.206a7.14,7.14,0,0,0,1.233,3.634q1.048,1.3,4.148.863l-1.044-9.561a6.914,6.914,0,0,1-4.756-1.726,6.552,6.552,0,0,1-2.372-4.464,6.926,6.926,0,0,1,1.287-4.99,6.746,6.746,0,0,1,4.324-2.717l-.148-1.352,1.554-.169.148,1.352a9.914,9.914,0,0,1,1.3-.053c.473,0,.995.033,1.57.074a16.031,16.031,0,0,1,3.132.588l.464,4.563-1.578.173a3.543,3.543,0,0,0-1.776-3.264,4.111,4.111,0,0,0-2.972-.5L380,68.633a7.9,7.9,0,0,1,4.111.917,6.9,6.9,0,0,1,4.291,5.816Zm-9.985-6.856-.913-8.39a4.687,4.687,0,0,0-3.564,4.731,3.815,3.815,0,0,0,1.537,2.721A4.041,4.041,0,0,0,378.421,68.51Zm7.148,8.044a4.661,4.661,0,0,0-1.735-2.906,4.3,4.3,0,0,0-3.379-1.024l1.011,9.257a4.522,4.522,0,0,0,3.177-1.87,4.2,4.2,0,0,0,.925-3.457Z" transform="translate(-218.91 -33.611)" fill="#ffc000"/>
        <path id="Path_1800" data-name="Path 1800" d="M379.983,77.849v-.041l-1.689-1.065.107.995a4.041,4.041,0,0,1-2.939-.945,3.815,3.815,0,0,1-1.541-2.713V74l-2-1.258a7.309,7.309,0,0,0-.214,2.8A6.544,6.544,0,0,0,374.081,80a6.914,6.914,0,0,0,4.756,1.726l1.044,9.561q-3.1.436-4.148-.863A7.14,7.14,0,0,1,374.5,86.79L372.589,87l.538,4.933.127.078a11.25,11.25,0,0,0,3.478,1.024,13.294,13.294,0,0,0,3.334.049l.374,3.461.711.448.9-.1-.436-3.979a7.74,7.74,0,0,0,4.522-2.639,6.968,6.968,0,0,0,2.216-5.685,8.064,8.064,0,0,0-.386-1.731l-7.95-5.011Zm5.562,7.933a4.209,4.209,0,0,1-.937,3.457,4.522,4.522,0,0,1-3.177,1.87l-1-9.257a4.287,4.287,0,0,1,3.391,1.024A4.661,4.661,0,0,1,385.545,85.783Z" transform="translate(-218.885 -42.84)" fill="#ffd660"/>
        <path id="Path_1801" data-name="Path 1801" d="M384.507,58.5c-.164,0-.329-.041-.489-.053-.576-.041-1.1-.066-1.57-.074a9.916,9.916,0,0,0-1.3.053L381,57.07l-1.554.169.148,1.352a6.737,6.737,0,0,0-4.065,2.392l1.537.966.14-.181a4,4,0,0,1,2.557-1.644l.411,3.79,1.689,1.065L381.322,60a4.111,4.111,0,0,1,2.972.5,3.543,3.543,0,0,1,1.776,3.264l1.578-.173-.366-3.346Z" transform="translate(-221.165 -33.611)" fill="#ffd660"/>
        <path id="Path_1802" data-name="Path 1802" d="M435.5,22.762l.7-9.9,1.27,9.845,6.01.81-5.952,1.159-.715,9.426-1.258-9.368-6.01-.814Z" transform="translate(-252.98 -7.574)" fill="#ffc000"/>
        <path id="Path_1803" data-name="Path 1803" d="M462.22,53.666l.46-6.536.839,6.5,3.967.534-3.93.765-.469,6.219-.83-6.182-3.967-.534Z" transform="translate(-269.906 -27.757)" fill="#ffc000"/>
        <path id="Path_1804" data-name="Path 1804" d="M16,42.429S-.41,33.842,1.613,31.741s10.334,2.125,10.334,2.125-2.109-9.356,1.209-9.4S16,42.429,16,42.429Z" transform="translate(-0.847 -14.412)" fill="#ffc000"/>
        <path id="Path_1805" data-name="Path 1805" d="M49.78,32.849s-3.778-5.286-2.7-5.734S49.4,28.488,49.4,28.488s-.041-2.569,1.176-2.055S49.78,32.849,49.78,32.849Z" transform="translate(-27.611 -15.528)" fill="#ffc000"/>
        <circle id="Ellipse_36" data-name="Ellipse 36" cx="28.371" cy="28.371" r="28.371" transform="translate(18.811 10.839)" fill="#ffc000"/>
        <path id="Path_1806" data-name="Path 1806" d="M55.329,62.927A24.5,24.5,0,0,1,77.073,35.966c13.45-1.439,25.074,10.091,26.509,23.541S96.96,82.81,83.511,84.253,56.755,76.377,55.329,62.927Z" transform="translate(-32.502 -21.111)" fill="#ff8f00"/>
        <circle id="Ellipse_37" data-name="Ellipse 37" cx="22.275" cy="22.275" r="22.275" transform="translate(21.987 20.298) rotate(-8.11)" fill="#fff"/>
        <path id="Path_1807" data-name="Path 1807" d="M105.624,85.468a.358.358,0,0,1-.21-.07l-6.655-5.225a.337.337,0,1,1,.411-.526l6.388,5.015,10.054-12.533a.337.337,0,1,1,.526.411L105.907,85.332A.325.325,0,0,1,105.624,85.468Z" transform="translate(-58.064 -42.381)" fill="#522d34"/>
        <path id="Path_1808" data-name="Path 1808" d="M109.88,52.535a.218.218,0,0,1-.222-.2l-.481-4.493a.218.218,0,0,1,.2-.247.222.222,0,0,1,.247.2l.481,4.489a.222.222,0,0,1-.2.247Z" transform="translate(-64.297 -28.032)" fill="#522d34"/>
        <path id="Path_1809" data-name="Path 1809" d="M118.985,137.245a.226.226,0,0,1-.226-.2l-.481-4.489a.226.226,0,0,1,.2-.247.222.222,0,0,1,.247.2l.481,4.493a.226.226,0,0,1-.2.247Z" transform="translate(-69.658 -77.921)" fill="#522d34"/>
        <path id="Path_1810" data-name="Path 1810" d="M151.394,91.223a.222.222,0,1,1-.025-.444l4.493-.481a.222.222,0,0,1,.247.2.226.226,0,0,1-.2.247l-4.493.481Z" transform="translate(-89.023 -53.18)" fill="#522d34"/>
        <path id="Path_1811" data-name="Path 1811" d="M66.68,100.287a.222.222,0,0,1-.222-.2.226.226,0,0,1,.2-.247l4.493-.481a.226.226,0,0,1,.247.2.222.222,0,0,1-.2.247l-4.493.481Z" transform="translate(-39.139 -58.516)" fill="#522d34"/>
        <path id="Path_1812" data-name="Path 1812" d="M53.832,103.229c.822,2.808,1.977,4.933.723,5.3s-2.927-1.62-3.741-4.431-.456-5.381.8-5.755S53.018,100.417,53.832,103.229Z" transform="translate(-29.669 -57.898)" fill="#fff"/>
        <path id="Path_1813" data-name="Path 1813" d="M132.112,136.787c.6,1.472-2.877,5.344-8.632,7.707s-11.563,2.29-12.167.822,3.362-1.685,9.1-4.041S131.5,135.312,132.112,136.787Z" transform="translate(-65.521 -80.358)" fill="#ff8f00"/>
        <path id="Path_1814" data-name="Path 1814" d="M171.052,70.523c.908-.238,2.845,1.833,3.7,5.023s.28,6.293-.633,6.532-.67-1.883-1.517-5.072S170.139,70.766,171.052,70.523Z" transform="translate(-100.579 -41.524)" fill="#ff8f00"/>
        <path id="Path_1815" data-name="Path 1815" d="M218.529,197,206,232.429c3.9,4.069,27.87,3.621,29.913,0L223.359,197Z" transform="translate(-121.322 -116.022)" fill="#71659c"/>
        <path id="Path_1816" data-name="Path 1816" d="M250.3,237.9l-7.97-35.141-2.392.033-1.176,35.9A58.41,58.41,0,0,0,250.3,237.9Z" transform="translate(-140.615 -119.415)" fill="#5f5583"/>
        <path id="Path_1817" data-name="Path 1817" d="M219.923,233.094l7.07-39.174L216.38,232.494A33.184,33.184,0,0,0,219.923,233.094Z" transform="translate(-127.435 -114.208)" fill="#e0d0ff"/>
        <path id="Path_1818" data-name="Path 1818" d="M236.517,204.836a5.845,5.845,0,0,0,4.111-1.821l-1.743-5.072L233.9,197.7l-1.739,5.056a5.952,5.952,0,0,0,4.357,2.08Z" transform="translate(-136.728 -116.435)" fill="#5f5583"/>
        <path id="Path_1819" data-name="Path 1819" d="M106.17,195.89H218.125v.3a2.561,2.561,0,0,1-2.561,2.561H108.731a2.561,2.561,0,0,1-2.561-2.561Z" transform="translate(-62.527 -115.369)" fill="#71659c"/>
        <path id="Path_1820" data-name="Path 1820" d="M234.344,198.753H207.05l-1.64-2.853h30.373Z" transform="translate(-120.974 -115.374)" fill="#5f5583"/>
        <circle id="Ellipse_38" data-name="Ellipse 38" cx="4.748" cy="4.748" r="4.748" transform="translate(94.803 77.599)" fill="#e0d0ff"/>
        <circle id="Ellipse_39" data-name="Ellipse 39" cx="3.358" cy="3.358" r="3.358" transform="translate(96.192 78.988)" fill="#5f5583"/>
        <ellipse id="Ellipse_40" data-name="Ellipse 40" cx="2.779" cy="2.997" rx="2.779" ry="2.997" transform="translate(96.772 79.712)" fill="#71659c"/>
        <path id="Path_1821" data-name="Path 1821" d="M235.378,188.78a4.748,4.748,0,0,0-4.748,4.748,4.678,4.678,0,0,0,.107,1,16.739,16.739,0,0,1,4.776-.921,9.709,9.709,0,0,1,4.522.8,4.8,4.8,0,0,0,.082-.88,4.748,4.748,0,0,0-4.739-4.748Z" transform="translate(-135.827 -111.181)" fill="#a594e4"/>
        <path id="Path_1822" data-name="Path 1822" d="M237.368,192.16a3.358,3.358,0,0,0-3.358,3.358,3.434,3.434,0,0,0,.053.588,18.665,18.665,0,0,1,3.441-.51,9.885,9.885,0,0,1,3.2.325,3.259,3.259,0,0,0,.025-.411A3.358,3.358,0,0,0,237.368,192.16Z" transform="translate(-137.818 -113.172)" fill="#5f5583"/>
        <path id="Path_1823" data-name="Path 1823" d="M51.812,176h48.217v.707a6.166,6.166,0,0,1-6.166,6.166h-35.9a6.166,6.166,0,0,1-6.166-6.166V176Z" transform="translate(-30.507 -103.655)" fill="#e0d0ff"/>
        <path id="Path_1824" data-name="Path 1824" d="M315.572,176h48.217v.707a6.166,6.166,0,0,1-6.166,6.166h-35.9a6.166,6.166,0,0,1-6.166-6.166V176Z" transform="translate(-185.846 -103.655)" fill="#e0d0ff"/>
        <rect id="Rectangle_276" data-name="Rectangle 276" width="3.535" height="1.303" transform="translate(43.643 79.218)" fill="#5f5583"/>
        <rect id="Rectangle_277" data-name="Rectangle 277" width="3.535" height="1.303" transform="translate(152.067 79.218)" fill="#5f5583"/>
        <path id="Path_1825" data-name="Path 1825" d="M144.592,176.02h-3.013l-2.179,6.865h3.009Z" transform="translate(-82.098 -103.666)" fill="#ae9de4"/>
        <path id="Path_1826" data-name="Path 1826" d="M115.66,182.885h8.168l2.183-6.865h-8.172Z" transform="translate(-68.116 -103.666)" fill="#ae9de4"/>
        <path id="Path_1827" data-name="Path 1827" d="M85.482,176.02H82.473l-2.183,6.865H83.3Z" transform="translate(-47.286 -103.666)" fill="#fff"/>
        <path id="Path_1828" data-name="Path 1828" d="M67.58,182.885h3.009l2.179-6.865H69.759Z" transform="translate(-39.8 -103.666)" fill="#fff"/>
        <path id="Path_1829" data-name="Path 1829" d="M409.022,176.02h-3.009l-2.183,6.865h3.009Z" transform="translate(-237.832 -103.666)" fill="#ae9de4"/>
        <path id="Path_1830" data-name="Path 1830" d="M380.09,182.885h8.172l2.183-6.865h-8.172Z" transform="translate(-223.851 -103.666)" fill="#ae9de4"/>
        <path id="Path_1831" data-name="Path 1831" d="M349.912,176.02H346.9l-2.183,6.865h3.013Z" transform="translate(-203.02 -103.666)" fill="#fff"/>
        <path id="Path_1832" data-name="Path 1832" d="M332.01,182.885h3.009l2.183-6.865h-3.009Z" transform="translate(-195.534 -103.666)" fill="#fff"/>
        <path id="Path_1833" data-name="Path 1833" d="M235.939,200.765c.119.518.062.974-.123,1.015s-.436-.341-.555-.859-.062-.974.127-1.015S235.824,200.259,235.939,200.765Z" transform="translate(-138.518 -117.732)" fill="#e0d0ff"/>
        <path id="Path_1834" data-name="Path 1834" d="M134.358,198.753l1.648-2.853H120.768l-1.648,2.853Z" transform="translate(-70.154 -115.374)" fill="#5f5583"/>
        <path id="Path_1835" data-name="Path 1835" d="M169.353,195.9h-5.615l-1.648,2.853h5.615Z" transform="translate(-95.461 -115.374)" fill="#5f5583"/>
        <path id="Path_1836" data-name="Path 1836" d="M313.838,198.753l1.648-2.853H300.248l-1.648,2.853Z" transform="translate(-175.858 -115.374)" fill="#5f5583"/>
        <path id="Path_1837" data-name="Path 1837" d="M348.829,195.9h-5.611l-1.648,2.853h5.611Z" transform="translate(-201.165 -115.374)" fill="#5f5583"/>
        <rect id="Rectangle_278" data-name="Rectangle 278" width="17.618" height="0.958" rx="0.479" transform="translate(53.331 81.315)" fill="#e0d0ff"/>
        <rect id="Rectangle_279" data-name="Rectangle 279" width="3.589" height="0.958" rx="0.479" transform="translate(72.943 81.315)" fill="#e0d0ff"/>
        <rect id="Rectangle_280" data-name="Rectangle 280" width="12.11" height="0.958" rx="0.479" transform="translate(117.966 81.315)" fill="#e0d0ff"/>
        <rect id="Rectangle_281" data-name="Rectangle 281" width="2.466" height="0.958" rx="0.479" transform="translate(131.444 81.315)" fill="#e0d0ff"/>
      </g>
    </g>
  </g>
</svg>
