<svg xmlns="http://www.w3.org/2000/svg" width="27" height="27" viewBox="0 0 27 27">
  <path id="Exclusion_1" data-name="Exclusion 1" d="M13.5,27A13.5,13.5,0,0,1,3.954,3.954,13.5,13.5,0,1,1,23.046,23.046,13.412,13.412,0,0,1,13.5,27ZM6,18.136H6a9.505,9.505,0,0,0,5.111,1.493,9.074,9.074,0,0,0,7.03-3.084,9.781,9.781,0,0,0,2.438-6.375c0-.14,0-.284-.01-.427a6.756,6.756,0,0,0,1.664-1.723L22.2,8.008a6.789,6.789,0,0,1-1.911.524,3.351,3.351,0,0,0,1.463-1.841,6.868,6.868,0,0,1-2.115.8A3.294,3.294,0,0,0,17.21,6.437a3.33,3.33,0,0,0-3.327,3.325,3.456,3.456,0,0,0,.086.761A9.45,9.45,0,0,1,7.109,7.055a3.244,3.244,0,0,0-.45,1.674A3.33,3.33,0,0,0,8.139,11.5a3.344,3.344,0,0,1-1.507-.417v.041A3.337,3.337,0,0,0,9.3,14.389a3.391,3.391,0,0,1-.877.115,3.351,3.351,0,0,1-.619-.058,3.338,3.338,0,0,0,3.114,2.311,6.715,6.715,0,0,1-4.127,1.424A7.028,7.028,0,0,1,6,18.136Z" fill="#fff"/>
</svg>
