<svg xmlns="http://www.w3.org/2000/svg" xmlns:xlink="http://www.w3.org/1999/xlink" width="260.732" height="253.027" viewBox="0 0 260.732 253.027">
  <defs>
    <linearGradient id="linear-gradient" x1="1.086" y1="1.014" x2="0.335" y2="0.363" gradientUnits="objectBoundingBox">
      <stop offset="0" stop-color="#dae3fe"/>
      <stop offset="1" stop-color="#e9effd"/>
    </linearGradient>
    <clipPath id="clip-path">
      <path id="Path_1743" data-name="Path 1743" d="M786.235,87.179H772.8L777.006,70.3h13.436Z" transform="translate(-772.8 -70.3)" fill="none"/>
    </clipPath>
  </defs>
  <g id="Group_68" data-name="Group 68" transform="translate(-122.254 -2009)">
    <path id="Path_1846" data-name="Path 1846" d="M193.508,134.934c-17.279,40.684-63.3,63.473-103.219,57.328-6.495-1-24.3-3.979-40.065-18.039C19.877,147.158,13.386,93.568,37.867,55.8c17.818-27.488,49.757-43.066,80.106-42.289,6.538.168,31.591,1.2,53.608,19.358a82.56,82.56,0,0,1,16.8,19.056C203.471,75.531,204.769,108.419,193.508,134.934Z" transform="matrix(0.719, 0.695, -0.695, 0.719, 247.785, 1983.405)" fill="url(#linear-gradient)"/>
    <g id="Group_65" data-name="Group 65" transform="translate(-408.142 283.946)">
      <g id="Layer_2" data-name="Layer 2" transform="translate(530.396 1813.826)">
        <g id="Layer_1" data-name="Layer 1" transform="translate(0)">
          <path id="Path_1684" data-name="Path 1684" d="M36.323,263.554s-25.451,4.674-33.549-13.007c-10.51-22.939,11.083-40.332,27.643-37.091,36.086,7.061,27.395-70.837,85.309-54.939,16.285,4.47,60.283-22.086,72.554,20.494,2.918,10.125,13.256,11.24,28.264,17.667,29.371,12.573,15.942,67.09-5.046,67.3S36.323,263.554,36.323,263.554Z" transform="translate(-0.002 -140.885)" fill="#ebf2f9"/>
          <rect id="Rectangle_264" data-name="Rectangle 264" width="14.988" height="55.85" transform="translate(177.512 122.974) rotate(180)" fill="#82b479"/>
          <rect id="Rectangle_265" data-name="Rectangle 265" width="11.013" height="55.85" transform="translate(166.539 122.974) rotate(180)" fill="#a8d29f"/>
          <circle id="Ellipse_29" data-name="Ellipse 29" cx="2.458" cy="2.458" r="2.458" transform="translate(158.759 114.598)" fill="#82b479"/>
          <rect id="Rectangle_266" data-name="Rectangle 266" width="14.988" height="55.85" transform="translate(199.498 122.974) rotate(180)" fill="#699dee"/>
          <rect id="Rectangle_267" data-name="Rectangle 267" width="11.013" height="55.85" transform="translate(188.525 122.974) rotate(180)" fill="#afcdfb"/>
          <circle id="Ellipse_30" data-name="Ellipse 30" cx="2.458" cy="2.458" r="2.458" transform="translate(180.745 114.598)" fill="#699dee"/>
          <rect id="Rectangle_268" data-name="Rectangle 268" width="4.917" height="29.315" transform="translate(180.745 72.807)" fill="#fff"/>
          <rect id="Rectangle_269" data-name="Rectangle 269" width="14.988" height="55.85" transform="translate(221.227 122.974) rotate(180)" fill="#d86713"/>
          <rect id="Rectangle_270" data-name="Rectangle 270" width="11.013" height="55.85" transform="translate(210.253 122.974) rotate(180)" fill="#f1a34f"/>
          <circle id="Ellipse_31" data-name="Ellipse 31" cx="2.458" cy="2.458" r="2.458" transform="translate(202.474 114.598)" fill="#d86713"/>
          <rect id="Rectangle_271" data-name="Rectangle 271" width="4.917" height="29.315" transform="translate(202.474 72.807)" fill="#fff"/>
          <rect id="Rectangle_272" data-name="Rectangle 272" width="4.917" height="29.315" transform="translate(158.574 73.182)" fill="#fff"/>
          <path id="Path_1685" data-name="Path 1685" d="M1208.023,637.535l5.285,62.833s.554,3.809-2.28,3.816c-4.658.011-23.185,0-23.185,0s3.506-.793,3.464-2.577c-.05-2.1-6.177-64.667-6.177-64.667Z" transform="translate(-1081.48 -581.234)" fill="#d86713"/>
          <path id="Path_1686" data-name="Path 1686" d="M1170.282,691.153c.917,0,18.612.059,23.149,0,1.977-.024,2.324-1.757,2.34-2.879a5.625,5.625,0,0,0-.06-.935l-.137-1.634-.35-4.162-.309-3.678-.4-4.723-.335-3.989-3.759-44.65-22.893-.594s2.58,26.183,4.405,45.241c.2,2.124.4,4.16.576,6.061.059.606.114,1.2.169,1.777.169,1.8.324,3.459.458,4.921.071.771.136,1.487.2,2.143.233,2.57.369,4.212.371,4.523a2.657,2.657,0,0,1-.045.509C1173.285,691.086,1170.624,691.153,1170.282,691.153Z" transform="translate(-1065.419 -569.344)" fill="#ee9849"/>
          <path id="Path_1687" data-name="Path 1687" d="M595.317,252.8H705.229l-12.872,51.7-1.762,7.081L684.6,335.667H573.22Z" transform="translate(-523.087 -230.69)" fill="#f1a34f"/>
          <path id="Path_1688" data-name="Path 1688" d="M1867.35,252.8l1.784.595-20.042,84.071-2.372-1.8Z" transform="translate(-1685.208 -230.69)" fill="#ee9849"/>
          <path id="Path_1689" data-name="Path 1689" d="M686.971,1202.1H576.277l-3.057-1.8H684.6Z" transform="translate(-523.087 -1095.323)" fill="#d86713"/>
          <rect id="Rectangle_273" data-name="Rectangle 273" width="23.967" height="1.139" transform="translate(101.045 121.835)" fill="#f1a34f"/>
          <path id="Path_1690" data-name="Path 1690" d="M1225,1220.86l.124.87,22.539,4.554-.309-3.678-.148-1.746Z" transform="translate(-1117.863 -1114.085)" fill="#d86713"/>
          <path id="Path_1691" data-name="Path 1691" d="M1199,1318.68c.917,0,18.612.059,23.149,0,1.977-.025,2.324-1.757,2.34-2.879l-22.433-4.221c.233,2.57.369,4.212.371,4.523a2.666,2.666,0,0,1-.045.509C1202,1318.613,1199.341,1318.68,1199,1318.68Z" transform="translate(-1094.137 -1196.87)" fill="#d86713" opacity="0.4"/>
          <path id="Path_1692" data-name="Path 1692" d="M1303.84,1014.06l47.48,16.28,4.055-16.289Z" transform="translate(-1189.808 -925.362)" fill="#d86713" opacity="0.4"/>
          <path id="Path_1693" data-name="Path 1693" d="M639.8,252.8H749.715l-16.565,66.578-111.18.021Z" transform="translate(-567.573 -230.69)" fill="#f1a34f"/>
          <path id="Path_1694" data-name="Path 1694" d="M1175.626,1079.7a3.766,3.766,0,0,1,3.532-2.957,2.366,2.366,0,0,1,2.382,2.957,3.766,3.766,0,0,1-3.532,2.957A2.366,2.366,0,0,1,1175.626,1079.7Z" transform="translate(-1072.756 -982.569)" fill="#d86713"/>
          <path id="Path_1695" data-name="Path 1695" d="M681.24,353.726H784.151L795.806,307.3l.893-3.56.763-3.037,1.788-7.121H697.82l-1.963,7.121-.837,3.037-.981,3.56Z" transform="translate(-621.66 -267.904)" fill="#e9f3fe"/>
          <path id="Path_1696" data-name="Path 1696" d="M850.343,293.58H951.771l-1.788,7.121H848.38Z" transform="translate(-774.182 -267.904)" fill="#a8d29f"/>
          <path id="Path_1697" data-name="Path 1697" d="M1963.048,320.2a.674.674,0,0,1,.668.89,1.213,1.213,0,0,1-1.112.89.674.674,0,0,1-.668-.89A1.213,1.213,0,0,1,1963.048,320.2Z" transform="translate(-1790.323 -292.196)" fill="#e9f3fe"/>
          <path id="Path_1698" data-name="Path 1698" d="M1929.228,320.2a.674.674,0,0,1,.668.89,1.212,1.212,0,0,1-1.112.89.674.674,0,0,1-.668-.89A1.213,1.213,0,0,1,1929.228,320.2Z" transform="translate(-1759.46 -292.196)" fill="#e9f3fe"/>
          <path id="Path_1699" data-name="Path 1699" d="M1891.708,321.09a1.216,1.216,0,0,1,1.112-.89.675.675,0,0,1,.669.89,1.212,1.212,0,0,1-1.113.89A.672.672,0,0,1,1891.708,321.09Z" transform="translate(-1726.236 -292.196)" fill="#e9f3fe"/>
          <g id="man" transform="translate(21.345 41.957)">
            <path id="Path_1700" data-name="Path 1700" d="M245.138,1326.912s-1.312,1.214-1.049,2.077,1.438,1.438,1.6,2.492.8,1.629,1.374,1.629H249.8s.423-.742-.6-.962-1.408-1.462-1.344-2.612a20.647,20.647,0,0,0-.1-2.684l-2.172-.512Z" transform="translate(-244.053 -1252.296)" fill="#233862"/>
            <path id="Path_1701" data-name="Path 1701" d="M446.967,1362.458h-7.28a.6.6,0,0,1-.142-.043c-.485-.242-.334-2.1-.275-2.675.011-.107.019-.169.019-.169s2.556-2.045,2.908-.479c.01.049.024.1.038.144.443,1.465,2.427,2.13,3.573,2.316A1.246,1.246,0,0,1,446.967,1362.458Z" transform="translate(-422.133 -1281.646)" fill="#233862"/>
            <path id="Path_1702" data-name="Path 1702" d="M398.087,917.459s-.388,4.844-.844,10.67c-.62,7.909-1.366,17.624-1.44,19.464-.128,3.2-.639,8.309-.639,8.309a4.013,4.013,0,0,1-3.643.7,83.627,83.627,0,0,1-2.783-15.018l-.029-.381c-.575-7.861-1.469-24.412-1.469-24.412Z" transform="translate(-374.717 -878.565)" fill="#699dee"/>
            <path id="Path_1703" data-name="Path 1703" d="M398.087,917.486s-.388,4.844-.844,10.67l-8.5,13.456-.029-.381c-.575-7.861-1.469-24.412-1.469-24.412Z" transform="translate(-374.717 -878.592)" fill="#4a75cb"/>
            <path id="Path_1704" data-name="Path 1704" d="M276.973,897.993s-7,17.541-11.6,25.785-6.039,10.544-6.039,10.544-2.636-1.055-2.876-1.774c0,0,1.76-15.917,4.841-19.794,1.741-2.192,3.786-8.77,3.882-11.071s.623-6.853.623-6.853Z" transform="translate(-255.375 -858.526)" fill="#699dee"/>
            <path id="Path_1705" data-name="Path 1705" d="M558.394,875.65l.4.8a1.791,1.791,0,0,1,1.474,2.405s-.3.875-.862.6a12.483,12.483,0,0,0-1.089-.624,1.6,1.6,0,0,1-1.089-1.74l-.129-.693Z" transform="translate(-529.721 -841.023)" fill="#ffb27d"/>
            <path id="Path_1706" data-name="Path 1706" d="M391.305,561.047a20.539,20.539,0,0,0,.321-2.926l-3.557-2.861a7.115,7.115,0,0,1-2.389,5.826s4.732,2.329,7.466,1.467A6.547,6.547,0,0,0,391.305,561.047Z" transform="translate(-373.293 -548.654)" fill="#ffb27d"/>
            <path id="Path_1707" data-name="Path 1707" d="M406.821,509.27s-4.516.75-4.941-2.069-1.293-4.622,1.574-5.22,3.586.394,3.959,1.3S407.985,509,406.821,509.27Z" transform="translate(-387.655 -499.868)" fill="#ffb27d"/>
            <path id="Path_1708" data-name="Path 1708" d="M388.963,487.257a4.67,4.67,0,0,1,4.206-4.383c2.819-.415,1.112-2.771.787-3.143,0,0-2.155.411-4.36.895C384.973,481.641,388.476,486.7,388.963,487.257Z" transform="translate(-374.711 -479.73)" fill="#163560"/>
            <path id="Path_1709" data-name="Path 1709" d="M400.434,665.806a7.688,7.688,0,0,0,1.049-1.426s-5.131-6.375-5.548-7.036-3.534-11.267-3.534-11.267l-7.881-1.6s6.579,13.573,7.668,15.227c1.8,2.734,7.188,6.8,7.188,6.8A3.246,3.246,0,0,0,400.434,665.806Z" transform="translate(-372.235 -630.071)" fill="#82b479"/>
            <path id="Path_1710" data-name="Path 1710" d="M371,637.087a.442.442,0,0,1-.287.109c-1.027-.014-4.023.556-6.555.3a18.836,18.836,0,0,1-6.057-1.749c-.269-.121-.89-.452-.875-.753.01-.331.042-.809.087-1.412a75.392,75.392,0,0,0,.15-9.857c-.044-.775-.067-1.543-.07-2.3-.021-5.636,1.077-10.621,3.323-12.3.192-.137,1.389.466,2.471,1a3.615,3.615,0,0,0,2.643.29l1.245.9a9.439,9.439,0,0,1,2.957,4.723,53.106,53.106,0,0,1,.89,8.763c.068,1.588.123,3.19.137,4.711v.054c.013.15.013.315.013.466C371.124,633.933,371.068,637.032,371,637.087Z" transform="translate(-347.329 -597.789)" fill="#a8d29f"/>
            <path id="Path_1711" data-name="Path 1711" d="M358.16,721.311a75.4,75.4,0,0,0,.15-9.858c-.044-.775-.067-1.543-.07-2.3.936-2.274,1.7-3.916,1.7-3.916H362.3S364.027,717.043,358.16,721.311Z" transform="translate(-348.18 -685.517)" fill="#82b479"/>
            <path id="Path_1712" data-name="Path 1712" d="M277.293,890.287l-.447.771a1.793,1.793,0,0,1-1.2,2.551s-.9.226-.972-.394.055-.377-.074-1.252a1.6,1.6,0,0,1,.858-1.865l.51-.488Z" transform="translate(-271.901 -853.762)" fill="#ffb27d"/>
            <path id="Path_1713" data-name="Path 1713" d="M279.986,638.992a7.7,7.7,0,0,0,1.769.1s2.521-7.784,2.845-8.5,7.487-9.131,7.487-9.131L289.1,614s-7.747,12.944-8.534,14.76c-1.3,3-1.749,9.741-1.749,9.741A3.238,3.238,0,0,0,279.986,638.992Z" transform="translate(-275.779 -602.257)" fill="#a8d29f"/>
          </g>
          <path id="Path_1714" data-name="Path 1714" d="M824.964,168.026H776.92l16.424-66.446h48.044Z" transform="translate(-708.971 -92.696)" fill="#afcdfb"/>
          <path id="Path_1715" data-name="Path 1715" d="M742.914,120.617H694.87L711.294,54.17h48.044Z" transform="translate(-634.097 -49.432)" fill="#c0d8f9"/>
          <path id="Path_1716" data-name="Path 1716" d="M654,66.447H605.96L622.384,0h48.044Z" transform="translate(-552.964)" fill="#d4e3f4"/>
          <path id="Path_1717" data-name="Path 1717" d="M845.452,101.58l-15.2,61.9-39.942.4,41.148.905Z" transform="translate(-721.19 -92.696)" fill="#699dee"/>
          <path id="Path_1718" data-name="Path 1718" d="M762.133,54.17l-14.441,61.311-39.942.4,40.62,1Z" transform="translate(-645.851 -49.432)" fill="#699dee"/>
          <path id="Path_1719" data-name="Path 1719" d="M786.235,87.179H772.8L777.006,70.3h13.436Z" transform="translate(-705.212 -64.152)" fill="#e9f3fe"/>
          <path id="Path_1720" data-name="Path 1720" d="M1025.973,72.633H1001.9l.592-2.333h24.073Z" transform="translate(-914.275 -64.152)" fill="#afcdfb"/>
          <path id="Path_1721" data-name="Path 1721" d="M1013.554,127.373H989.48l.592-2.333h24.074Z" transform="translate(-902.941 -114.104)" fill="#afcdfb"/>
          <path id="Path_1722" data-name="Path 1722" d="M1000.574,182.112H976.5l.593-2.332h24.073Z" transform="translate(-891.096 -164.057)" fill="#afcdfb"/>
          <path id="Path_1723" data-name="Path 1723" d="M985.343,236.852H961.27l.592-2.332h24.073Z" transform="translate(-877.198 -214.009)" fill="#afcdfb"/>
          <path id="Path_1724" data-name="Path 1724" d="M776.709,293.852H732.64l.593-2.332H777.3Z" transform="translate(-668.564 -266.024)" fill="#afcdfb"/>
          <path id="Path_1725" data-name="Path 1725" d="M763.259,350.843H719.19l.593-2.333h44.068Z" transform="translate(-656.291 -318.03)" fill="#afcdfb"/>
          <path id="Path_1726" data-name="Path 1726" d="M744.639,415.032H700.57l.592-2.332h44.069Z" transform="translate(-639.299 -376.606)" fill="#afcdfb"/>
          <path id="Path_1727" data-name="Path 1727" d="M727.709,470.452H683.64l.592-2.332H728.3Z" transform="translate(-623.85 -427.179)" fill="#afcdfb"/>
          <g id="Group_64" data-name="Group 64" transform="translate(67.588 6.148)" clip-path="url(#clip-path)">
            <path id="Path_1728" data-name="Path 1728" d="M935.436,279.664s.787-.359,1.095-.25,1.142.471,1.124.832-1.358.761-2.252.324S935.436,279.664,935.436,279.664Z" transform="translate(-920.827 -261.106)" fill="#e49963"/>
            <path id="Path_1729" data-name="Path 1729" d="M885.269,181.594a.554.554,0,0,1-.056.125c-.262.427-4.635.449-5.131.087-.223-.16-.291-2.37-.3-4.764-.009-2.96.076-6.2.076-6.2s1.708.793,1.792,1.769-.636,6.842-.136,7.2,2.8.4,3.569.631A2.052,2.052,0,0,1,885.269,181.594Z" transform="translate(-870.426 -162.047)" fill="#a8d2a0"/>
            <path id="Path_1730" data-name="Path 1730" d="M849.686,87.339a1.651,1.651,0,0,0-1.1-.362.531.531,0,0,1,.253-.082,1.759,1.759,0,0,0-.646.081s-1.526-1.05-2.561,1c0,0,.151-.145.35-.305-.6,1.177-.4,3.1.938,3.613C847.789,91.616,852.747,90.529,849.686,87.339Z" transform="translate(-839.26 -85.272)" fill="#163560"/>
            <path id="Path_1731" data-name="Path 1731" d="M855.922,145.845a2.5,2.5,0,0,1-1.557.08,1.986,1.986,0,0,1-.887-1.1c.268-.018.39-.367.585-1.913l.115.038,1.937.652s-.126.62-.2,1.21C855.846,145.3,855.815,145.777,855.922,145.845Z" transform="translate(-846.422 -136.56)" fill="#e49963"/>
            <path id="Path_1732" data-name="Path 1732" d="M863.417,144s-.126.62-.2,1.21a2.378,2.378,0,0,1-1.733-1.861Z" transform="translate(-853.724 -136.961)" fill="#d68d5d"/>
            <path id="Path_1733" data-name="Path 1733" d="M854.212,99.313a5.885,5.885,0,0,1-.5-1.8,2.025,2.025,0,0,1,2.586-2.052,2.864,2.864,0,0,1,1.122.6c.415.366.986,1.114.016,2.838l-.27.59Z" transform="translate(-846.633 -93.167)" fill="#163560"/>
            <path id="Path_1734" data-name="Path 1734" d="M861.6,109.647s-2.638-.3-2.427-1.938.012-2.783,1.705-2.661,1.94.787,2,1.353S862.3,109.683,861.6,109.647Z" transform="translate(-851.61 -102.001)" fill="#e49963"/>
            <path id="Path_1735" data-name="Path 1735" d="M888.991,198.112c-.022-.192.39-.282.465-.1a3.619,3.619,0,0,1,.156,1.056,6.716,6.716,0,0,1-.275,2.118Z" transform="translate(-878.829 -186.752)" fill="#82b479"/>
            <path id="Path_1736" data-name="Path 1736" d="M854.826,102.321c-.342-.546-.663-.478-.855-.35-.458-.924-2.416.073-2.416.073a3.16,3.16,0,0,1-1.265,1.718,2.2,2.2,0,0,0,1.585.217c.9-.11,1.692-1.268,1.989-1.756a2.124,2.124,0,0,1,.485.852c.077.437.024,1.3.279,1.3C854.628,104.376,855.337,103.139,854.826,102.321Z" transform="translate(-843.513 -98.843)" fill="#163560"/>
            <path id="Path_1737" data-name="Path 1737" d="M881.84,144.829s.022.214.544.249c0,0,.437.03.455-.2A1.413,1.413,0,0,0,881.84,144.829Z" transform="translate(-872.304 -138.252)" fill="#fff"/>
            <path id="Path_1738" data-name="Path 1738" d="M886.7,240.982a.558.558,0,0,1-.056.125c-.262.427-4.635.449-5.131.087-.223-.16-.3-2.906.319-5.275.146,1.419-.122,4.256.622,4.488C883.3,240.673,885.6,240.678,886.7,240.982Z" transform="translate(-871.858 -221.435)" fill="#82b479"/>
            <path id="Path_1739" data-name="Path 1739" d="M791.945,171.1c-1.733,5.005-.944,5.91-1.563,6.344,0,0-.525.15-.525.152-.643.426-.578-.183-2.5.369a31.591,31.591,0,0,1-3.094.787,6.118,6.118,0,0,1-1.043.1c-.593-.007-1.015-.165-1.105-.578-.262-1.2,2.111-3.984,1.885-6.122L784,172.09a2.274,2.274,0,0,1,.057-.622,13.274,13.274,0,0,1,2.136-4.074,13.87,13.87,0,0,1,2.149-2.594c2.037,1.6,2.378.533,2.378.533S792.536,169.389,791.945,171.1Z" transform="translate(-781.285 -156.533)" fill="#a8d2a0"/>
            <path id="Path_1740" data-name="Path 1740" d="M790.052,215.489h0c-.642.426-.763-.134-2.681.418a31.6,31.6,0,0,1-3.094.787,6.133,6.133,0,0,0-1.043.1c-.593-.007-1.015-.165-1.106-.578-.262-1.2,2.111-3.984,1.885-6.122l-.005-.055a1.935,1.935,0,0,1,.057-.622,11.615,11.615,0,0,1,1.9-3.033c.423.582,4.183.458,2.649,5.464C788.145,213.374,789.981,214.241,790.052,215.489Z" transform="translate(-781.294 -194.479)" fill="#82b479"/>
            <path id="Path_1741" data-name="Path 1741" d="M866.079,313.051a2.75,2.75,0,0,1,1.189.112c.352.2,1.045.681.95.875s-.991.194-1.336-.06-.653-.029-1.088-.24S866.079,313.051,866.079,313.051Z" transform="translate(-857.534 -291.803)" fill="#e49963"/>
            <path id="Path_1742" data-name="Path 1742" d="M805.346,164.366s-3-.35-3.723,1.028-1.217,6.472-.631,8.1,4.776,4.27,5.261,4.417.893-.576.883-.662-4.185-4.466-4.111-4.855S805.346,164.366,805.346,164.366Z" transform="translate(-798.29 -156.103)" fill="#a8d2a0"/>
          </g>
          <path id="Path_1744" data-name="Path 1744" d="M1970.494,1313.69l-1.071,4.512-1.6-.01-.058-4.5Z" transform="translate(-1795.662 -1198.796)" fill="#e49963"/>
          <path id="Path_1745" data-name="Path 1745" d="M1800.506,1309.694l-3.048,4.32-1.188-1.525,1.834-3.388Z" transform="translate(-1639.17 -1194.607)" fill="#e49963"/>
          <path id="Path_1746" data-name="Path 1746" d="M1917.152,630.554a3.1,3.1,0,0,1,1.682-.322.787.787,0,0,0-.355-.168,2.612,2.612,0,0,1,.931.242c4.005-1.543,4.635,4.354,4.548,5.724s1.346,1.817,3.429,2.9c3.976,2.06,4.325,4.817,4.325,4.817q-.046.028-.1.063c-.2-.334-.6-.962-.946-1.057a14.141,14.141,0,0,1,.551,1.342c-1.173.892-3.367,2.87-4.9,4.271a2.165,2.165,0,0,0-.1-.868l-.189,1.137c-.819.752-1.383,1.282-1.383,1.282.1-1.107-5.007-6.95-7.672-8.7a7.71,7.71,0,0,1-.9-2.775,7.291,7.291,0,0,0,.546,2.511C1914.37,638.874,1915.684,631.388,1917.152,630.554Z" transform="translate(-1747.892 -574.947)" fill="#163560"/>
          <path id="Path_1747" data-name="Path 1747" d="M1935.119,717.525a3.688,3.688,0,0,0,2.264.414,2.939,2.939,0,0,0,1.509-1.446c-.39-.078-.5-.612-.494-2.913l-.175.035-2.961.586s.067.932.07,1.81C1935.333,716.748,1935.288,717.447,1935.119,717.525Z" transform="translate(-1765.875 -651.171)" fill="#e49963"/>
          <path id="Path_1748" data-name="Path 1748" d="M1936.74,714.566s.067.932.07,1.809c1.656-.046,2.536-1.558,2.891-2.4Z" transform="translate(-1767.355 -651.536)" fill="#d68d5d"/>
          <path id="Path_1749" data-name="Path 1749" d="M1920.555,646.782a8.7,8.7,0,0,0,1.077-2.545c.149-.838-.278-3.943-3.4-3.5a4.237,4.237,0,0,0-1.758.665c-.678.457-1.655,1.446-.561,4.154l.283.916Z" transform="translate(-1747.902 -584.661)" fill="#163560"/>
          <path id="Path_1750" data-name="Path 1750" d="M1801.8,979.96l1.569.048,1.7.052a33.547,33.547,0,0,0,6.122-11.37q.077-.244.163-.494c1.205-3.513,3.7-7.922,5.018-11.914.21-.636.4-1.234.567-1.8.054-.182.107-.359.157-.535A42.521,42.521,0,0,0,1818.61,946l-9.5.076A177.3,177.3,0,0,1,1801.8,979.96Z" transform="translate(-1644.217 -863.264)" fill="#2b478b"/>
          <path id="Path_1751" data-name="Path 1751" d="M1886.17,755.941a21.328,21.328,0,0,1-.664,6.463,12.772,12.772,0,0,0,8.906.546c.057-.018,3.637-.736,3.637-.736-.081-.183-1.069-3.312-1.147-3.48a13.47,13.47,0,0,1-1.283-3.93,14.336,14.336,0,0,1-.117-3.79,30.375,30.375,0,0,1,1.173-5.947,30.916,30.916,0,0,1-3.923-1.341,3.078,3.078,0,0,1-2.116.787c-.962-.021-1.276-.433-1.224-.883-1.027.571-1.845,1.111-1.845,1.111-.875,1.516-2.642,2.988-2.771,5.312C1884.761,750.62,1886.169,755.819,1886.17,755.941Z" transform="translate(-1719.952 -678.593)" fill="#e7f1fd"/>
          <path id="Path_1752" data-name="Path 1752" d="M1753.45,749.167c1.4-1.629,5.01-5.16,8.74-5.6l-3.219,6.271a2.771,2.771,0,0,1-1.137,1.7,18.605,18.605,0,0,1-5.3,2.212,27.714,27.714,0,0,1-4.758-2.886,16.49,16.49,0,0,1-2.379-3.043l.409-1.368s2.569,1.437,3.491,1.85c.525.237,1.73.8,2.58,1.2A1.327,1.327,0,0,0,1753.45,749.167Z" transform="translate(-1592.749 -678.538)" fill="#699dee"/>
          <path id="Path_1753" data-name="Path 1753" d="M1916.79,661.164s3.92.065,3.923-2.377.511-4.078-1.992-4.222-2.99.787-3.19,1.6S1915.77,661.085,1916.79,661.164Z" transform="translate(-1747.957 -597.303)" fill="#e49963"/>
          <path id="Path_1754" data-name="Path 1754" d="M1932.08,648.834s1.073,2.865,2.72,3.288a3.247,3.247,0,0,0,2.362-.017,4.666,4.666,0,0,1-1.526-2.756S1932.889,647.473,1932.08,648.834Z" transform="translate(-1763.102 -591.636)" fill="#163560"/>
          <path id="Path_1755" data-name="Path 1755" d="M1914.4,651.816a3.451,3.451,0,0,0-1,1.262c-.2.623-.283,1.9-.657,1.858,0,0-.809-1.948.1-3.05C1913.815,650.719,1914.4,651.816,1914.4,651.816Z" transform="translate(-1745.161 -594.383)" fill="#163560"/>
          <path id="Path_1756" data-name="Path 1756" d="M1714.4,758.4a2.447,2.447,0,0,0-2.743-1.711c-.251.079-.986.372-.516,1.158.35.579.5.28,1.04,1.059a1.735,1.735,0,0,0,1.81.861Z" transform="translate(-1561.344 -690.482)" fill="#e49963"/>
          <path id="Path_1757" data-name="Path 1757" d="M1965.735,1362.4a4.34,4.34,0,0,0,.2,1.85s.262,1.2-.916,1.218-1.468-.087-1.335-.823.387-2,.387-2Z" transform="translate(-1791.92 -1243.246)" fill="#e49963"/>
          <path id="Path_1758" data-name="Path 1758" d="M1962.721,1384.96s.025.016.073.039h2.312a.549.549,0,0,0,.066-.039,5.766,5.766,0,0,0-.087-1.73c-1.335,1.224-2.17-.03-2.17-.03A6.206,6.206,0,0,0,1962.721,1384.96Z" transform="translate(-1791.062 -1262.227)" fill="#d86713"/>
          <path id="Path_1759" data-name="Path 1759" d="M1763.782,1351.478a29.506,29.506,0,0,0,2.84-3.638l1.615.827-3.611,3.392-.846-.111Z" transform="translate(-1609.521 -1229.959)" fill="#e49963"/>
          <path id="Path_1760" data-name="Path 1760" d="M1748.38,1361.4h2.974a4.224,4.224,0,0,0,.886-1.374,1.467,1.467,0,0,1,.984-.657v2.012h.612l.584-2.135a1.965,1.965,0,0,0-.24-1.907c-.315,0-1.161.215-2.766,2.024a2.1,2.1,0,0,1-1.689.787l-.024.013A2.143,2.143,0,0,0,1748.38,1361.4Z" transform="translate(-1595.469 -1238.628)" fill="#d86713"/>
          <path id="Path_1761" data-name="Path 1761" d="M1875.672,743.57s-2.268,5.6-2.335,6.734-.262,18.541-.262,18.541.134.8-1.4.467a5.177,5.177,0,0,1-1.935-.667s1.468-10.739,1.067-14.475,3.066-9.822,3.066-9.822Z" transform="translate(-1706.215 -678.538)" fill="#699dee"/>
          <path id="Path_1762" data-name="Path 1762" d="M1819.74,1051.862l1.7.052a33.547,33.547,0,0,0,6.122-11.37q.077-.244.163-.494c1.205-3.513,3.7-7.922,5.018-11.914.21-.636.4-1.234.567-1.8.054-.182.107-.359.157-.535l-1.4-1.062s-4.2,6.8-5.5,13.206C1825.437,1043.505,1820.912,1050.2,1819.74,1051.862Z" transform="translate(-1660.588 -935.117)" fill="#233862"/>
          <path id="Path_1763" data-name="Path 1763" d="M1949.268,1019.65c-.025,3.114.133,10.273.539,13.237h1.505c.832,0,1.246-.012,1.246-.012,1.018-5.153,1.741-9.418,2.269-13.092.432-3.015.816-5.6,1.112-7.825s.5-4.111.578-5.7c.011-.249.02-.492.025-.728s.005-.467,0-.691l-8.211-.8C1948.437,1009.5,1949.281,1017.84,1949.268,1019.65Z" transform="translate(-1777.931 -916.228)" fill="#2b478b"/>
          <path id="Path_1764" data-name="Path 1764" d="M1982.42,1056.038c.832,0,1.246-.012,1.246-.012,1.018-5.153,1.741-9.418,2.269-13.092.432-3.015.816-5.6,1.112-7.825s.5-4.111.578-5.7l-3.013,1.772s1.924.679,1.189,5.815S1983.442,1055.31,1982.42,1056.038Z" transform="translate(-1809.04 -939.379)" fill="#233862"/>
          <path id="Path_1765" data-name="Path 1765" d="M1948.689,769.75a2.445,2.445,0,0,0,2.58,1.823,24.2,24.2,0,0,0,4.847-1.467s-.855-2.7-1.919-6.253c-1.289-4.3-2.884-9.838-3.634-13.329a21.678,21.678,0,0,1-.409-2.382l-1.662-3.222s-2.475,5.556-2.609,6.957S1948.689,769.75,1948.689,769.75Z" transform="translate(-1775.695 -679.77)" fill="#699dee"/>
          <path id="Path_1766" data-name="Path 1766" d="M1978.981,813.285c.087,2.268.623,6.671,5.381,9.028l.037.018c-1.287-4.3-2.883-9.84-3.632-13.331C1979.895,810.3,1978.932,812.035,1978.981,813.285Z" transform="translate(-1805.9 -738.246)" fill="#4a75cb"/>
          <rect id="Rectangle_274" data-name="Rectangle 274" width="2.123" height="8.44" transform="translate(144.822 58.049) rotate(-45)" fill="#2b478b"/>
          <rect id="Rectangle_275" data-name="Rectangle 275" width="6.015" height="46.575" rx="3.008" transform="translate(148.349 64.328) rotate(-45)" fill="#c65447"/>
          <path id="Path_1767" data-name="Path 1767" d="M1184.093,174.8a24.959,24.959,0,1,0,35.3,0A24.959,24.959,0,0,0,1184.093,174.8Zm33.353,33.353a22.21,22.21,0,1,1,0-31.409A22.21,22.21,0,0,1,1217.446,208.15Z" transform="translate(-1073.862 -152.838)" fill="#c65447"/>
          <path id="Path_1768" data-name="Path 1768" d="M1920.161,751.588l-2.187-6.748a33.405,33.405,0,0,1,4.157,1.523,9.682,9.682,0,0,1,1.406,3.7s.568,6.2-.7,8.469c0,0-4,.8-10.408-1.4v-1.466s7,.366,8.439.534Z" transform="translate(-1745.171 -679.697)" fill="#e49963"/>
          <path id="Path_1769" data-name="Path 1769" d="M1973.33,744.87s4.062.287,5.04,2.465,1.29,9.428.045,11.563a11.342,11.342,0,0,1-4.746-.079l-.112-.022s-.967-2.367-.1-2.835c0,0,2.557.133,2.291-.712S1973.33,744.87,1973.33,744.87Z" transform="translate(-1800.53 -679.724)" fill="#699dee"/>
          <path id="Path_1770" data-name="Path 1770" d="M1884.053,844.089a3.5,3.5,0,0,1-.677-1.367,1.484,1.484,0,0,0-1.452-1.329c-.964-.126-1.377-.141-1.374.131a7.19,7.19,0,0,0,2.169,3.3C1884.1,845.956,1884.053,844.089,1884.053,844.089Z" transform="translate(-1716.079 -767.727)" fill="#e49963"/>
          <path id="Path_1771" data-name="Path 1771" d="M1264.265,223.35l-29.745,29.745a22.306,22.306,0,0,0,1.662,2.818l30.9-30.9A22.172,22.172,0,0,0,1264.265,223.35Z" transform="translate(-1126.55 -203.816)" fill="#fff" opacity="0.4"/>
          <path id="Path_1772" data-name="Path 1772" d="M1238.343,198.659a22.234,22.234,0,0,0-28.594,28.6Z" transform="translate(-1102.669 -180.007)" fill="#fff" opacity="0.4"/>
          <path id="Path_1773" data-name="Path 1773" d="M1349.85,368.434a22.217,22.217,0,0,0,29.758-29.754Z" transform="translate(-1231.794 -309.059)" fill="#fff" opacity="0.4"/>
          <path id="Path_1774" data-name="Path 1774" d="M44.2,1404.172H269.618a.2.2,0,0,0,.2-.2h0a.2.2,0,0,0-.2-.2H44.2a.2.2,0,0,0-.2.2h0A.2.2,0,0,0,44.2,1404.172Z" transform="translate(-40.152 -1280.997)" fill="#283250"/>
        </g>
      </g>
      <g id="Layer_2-2" data-name="Layer 2" transform="translate(728.221 1844.687) rotate(11)">
        <g id="Слой_1" data-name="Слой 1">
          <rect id="Rectangle_282" data-name="Rectangle 282" width="2.406" height="32.868" transform="translate(0 4.252)" fill="#303030"/>
          <rect id="Rectangle_283" data-name="Rectangle 283" width="35.344" height="19.675" fill="#3f3fbc"/>
          <path id="Path_1838" data-name="Path 1838" d="M31.207,18.452H28.516L0,1.591V0Z" transform="translate(0 1.222)" fill="#e7e7e8"/>
          <path id="Path_1839" data-name="Path 1839" d="M35.344,19.59v.085H31.207L0,1.222V0H2.222Z" fill="#f42530"/>
          <path id="Path_1840" data-name="Path 1840" d="M33.122,16.861V19.59L0,0H4.613Z" transform="translate(2.222 0)" fill="#e7e7e8"/>
          <path id="Path_1841" data-name="Path 1841" d="M31.207,0V1.6L2.691,18.452H0Z" transform="translate(4.136 1.222)" fill="#e7e7e8"/>
          <path id="Path_1842" data-name="Path 1842" d="M35.344,0V1.222L4.136,19.675H0V19.59L33.122,0Z" fill="#f42530"/>
          <path id="Path_1843" data-name="Path 1843" d="M33.122,0,0,19.59V16.861L28.509,0Z" fill="#e7e7e8"/>
          <path id="Path_1844" data-name="Path 1844" d="M0,6.75H14.585V0h1.23V19.675h-1.23v-6.75H0Z" fill="#e7e7e8"/>
          <path id="Path_1845" data-name="Path 1845" d="M35.344,7.981v3.713H19.521v7.981H15.815V11.694H0V7.981H15.815V0h3.706V7.981Z" fill="#f42530"/>
        </g>
      </g>
    </g>
  </g>
</svg>
