<svg xmlns="http://www.w3.org/2000/svg" xmlns:xlink="http://www.w3.org/1999/xlink" width="252.986" height="253.027" viewBox="0 0 252.986 253.027">
  <defs>
    <linearGradient id="linear-gradient" x1="1.086" y1="1.014" x2="0.335" y2="0.363" gradientUnits="objectBoundingBox">
      <stop offset="0" stop-color="#dae3fe"/>
      <stop offset="1" stop-color="#e9effd"/>
    </linearGradient>
    <linearGradient id="linear-gradient-2" x1="0.456" y1="0.059" x2="0.513" y2="0.627" gradientUnits="objectBoundingBox">
      <stop offset="0" stop-color="#444b8c"/>
      <stop offset="1" stop-color="#26264f"/>
    </linearGradient>
    <linearGradient id="linear-gradient-3" x1="0.561" y1="-0.509" x2="0.438" y2="1.441" xlink:href="#linear-gradient-2"/>
    <linearGradient id="linear-gradient-4" x1="0.522" y1="0.114" x2="0.398" y2="2.065" xlink:href="#linear-gradient-2"/>
    <linearGradient id="linear-gradient-5" x1="0.543" y1="-0.521" x2="0.461" y2="1.43" xlink:href="#linear-gradient-2"/>
    <linearGradient id="linear-gradient-6" x1="0.543" y1="-0.521" x2="0.461" y2="1.43" gradientUnits="objectBoundingBox">
      <stop offset="0" stop-color="#aa80f9"/>
      <stop offset="1" stop-color="#6165d7"/>
    </linearGradient>
    <linearGradient id="linear-gradient-8" x1="0.56" y1="-0.933" x2="0.478" y2="1.023" xlink:href="#linear-gradient-2"/>
    <linearGradient id="linear-gradient-9" x1="0.543" y1="-0.524" x2="0.461" y2="1.433" xlink:href="#linear-gradient-6"/>
    <linearGradient id="linear-gradient-10" x1="0.543" y1="-0.524" x2="0.461" y2="1.433" xlink:href="#linear-gradient-2"/>
    <linearGradient id="linear-gradient-11" x1="0.515" y1="-3.029" x2="0.493" y2="2.238" xlink:href="#linear-gradient-2"/>
    <linearGradient id="linear-gradient-12" x1="0" y1="0.5" x2="1" y2="0.5" xlink:href="#linear-gradient-2"/>
    <linearGradient id="linear-gradient-13" x1="1.053" y1="0.177" x2="-0.437" y2="0.903" gradientUnits="objectBoundingBox">
      <stop offset="0" stop-color="#ff9085"/>
      <stop offset="1" stop-color="#fb6fbb"/>
    </linearGradient>
    <linearGradient id="linear-gradient-14" x1="0.87" y1="0.395" x2="-0.252" y2="0.793" gradientUnits="objectBoundingBox">
      <stop offset="0" stop-color="#ffc444"/>
      <stop offset="1" stop-color="#f36f56"/>
    </linearGradient>
    <linearGradient id="linear-gradient-15" x1="8.603" y1="-6.709" x2="9.536" y2="-6.709" xlink:href="#linear-gradient-13"/>
    <linearGradient id="linear-gradient-16" x1="8.462" y1="-5.275" x2="9.395" y2="-5.275" gradientUnits="objectBoundingBox">
      <stop offset="0" stop-color="#e38ddd"/>
      <stop offset="1" stop-color="#9571f6"/>
    </linearGradient>
    <linearGradient id="linear-gradient-17" x1="1.21" y1="0.592" x2="-2.156" y2="0.201" xlink:href="#linear-gradient-16"/>
    <linearGradient id="linear-gradient-18" x1="-0.113" y1="0.756" x2="1.98" y2="-0.07" xlink:href="#linear-gradient-14"/>
    <linearGradient id="linear-gradient-19" x1="-20.451" y1="-9.207" x2="-21.342" y2="-6.581" xlink:href="#linear-gradient-14"/>
    <linearGradient id="linear-gradient-20" x1="26.966" y1="-16.484" x2="26.133" y2="-13.596" xlink:href="#linear-gradient-14"/>
    <linearGradient id="linear-gradient-21" x1="-71.267" y1="-54.371" x2="-72.611" y2="-52.435" xlink:href="#linear-gradient-14"/>
    <linearGradient id="linear-gradient-22" x1="-51.221" y1="-44.571" x2="-52.237" y2="-42.238" xlink:href="#linear-gradient-13"/>
    <linearGradient id="linear-gradient-23" x1="-18.008" y1="-9.827" x2="-18.899" y2="-7.2" xlink:href="#linear-gradient-14"/>
    <linearGradient id="linear-gradient-24" x1="0.459" y1="0.268" x2="0.72" y2="1.66" xlink:href="#linear-gradient-14"/>
    <linearGradient id="linear-gradient-25" x1="-55.634" y1="16.222" x2="-55.419" y2="18.028" xlink:href="#linear-gradient-14"/>
    <linearGradient id="linear-gradient-26" x1="-14.002" y1="1.568" x2="-13.611" y2="3.083" xlink:href="#linear-gradient-13"/>
    <linearGradient id="linear-gradient-27" x1="-211.386" y1="5.449" x2="-211.386" y2="-4.095" xlink:href="#linear-gradient-14"/>
    <linearGradient id="linear-gradient-28" x1="-35.196" y1="0.284" x2="-35.366" y2="1.248" gradientUnits="objectBoundingBox">
      <stop offset="0" stop-color="#311944"/>
      <stop offset="1" stop-color="#893976"/>
    </linearGradient>
    <linearGradient id="linear-gradient-29" x1="-35.204" y1="0.284" x2="-35.375" y2="1.248" xlink:href="#linear-gradient-28"/>
    <linearGradient id="linear-gradient-30" x1="-98.468" y1="3.772" x2="-99.456" y2="-0.201" xlink:href="#linear-gradient-13"/>
    <linearGradient id="linear-gradient-31" x1="-57.288" y1="27.648" x2="-57.288" y2="17.545" xlink:href="#linear-gradient-14"/>
    <linearGradient id="linear-gradient-32" x1="-80.34" y1="12.244" x2="-82.376" y2="9.463" xlink:href="#linear-gradient-13"/>
    <linearGradient id="linear-gradient-33" x1="1.993" y1="0.532" x2="-0.419" y2="0.475" xlink:href="#linear-gradient-28"/>
    <linearGradient id="linear-gradient-34" x1="0.296" y1="-0.387" x2="0.53" y2="0.92" xlink:href="#linear-gradient-13"/>
    <linearGradient id="linear-gradient-35" x1="4.425" y1="1.776" x2="4.888" y2="3.542" xlink:href="#linear-gradient-13"/>
    <linearGradient id="linear-gradient-36" x1="-56.452" y1="1.295" x2="-57.104" y2="2.155" xlink:href="#linear-gradient-14"/>
    <linearGradient id="linear-gradient-37" x1="0.414" y1="0.252" x2="0.762" y2="1.822" xlink:href="#linear-gradient-13"/>
    <linearGradient id="linear-gradient-38" x1="-12.191" y1="1.25" x2="-11.657" y2="0.167" xlink:href="#linear-gradient-2"/>
    <linearGradient id="linear-gradient-39" x1="0" y1="0.5" x2="1" y2="0.5" xlink:href="#linear-gradient-6"/>
    <linearGradient id="linear-gradient-40" x1="-0.002" y1="0.5" x2="0.999" y2="0.5" xlink:href="#linear-gradient-14"/>
    <linearGradient id="linear-gradient-41" x1="0.443" y1="3.198" x2="0.515" y2="-0.318" gradientUnits="objectBoundingBox">
      <stop offset="0.1" stop-color="#311944"/>
      <stop offset="0.27" stop-color="#371b47"/>
      <stop offset="0.48" stop-color="#462150"/>
      <stop offset="0.72" stop-color="#612a5f"/>
      <stop offset="0.97" stop-color="#853774"/>
      <stop offset="1" stop-color="#893976"/>
    </linearGradient>
    <linearGradient id="linear-gradient-42" x1="0.952" y1="0.559" x2="17.361" y2="2.469" xlink:href="#linear-gradient-41"/>
    <linearGradient id="linear-gradient-43" x1="0" y1="0.5" x2="1" y2="0.5" xlink:href="#linear-gradient-14"/>
    <linearGradient id="linear-gradient-44" x1="0.862" y1="7.193" x2="-0.866" y2="-22.651" gradientUnits="objectBoundingBox">
      <stop offset="0.1" stop-color="#311944"/>
      <stop offset="0.69" stop-color="#6d2f66"/>
      <stop offset="1" stop-color="#893976"/>
    </linearGradient>
    <linearGradient id="linear-gradient-45" x1="2.394" y1="0.84" x2="-0.528" y2="0.306" xlink:href="#linear-gradient-28"/>
    <linearGradient id="linear-gradient-46" x1="-0.667" y1="0.097" x2="0.515" y2="0.582" xlink:href="#linear-gradient-28"/>
    <linearGradient id="linear-gradient-47" x1="0.441" y1="-0.481" x2="0.531" y2="0.934" xlink:href="#linear-gradient-44"/>
    <linearGradient id="linear-gradient-48" x1="0.202" y1="0.317" x2="0.936" y2="0.922" xlink:href="#linear-gradient-28"/>
    <linearGradient id="linear-gradient-49" x1="0.152" y1="0.494" x2="0.441" y2="0.471" xlink:href="#linear-gradient-44"/>
    <linearGradient id="linear-gradient-50" x1="0.588" y1="2.524" x2="0.488" y2="0.163" xlink:href="#linear-gradient-41"/>
    <linearGradient id="linear-gradient-51" x1="0.637" y1="3.156" x2="0.467" y2="-0.191" xlink:href="#linear-gradient-28"/>
    <linearGradient id="linear-gradient-52" x1="2.587" y1="1.55" x2="-0.601" y2="-0.029" xlink:href="#linear-gradient-14"/>
    <linearGradient id="linear-gradient-53" x1="-0.32" y1="0.224" x2="2.935" y2="1.315" xlink:href="#linear-gradient-14"/>
    <linearGradient id="linear-gradient-54" x1="0.513" y1="0.283" x2="-0.215" y2="2.777" xlink:href="#linear-gradient-13"/>
    <linearGradient id="linear-gradient-55" x1="-0.09" y1="1.844" x2="4.804" y2="-8.004" gradientUnits="objectBoundingBox">
      <stop offset="0" stop-color="#ffc444"/>
      <stop offset="0.42" stop-color="#faa04c"/>
      <stop offset="1" stop-color="#f36f56"/>
    </linearGradient>
    <linearGradient id="linear-gradient-56" x1="0.561" y1="0.227" x2="-0.464" y2="2.993" gradientUnits="objectBoundingBox">
      <stop offset="0" stop-color="#893976"/>
      <stop offset="1" stop-color="#311944"/>
    </linearGradient>
    <linearGradient id="linear-gradient-57" x1="0.473" y1="0.443" x2="-0.04" y2="2.697" xlink:href="#linear-gradient-56"/>
    <linearGradient id="linear-gradient-58" x1="0.745" y1="-0.469" x2="-0.011" y2="2.54" xlink:href="#linear-gradient-14"/>
    <linearGradient id="linear-gradient-59" x1="22.983" y1="-6.931" x2="22.007" y2="-11.207" xlink:href="#linear-gradient-6"/>
    <linearGradient id="linear-gradient-60" x1="34.234" y1="-25.087" x2="34.747" y2="-32.496" xlink:href="#linear-gradient-14"/>
    <linearGradient id="linear-gradient-61" x1="0.661" y1="2.068" x2="-0.033" y2="-4.205" xlink:href="#linear-gradient-6"/>
    <linearGradient id="linear-gradient-62" x1="0.174" y1="2.289" x2="0.992" y2="-3.454" xlink:href="#linear-gradient-14"/>
    <linearGradient id="linear-gradient-63" x1="0.417" y1="0.897" x2="0.825" y2="-0.203" xlink:href="#linear-gradient-2"/>
    <linearGradient id="linear-gradient-64" x1="1.075" y1="-0.327" x2="0.236" y2="0.86" xlink:href="#linear-gradient-6"/>
    <linearGradient id="linear-gradient-65" x1="0.5" y1="0.663" x2="0.5" y2="-0.546" xlink:href="#linear-gradient-14"/>
    <linearGradient id="linear-gradient-66" x1="0.326" y1="-2.676" x2="0.623" y2="2.001" xlink:href="#linear-gradient-2"/>
    <linearGradient id="linear-gradient-67" x1="0.5" y1="0.663" x2="0.5" y2="-0.547" xlink:href="#linear-gradient-2"/>
    <linearGradient id="linear-gradient-68" x1="-43.848" y1="-7.457" x2="-44.553" y2="-8.989" gradientUnits="objectBoundingBox">
      <stop offset="0" stop-color="#444b8c"/>
      <stop offset="1" stop-color="#3e4177"/>
    </linearGradient>
    <linearGradient id="linear-gradient-69" x1="0.705" y1="-0.619" x2="0.132" y2="2.734" xlink:href="#linear-gradient-14"/>
    <linearGradient id="linear-gradient-70" x1="36.661" y1="11.961" x2="35.969" y2="9.808" xlink:href="#linear-gradient-68"/>
    <linearGradient id="linear-gradient-71" x1="0.762" y1="0.148" x2="0.155" y2="0.863" xlink:href="#linear-gradient-6"/>
    <linearGradient id="linear-gradient-72" x1="0.817" y1="-0.496" x2="-0.101" y2="2.492" xlink:href="#linear-gradient-14"/>
    <linearGradient id="linear-gradient-73" x1="-5.587" y1="0.026" x2="-4.39" y2="1.044" gradientUnits="objectBoundingBox">
      <stop offset="0" stop-color="#311944"/>
      <stop offset="1" stop-color="#6b3976"/>
    </linearGradient>
    <linearGradient id="linear-gradient-74" x1="0" y1="0.5" x2="1" y2="0.5" xlink:href="#linear-gradient-16"/>
    <linearGradient id="linear-gradient-75" x1="-51.401" y1="-10.264" x2="-49.96" y2="-10.264" xlink:href="#linear-gradient-73"/>
    <linearGradient id="linear-gradient-76" x1="-84.794" y1="1.444" x2="-81.219" y2="-4.776" xlink:href="#linear-gradient-14"/>
    <linearGradient id="linear-gradient-77" x1="-70.442" y1="0.489" x2="-69.434" y2="0.489" xlink:href="#linear-gradient-73"/>
    <linearGradient id="linear-gradient-78" x1="-109.543" y1="3.053" x2="-107.011" y2="-0.821" xlink:href="#linear-gradient-14"/>
    <linearGradient id="linear-gradient-79" x1="-53.861" y1="12.946" x2="-51.516" y2="12.099" xlink:href="#linear-gradient-73"/>
    <linearGradient id="linear-gradient-80" x1="0.181" y1="-0.073" x2="0.41" y2="0.837" xlink:href="#linear-gradient-73"/>
    <linearGradient id="linear-gradient-81" x1="-6.812" y1="2.189" x2="-6.61" y2="1.012" xlink:href="#linear-gradient-73"/>
    <linearGradient id="linear-gradient-82" x1="-21.937" y1="24.122" x2="-20.945" y2="22.565" xlink:href="#linear-gradient-73"/>
    <linearGradient id="linear-gradient-83" x1="-0.259" y1="0.507" x2="0.738" y2="0.507" xlink:href="#linear-gradient-16"/>
    <linearGradient id="linear-gradient-84" x1="11.56" y1="-1.741" x2="11.611" y2="-3.501" xlink:href="#linear-gradient-14"/>
    <linearGradient id="linear-gradient-85" x1="22.212" y1="-4.249" x2="22.169" y2="-1.076" xlink:href="#linear-gradient-14"/>
    <linearGradient id="linear-gradient-86" x1="-0.259" y1="0.511" x2="0.738" y2="0.511" xlink:href="#linear-gradient-16"/>
    <linearGradient id="linear-gradient-87" x1="2.141" y1="0.54" x2="3.141" y2="0.54" xlink:href="#linear-gradient-68"/>
    <linearGradient id="linear-gradient-88" x1="0.431" y1="0.499" x2="1.428" y2="0.499" xlink:href="#linear-gradient-68"/>
    <linearGradient id="linear-gradient-89" x1="0.812" y1="0.506" x2="1.811" y2="0.506" xlink:href="#linear-gradient-68"/>
    <linearGradient id="linear-gradient-90" x1="-0.367" y1="0.512" x2="0.634" y2="0.512" xlink:href="#linear-gradient-16"/>
    <linearGradient id="linear-gradient-91" x1="-0.362" y1="0.205" x2="-1.366" y2="2.282" xlink:href="#linear-gradient-14"/>
    <linearGradient id="linear-gradient-92" x1="0" y1="0.5" x2="1" y2="0.5" xlink:href="#linear-gradient-13"/>
  </defs>
  <g id="Group_71" data-name="Group 71" transform="translate(-1052 -2014.359)">
    <path id="Path_1849" data-name="Path 1849" d="M193.508,134.934c-17.279,40.684-63.3,63.473-103.219,57.328-6.495-1-24.3-3.979-40.065-18.039C19.877,147.158,13.386,93.568,37.867,55.8c17.818-27.488,49.757-43.066,80.106-42.289,6.538.168,31.591,1.2,53.608,19.358a82.56,82.56,0,0,1,16.8,19.056C203.471,75.531,204.769,108.419,193.508,134.934Z" transform="matrix(0.719, 0.695, -0.695, 0.719, 1169.786, 1988.763)" fill="url(#linear-gradient)"/>
    <g id="culture" transform="translate(1084.989 2056.748)" style="isolation: isolate">
      <g id="Layer_2" data-name="Layer 2" transform="translate(0.011 -0.003)">
        <g id="Illustration">
          <path id="Path_1427" data-name="Path 1427" d="M779.788,853.387l-24.767-1.119-3.606-8.808L735.351,851.6v.014h-.005l-.017-.015a3.063,3.063,0,0,0-1.958,2.918v75.294a2.771,2.771,0,0,0,2.066,2.793l15.835,10.531,3.447-12.951,20.744-2.8s0-.005,0-.008l4.333-.581a3.108,3.108,0,0,0,2.348-3.227v-67.19A2.762,2.762,0,0,0,779.788,853.387Z" transform="translate(-691 -794.729)" fill="url(#linear-gradient-2)"/>
          <path id="Path_1428" data-name="Path 1428" d="M1064.091,845.914v82.733a3.863,3.863,0,0,1-3.082,3.973l-57.078,7.2a3.576,3.576,0,0,1-4.151-3.484V843.626a3.848,3.848,0,0,1,2.658-3.589,4.348,4.348,0,0,1,1.526-.206l57.04,2.407A3.453,3.453,0,0,1,1064.091,845.914Z" transform="translate(-942.019 -791.306)" fill="url(#linear-gradient-3)"/>
          <path id="Path_1429" data-name="Path 1429" d="M1088.052,868.54a2.373,2.373,0,0,0-2.155-2.449l-57.081-2.275a2.5,2.5,0,0,0-2.635,2.531V958.9a2.272,2.272,0,0,0,2.64,2.307l57.093-7.083a2.622,2.622,0,0,0,2.138-2.633Z" transform="translate(-966.893 -813.907)" fill="url(#linear-gradient-4)"/>
          <path id="Path_1430" data-name="Path 1430" d="M1055.337,936.718l-51.481,6.489a3.508,3.508,0,0,1-4.056-3.5V847a3.8,3.8,0,0,1,2.6-3.592c.408.347.824.717,1.224,1.11,3.61,3.554,6.81,9.071,7.247,17.656,1.04,20.472,7.645,22.236,14.423,26.181a20.885,20.885,0,0,1,4.292,3.289,19.688,19.688,0,0,1,3.191,4.192,20.588,20.588,0,0,1,1.659,3.742,22.283,22.283,0,0,1,.735,2.827,28.421,28.421,0,0,1-.254,11.289q-.306,1.437-.747,2.9-.466,1.544-1.083,3.113-.173.439-.294.853a5.322,5.322,0,0,0,.758,5.006c3.77,4.948,16.345,5.465,20.906,10.037A4.919,4.919,0,0,1,1055.337,936.718Z" transform="translate(-942.037 -794.682)" fill="#fff" opacity="0.3" style="mix-blend-mode: soft-light;isolation: isolate"/>
          <path id="Path_1431" data-name="Path 1431" d="M1391.336,1025.275a12.717,12.717,0,1,1-12.422-13.239A12.936,12.936,0,0,1,1391.336,1025.275Z" transform="translate(-1287.005 -953.562)" fill="url(#linear-gradient-5)"/>
          <path id="Path_1432" data-name="Path 1432" d="M1449.068,1086.552a9.1,9.1,0,1,1-8.947-9.472A9.256,9.256,0,0,1,1449.068,1086.552Z" transform="translate(-1348.212 -1014.851)" fill="url(#linear-gradient-6)"/>
          <path id="Path_1433" data-name="Path 1433" d="M1494.747,1135.518a6.2,6.2,0,1,1-6.13-6.46A6.3,6.3,0,0,1,1494.747,1135.518Z" transform="translate(-1396.708 -1063.826)" fill="#fff" style="mix-blend-mode: soft-light;isolation: isolate"/>
          <path id="Path_1434" data-name="Path 1434" d="M1527.186,1170.683a4.126,4.126,0,1,1-4.093-4.3A4.191,4.191,0,0,1,1527.186,1170.683Z" transform="translate(-1431.184 -1098.998)" fill="url(#linear-gradient-5)"/>
          <path id="Path_1435" data-name="Path 1435" d="M1444.816,1087.5a.775.775,0,0,1,0,1.075.73.73,0,0,1-1.05-.017.774.774,0,0,1,0-1.076.73.73,0,0,1,1.05.019Z" transform="translate(-1360.149 -1024.453)" fill="#fff"/>
          <path id="Path_1436" data-name="Path 1436" d="M1710.652,1364.257a.769.769,0,0,1,0,1.046.679.679,0,0,1-.994.012.769.769,0,0,1,0-1.048.679.679,0,0,1,.994-.01Z" transform="translate(-1610.689 -1285.237)" fill="#fff"/>
          <path id="Path_1437" data-name="Path 1437" d="M1710.633,1093.539a.678.678,0,0,1-1-.016.769.769,0,0,1,0-1.048.679.679,0,0,1,.994.019A.768.768,0,0,1,1710.633,1093.539Z" transform="translate(-1610.67 -1029.162)" fill="#fff"/>
          <path id="Path_1438" data-name="Path 1438" d="M1444.816,1367.825a.73.73,0,0,1-1.05.012.774.774,0,0,1,0-1.076.73.73,0,0,1,1.05-.01A.775.775,0,0,1,1444.816,1367.825Z" transform="translate(-1360.149 -1287.582)" fill="#fff"/>
          <path id="Path_1439" data-name="Path 1439" d="M1299.062,1590.453c0,10.186-7.809,19.209-17.755,20.185-10.309,1.011-18.947-6.953-18.947-17.824s8.637-19.946,18.947-20.262C1291.253,1572.249,1299.062,1580.267,1299.062,1590.453Z" transform="translate(-1189.428 -1481.691)" fill="url(#linear-gradient-8)"/>
          <path id="Path_1440" data-name="Path 1440" d="M1384.055,1678.972c0,7.357-5.668,13.822-12.823,14.455-7.337.65-13.433-5.059-13.433-12.768s6.092-14.2,13.433-14.494C1378.387,1665.88,1384.055,1671.616,1384.055,1678.972Z" transform="translate(-1279.354 -1569.893)" fill="url(#linear-gradient-9)"/>
          <path id="Path_1441" data-name="Path 1441" d="M1450.883,1749.989a9.889,9.889,0,0,1-8.8,9.858,8.441,8.441,0,0,1-9.089-8.707,9.855,9.855,0,0,1,9.089-9.88A8.465,8.465,0,0,1,1450.883,1749.989Z" transform="translate(-1350.2 -1640.65)" fill="#fff" style="mix-blend-mode: soft-light;isolation: isolate"/>
          <path id="Path_1442" data-name="Path 1442" d="M1498.13,1800.986a6.573,6.573,0,0,1-5.887,6.559,5.617,5.617,0,0,1-6.013-5.793,6.557,6.557,0,0,1,6.013-6.568A5.626,5.626,0,0,1,1498.13,1800.986Z" transform="translate(-1400.364 -1691.461)" fill="url(#linear-gradient-10)"/>
          <path id="Path_1443" data-name="Path 1443" d="M1378.193,1693.25a1.118,1.118,0,0,1,0,1.56,1.073,1.073,0,0,1-1.533.069,1.119,1.119,0,0,1,0-1.564A1.073,1.073,0,0,1,1378.193,1693.25Z" transform="translate(-1296.824 -1595.148)" fill="#fff"/>
          <path id="Path_1444" data-name="Path 1444" d="M1762.3,2067a1.106,1.106,0,0,1,0,1.5.972.972,0,0,1-1.418.123,1.105,1.105,0,0,1,0-1.5A.971.971,0,0,1,1762.3,2067Z" transform="translate(-1658.87 -1947.342)" fill="#fff"/>
          <path id="Path_1445" data-name="Path 1445" d="M1762.3,1678.7a.965.965,0,0,1-1.418.065,1.106,1.106,0,0,1,0-1.5.964.964,0,0,1,1.418-.058A1.1,1.1,0,0,1,1762.3,1678.7Z" transform="translate(-1658.87 -1580.039)" fill="#fff"/>
          <path id="Path_1446" data-name="Path 1446" d="M1378.193,2100.269a1.079,1.079,0,0,1-1.533.132,1.119,1.119,0,0,1,0-1.564,1.079,1.079,0,0,1,1.533-.127A1.118,1.118,0,0,1,1378.193,2100.269Z" transform="translate(-1296.824 -1977.209)" fill="#fff"/>
          <path id="Path_1447" data-name="Path 1447" d="M1401.516,2280.67a1.622,1.622,0,0,1-1.362,1.624l-21.825,2.494c-.831.094-1.349-.52-1.349-1.366v-1.979a1.606,1.606,0,0,1,1.361-1.69l21.886-2.3a1.192,1.192,0,0,1,1.289,1.326Z" transform="translate(-1297.426 -2145.865)" fill="url(#linear-gradient-11)"/>
          <path id="Path_1448" data-name="Path 1448" d="M763.312,1133.682a1.03,1.03,0,0,1-.621-.347l-.021-.023-.013-.019a1.394,1.394,0,0,1-.307-.873v-3.293a1.054,1.054,0,0,1,.729-1.068l8.053-2.03a1.21,1.21,0,0,1,.31-.039,1.236,1.236,0,0,1,.79.289,1.318,1.318,0,0,1,.482,1.054v4.493a1.158,1.158,0,0,1-1.052,1.2l-8.176.659A.722.722,0,0,1,763.312,1133.682Z" transform="translate(-718.306 -1060.936)" fill="#fff" opacity="0.2" style="mix-blend-mode: soft-light;isolation: isolate"/>
          <path id="Path_1449" data-name="Path 1449" d="M781.728,1141.481v4.433a.369.369,0,0,1-.32.41l-8.127.768a.317.317,0,0,1-.263-.115s-.012-.009-.015-.013a.475.475,0,0,1-.116-.3v-3.332a.368.368,0,0,1,.263-.365l8.106-1.927a.354.354,0,0,1,.34.088A.418.418,0,0,1,781.728,1141.481Z" transform="translate(-728.234 -1075.102)" fill="url(#linear-gradient-12)"/>
          <path id="Path_1450" data-name="Path 1450" d="M265.543,480.253,268.017,482a7.824,7.824,0,0,1,6.109-7.11c6.051-1.679,10.187-3.929,9.12-8.622l-6.326-2.327s-1.033,6.185-5.285,7.275C264.471,473.047,265.543,480.253,265.543,480.253Z" transform="translate(-250.148 -437.136)" fill="url(#linear-gradient-13)"/>
          <path id="Path_1451" data-name="Path 1451" d="M583.069,591.236c-.121-2.265.085-5.1,1.876-6.335,1.754-1.213,3.7.033,6.533-.584,1.853-.4,4.307-1.654,6.782-5.457l4.259,8.591c-4.384,3.228-7.211,3.389-9.045,2.8-2.187-.7-3.276-2.57-5.062-2.263-1.658.285-2.724,2.242-3.378,3.918Z" transform="translate(-549.356 -545.416)" fill="url(#linear-gradient-14)"/>
          <path id="Path_1452" data-name="Path 1452" d="M2238.71,739.3l.491,1.768a4.741,4.741,0,0,1,5.592-1c3.483,1.531,6.285,2.061,7.583-.551L2250.3,736s-2.855,2.507-5.267,1.387A4.9,4.9,0,0,0,2238.71,739.3Z" transform="translate(-2109.37 -693.478)" fill="url(#linear-gradient-15)"/>
          <path id="Path_1453" data-name="Path 1453" d="M1914.11,587.385l.492,1.767a4.74,4.74,0,0,1,5.591-.995c3.483,1.53,6.285,2.06,7.584-.551l-2.077-3.516s-2.856,2.508-5.268,1.387A4.9,4.9,0,0,0,1914.11,587.385Z" transform="translate(-1803.523 -550.344)" fill="url(#linear-gradient-16)"/>
          <path id="Path_1454" data-name="Path 1454" d="M720.905,314.775c-.219-1.2-.3-2.734.571-3.516.856-.767,1.982-.235,3.455-.757a5.973,5.973,0,0,0,3.256-3.381l2.863,4.306c-2.124,2.026-3.626,2.3-4.647,2.114-1.217-.226-1.927-1.152-2.862-.867-.867.266-1.3,1.387-1.54,2.326Z" transform="translate(-679.119 -289.376)" fill="url(#linear-gradient-17)"/>
          <path id="Path_1455" data-name="Path 1455" d="M1839.339,116.234c-.944-1.28.6-4.336,2.461-6.21,3.434-3.455,6.924-1.859,10.06-4.843,1.2-1.144,2.542-3.145,2.918-6.882l6.62,7.649c-.843,5.193-2.637,6.991-4.138,7.659-3.247,1.45-6.446-1.769-11.03-.437a10.561,10.561,0,0,0-5.219,3.742A2.137,2.137,0,0,1,1839.339,116.234Z" transform="translate(-1732.803 -92.621)" fill="url(#linear-gradient-18)"/>
          <path id="Path_1456" data-name="Path 1456" d="M729.949,196.195c1.151-.809,3.012-.987,3.546-.181.485.733-.248,2.1-1.037,2.831-1.194,1.1-3.3,1.468-3.9.674C728,198.775,728.754,197.033,729.949,196.195Z" transform="translate(-686.29 -184.197)" fill="url(#linear-gradient-19)"/>
          <path id="Path_1457" data-name="Path 1457" d="M2214.2,539.48c1.472.7,2.715,2.473,2.207,3.472-.462.908-2.259.949-3.444.57-1.794-.574-3.363-2.484-2.905-3.546C2210.485,538.987,2212.673,538.754,2214.2,539.48Z" transform="translate(-2082.297 -507.912)" fill="url(#linear-gradient-20)"/>
          <path id="Path_1458" data-name="Path 1458" d="M123.319,750c-.008-1.409.871-3.056,1.8-3.049.848.006,1.528,1.377,1.673,2.439.219,1.608-.646,3.561-1.606,3.618C124.293,753.059,123.328,751.459,123.319,750Z" transform="translate(-116.195 -703.795)" fill="url(#linear-gradient-21)"/>
          <path id="Path_1459" data-name="Path 1459" d="M1753.082,150.9c.92-1.066,2.666-1.728,3.364-1.11.635.562.244,2.042-.347,2.937-.893,1.355-2.831,2.256-3.589,1.667C1751.8,153.849,1752.127,152.008,1753.082,150.9Z" transform="translate(-1650.9 -140.915)" fill="url(#linear-gradient-22)"/>
          <path id="Path_1460" data-name="Path 1460" d="M337.662,386.973c1.335-.936,3.49-1.144,4.108-.209.562.85-.289,2.433-1.2,3.278-1.384,1.279-3.821,1.7-4.517.781C335.4,389.962,336.277,387.944,337.662,386.973Z" transform="translate(-316.431 -363.848)" fill="url(#linear-gradient-23)"/>
          <path id="Path_1461" data-name="Path 1461" d="M2179.58,1386.661a3.09,3.09,0,0,0,.965-1.271c.254-.654.075-.945.395-1.354a1.618,1.618,0,0,1,1.8-.488.727.727,0,0,1,.357.283c.253.426-.308,1.165-.755,1.56a6.923,6.923,0,0,1-.834.526,3.458,3.458,0,0,0-1.14,1.444Z" transform="translate(-2053.656 -1303.515)" fill="url(#linear-gradient-24)"/>
          <path id="Path_1462" data-name="Path 1462" d="M2432.993,1343.474a3.1,3.1,0,0,1-1.387-.794c-.49-.5-.438-.841-.892-1.093a1.622,1.622,0,0,0-1.849.254.729.729,0,0,0-.219.4c-.067.492.738.953,1.3,1.141a6.667,6.667,0,0,0,.973.159,3.443,3.443,0,0,1,1.614.887Z" transform="translate(-2288.329 -1263.908)" fill="url(#linear-gradient-25)"/>
          <path id="Path_1463" data-name="Path 1463" d="M2373.839,1363.775c-.248,1.185,1.033,2.239,1.956,3.274,1.854,2.076,3.794,5.781,3.082,8.96a6.915,6.915,0,0,1-3.4,4.506c-1.9.958-3.031.086-5,1.224-.146.084-2.639,1.56-2.712,3.558-.089,2.461,3.53,5.08,6.627,5.28,5.666.367,12.493-7.168,12.174-14.644-.347-8.139-9.091-14.6-11.607-13.5A2.065,2.065,0,0,0,2373.839,1363.775Z" transform="translate(-2230.966 -1283.601)" fill="url(#linear-gradient-26)"/>
          <path id="Path_1464" data-name="Path 1464" d="M2425.983,2845.629l-.2,2.062.961-.174.646-1.937Z" transform="translate(-2285.632 -2681.177)" fill="url(#linear-gradient-27)"/>
          <path id="Path_1465" data-name="Path 1465" d="M2374.039,2187a51.948,51.948,0,0,1-1.1,9.353,41.734,41.734,0,0,0-1.1,5.13c-.4,4.141.939,4.734,1.184,9.414a28.51,28.51,0,0,1-1.644,10.843,29.689,29.689,0,0,1-1.339,3.244c-.473.413-1.2.254-1.964.1-.281-4.688-.632-9.1-.914-13.787q-1.361-10.577-2.722-21.155Z" transform="translate(-2227.836 -2060.646)" fill="url(#linear-gradient-28)"/>
          <path id="Path_1466" data-name="Path 1466" d="M2368.116,2225.081c-.281-4.688-.632-9.1-.914-13.787q-1.36-10.578-2.722-21.155l9.6-3.139c-.007.242-.019.476-.028.714-4.489,3.9-5.367,6.985-5.323,9.091.053,2.554,1.449,3.82,1.177,7.524-.2,2.648-.99,3.115-.99,5.5,0,3.077,1.321,4.807,1.964,6.586.622,1.718.843,4.152-.358,7.614-.157.358-.307.678-.44.952C2369.6,2225.395,2368.88,2225.236,2368.116,2225.081Z" transform="translate(-2227.873 -2060.646)" opacity="0.3" fill="url(#linear-gradient-29)" style="mix-blend-mode: multiply;isolation: isolate"/>
          <path id="Path_1467" data-name="Path 1467" d="M2395.519,2865.608c.455-.564.872-.52.948-.905a.783.783,0,0,0-.41-.8,1.063,1.063,0,0,0-.961.2c-.711.484-.5,1.213-1.172,1.546a1.861,1.861,0,0,0-.578.359c-.095.093-.331.323-.271.478.069.178.5.162.905.148a1.777,1.777,0,0,0,.966-.178C2395.271,2866.249,2395.168,2866.042,2395.519,2865.608Z" transform="translate(-2254.807 -2698.391)" fill="url(#linear-gradient-30)"/>
          <path id="Path_1468" data-name="Path 1468" d="M2418.82,2571.6l1.8.7.524-.824-1.4-.943Z" transform="translate(-2279.074 -2422.028)" fill="url(#linear-gradient-31)"/>
          <path id="Path_1469" data-name="Path 1469" d="M2443.361,2582.662c-.105-.716.208-1-.021-1.31a.778.778,0,0,0-.863-.238c-.4.161-.487.716-.5.841-.127.851.553,1.19.34,1.911a1.831,1.831,0,0,0-.126.666c0,.133.013.462.167.523.178.07.458-.255.723-.565.319-.371.478-.557.524-.83C2443.664,2583.279,2443.443,2583.214,2443.361,2582.662Z" transform="translate(-2300.873 -2431.946)" fill="url(#linear-gradient-32)"/>
          <path id="Path_1470" data-name="Path 1470" d="M2201.555,2130.62a49.57,49.57,0,0,0-4.911,16.225c-.276,2.389-.25,3.866.438,5.35,2.463,5.315,11.06,5.662,12.364,5.7l1.289-2.64a13.194,13.194,0,0,0-4.534-4.99c-1.817-1.143-2.528-.9-2.981-1.666-1.821-3.082,8.007-9.756,6.539-14.2C2209.253,2132.864,2207.3,2131.3,2201.555,2130.62Z" transform="translate(-2069.58 -2007.524)" fill="url(#linear-gradient-33)"/>
          <path id="Path_1471" data-name="Path 1471" d="M2273.422,1702.31c-3.616.621-6.368,1.268-7.6,3.161-1.3,2,.766,3.506,1.329,7.894.859,6.719-3,9.228-1.892,15.993a17.128,17.128,0,0,0,.751,2.926,6.921,6.921,0,0,0,2.856,3.55,17.932,17.932,0,0,0,3.618,1.748c3.666,1.283,5.474.537,10.406.819,8.068.462,9.276,2.8,12.921,1.362,3.684-1.455,6.35-5.384,5.569-7.063-.468-1.006-1.944-.378-4.061-1.613-2.728-1.591-2.27-3.762-4.483-5.626-3.178-2.676-6.24.027-8.955-2.3-2.751-2.354-3.079-8.078-1.91-11.485.764-2.226.778-4.646,1.344-6.93a1.465,1.465,0,0,0-.033-.835c-.451-1.313-2.853-1.564-4.668-1.738A20.778,20.778,0,0,0,2273.422,1702.31Z" transform="translate(-2134.196 -1603.739)" fill="url(#linear-gradient-34)"/>
          <path id="Path_1472" data-name="Path 1472" d="M2295.365,2043.178c-1.117-.745-.512-2.855-2.166-3.975-1.536-1.04-2.733.32-5-.374-2.9-.889-2.751-3.684-5.532-4.575-2-.642-2.6.635-5.489.693a11.456,11.456,0,0,1-9.046-4.186,10.285,10.285,0,0,1-1.892-3.96c-.77,2.488-1.606,4.893-1.01,8.523a17.3,17.3,0,0,0,1.052,3.711,5.136,5.136,0,0,0,1.824,2.279,18.053,18.053,0,0,0,4.352,2.234c3.666,1.283,5.474.537,10.406.819,8.068.462,9.276,2.8,12.92,1.363a10.461,10.461,0,0,0,5.177-4.587C2297.776,2043.459,2296.176,2043.718,2295.365,2043.178Z" transform="translate(-2134.17 -1909.702)" opacity="0.3" fill="url(#linear-gradient-35)" style="mix-blend-mode: multiply;isolation: isolate"/>
          <path id="Path_1473" data-name="Path 1473" d="M2349.945,1597.83a9.807,9.807,0,0,0-1.06,3.183c-.063,1.312,1.418,1.217,1.418,1.217l-.058.827a1.791,1.791,0,0,1-1.171,1.564l-.584.215s3.813.817,5.9-.655l-.6-.058a1.794,1.794,0,0,1-1.61-1.6l-.037-.354S2352.8,1598.074,2349.945,1597.83Z" transform="translate(-2212.807 -1505.516)" fill="url(#linear-gradient-36)"/>
          <path id="Path_1474" data-name="Path 1474" d="M2060.649,1429.32c.566,1.071-.375,2.437-.978,3.687-1.209,2.507-2.053,6.6-.491,9.462a6.919,6.919,0,0,0,4.507,3.393c2.086.4,2.937-.751,5.146-.2.163.041,2.968.774,3.588,2.672.764,2.342-1.992,5.857-4.914,6.9-5.345,1.915-13.984-3.444-15.741-10.718-1.911-7.919,4.713-16.541,7.434-16.182A2.077,2.077,0,0,1,2060.649,1429.32Z" transform="translate(-1932.906 -1345.801)" fill="url(#linear-gradient-37)"/>
          <path id="Path_1475" data-name="Path 1475" d="M2360.668,1552.144c.2-.017.36-.267.5-.192s.126.443,0,.7a.919.919,0,0,1-.358.383,2.408,2.408,0,0,1,.427.967,3.343,3.343,0,0,1-.535,2.157c-.944,2.012.525,5.192,2.138,6.8,1.311,1.306,1.923.781,2.706,1.849,1.523,2.075-.578,4.356.208,7.15,1.2,4.247,7.9,5.51,8.182,5.559l.3.05c3.008.478,7.569,1.2,10.779-1.267a9.367,9.367,0,0,0,3.323-7.895,9.153,9.153,0,0,0-2.578-5.88,8.348,8.348,0,0,0-5.458-2.557c-1.55-.014-1.863.532-3.048.194A6.355,6.355,0,0,1,2374,1557.3c-1.14-1.683-.677-2.043-1.5-2.871-1.608-1.622-3.5-.347-5.212-1.78-1.694-1.411-.672-3.325-2.307-4.547-1.686-1.26-4.911-.82-5.6.681C2358.8,1550.075,2360.062,1552.2,2360.668,1552.144Z" transform="translate(-2222.934 -1457.971)" fill="url(#linear-gradient-38)"/>
          <path id="Path_1476" data-name="Path 1476" d="M2401.706,1487.177a.218.218,0,0,0-.144.014l-3.793,3.528s-.321.1.621,1.387a2.472,2.472,0,0,0,2.375.635,1.3,1.3,0,0,0,1.113-1.167v-4.327C2401.879,1487.215,2401.733,1487.188,2401.706,1487.177Z" transform="translate(-2259.19 -1401.25)" fill="url(#linear-gradient-39)"/>
          <path id="Path_1477" data-name="Path 1477" d="M182.907,2182.36s.851.285.941,1.7c-.139-.013-.462-.005-.462-.005s.058-1.024-.546-1.232A2.316,2.316,0,0,0,182.907,2182.36Z" transform="translate(-172.277 -2056.275)" fill="url(#linear-gradient-40)"/>
          <path id="Path_1478" data-name="Path 1478" d="M129.35,2175.98l.065.779a6.465,6.465,0,0,1,1.4-.257,6.347,6.347,0,0,1,1.768.189.575.575,0,0,0,.1-.236.808.808,0,0,0-.036-.4,5.471,5.471,0,0,0-.871-.241A5.192,5.192,0,0,0,129.35,2175.98Z" transform="translate(-121.877 -2050.031)" fill="url(#linear-gradient-41)"/>
          <path id="Path_1479" data-name="Path 1479" d="M128.639,2180.231c0-.093.008-.211.04-.224s.07.073.088.12a.774.774,0,0,1,.034.219,1.146,1.146,0,0,1-.016.347c-.008.035-.021.089-.04.09s-.029-.033-.049-.1A1.479,1.479,0,0,1,128.639,2180.231Z" transform="translate(-121.207 -2054.057)" fill="url(#linear-gradient-42)"/>
          <path id="Path_1480" data-name="Path 1480" d="M114.94,2183.787c.18.036.618.14.618.14s-.285-.915.253-1.329a.955.955,0,0,0,.011-.309.937.937,0,0,0-.064-.24C115.529,2182.176,115.031,2182.6,114.94,2183.787Z" transform="translate(-108.3 -2055.982)" fill="url(#linear-gradient-43)"/>
          <path id="Path_1481" data-name="Path 1481" d="M49.62,2207.874s.023-.484.79-.476c.12.09.127.485.127.485Z" transform="translate(-46.754 -2079.866)" fill="url(#linear-gradient-44)"/>
          <path id="Path_1482" data-name="Path 1482" d="M34.086,2222.382l2.1,1.239,1.261-4.68-2.08-6.261-.595.169-.908,9.04a.51.51,0,0,0,.222.493Z" transform="translate(-31.904 -2084.843)" fill="url(#linear-gradient-45)"/>
          <path id="Path_1483" data-name="Path 1483" d="M52.324,2218.971l-2.08-6.261-.595.169a12.281,12.281,0,0,1,.25,1.964c.141,2.138.607,2.732.381,4.223-.188,1.24-.6,1.414-.563,2.248a3.35,3.35,0,0,0,1.194,2.247l.154.091Z" transform="translate(-46.782 -2084.871)" opacity="0.3" fill="url(#linear-gradient-46)" style="mix-blend-mode: multiply;isolation: isolate"/>
          <path id="Path_1484" data-name="Path 1484" d="M59.91,2212.71l11.167.117,1.7,9.618-12.044,1.2Z" transform="translate(-56.449 -2084.871)" fill="url(#linear-gradient-47)"/>
          <g id="Group_63" data-name="Group 63" transform="translate(4.747 127.917)" opacity="0.2" style="mix-blend-mode: multiply;isolation: isolate">
            <path id="Path_1485" data-name="Path 1485" d="M92.061,2214.108l-3.686-.038a6.87,6.87,0,0,1-.326.786c-1.675,3.409-5.572,3.846-5.5,4.414.106.848,8.662-.381,8.875.758.1.549-1.667,1.817-3.536,2.315-2.263.6-3.944-.1-5.071,1.214a3.135,3.135,0,0,0-.636,1.32l11.577-1.15Z" transform="translate(-82.18 -2214.07)" fill="url(#linear-gradient-48)"/>
          </g>
          <path id="Path_1486" data-name="Path 1486" d="M53.16,2207.379a.9.9,0,0,0-.508.094.811.811,0,0,0-.112.079l.091-.031a.378.378,0,0,1,.423.166,2.981,2.981,0,0,1,.146.809c.058.589.41,4.254.41,4.254a.55.55,0,0,0,.534.534l10.345-.59a.353.353,0,0,0,.214-.077.482.482,0,0,0,.161-.458l-.511-4.235a.479.479,0,0,0-.443-.423Z" transform="translate(-49.505 -2079.847)" fill="url(#linear-gradient-49)"/>
          <path id="Path_1487" data-name="Path 1487" d="M55.348,2207.346a1.64,1.64,0,0,0-.455.023.471.471,0,0,0-.153.061.448.448,0,0,1,.5.223,3.4,3.4,0,0,1,.146.809c.058.589.41,4.252.41,4.252a.55.55,0,0,0,.534.534l10.451-.275A.356.356,0,0,0,67,2212.9a.483.483,0,0,0,.16-.458l-.622-4.546a.481.481,0,0,0-.443-.423Z" transform="translate(-51.578 -2079.813)" fill="url(#linear-gradient-50)"/>
          <path id="Path_1488" data-name="Path 1488" d="M67.129,2212.438l-.622-4.547a.48.48,0,0,0-.443-.423l-10.746-.122a1.64,1.64,0,0,0-.455.023.471.471,0,0,0-.153.061.448.448,0,0,1,.5.223.737.737,0,0,1,.036.1c1.049.052,2.091.033,3.127.111a17.313,17.313,0,0,1,5.94,1.007,1.646,1.646,0,0,1,.842,1.642c-.116.313-.514.289-.653.7-.146.433.2.726.058,1.03s-.622.168-1.387.4a3.654,3.654,0,0,0-.946.447l4.52-.119a.356.356,0,0,0,.214-.077A.482.482,0,0,0,67.129,2212.438Z" transform="translate(-51.55 -2079.813)" opacity="0.1" fill="url(#linear-gradient-51)" style="mix-blend-mode: multiply;isolation: isolate"/>
          <path id="Path_1489" data-name="Path 1489" d="M155.658,2291.328l-1.309.33-.139.012a.261.261,0,0,1-.266-.271l-.058-1.53a.271.271,0,0,1,.245-.3h.14l1.316.168c.125,0,.231-.071.236.081l.054,1.428C155.882,2291.392,155.783,2291.314,155.658,2291.328Z" transform="translate(-144.995 -2157.291)" fill="url(#linear-gradient-52)"/>
          <path id="Path_1490" data-name="Path 1490" d="M157.339,2291.093l-1.45.131a.261.261,0,0,1-.266-.271l-.058-1.53a.272.272,0,0,1,.245-.3l1.454-.024a.263.263,0,0,1,.237.27l.054,1.428A.271.271,0,0,1,157.339,2291.093Z" transform="translate(-146.578 -2156.848)" fill="url(#linear-gradient-53)"/>
          <path id="Path_1491" data-name="Path 1491" d="M536.309,1341c.05-.251-3.6-2.9-3.6-2.9l.384,4.4S536.149,1341.779,536.309,1341Z" transform="translate(-501.933 -1260.792)" fill="url(#linear-gradient-54)"/>
          <path id="Path_1492" data-name="Path 1492" d="M136.5,2127.521v1.4s-1.03,1.225-.418,2.013a1.616,1.616,0,0,0,2.065.3c1.008-.775-.528-1.964-.153-2.927a2.39,2.39,0,0,0,.231-.917Z" transform="translate(-128.035 -2004.48)" fill="url(#linear-gradient-55)"/>
          <path id="Path_1493" data-name="Path 1493" d="M800.467,1290.108a.147.147,0,0,1-.14.152h0a.147.147,0,0,1-.144-.148l-.054-3.61a.147.147,0,0,1,.14-.153h0a.147.147,0,0,1,.144.149Z" transform="translate(-753.901 -1212.031)" fill="#fff"/>
          <path id="Path_1494" data-name="Path 1494" d="M786.221,1349.991c0,.164-.515.3-1.155.314s-1.164-.115-1.166-.28.515-.3,1.155-.314S786.217,1349.827,786.221,1349.991Z" transform="translate(-738.611 -1271.731)" fill="#fff"/>
          <path id="Path_1495" data-name="Path 1495" d="M772,1205.861l.049,3.278a1.568,1.568,0,0,0,1.591,1.544l.285,0a1.567,1.567,0,0,0,1.541-1.591l-.049-3.277Z" transform="translate(-727.398 -1136.145)" fill="#fff"/>
          <path id="Path_1496" data-name="Path 1496" d="M782.06,1220.75l.036,2.387a1.174,1.174,0,0,1-1.156,1.194h-.071a1.176,1.176,0,0,1-1.194-1.156l-.036-2.387Z" transform="translate(-734.597 -1150.221)" fill="url(#linear-gradient-56)"/>
          <path id="Path_1497" data-name="Path 1497" d="M782.358,1246.667a1.176,1.176,0,0,1-1.128.909h-.071a1.176,1.176,0,0,1-1.194-1.155l-.015-1c.13,0,.334.1.554.529.38.743.477.884.964.852C781.75,1246.782,782.083,1246.689,782.358,1246.667Z" transform="translate(-734.889 -1173.466)" opacity="0.2" fill="url(#linear-gradient-57)" style="mix-blend-mode: multiply;isolation: isolate"/>
          <path id="Path_1498" data-name="Path 1498" d="M785.136,1286.283l-1.255-1.2s.2-2.743-.729-3-2.364-1.05-2.451-.7-.992,2.363.173,3.12,1.834,1.138,1.834,1.138l1.229,2.217Z" transform="translate(-735.204 -1207.268)" fill="url(#linear-gradient-58)"/>
          <path id="Path_1499" data-name="Path 1499" d="M134.3,2478.382a.977.977,0,0,1,.915-.092,1.106,1.106,0,0,1,.545,1.088c-.018.217-.1.411-.994,1.305-.942.944-1.125,1.007-1.259.956-.273-.1-.295-.657-.3-.776-.016-.4.123-.544.552-1.525C134.055,2478.673,134.086,2478.523,134.3,2478.382Z" transform="translate(-125.514 -2335.036)" fill="url(#linear-gradient-59)"/>
          <path id="Path_1500" data-name="Path 1500" d="M164.032,2476.27l-1.271.59c-.05.354.029.535.206.583l1.4-.214Z" transform="translate(-153.344 -2333.204)" fill="url(#linear-gradient-60)"/>
          <path id="Path_1501" data-name="Path 1501" d="M611.2,2794.042a.978.978,0,0,1-.217-.893,1.105,1.105,0,0,1,1-.69c.218-.012.421.044,1.43.8,1.067.8,1.156.975,1.122,1.115-.065.285-.61.383-.728.4-.391.071-.556-.046-1.586-.336C611.522,2794.248,611.368,2794.238,611.2,2794.042Z" transform="translate(-575.65 -2631.124)" fill="url(#linear-gradient-61)"/>
          <path id="Path_1502" data-name="Path 1502" d="M616.91,2779.59l.132,1.394c.318.166.515.152.619,0l.266-1.394Z" transform="translate(-581.269 -2619)" fill="url(#linear-gradient-62)"/>
          <path id="Path_1503" data-name="Path 1503" d="M203.644,2092.09q-6.519.2-13.036.4a30.948,30.948,0,0,0-2.287,7.438c-.588,3.413-.292,5.212-.633,10.492-6.813-2.225-11.378,3.792-11.378,3.792s-.481,1.75.382,1.545a52.2,52.2,0,0,1,10.506-.154c2.826.231,5.268.485,5.865.492,1.5.014,4.108-15.946,4.19-16.445a.048.048,0,0,0,0-.012c.478,2.12.952,4.6,1.325,7.382a80.767,80.767,0,0,1,.693,8.183c.138,4.486-.254,5.016-.07,7.817a29.959,29.959,0,0,0,2.22,9.366c.478-.031.957-.058,1.435-.089a110.036,110.036,0,0,0,.787-40.214Z" transform="translate(-165.998 -1971.22)" fill="url(#linear-gradient-63)"/>
          <path id="Path_1504" data-name="Path 1504" d="M184.43,1362.06a7,7,0,0,1-1.413,2.074,7.081,7.081,0,0,1-2.818,1.759c-1.53.51-4.834,1.236-10.253.627a44.909,44.909,0,0,0-3.744,17.269c-.021,2.791.249,5.28.1,7.234a4.5,4.5,0,0,1-1.574,3.571,2.745,2.745,0,0,1-1.769.523c-1.15,0-2.843-.332-6.09-.462v-.021c-.14,0-.276-.031-.418-.034h-.092c-5.72-.109-6.853.763-8.056.13a2.529,2.529,0,0,1-.353-.226c-1.437-1.079-1.583-2.959-1.432-12.181q.025-1.437.058-3.12c.01-.623.025-1.369.042-2.216.023-1.155.05-2.509.079-4.014a.463.463,0,0,0,0-.058c-.054.042-.109.084-.163.128h0c-.077.058-.153.121-.231.182s-.146.115-.22.173c-.039.034-.081.065-.121.1-.116.094-.231.186-.343.28-.063.052-.128.1-.191.159-.046.037-.09.075-.133.115s-.081.067-.121.1l-.324.279c-.125.111-.251.221-.372.33-.065.058-.125.115-.188.173-.09.081-.177.161-.263.243l-.163.152c-.132.125-.261.248-.385.372-.025.023-.046.046-.069.069-.119.12-.239.239-.351.356-.021.021-.04.083-.061.1a2.194,2.194,0,0,0-.385.446h0a14.649,14.649,0,0,0-3.721,6.244c-.159.608-.527,2.248-1.24,4.818-.625,2.248-1.2,4.062-1.6,5.273l-1.942-.353c-.389-2.461-3.171-21.581,7.7-29.817,5.909-4.478,14.65-4.824,18.928-4.994a49.8,49.8,0,0,1,6.009.148h.027c3.824.3,7.113.79,12.082.1a.41.41,0,0,0,.044-.1c.546-1.855-5.369-8.666-5.369-8.666l2.416-2.389s6.318,4.407,8.516,9.41c.077.173.144.351.2.527a7.074,7.074,0,0,1-.222,5.183Z" transform="translate(-125.783 -1269.121)" fill="url(#linear-gradient-64)"/>
          <path id="Path_1505" data-name="Path 1505" d="M478.333,1456.065h-.018c-.152-.289-1.271-.44-2.16-.851-1.213-.56-1.742-3.065-1.433-4.16s-1.808-1.654-1.808-1.654a12.516,12.516,0,0,1-1.007,3.5c-.681,1.329-3.748,1.954-4.38,2.212-.119.049-.156.125-.127.219h-.01l.017.017a1.2,1.2,0,0,0,.459.447,10.825,10.825,0,0,0,5.394,2.881c2.823-1.213,4.519-1.512,4.977-2.369.084-.082.109-.152.087-.216A.172.172,0,0,0,478.333,1456.065Z" transform="translate(-440.387 -1365.661)" fill="url(#linear-gradient-65)"/>
          <path id="Path_1506" data-name="Path 1506" d="M548.74,1599.977s.374,1.956.957,1.995a9.863,9.863,0,0,1,1.011.116l.653-2.437A4.432,4.432,0,0,1,548.74,1599.977Z" transform="translate(-517.037 -1507.23)" fill="url(#linear-gradient-66)"/>
          <path id="Path_1507" data-name="Path 1507" d="M465.11,1637s-1.3,14.576-5.85,16.91c.116.467,0,4.26,0,4.26s4.242-1.277,4.484-1.193,5.138-8.031,2.654-19.7Z" transform="translate(-432.727 -1542.423)" fill="url(#linear-gradient-67)"/>
          <path id="Path_1508" data-name="Path 1508" d="M541.568,1391.033a2.062,2.062,0,0,0-.659-2.508,2.275,2.275,0,0,0-1.791-.168c-.231.046-1.861.389-2.234,1.6a1.979,1.979,0,0,0,.1,1.285,4.927,4.927,0,0,0,.622.924c.325.419.3.4.4.527a6.824,6.824,0,0,0,1.513,1.333,4.713,4.713,0,0,1,.187-.809,4.216,4.216,0,0,1,.459-.974C540.716,1391.437,541.247,1391.579,541.568,1391.033Z" transform="translate(-505.806 -1308.046)" fill="url(#linear-gradient-68)"/>
          <path id="Path_1509" data-name="Path 1509" d="M549.717,1428.931a2.586,2.586,0,0,0,2.38.924c1.345-.218,1.251-3.273.325-3.834a1.718,1.718,0,0,0-1.353-.044c-.27.1-.352.231-.8.391-.41.15-.533.115-.649.231-.146.149-.231.488.12,1.349a.739.739,0,0,0-.813-.182.458.458,0,0,0-.163.193C548.611,1428.328,548.97,1428.741,549.717,1428.931Z" transform="translate(-517.028 -1343.482)" fill="url(#linear-gradient-69)"/>
          <path id="Path_1510" data-name="Path 1510" d="M560.51,1449.06a6.636,6.636,0,0,0,.893,1.313,1.657,1.657,0,0,0,1.733.023,5.926,5.926,0,0,0,1.086-.738s.285,1.472.112,1.654a4.7,4.7,0,0,1-1.83.914,3.136,3.136,0,0,1-1.482-1.236,11.343,11.343,0,0,1-.462-1.622Z" transform="translate(-528.127 -1365.341)" fill="url(#linear-gradient-70)"/>
          <path id="Path_1511" data-name="Path 1511" d="M377.858,1813.339a4.5,4.5,0,0,1-1.574,3.571,2.744,2.744,0,0,1-1.769.523c-1.15,0-2.843-.332-6.09-.462v-.021c-.14,0-.276-.031-.418-.034h-.092c-5.72-.109-6.853.763-8.056.129a2.54,2.54,0,0,1-.353-.226c-1.437-1.079-1.583-2.958-1.432-12.181q.025-1.437.058-3.12c.01-.623.025-1.369.042-2.216.023-1.156.05-2.509.079-4.014a1.324,1.324,0,0,1,1.907.846c.556,1.6-1.359,4.218,0,6.273s3.379,4.008,2.889,6.933,4.738,6.1,8.4,3.937C374.549,1811.447,377.072,1811.722,377.858,1813.339Z" transform="translate(-337.343 -1691.435)" opacity="0.3" fill="url(#linear-gradient-71)" style="mix-blend-mode: multiply;isolation: isolate"/>
          <path id="Path_1512" data-name="Path 1512" d="M1629.673,264.739c-.106-.737-1.171-.462-1.171-.462a3.212,3.212,0,0,0,0-1.657c-.219-.425-.663,1.383-.834,2.131a1.252,1.252,0,0,0,.013.609l.43,1.566c.05.475,1.213.178,1.213.178a3.227,3.227,0,0,1,0-.867A2.481,2.481,0,0,0,1629.673,264.739Z" transform="translate(-1533.602 -247.387)" fill="url(#linear-gradient-72)"/>
          <path id="Path_1513" data-name="Path 1513" d="M955.926,211.8c.693-.44.075-1.743.058-4.53-.018-3.384.878-4.062.173-5.389-1.023-1.935-3.875-2.294-4.6-2.384-2.131-.268-2.516.525-6.274,1.025-3.409.454-3.929-.088-5.286.688-2.059,1.173-1.564,2.806-3.315,4.3-3.038,2.6-6.948-.247-9.331,1.829-2.178,1.9-1.726,6.734-.012,9.841,4.1,7.443,17.12,8,18.965,4.833.992-1.7-1.634-3.807-.253-6.653.857-1.766,2.573-2.286,4.3-4.2a1.538,1.538,0,0,1,.956-.55,1.656,1.656,0,0,1,1.112.4C953.451,211.746,955.247,212.236,955.926,211.8Z" transform="translate(-872.389 -187.923)" fill="url(#linear-gradient-73)"/>
          <path id="Path_1514" data-name="Path 1514" d="M1411.541,334.328s3.891.343,7.3,4.8,4.5.5,4.622-.662.568-4.83.568-4.83l1.865-.347s1.379,6.106,0,9.937-7.129,5.686-11.289-.968S1411.541,334.328,1411.541,334.328Z" transform="translate(-1329.867 -314.034)" fill="url(#linear-gradient-74)"/>
          <path id="Path_1515" data-name="Path 1515" d="M1697.959,1201.9l-1.1-2.376a2.048,2.048,0,0,0-.708-.836l-.549-.374s-1.319-.046-1.531.782c-.053,1.053,1.975,3.421,3.262,4.366.214.157.52.366.706.261C1698.36,1203.544,1698.146,1202.574,1697.959,1201.9Z" transform="translate(-1596.199 -1129.08)" fill="url(#linear-gradient-75)"/>
          <path id="Path_1516" data-name="Path 1516" d="M1703.608,1176.07a2.186,2.186,0,0,0,.271,1.844c.167.21,1.516,2.474.952,2.834-.255.162-1.974-2.008-2.138-2.34-.15-.3-.25-.231-.252-1.046a4.243,4.243,0,0,0-.191-1.24Z" transform="translate(-1603.903 -1108.123)" fill="url(#linear-gradient-76)"/>
          <path id="Path_1517" data-name="Path 1517" d="M1723.857,1025.212a4.614,4.614,0,0,1,1.008,3.094c-.214,1.612-2.355-.764-2.65-1.564s-.635-1.938-.635-1.938S1723.1,1023.874,1723.857,1025.212Z" transform="translate(-1622.117 -965.3)" fill="url(#linear-gradient-77)"/>
          <path id="Path_1518" data-name="Path 1518" d="M1733.064,997.09a4.172,4.172,0,0,0,.282,2.622c.314.454.74.839.611,1.205a.68.68,0,0,1-.68.389c-.52-.058-.8-.857-1-1.422a14.771,14.771,0,0,1-.447-2.613Z" transform="translate(-1631.775 -939.483)" fill="url(#linear-gradient-78)"/>
          <path id="Path_1519" data-name="Path 1519" d="M1588.943,732.69l1.142-.4a12.826,12.826,0,0,0,1.123-6.262c-.565-6.945-6.955-10.674-7.665-11.073-1.756.867-3.537,2.087-3.614,3.647-.1,1.959,2.564,3.015,5.05,5.9A18.5,18.5,0,0,1,1588.943,732.69Z" transform="translate(-1488.647 -673.644)" fill="url(#linear-gradient-79)"/>
          <path id="Path_1520" data-name="Path 1520" d="M1256.634,668.534a27.67,27.67,0,0,0,.66-11.19c-.52-3.483-1.574-10.569-6.278-13.245a18.079,18.079,0,0,1-4.283-2.729,15.239,15.239,0,0,1-3-3.76c-6.3-1.907-12.138-1.2-14.737,2.17a4.914,4.914,0,0,0-1.2,2.484c-.347,2.823,2.4,6.247,5.512,6.983,3.952.934,3.071-.971,6.568.41.978.386,5.6.564,7.252,2.453a20,20,0,0,1,3.125,4.12c1.32,2.634,2.321,4.579,2.449,7.089a6.786,6.786,0,0,0,.716,3.045,6.338,6.338,0,0,0,1.752,2.047Z" transform="translate(-1156.825 -599.792)" fill="url(#linear-gradient-80)"/>
          <path id="Path_1521" data-name="Path 1521" d="M1227.835,642.275a4.919,4.919,0,0,1,1.2-2.484c2.6-3.369,8.435-4.074,14.737-2.17a15.24,15.24,0,0,0,3,3.761,18.056,18.056,0,0,0,4.283,2.729c2.872,1.634,4.383,4.911,5.243,8.01-1.3-2.046-2.416-2.6-3.286-2.612-1.245-.024-1.809,1.036-3.293.879-1.587-.168-1.94-1.484-3.226-1.645a34.252,34.252,0,0,0-5.659.773c-.754-.8,2.911-1.744,2.286-1.99-3.5-1.381-5.826,2.667-9.779,1.733C1230.238,648.522,1227.488,645.1,1227.835,642.275Z" transform="translate(-1156.87 -599.803)" opacity="0.3" fill="url(#linear-gradient-81)" style="mix-blend-mode: multiply;isolation: isolate"/>
          <path id="Path_1522" data-name="Path 1522" d="M1237.46,704.973a20.844,20.844,0,0,0-3.145.046c-6.31.573-5.3,2.581-10.52,3.3-1.234.17-10.06.612-11.85-1.167-2.022-2.006-1.4-6.214.48-7.742.8-.647,1.577-.623,6.637-.537,1.906.032,3.813.054,5.716.093,8.064.166,9.611-.38,11.068.966C1236.521,700.561,1237.512,701.906,1237.46,704.973Z" transform="translate(-1140.746 -658.456)" fill="url(#linear-gradient-82)"/>
          <path id="Path_1523" data-name="Path 1523" d="M1175,345.588s-6.352-1.907-9.18,1.244a5.611,5.611,0,0,0-1.24,2.819c-1.569,7.525,4.1,12.1,1.823,16.057-.905,1.571-2.484,2.035-3.622,4.864-.193.479-.891,2.211-.268,2.764.549.486,1.467-.525,3.081-.315,1.709.222,2.1,1.54,3.252,1.357.751-.119,1.08-.757,2.2-2.346,1.618-2.3,2.426-3.451,3-3.852,2.277-1.582,4.01.52,6.6-1.046a27.447,27.447,0,0,0,3.409-3.781h0a12.108,12.108,0,0,1-2.989-7.28c-.048-1.9.507-2.764.04-5.017a11.264,11.264,0,0,0-2.456-4.684C1178.379,346.06,1178.047,345.735,1175,345.588Z" transform="translate(-1095.107 -325.083)" fill="url(#linear-gradient-83)"/>
          <path id="Path_1524" data-name="Path 1524" d="M1301.4,283.16c.083.4.5,2.568-.384,3.12a4.694,4.694,0,0,1-1.3.317c-.483.087-.888.139-1.174.173a2.962,2.962,0,0,0,.57,1.493c1.16,1.514,3.514,1.143,3.85,1.084a8.828,8.828,0,0,0,2.634-.783,5.974,5.974,0,0,0,.97-.847,16.737,16.737,0,0,0-1.994-1.011,11.552,11.552,0,0,0-1.291-.328l-.185-1.254Z" transform="translate(-1223.518 -266.8)" fill="url(#linear-gradient-84)"/>
          <path id="Path_1525" data-name="Path 1525" d="M1340.356,259.244a2.157,2.157,0,0,0,1.685,1.877c1.377.261,2.441-3.062,1.742-3.929a1.839,1.839,0,0,0-1.315-.557,2.052,2.052,0,0,0-1.733,1.649c-.236-.253-.533-.327-.68-.223-.187.132-.091.52-.069.608A1.119,1.119,0,0,0,1340.356,259.244Z" transform="translate(-1262.528 -241.808)" fill="url(#linear-gradient-85)"/>
          <path id="Path_1526" data-name="Path 1526" d="M1184.062,526.616c-.289-.366-.549-.724-.787-1.075a12.654,12.654,0,0,0-3.423-.687c-2.1-.119-3.262.367-4.688-.506-1.618-.992-1.32-2.349-2.884-3.12-1.646-.809-2.822.081-4.409-.223-.958-.183-2.123-.835-3.3-2.715.878,4.516,3.51,7.766,1.83,10.682-.905,1.571-2.484,2.035-3.622,4.864-.193.479-.891,2.211-.268,2.764.55.486,1.467-.525,3.081-.315,1.71.222,2.1,1.54,3.252,1.357.751-.119,1.08-.757,2.2-2.346,1.618-2.3,2.427-3.451,3-3.852,2.277-1.582,4.01.52,6.6-1.046A27.539,27.539,0,0,0,1184.062,526.616Z" transform="translate(-1095.107 -488.346)" opacity="0.3" fill="url(#linear-gradient-86)" style="mix-blend-mode: multiply;isolation: isolate"/>
          <path id="Path_1527" data-name="Path 1527" d="M1322.067,676.06l-14.41.587a.6.6,0,0,0-.486.28l-.4.635a.468.468,0,0,0,.41.718l15.262-.462Z" transform="translate(-1231.2 -637.001)" fill="url(#linear-gradient-87)"/>
          <path id="Path_1528" data-name="Path 1528" d="M1487.865,539.28l-14.884.173a1.248,1.248,0,0,0-1.066.619l-5.225,9.026,15.722-.5a1.278,1.278,0,0,0,1.051-.612l4.838-7.938a.5.5,0,0,0-.435-.766Z" transform="translate(-1381.953 -508.123)" fill="url(#linear-gradient-88)"/>
          <path id="Path_1529" data-name="Path 1529" d="M1471.915,542.777a1.248,1.248,0,0,1,1.067-.623l.326,0a2.31,2.31,0,0,0,.48,1.279c.909,1.115,2.439.444,3.566,1.625,1.237,1.3.073,2.821,1.179,4.029,1.165,1.271,3.072.258,5.25,1.083l-.319.52a1.276,1.276,0,0,1-1.052.613l-15.722.5Z" transform="translate(-1381.953 -510.827)" fill="url(#linear-gradient-89)" style="mix-blend-mode: multiply;isolation: isolate"/>
          <path id="Path_1530" data-name="Path 1530" d="M1095.935,378.413q.289-.74.574-1.481c-2.067-.585-4.926-1.444-7.857-2.52-.459-.168-1-.376-1.179-.862-.492-1.363,2.715-2.746,3.98-5.7,1.171-2.735.569-6.548-.761-7.009-2.767-.958-12.7,11.208-9.23,16.4C1083.425,380.173,1089.545,380.687,1095.935,378.413Z" transform="translate(-1018.296 -339.94)" fill="url(#linear-gradient-90)"/>
          <path id="Path_1531" data-name="Path 1531" d="M1342.451,635.536a3.644,3.644,0,0,1,2.958.088,3.876,3.876,0,0,1,1.115.813c.047.065.606.852.4,1.1-.167.2-.8.028-1.566-.455a5.951,5.951,0,0,0-1.373-.044c-1.054.089-1.539.418-1.919.128a.949.949,0,0,1-.267-.987A1.182,1.182,0,0,1,1342.451,635.536Z" transform="translate(-1264.237 -598.544)" fill="url(#linear-gradient-91)"/>
          <path id="Path_1532" data-name="Path 1532" d="M1331.694,154.4l-2.756-3.226-1.16,3.973a.334.334,0,0,0,.2.408,3.621,3.621,0,0,0,3.673-.68.336.336,0,0,0,.04-.474Z" transform="translate(-1251.054 -142.436)" fill="url(#linear-gradient-92)"/>
          <path id="Path_1533" data-name="Path 1533" d="M1978.17,1087.249a.878.878,0,0,1,.238-.632,10.613,10.613,0,0,0-.5-14.983.883.883,0,1,1,1.207-1.29,12.285,12.285,0,0,1,3.908,8.618h0a12.283,12.283,0,0,1-3.322,8.861.883.883,0,0,1-1.528-.574Z" transform="translate(-1863.369 -1008.28)" fill="#fff"/>
          <path id="Path_1534" data-name="Path 1534" d="M1936.233,1126.878a.881.881,0,0,1,.238-.635,7.076,7.076,0,0,0-.335-9.989.883.883,0,0,1,1.207-1.29,8.84,8.84,0,0,1,.419,12.485.883.883,0,0,1-1.528-.574Z" transform="translate(-1824.012 -1050.322)" fill="#fff"/>
          <path id="Path_1535" data-name="Path 1535" d="M1894.295,1166.554a.881.881,0,0,1,.238-.635,3.538,3.538,0,0,0-.167-4.995.883.883,0,1,1,1.207-1.29,5.307,5.307,0,0,1,.251,7.491.883.883,0,0,1-1.528-.574Z" transform="translate(-1784.655 -1092.411)" fill="#fff"/>
          <path id="Path_1536" data-name="Path 1536" d="M1118.643,1109.924a.876.876,0,0,0-.238-.636,10.613,10.613,0,0,1,.5-14.983.883.883,0,1,0-1.207-1.291,12.282,12.282,0,0,0-3.908,8.619h0a12.28,12.28,0,0,0,3.321,8.861.883.883,0,0,0,1.528-.574Z" transform="translate(-1049.438 -1029.642)" fill="#fff"/>
          <path id="Path_1537" data-name="Path 1537" d="M1178.824,1149.617a.881.881,0,0,0-.238-.635,7.075,7.075,0,0,1,.336-9.988.883.883,0,1,0-1.207-1.29,8.839,8.839,0,0,0-.419,12.485.883.883,0,0,0,1.528-.574Z" transform="translate(-1107.037 -1071.748)" fill="#fff"/>
          <path id="Path_1538" data-name="Path 1538" d="M1239.023,1189.254a.881.881,0,0,0-.237-.635,3.538,3.538,0,0,1,.168-4.995.883.883,0,1,0-1.207-1.29,5.305,5.305,0,0,0-.251,7.491.883.883,0,0,0,1.528-.574Z" transform="translate(-1164.655 -1113.8)" fill="#fff"/>
        </g>
      </g>
    </g>
  </g>
</svg>
